<svg xmlns="http://www.w3.org/2000/svg" width="3951" height="1019" viewBox="0 0 3951 1019" fill="none"><path d="M405.803 268.762C447.585 321.791 464.86 380.044 456.022 445.527C447.183 510.608 414.24 562.433 361.208 601.401C369.645 608.632 378.885 615.863 386.92 623.496C434.729 669.294 458.834 725.537 458.432 791.422C457.629 904.31 374.868 999.119 262.778 1015.99C139.842 1034.87 22.5299 948.903 3.24569 825.972C1.23692 813.92 0.835183 801.867 0.43343 789.413C0.0316767 766.113 18.5125 748.035 41.4124 748.035C63.9106 748.035 81.5876 766.112 82.3911 789.011C83.9982 845.254 108.505 888.642 157.519 916.763C247.914 968.989 364.02 908.729 374.466 805.081C383.304 717.502 315.81 642.78 227.022 642.78C112.924 642.78 15.2983 555.603 1.63864 442.715C-12.8245 320.587 69.9368 209.306 191.266 189.219C204.122 187.21 216.978 186.406 229.835 186.004C297.329 185.603 364.422 185.603 431.916 186.004C453.611 186.004 469.681 197.655 474.904 216.537C482.136 243.051 462.852 268.36 435.131 268.762C426.694 268.762 417.052 268.762 405.803 268.762ZM375.671 414.192C375.671 334.246 310.185 268.762 230.638 268.762C149.484 268.762 83.9981 333.442 83.5964 414.593C83.1946 494.136 149.886 561.227 229.835 560.825C310.185 560.424 375.671 494.539 375.671 414.192Z" fill="url(#paint0_linear_319_2)"></path><path d="M805.145 653.624C763.363 653.624 724.393 643.179 689.44 622.691C654.086 602.202 625.963 573.679 605.072 538.326C584.181 502.973 573.735 464.004 573.735 422.223C573.735 380.443 584.181 341.475 605.072 306.122C625.963 270.769 654.488 242.246 689.44 221.757C724.393 201.269 763.363 190.824 805.145 190.824C846.927 190.824 885.897 202.072 916.832 224.168L942.545 242.647V6.42578H1036.15V422.625C1036.15 464.406 1025.71 503.374 1005.22 539.129C984.729 574.482 956.204 603.005 921.252 623.494C885.897 643.179 846.927 653.624 805.145 653.624ZM804.342 280.009C764.568 280.009 731.223 293.668 705.109 320.986C678.995 347.903 666.138 382.05 666.138 422.223C666.138 462.397 679.396 496.144 705.109 523.462C731.223 550.78 764.568 564.438 804.342 564.438C844.115 564.438 877.461 550.78 904.378 523.462C931.296 496.545 944.554 462.397 944.554 422.223C944.554 382.05 930.894 347.903 904.378 320.986C877.461 293.668 843.714 280.009 804.342 280.009Z" fill="#414042"></path><path d="M1479.29 653.626C1443.53 653.626 1410.19 647.6 1380.05 635.547C1350.73 623.897 1327.42 606.623 1309.75 583.724C1295.69 565.244 1287.25 543.952 1284.84 519.446H1375.23C1379.25 531.498 1388.09 544.755 1407.37 555.602C1427.06 566.851 1452.37 572.476 1482.1 572.476C1511.83 572.476 1533.52 567.253 1550.4 556.807C1574.5 541.943 1579.32 522.258 1579.32 508.599C1579.32 487.307 1567.27 470.836 1544.77 462.399C1527.9 455.971 1502.19 449.946 1466.03 443.92C1428.26 437.492 1396.53 430.26 1372.02 422.225C1349.12 414.994 1329.43 402.139 1312.56 384.462C1296.89 367.589 1288.86 342.682 1288.86 310.543C1288.86 286.037 1296.49 264.344 1312.16 244.659C1328.23 224.572 1350.73 208.1 1378.85 196.45C1407.37 184.398 1439.92 178.371 1475.67 178.371C1530.71 178.371 1576.11 191.629 1610.26 217.742C1639.59 239.837 1655.66 269.164 1659.27 306.525H1568.48C1564.46 295.678 1556.02 284.028 1538.75 274.387C1520.27 263.942 1498.57 258.317 1474.06 258.317C1449.56 258.317 1429.47 263.54 1413 273.584C1388.89 288.046 1383.67 306.928 1383.67 320.185C1383.67 331.032 1388.09 350.717 1417.02 362.367C1433.49 368.795 1457.99 374.419 1492.14 380.044C1529.91 386.471 1562.05 393.703 1587.36 401.738C1610.66 408.969 1631.55 421.824 1649.23 439.902C1665.7 456.775 1674.14 480.076 1674.14 511.411C1674.54 558.816 1658.07 592.964 1623.92 616.265C1588.16 641.173 1539.55 653.626 1479.29 653.626Z" fill="#414042"></path><path d="M2075.49 207.295C2110.84 227.783 2138.97 256.307 2159.86 291.66C2180.75 327.013 2191.19 365.982 2191.19 407.762C2191.19 449.543 2180.75 488.511 2159.86 523.863C2138.97 559.216 2110.44 587.74 2075.49 608.228C2040.54 628.717 2001.57 639.162 1959.78 639.162C1918 639.162 1879.03 627.914 1848.1 605.818L1822.38 587.339V823.56H1728.78V407.36C1728.78 365.58 1739.22 326.611 1759.71 290.857C1780.2 255.504 1808.73 226.98 1843.68 206.492C1878.63 186.003 1917.6 175.559 1959.38 175.559C2001.57 176.362 2040.54 186.806 2075.49 207.295ZM2059.82 508.999C2085.94 482.083 2098.79 447.936 2098.79 407.762C2098.79 367.589 2085.53 333.842 2059.82 306.524C2033.71 279.206 2000.36 265.547 1960.59 265.547C1920.81 265.547 1887.47 279.206 1860.55 306.524C1833.63 333.44 1820.38 367.589 1820.38 407.762C1820.38 447.936 1834.04 482.083 1860.55 508.999C1887.47 536.318 1920.81 549.976 1960.59 549.976C2000.36 549.976 2033.71 535.916 2059.82 508.999Z" fill="#414042"></path><path d="M2611.83 598.589V645.993H2707.85V414.192C2707.85 371.206 2697 331.434 2676.11 294.876C2654.82 258.318 2625.89 229.393 2590.14 208.101C2554.38 187.211 2514.2 176.363 2471.62 176.363C2428.63 176.363 2388.86 186.809 2353.1 208.101C2316.94 229.393 2288.02 258.318 2266.32 294.876C2245.03 331.032 2234.18 371.206 2234.18 413.79C2234.18 456.374 2245.03 496.547 2266.32 532.703C2287.61 569.261 2316.94 598.187 2353.1 619.479C2388.86 640.369 2429.03 651.216 2471.62 651.216C2514.2 651.216 2554.38 639.566 2586.12 617.068L2611.83 598.589ZM2470.41 559.62C2429.84 559.62 2395.69 545.559 2369.17 517.839C2342.66 490.119 2329 455.57 2329 414.593C2329 373.616 2342.25 338.665 2369.17 311.347C2396.09 283.628 2429.84 269.566 2470.41 269.566C2510.99 269.566 2545.14 283.628 2572.86 311.347C2600.18 339.067 2614.24 374.018 2614.24 414.995C2614.24 455.972 2600.58 490.923 2572.86 518.642C2545.54 545.559 2510.99 559.62 2470.41 559.62Z" fill="#414042"></path><path d="M2996.71 648.403C2942.47 645.591 2899.49 628.316 2866.54 595.374C2830.79 560.021 2812.71 504.18 2812.71 429.858V278.404H2739.99V186.406H2812.71V7.63281H2907.92V186.406H2996.71V278.404H2907.92V429.858C2907.92 473.648 2915.96 504.581 2932.43 525.07C2946.89 542.746 2968.19 553.192 2996.71 556.004V648.403Z" fill="#414042"></path><path d="M3265.48 653.625C3222.5 653.625 3182.72 642.777 3146.16 621.887C3109.6 600.595 3080.68 571.67 3059.38 535.112C3038.49 498.554 3027.65 458.782 3027.65 415.796C3027.65 372.81 3038.49 333.038 3059.38 296.48C3080.68 259.922 3109.6 230.998 3146.16 209.706C3182.72 188.816 3222.5 177.969 3265.48 177.969C3319.32 177.969 3367.93 194.439 3409.71 226.176C3445.47 253.494 3471.58 288.445 3487.25 329.021H3382.8C3370.74 312.148 3355.48 298.087 3337 287.642C3315.7 275.59 3292 269.565 3266.29 269.565C3225.71 269.565 3191.56 283.626 3163.84 311.346C3136.52 339.065 3122.46 374.016 3122.46 414.993C3122.46 455.97 3136.12 490.921 3163.84 518.641C3191.16 546.36 3225.71 560.421 3266.29 560.421C3290.79 560.421 3312.89 554.797 3332.98 544.352C3350.25 535.112 3365.52 522.257 3377.97 506.589H3485.24C3469.17 545.959 3443.46 579.303 3408.11 605.818C3366.73 637.957 3318.92 653.625 3265.48 653.625Z" fill="#414042"></path><path d="M3856.06 645.991V403.342C3856.06 359.151 3848.03 327.012 3831.55 305.318C3814.28 282.419 3786.96 270.77 3750.8 270.77C3714.64 270.77 3687.32 282.419 3670.05 305.318C3653.58 327.012 3645.54 359.151 3645.54 403.342V645.991H3550.33V7.23047H3645.54V217.338L3671.25 200.064C3692.55 185.601 3719.46 178.369 3750.8 178.369C3812.27 178.369 3860.08 196.448 3896.64 233.809C3932.8 270.769 3950.87 327.816 3950.87 402.941V645.991H3856.06Z" fill="#414042"></path><path d="M1122.53 645.992V186.003H1216.94V645.992H1122.53ZM1169.54 119.316C1152.26 119.316 1138.2 113.691 1126.55 102.04C1114.9 90.3898 1109.27 76.33 1109.27 59.0553C1109.27 41.7806 1114.9 28.9247 1126.55 17.2744C1138.2 5.62402 1152.26 0 1169.54 0C1186.81 0 1199.67 5.62402 1211.32 17.2744C1222.97 28.9247 1228.59 42.5841 1228.59 59.0553C1228.59 75.5265 1222.97 90.3898 1211.32 102.04C1200.07 113.691 1186.41 119.316 1169.54 119.316Z" fill="#414042"></path><defs><linearGradient id="paint0_linear_319_2" x1="0.935573" y1="602.131" x2="477.455" y2="602.131" gradientUnits="userSpaceOnUse"><stop stop-color="#001CF0"></stop><stop offset="1" stop-color="#006CF0"></stop></linearGradient></defs></svg>