<svg xmlns="http://www.w3.org/2000/svg" width="126" height="39" viewBox="0 0 126 39" fill="none"><path d="M28.5859 24.2157V17.7042C28.5859 15.7079 29.0689 14.2072 30.0356 13.2006C31.0022 12.1947 32.2832 11.6914 33.8806 11.6914H34.1326V14.0617H33.8806C31.9978 14.0617 31.0567 15.2761 31.0567 17.7042V24.2157H28.5859Z" fill="currentColor"></path><path d="M47.6167 18.3027C47.6167 20.3321 47.1127 21.8582 46.104 22.881C45.0954 23.9038 43.7507 24.4155 42.0701 24.4155C40.3894 24.4155 39.0448 23.9038 38.0361 22.881C37.0274 21.8582 36.5234 20.3321 36.5234 18.3027V11.7412H38.9942V18.3027C38.9942 20.7977 40.0193 22.0452 42.0701 22.0452C44.1208 22.0452 45.1459 20.7977 45.1459 18.3027V11.7412H47.6167V18.3027Z" fill="currentColor"></path><path d="M50.0156 17.9774V6.75H52.512V13.3368C53.5371 12.1393 54.8653 11.5406 56.4954 11.5406C58.2936 11.5406 59.8272 12.1686 61.0964 13.4245C62.3656 14.6804 63.0002 16.1981 63.0002 17.9774C63.0002 19.7568 62.3656 21.2751 61.0964 22.531C59.8272 23.7869 58.2936 24.4149 56.4954 24.4149C54.6973 24.4149 53.1676 23.7876 51.9069 22.531C50.6463 21.2751 50.0156 19.7574 50.0156 17.9774ZM56.4954 13.9109C55.3693 13.9109 54.4151 14.3064 53.6335 15.0961C52.8519 15.8864 52.4615 16.8468 52.4615 17.9774C52.4615 19.108 52.848 20.0899 53.6211 20.8718C54.3941 21.6537 55.3522 22.0446 56.4954 22.0446C57.6386 22.0446 58.6171 21.6537 59.3823 20.8718C60.1468 20.0899 60.5294 19.1256 60.5294 17.9774C60.5294 16.8293 60.1429 15.8656 59.3698 15.0831C58.5967 14.3012 57.6386 13.9109 56.4954 13.9109Z" fill="currentColor"></path><path d="M70.4187 14.1103H67.6959V18.3021C67.6959 20.5646 68.6035 21.7699 70.4187 21.9199V24.2902C68.8213 24.2233 67.5567 23.696 66.6242 22.7057C65.6917 21.716 65.2251 20.2568 65.2251 18.3268V14.1103H63.3594V11.74H65.2251V6.75H67.6959V11.74H70.4187V14.1103Z" fill="currentColor"></path><path d="M74.3468 22.5438C73.0947 21.2963 72.4688 19.7832 72.4688 18.0032C72.4688 16.2232 73.0862 14.7016 74.3219 13.4373C75.5576 12.1735 77.0742 11.541 78.873 11.541C80.6718 11.541 82.0834 12.1112 83.3604 13.2502C84.6375 14.3899 85.3101 15.8913 85.3777 17.7538C85.3777 18.1694 85.3528 18.5441 85.3023 18.8766H75.1166C75.2177 19.8085 75.6167 20.5696 76.3143 21.1592C77.0112 21.7495 77.865 22.045 78.8736 22.045C80.1172 22.045 81.1259 21.6294 81.899 20.7975L84.8488 20.8222C84.2943 21.9035 83.4871 22.7723 82.4286 23.4295C81.3694 24.0867 80.2099 24.4153 78.9492 24.4153C77.134 24.4153 75.5989 23.7913 74.3468 22.5438ZM75.116 16.8804H82.7304C82.4948 16.016 82.0282 15.3049 81.3313 14.7471C80.6337 14.1899 79.8396 13.9113 78.9485 13.9113C77.9903 13.9113 77.1713 14.186 76.4902 14.7348C75.8096 15.2835 75.3509 15.9991 75.116 16.8804Z" fill="currentColor"></path><path d="M93.7391 24.4143C91.9403 24.4143 90.4067 23.787 89.1382 22.5304C87.869 21.2745 87.2344 19.7569 87.2344 17.9769C87.2344 16.1969 87.869 14.6799 89.1382 13.4239C90.4073 12.168 91.9403 11.54 93.7391 11.54C95.1008 11.54 96.3274 11.9225 97.42 12.6875C98.512 13.4525 99.2858 14.4422 99.7399 15.6566H97.0926C96.3024 14.4922 95.1927 13.9103 93.7647 13.9103C92.6051 13.9103 91.6385 14.3013 90.8654 15.0832C90.0917 15.865 89.7058 16.8294 89.7058 17.9775C89.7058 19.1257 90.0963 20.0692 90.8785 20.8589C91.6601 21.6492 92.6222 22.044 93.7654 22.044C95.177 22.044 96.2696 21.4791 97.0433 20.3472H99.7412C99.2871 21.5615 98.514 22.5428 97.4213 23.2915C96.3287 24.0403 95.1015 24.4143 93.7404 24.4143H93.7391Z" fill="currentColor"></path><path d="M107.328 11.5406C109.009 11.5406 110.353 12.0523 111.362 13.0751C112.371 14.0979 112.875 15.624 112.875 17.6534V24.2149H110.404V17.6534C110.404 15.1584 109.378 13.9109 107.328 13.9109C105.278 13.9109 104.252 15.1422 104.252 17.6034V24.2149H101.781V6.75H104.252V12.8628C104.958 11.9815 105.983 11.5406 107.328 11.5406Z" fill="currentColor"></path><path d="M26.7422 12.8675C26.7422 12.2252 26.2165 11.7051 25.5675 11.7051H19.6665C16.0663 11.7051 13.1375 14.6033 13.1375 18.1659C13.1375 21.7285 16.0663 24.6281 19.6665 24.6281C21.9785 24.6281 23.8586 26.4893 23.8586 28.7764C23.8586 31.0636 21.9778 32.9248 19.6665 32.9248C17.3552 32.9248 15.4744 31.0636 15.4744 28.7764C15.4744 28.1342 14.9487 27.614 14.2997 27.614C13.6507 27.614 13.125 28.1342 13.125 28.7764C13.125 32.3462 16.0597 35.2496 19.6665 35.2496C23.2732 35.2496 26.208 32.3455 26.208 28.7764C26.208 26.5789 25.095 24.6346 23.3979 23.4631C25.0871 22.2935 26.1949 20.3557 26.1949 18.1653C26.1949 16.5931 25.6239 15.1508 24.677 14.0293H25.5668C26.2159 14.0293 26.7422 13.5097 26.7422 12.8675ZM19.6665 22.3019C17.3617 22.3019 15.4868 20.4466 15.4868 18.1659C15.4868 15.8852 17.3617 14.0299 19.6665 14.0299C21.9712 14.0299 23.8462 15.8852 23.8462 18.1659C23.8462 20.4466 21.9712 22.3019 19.6665 22.3019Z" fill="currentColor"></path></svg>