<svg width="25" height="24" viewBox="0 0 25 24" fill="none" xmlns="http://www.w3.org/2000/svg"><path d="M22.667 21V19C22.667 17.1362 21.3922 15.5701 19.667 15.126M16.167 3.29076C17.6329 3.88415 18.667 5.32131 18.667 7C18.667 8.67869 17.6329 10.1159 16.167 10.7092M17.667 21C17.667 19.1362 17.667 18.2044 17.3625 17.4693C16.9565 16.4892 16.1778 15.7105 15.1977 15.3045C14.4626 15 13.5308 15 11.667 15H8.66699C6.80323 15 5.87134 15 5.13626 15.3045C4.15615 15.7105 3.37745 16.4892 2.97147 17.4693C2.66699 18.2044 2.66699 19.1362 2.66699 21M14.167 7C14.167 9.20914 12.3761 11 10.167 11C7.95785 11 6.16699 9.20914 6.16699 7C6.16699 4.79086 7.95785 3 10.167 3C12.3761 3 14.167 4.79086 14.167 7Z" stroke="currentColor" stroke-width="2" stroke-linecap="round" stroke-linejoin="round"></path></svg>