<svg width="24" height="24" viewBox="0 0 37 35" fill="none" xmlns="http://www.w3.org/2000/svg"><path d="M36.0936 0.357084L34.6844 0L32.1924 8.73074H19.6041L20.153 13.1832H20.9968C25.5031 13.1832 30.3068 16.5438 30.3068 20.921V29.8383C30.3068 30.8441 30.0784 31.8833 29.7257 32.7738H32.9555L36.0081 8.69423L33.7098 8.6693L36.0936 0.357084Z" fill="#0652DD"></path><path d="M1.36609 31.896C1.36609 33.4476 3.13414 34.9993 4.68581 34.9993H24.8597C26.4114 34.9993 28.0806 33.4481 28.0806 31.896V30.5469H1.36609V31.896Z" fill="#0652DD"></path><path d="M27.9631 25.6504H1.58251C0.806452 25.6504 0.0303955 26.4331 0.0303955 27.2087C0.0303955 27.9843 0.806006 28.7671 1.58251 28.7671H27.9631C28.7391 28.7671 29.5152 27.9843 29.5152 27.2087C29.5152 26.4331 28.7391 25.6504 27.9631 25.6504Z" fill="#0652DD"></path><path d="M28.0806 21.0344C28.0806 17.155 23.3076 14.9648 18.6522 14.9648H10.8934C6.23792 14.9648 1.36609 17.155 1.36609 21.0344V24.3149H28.0806V21.0344Z" fill="#0652DD"></path></svg>