<svg xmlns="http://www.w3.org/2000/svg" width="1408" height="281" viewBox="0 0 1408 281" fill="none"><g clip-path="url(#clip0_154_14541)"><path d="M217.689 245.637V153.955C217.689 125.847 224.49 104.717 238.101 90.5444C251.711 76.3814 269.747 69.2949 292.239 69.2949H295.787V102.669H292.239C265.729 102.669 252.478 119.768 252.478 153.955V245.637H217.689Z" fill="currentColor"></path><path d="M485.643 162.382C485.643 190.956 478.547 212.443 464.344 226.844C450.143 241.246 431.21 248.45 407.547 248.45C383.882 248.45 364.951 241.246 350.748 226.844C336.546 212.443 329.449 190.956 329.449 162.382V69.9961H364.238V162.382C364.238 197.512 378.671 215.076 407.547 215.076C436.421 215.076 450.854 197.512 450.854 162.382V69.9961H485.643V162.382Z" fill="currentColor"></path><path d="M519.42 157.802V-0.280273H554.569V92.4619C569.003 75.6011 587.704 67.1714 610.656 67.1714C635.974 67.1714 657.567 76.0136 675.438 93.6967C693.308 111.38 702.243 132.749 702.243 157.802C702.243 182.855 693.308 204.233 675.438 221.916C657.567 239.599 635.974 248.442 610.656 248.442C585.338 248.442 563.8 239.609 546.049 221.916C528.3 204.233 519.42 182.864 519.42 157.802ZM610.656 100.545C594.8 100.545 581.365 106.114 570.36 117.233C559.355 128.36 553.858 141.883 553.858 157.802C553.858 173.72 559.3 187.546 570.185 198.555C581.069 209.564 594.559 215.068 610.656 215.068C626.752 215.068 640.529 209.564 651.303 198.555C662.067 187.546 667.454 173.968 667.454 157.802C667.454 141.636 662.012 128.067 651.127 117.05C640.242 106.041 626.752 100.545 610.656 100.545Z" fill="currentColor"></path><path d="M806.696 103.353H768.359V162.373C768.359 194.229 781.138 211.2 806.696 213.312V246.686C784.204 245.744 766.399 238.319 753.269 224.376C740.14 210.441 733.57 189.895 733.57 162.721V103.353H707.301V69.9789H733.57V-0.280273H768.359V69.9789H806.696V103.353Z" fill="currentColor"></path><path d="M862.004 222.097C844.375 204.532 835.561 183.228 835.561 158.166C835.561 133.103 844.255 111.679 861.654 93.8776C879.052 76.0833 900.406 67.1777 925.733 67.1777C951.06 67.1777 970.935 75.2061 988.916 91.2433C1006.9 107.29 1016.37 128.43 1017.32 154.654C1017.32 160.506 1016.97 165.781 1016.26 170.463H872.843C874.266 183.584 879.884 194.3 889.707 202.602C899.519 210.913 911.54 215.074 925.742 215.074C943.251 215.074 957.454 209.222 968.339 197.509L1009.87 197.857C1002.06 213.082 990.7 225.314 975.796 234.568C960.882 243.821 944.555 248.448 926.805 248.448C901.247 248.448 879.634 239.662 862.004 222.097ZM872.834 142.356H980.045C976.728 130.186 970.158 120.173 960.346 112.32C950.524 104.474 939.343 100.552 926.796 100.552C913.305 100.552 901.773 104.419 892.183 112.146C882.6 119.872 876.142 129.948 872.834 142.356Z" fill="currentColor"></path><path d="M1135.05 248.434C1109.72 248.434 1088.13 239.602 1070.27 221.909C1052.4 204.226 1043.46 182.858 1043.46 157.796C1043.46 132.733 1052.4 111.374 1070.27 93.6894C1088.14 76.0063 1109.72 67.1641 1135.05 67.1641C1154.22 67.1641 1171.49 72.5496 1186.87 83.3209C1202.25 94.092 1213.14 108.027 1219.54 125.126H1182.26C1171.14 108.731 1155.51 100.538 1135.41 100.538C1119.08 100.538 1105.47 106.043 1094.59 117.052C1083.69 128.06 1078.26 141.639 1078.26 157.804C1078.26 173.971 1083.76 187.255 1094.77 198.374C1105.77 209.502 1119.32 215.06 1135.42 215.06C1155.29 215.06 1170.68 207.107 1181.57 191.169H1219.56C1213.16 208.267 1202.28 222.083 1186.89 232.625C1171.51 243.168 1154.23 248.434 1135.07 248.434H1135.05Z" fill="currentColor"></path><path d="M1326.38 67.1714C1350.05 67.1714 1368.97 74.3761 1383.18 88.7771C1397.38 103.178 1404.48 124.666 1404.48 153.24V245.626H1369.69V153.24C1369.69 118.11 1355.24 100.545 1326.38 100.545C1297.52 100.545 1283.07 117.882 1283.07 152.536V245.626H1248.28V-0.280273H1283.07V85.788C1293.01 73.3793 1307.44 67.1714 1326.38 67.1714Z" fill="currentColor"></path><path d="M191.73 85.8539C191.73 76.8103 184.328 69.4873 175.19 69.4873H92.1043C41.4135 69.4873 0.175997 110.294 0.175997 160.455C0.175997 210.617 41.4135 251.443 92.1043 251.443C124.657 251.443 151.129 277.649 151.129 309.851C151.129 342.055 124.647 368.261 92.1043 368.261C59.5612 368.261 33.0795 342.055 33.0795 309.851C33.0795 300.809 25.6777 293.485 16.5398 293.485C7.40185 293.485 0 300.809 0 309.851C0 360.114 41.3206 400.994 92.1043 400.994C142.887 400.994 184.209 360.104 184.209 309.851C184.209 278.91 168.538 251.535 144.642 235.04C168.426 218.572 184.024 191.288 184.024 160.447C184.024 138.31 175.984 118.003 162.652 102.212H175.181C184.32 102.212 191.73 94.8961 191.73 85.8539ZM92.1043 218.69C59.6527 218.69 33.2541 192.568 33.2541 160.455C33.2541 128.343 59.6527 102.22 92.1043 102.22C124.554 102.22 150.954 128.343 150.954 160.455C150.954 192.568 124.554 218.69 92.1043 218.69Z" fill="currentColor"></path></g><defs><clipPath id="clip0_154_14541"><rect width="1408" height="281" fill="white"></rect></clipPath></defs></svg>