<svg xmlns="http://www.w3.org/2000/svg" width="79" height="26" viewBox="0 0 79 26" fill="none"><path d="M74 23.9998H5C3.6 23.9998 2.5 22.8998 2.5 21.4998V5.2998C2.5 3.8998 3.6 2.7998 5 2.7998H74C75.4 2.7998 76.5 3.8998 76.5 5.2998V21.5998C76.4 22.8998 75.3 23.9998 74 23.9998ZM5 3.7998C4.2 3.7998 3.5 4.4998 3.5 5.2998V21.5998C3.6 22.3998 4.2 22.9998 5 22.9998H74C74.8 22.9998 75.5 22.2998 75.5 21.4998V5.2998C75.5 4.4998 74.8 3.7998 74 3.7998H5Z" fill="currentColor"></path><path d="M13.9008 7.59961C16.5008 7.59961 17.8008 8.99961 17.8008 8.99961L16.6008 10.8996C16.6008 10.8996 15.6008 9.99961 14.1008 9.99961C12.0008 9.99961 11.1008 11.3996 11.1008 12.8996C11.1008 14.7996 12.4008 15.9996 14.0008 15.9996C15.2008 15.9996 16.1008 15.2996 16.1008 15.2996V14.4996H14.7008V12.3996H18.4008V17.9996H16.3008V17.6996C16.3008 17.4996 16.3008 17.2996 16.3008 17.2996C16.3008 17.2996 15.3008 18.1996 13.6008 18.1996C11.0008 18.1996 8.6008 16.1996 8.6008 12.8996C8.5008 9.89961 10.8008 7.59961 13.9008 7.59961Z" fill="currentColor"></path><path d="M20.2012 7.7998H23.8012C27.0012 7.7998 29.1012 9.6998 29.1012 12.8998C29.1012 16.0998 27.0012 17.9998 23.8012 17.9998H20.2012V7.7998ZM23.8012 15.7998C25.5012 15.7998 26.6012 14.7998 26.6012 12.7998C26.6012 10.8998 25.5012 9.8998 23.8012 9.8998H22.8012V15.7998H23.8012Z" fill="currentColor"></path><path d="M30.9004 7.7998H35.1004C37.1004 7.7998 38.4004 9.2998 38.4004 11.2998C38.4004 13.3998 37.1004 14.7998 35.1004 14.7998H33.4004V17.9998H30.9004V7.7998ZM34.6004 12.6998C35.5004 12.6998 35.9004 12.0998 35.9004 11.2998C35.9004 10.4998 35.5004 9.8998 34.6004 9.8998H33.3004V12.6998H34.6004Z" fill="currentColor"></path><path d="M40 7.7998H43.6C44.6 7.7998 45.1 7.8998 45.6 7.9998C46.8 8.3998 47.5 9.4998 47.5 10.9998C47.5 12.0998 47 13.2998 46 13.7998C46 13.7998 46.1 13.9998 46.4 14.3998L48.4 17.9998H45.6L43.8 14.5998H42.6V17.9998H40V7.7998ZM43.5 12.3998C44.3 12.3998 44.8 11.9998 44.8 11.0998C44.8 10.2998 44.5 9.8998 43.3 9.8998H42.5V12.3998H43.5Z" fill="currentColor"></path><path d="M49.4004 15.5996H51.7004V17.9996H49.4004V15.5996Z" fill="currentColor"></path><path d="M54.1016 8H59.6016V8.6H54.7016V12.7H58.7016V13.3H54.7016V17.5H59.8016V18H54.1016V8Z" fill="currentColor"></path><path d="M62.1016 8H62.7016V14.5C62.7016 16.4 63.9016 17.5 65.8016 17.5C67.7016 17.5 68.9016 16.3 68.9016 14.4V8H69.5016V14.6C69.5016 16.8 68.0016 18.2 65.8016 18.2C63.6016 18.2 62.1016 16.8 62.1016 14.6V8Z" fill="currentColor"></path></svg>