<svg width="24" height="25" viewBox="0 0 34 35" fill="none" xmlns="http://www.w3.org/2000/svg"><path d="M34 29.4062V33.1382C34 33.8593 33.4153 34.444 32.6942 34.444H1.30582C0.584638 34.444 0 33.8593 0 33.1382V29.4062H34Z" fill="#0652DD"></path><path d="M21.9728 12.5H12.0224V13.8439H21.9728V12.5Z" fill="#0652DD"></path><path d="M28.3156 16.2175C28.0466 15.6628 27.4843 15.3105 26.8679 15.3105H7.13217C6.5157 15.3105 5.95342 15.6628 5.6844 16.2175L0 27.9372H34L28.3156 16.2175ZM12.7175 25.1863H11.2165C10.811 25.1863 10.4822 24.8578 10.4822 24.4519C10.4822 24.046 10.811 23.7176 11.2165 23.7176H12.7175C13.1231 23.7176 13.4519 24.046 13.4519 24.4519C13.4519 24.8578 13.1231 25.1863 12.7175 25.1863ZM12.7175 22.3586H11.2165C10.811 22.3586 10.4822 22.0301 10.4822 21.6242C10.4822 21.2183 10.811 20.8899 11.2165 20.8899H12.7175C13.1231 20.8899 13.4519 21.2183 13.4519 21.6242C13.4519 22.0301 13.1231 22.3586 12.7175 22.3586ZM12.7175 19.5302H11.2165C10.811 19.5302 10.4822 19.2017 10.4822 18.7958C10.4822 18.3899 10.811 18.0615 11.2165 18.0615H12.7175C13.1231 18.0615 13.4519 18.3899 13.4519 18.7958C13.4519 19.2017 13.1231 19.5302 12.7175 19.5302ZM17.7504 25.1863H16.2494C15.8439 25.1863 15.5151 24.8578 15.5151 24.4519C15.5151 24.046 15.8439 23.7176 16.2494 23.7176H17.7504C18.1559 23.7176 18.4847 24.046 18.4847 24.4519C18.4847 24.8578 18.1559 25.1863 17.7504 25.1863ZM17.7504 22.3586H16.2494C15.8439 22.3586 15.5151 22.0301 15.5151 21.6242C15.5151 21.2183 15.8439 20.8899 16.2494 20.8899H17.7504C18.1559 20.8899 18.4847 21.2183 18.4847 21.6242C18.4847 22.0301 18.1559 22.3586 17.7504 22.3586ZM17.7504 19.5302H16.2494C15.8439 19.5302 15.5151 19.2017 15.5151 18.7958C15.5151 18.3899 15.8439 18.0615 16.2494 18.0615H17.7504C18.1559 18.0615 18.4847 18.3899 18.4847 18.7958C18.4847 19.2017 18.1559 19.5302 17.7504 19.5302ZM22.7836 25.1863H21.2823C20.8768 25.1863 20.548 24.8578 20.548 24.4519C20.548 24.046 20.8768 23.7176 21.2823 23.7176H22.7836C23.1892 23.7176 23.518 24.046 23.518 24.4519C23.518 24.8578 23.1892 25.1863 22.7836 25.1863ZM22.7836 22.3586H21.2823C20.8768 22.3586 20.548 22.0301 20.548 21.6242C20.548 21.2183 20.8768 20.8899 21.2823 20.8899H22.7836C23.1892 20.8899 23.518 21.2183 23.518 21.6242C23.518 22.0301 23.1892 22.3586 22.7836 22.3586ZM22.7836 19.5302H21.2823C20.8768 19.5302 20.548 19.2017 20.548 18.7958C20.548 18.3899 20.8768 18.0615 21.2823 18.0615H22.7836C23.1892 18.0615 23.518 18.3899 23.518 18.7958C23.518 19.2017 23.1892 19.5302 22.7836 19.5302Z" fill="#0652DD"></path><path d="M27.6421 0H6.35328C4.93599 0 3.78305 1.16033 3.78305 2.57758V8.45973C3.78305 9.87706 4.93599 11.03 6.35328 11.03H27.6421C29.0667 11.03 30.2197 9.87706 30.2197 8.45973V2.57758C30.2197 1.16032 29.0667 0 27.6421 0ZM26.9591 7.76948H7.04356V3.26791H26.9591V7.76948Z" fill="#0652DD"></path></svg>