<svg width="66" height="73" viewBox="0 0 66 73" fill="none" xmlns="http://www.w3.org/2000/svg">
<g clip-path="url(#clip0_320_44790)">
<path d="M61.0213 68.5411C55.5138 71.619 46.0659 72.5003 33 72.5003C19.9341 72.5003 10.4862 71.619 4.9787 68.5411C1.67031 66.6956 0 64.1859 0 62.3851C0 61.357 0.548173 60.7695 1.77995 60.7695H64.2201C65.4518 60.7695 66 61.357 66 62.3851C66 64.1859 64.3297 66.702 61.0213 68.5411Z" fill="#FF8732"/>
<path d="M64.2201 20.7941H1.77995C0.554622 20.7941 0 20.1683 0 19.038C0 12.3329 10.1896 0.5 33 0.5C55.8104 0.5 66 12.3329 66 19.0316C66 20.1619 65.4518 20.7877 64.2201 20.7877V20.7941Z" fill="#FF8732"/>
<path d="M13.2978 48.4382C13.1043 48.1445 13.085 47.9593 13.085 47.8699C13.085 47.64 13.214 47.474 13.4655 47.2441C14.0588 46.7013 15.5227 45.3411 16.3224 44.1022C16.9351 43.1571 17.1931 42.3014 17.1931 41.5926C17.1931 39.7727 15.5227 38.3486 13.6976 38.3486C12.5304 38.3486 11.434 39 10.6924 40.1941C9.69921 41.7842 8.51258 43.6297 7.75159 44.3641C7.55811 44.5556 7.45493 44.594 7.3066 44.594C7.05508 44.594 6.94545 44.4279 6.94545 44.1533V42.0588C6.94545 40.0089 5.71367 38.3486 3.49519 38.3486C1.2767 38.3486 0.0449219 39.9962 0.0449219 42.0524V54.9517C0.0449219 57.0016 1.2509 58.6619 3.49519 58.6619C5.73947 58.6619 6.94545 57.008 6.94545 54.9517V51.9759C6.94545 51.7269 7.04863 51.5353 7.3066 51.5353C7.6484 51.5353 7.73224 51.8674 7.81608 52.0398C8.30621 53.1893 9.72501 55.6414 11.0342 57.0846C11.9241 58.0489 13.0269 58.6555 14.1878 58.6555C16.1548 58.6555 17.8122 56.9569 17.8122 55.1369C17.8122 54.0066 17.322 53.1701 16.3934 52.1611C15.2067 50.884 13.8073 49.2045 13.2978 48.4318V48.4382Z" fill="#D62300"/>
<path d="M39.7134 37.1477C43.0411 37.1477 45.1371 35.0532 45.1371 31.9944C45.1371 30.0467 43.9505 28.7057 41.5772 28.7057H40.9C39.6489 28.7057 38.6751 29.2932 38.6751 30.6086C38.6751 31.7836 39.7134 32.3456 40.4937 32.3456C40.8936 32.3456 41.1515 32.4733 41.1515 32.767C41.1515 33.1438 40.7066 33.3929 40.1971 33.3929C38.6106 33.3929 37.5272 32.2817 37.5272 30.2063C37.5272 27.9011 39.0104 27.0645 40.1519 27.0645C41.5514 27.0645 41.7836 27.7797 42.7574 27.7797C43.8795 27.7797 44.6405 26.8602 44.6405 25.8959C44.6405 25.1807 44.3245 24.6379 43.8344 24.2611C42.9444 23.6098 41.6933 23.1309 39.8295 23.1309C36.5469 23.1309 33.3481 25.2701 33.3481 30.2063C33.3481 34.9382 36.5469 37.1349 39.7005 37.1349L39.7134 37.1477Z" fill="#D62300"/>
<path d="M2.47645 37.0207H5.46238C8.28063 37.0207 9.99609 35.156 9.99609 32.8316C9.99609 30.9669 8.87395 30.1112 8.62244 29.9005C8.51925 29.8175 8.40962 29.7344 8.40962 29.6514C8.40962 29.5493 8.47411 29.5046 8.57729 29.3768C8.97714 28.9171 9.38343 28.1827 9.38343 27.1163C9.38343 24.6066 7.66797 23.2656 4.99805 23.2656H2.47645C0.806136 23.2656 0 24.2299 0 25.5262V34.7601C0 36.0564 0.806136 37.0207 2.47645 37.0207ZM3.72758 26.8672C3.72758 26.5926 3.89525 26.3883 4.2564 26.3883H4.53371C5.44303 26.3883 5.72034 27.0141 5.72034 27.5633C5.72034 28.0678 5.44303 28.7766 4.53371 28.7766H4.2564C3.89525 28.7766 3.72758 28.5658 3.72758 28.2976V26.8736V26.8672ZM3.72758 31.7651C3.72758 31.4905 3.89525 31.2862 4.2564 31.2862H4.6369C5.65585 31.2862 5.95251 31.9567 5.95251 32.5634C5.95251 33.1062 5.65585 33.8852 4.6369 33.8852H4.2564C3.89525 33.8852 3.72758 33.6745 3.72758 33.4063V31.7715V31.7651Z" fill="#D62300"/>
<path d="M57.7838 37.1288C59.1381 37.1288 59.8798 36.1198 59.8798 34.8682V32.6459C59.8798 32.3713 60.0088 32.25 60.2216 32.25C60.4731 32.25 60.5634 32.3969 60.6021 32.6459C60.7956 33.7124 61.2986 35.1556 61.8726 35.8899C62.5949 36.835 63.272 37.1288 63.9492 37.1288C65.052 37.1288 66.0064 36.2731 66.0064 35.2003C66.0064 34.485 65.7098 33.9614 65.3293 33.4825C64.607 32.5821 64.162 31.9946 63.8911 31.2602C63.8266 31.0942 63.8718 30.9473 64.0588 30.8004C64.7166 30.296 65.4776 29.1848 65.4776 27.4287C65.4776 24.7658 63.2527 23.2588 60.5634 23.2588H58.1708C56.5005 23.2588 55.6943 24.223 55.6943 25.5194V34.8618C55.6943 36.1198 56.436 37.1224 57.7903 37.1224L57.7838 37.1288ZM59.6476 27.2244C59.6476 26.9498 59.8153 26.7454 60.1765 26.7454H60.4731C61.3631 26.7454 61.6404 27.3712 61.6404 27.9204C61.6404 28.4696 61.3631 29.1337 60.4731 29.1337H60.1765C59.8153 29.1337 59.6476 28.923 59.6476 28.6548V27.2308V27.2244Z" fill="#D62300"/>
<path d="M22.959 38.3428C20.5857 38.3428 19.2959 40.0989 19.2959 42.302V54.7032C19.2959 56.8999 20.5857 58.6624 22.959 58.6624C25.3322 58.6624 26.6221 56.9063 26.6221 54.7032V42.302C26.6221 40.1053 25.3322 38.3428 22.959 38.3428Z" fill="#D62300"/>
<path d="M60.6216 46.4081H59.5833C57.7195 46.4081 56.2813 47.2638 56.2813 49.154C56.2813 50.8717 57.8485 51.6891 59.0158 51.6891C59.5897 51.6891 59.9896 51.8551 59.9896 52.2958C59.9896 52.8386 59.3124 53.1962 58.5901 53.1962C56.1975 53.1962 54.5659 51.5806 54.5659 48.592C54.5659 45.265 56.7908 44.0453 58.5063 44.0453C60.6022 44.0453 60.944 45.0926 62.4015 45.0926C64.0976 45.0926 65.2391 43.7324 65.2391 42.3467C65.2391 41.3186 64.7748 40.5267 64.0331 39.9775C62.7433 39.0324 60.7957 38.3428 58.0419 38.3428C53.1084 38.3428 48.2974 41.4207 48.2974 48.5856C48.2974 55.7505 53.1019 58.6369 57.8485 58.6369C62.8272 58.6369 65.9808 55.6036 65.9808 51.1591C65.9808 48.3557 64.2008 46.4081 60.6216 46.4081Z" fill="#D62300"/>
<path d="M52.6117 37.0206C53.7983 37.0206 54.7335 36.3309 54.7335 35.0729C54.7335 33.8149 53.7983 33.1444 52.6117 33.1444H50.7028C50.3416 33.1444 50.174 32.9337 50.174 32.6655V32.2695C50.174 31.995 50.3416 31.7906 50.7028 31.7906H52.1667C53.1857 31.7906 53.9918 31.184 53.9918 30.1175C53.9918 29.0511 53.1857 28.4444 52.1667 28.4444H50.7028C50.3416 28.4444 50.174 28.2337 50.174 27.9655V27.6334C50.174 27.3589 50.3416 27.1545 50.7028 27.1545H52.6117C53.7983 27.1545 54.7335 26.4648 54.7335 25.2068C54.7335 23.9488 53.7983 23.2783 52.6117 23.2783H48.6068C46.9365 23.2783 46.1304 24.2426 46.1304 25.5389V34.7728C46.1304 36.0691 46.9365 37.0334 48.6068 37.0334H52.6117V37.0206Z" fill="#D62300"/>
<path d="M16.2257 37.1294C19.6566 37.1294 21.4817 35.0988 21.4817 32.5444V25.4881C21.4817 24.2301 20.7401 23.2275 19.3858 23.2275C18.0315 23.2275 17.2898 24.2301 17.2898 25.4881V32.3145C17.2898 32.819 16.9932 33.4065 16.2322 33.4065C15.4712 33.4065 15.2132 32.819 15.2132 32.3145V25.4881C15.2132 24.2301 14.4522 23.2275 13.0979 23.2275C11.7436 23.2275 11.002 24.2301 11.002 25.4881V32.5444C11.002 35.0988 12.8012 37.1294 16.2322 37.1294H16.2257Z" fill="#D62300"/>
<path d="M31.0908 37.1288C32.1936 37.1288 33.148 36.2731 33.148 35.2003C33.148 34.485 32.8514 33.9614 32.4709 33.4825C31.8582 32.6842 31.3036 31.9946 31.0327 31.2602C30.9682 31.0942 31.0134 30.9473 31.2004 30.8004C31.8582 30.296 32.6192 29.1848 32.6192 27.4287C32.6192 24.7658 30.3943 23.2588 27.705 23.2588H25.3124C23.6421 23.2588 22.8359 24.223 22.8359 25.5194V34.8618C22.8359 36.1198 23.5776 37.1224 24.9319 37.1224C26.2862 37.1224 27.0278 36.1198 27.0278 34.8618V32.6395C27.0278 32.365 27.1568 32.2436 27.3696 32.2436C27.6212 32.2436 27.7115 32.3905 27.7501 32.6395C27.9436 33.706 28.4466 35.1492 29.0206 35.8835C29.7429 36.8222 30.4201 37.116 31.0972 37.116L31.0908 37.1288ZM27.6147 29.1273H27.3181C26.9569 29.1273 26.7892 28.9166 26.7892 28.6484V27.2244C26.7892 26.9498 26.9569 26.7454 27.3181 26.7454H27.6147C28.5047 26.7454 28.782 27.3712 28.782 27.9204C28.782 28.4696 28.5047 29.1337 27.6147 29.1337V29.1273Z" fill="#D62300"/>
<path d="M43.2735 38.3428C41.0937 38.3428 39.907 39.9584 39.907 41.9891V46.5102C39.907 46.887 39.778 47.053 39.5459 47.053C39.3782 47.053 39.2492 46.9508 39.1009 46.6571L36.1601 41.0057C35.038 38.8473 33.8707 38.3428 32.5357 38.3428C30.3108 38.3428 29.0854 39.9967 29.0854 42.0721V55.0161C29.0854 57.0468 30.2721 58.6624 32.4519 58.6624C34.6317 58.6624 35.8183 57.0468 35.8183 55.0161V50.495C35.8183 50.1182 35.9473 49.9522 36.1795 49.9522C36.3471 49.9522 36.4761 50.0543 36.6244 50.3481L39.5652 55.9995C40.6874 58.1579 41.8933 58.6624 43.1896 58.6624C45.4146 58.6624 46.6399 57.0085 46.6399 54.9331V41.9891C46.6399 39.9584 45.4532 38.3428 43.2735 38.3428Z" fill="#D62300"/>
<path d="M62.9946 70.7181C62.9946 70.1561 63.4332 69.6836 64.0394 69.6836C64.6456 69.6836 65.0841 70.1561 65.0841 70.7181C65.0841 71.3247 64.6456 71.759 64.0394 71.759C63.4332 71.759 62.9946 71.3184 62.9946 70.7181ZM64.8584 70.7181C64.8584 70.2008 64.4457 69.8943 64.0394 69.8943C63.6331 69.8943 63.2203 70.1945 63.2203 70.7181C63.2203 71.2417 63.6331 71.5483 64.0394 71.5483C64.4457 71.5483 64.8584 71.2609 64.8584 70.7181ZM63.6782 71.1651V70.2839C63.6782 70.2264 63.7298 70.1689 63.7879 70.1689H64.0845C64.3167 70.1689 64.4844 70.3094 64.4844 70.501C64.4844 70.6606 64.3941 70.8011 64.1813 70.8394L64.4134 71.1012C64.4134 71.1012 64.4457 71.1523 64.4457 71.1715C64.4457 71.2353 64.4005 71.28 64.336 71.28C64.2909 71.28 64.2651 71.2609 64.2458 71.229L63.9362 70.865H63.9039V71.1651C63.9039 71.2226 63.8524 71.2737 63.7879 71.2737C63.7298 71.2737 63.6782 71.2226 63.6782 71.1651ZM64.0587 70.667C64.1877 70.667 64.2587 70.6032 64.2587 70.5201C64.2587 70.4307 64.1942 70.3796 64.0845 70.3796H63.9104V70.667H64.0652H64.0587Z" fill="#D62300"/>
</g>
<defs>
<clipPath id="clip0_320_44790">
<rect width="66" height="72" fill="white" transform="translate(0 0.5)"/>
</clipPath>
</defs>
</svg>
