<?xml version="1.0" encoding="UTF-8"?>
<svg id="Layer_1" xmlns="http://www.w3.org/2000/svg" viewBox="0 0 500 500">
  <defs>
    <style>
      .cls-1 {
        fill: #f40290;
      }

      .cls-2 {
        fill: #fe6d01;
      }
    </style>
  </defs>
  <path id="path5" class="cls-2" d="M204.4,254.5c-.3.44-.15.96-.15,1.4v21.43c0,2-.22,3.92-.81,5.84-1.77,6.13-6.95,9.83-13.38,9.39-7.91-.52-12.42-5.32-12.93-13.67-.07-.81-.07-1.7-.07-2.51v-55.14c0-5.77,2.14-10.27,7.61-12.49,5.62-2.29,10.94-1.48,15.52,2.66,2.51,2.22,4.29,5.17,6.28,7.83,6.13,8.35,12.64,16.48,18.4,25.13.59.89,1.11,1.77,2,2.59v-24.32c0-3.18.52-6.21,2.14-8.94,2.96-5.03,7.61-6.65,13.08-6.06,6.43.59,10.72,4.95,11.6,11.46.22,1.48.3,2.96.3,4.43v55.29c0,5.69-2,10.2-7.32,12.56-5.69,2.44-11.16,1.55-15.82-2.66-2.88-2.59-5.03-5.91-7.46-9.02-6.43-8.2-13.3-16.11-18.77-25.06,0-.07-.07-.07-.22-.15Z"/>
  <path id="path7" class="cls-2" d="M403.74,254.65v1.55c0,7.76-.07,15.45-.15,23.21,0,2.22-.67,4.29-1.63,6.21-2.29,4.66-7.17,7.32-12.56,6.87-7.69-.59-12.27-5.4-12.79-13.23,0-.44-.07-.89-.07-1.33,0-19.36-.07-38.73,0-58.09,0-4.95,2.37-8.72,6.8-10.86,5.03-2.37,9.9-2,14.63,1.03,1.4.89,2.59,2.07,3.55,3.33,7.46,10.05,15.15,19.88,22.25,30.23.81,1.18,1.55,2.37,2.51,3.92v-25.28c0-3.7.81-7.24,3.25-10.2,3.62-4.36,8.5-5.1,13.67-4.14,4.88.96,7.91,4.21,9.31,8.87.67,2.22.81,4.43.81,6.73v55.43c0,5.62-2.07,10.13-7.32,12.42-5.47,2.37-10.72,1.63-15.37-2.22-.74-.59-1.48-1.33-2.07-2.07-7.39-9.53-15.3-18.7-22.17-28.6-.89-1.26-1.7-2.51-2.51-3.77.07-.07,0-.07-.15,0h0Z"/>
  <path id="path9" class="cls-2" d="M39.21,209.2c4.8.07,10.27-.37,15.67.67,15,2.81,26.53,10.35,31.78,25.06,5.4,15.15,3.62,29.56-7.1,42.13-6.58,7.76-15.45,11.83-25.35,13.23-9.16,1.33-18.4.44-27.57.59-.44,0-.89-.15-1.33-.22-7.24-1.26-12.27-7.17-12.27-14.49v-52.18c0-8.2,6.28-14.63,14.56-14.78,3.62-.07,7.32,0,11.6,0ZM40.17,250.07v13.45c0,.67-.07,1.26.96,1.26,2.88-.07,5.69.15,8.57-.22,7.54-.89,12.56-6.58,12.64-14.41.07-7.69-4.95-13.6-12.49-14.56-2.81-.37-5.62-.07-8.43-.22-1.03-.07-1.33.3-1.33,1.33.07,4.43.07,8.94.07,13.38Z"/>
  <path id="path11" class="cls-2" d="M290.43,233c4.88-6.28,9.9-12.27,14.63-18.48,2.73-3.55,5.99-6.06,10.57-6.58,7.98-.81,15.67,6.58,15.08,14.56-.3,3.7-1.77,6.8-4.07,9.61-4.66,5.54-9.39,11.01-14.12,16.48-.67.81-.67,1.26,0,2,5.1,5.62,10.05,11.38,15.08,17,2.73,3.1,4.29,6.58,4.14,10.72-.3,8.87-9.24,15.74-17.44,13.3-2.81-.81-5.1-2.51-6.95-4.8-5.32-6.5-10.79-12.93-15.96-19.59-.22-.3-.44-.59-.74-.96-.52.3-.3.74-.3,1.03,0,3.92.07,7.76-.07,11.68-.22,7.91-5.84,13.45-13.53,13.38-7.76,0-13.53-5.54-13.53-13.38-.07-19.44-.07-38.95,0-58.39.07-7.83,5.91-13.38,13.6-13.3,7.69.07,13.23,5.47,13.45,13.3.22,4.29.15,8.35.15,12.42h0Z"/>
  <path id="path13" class="cls-2" d="M167.89,242.23c-.07,5.32.22,11.97-.15,18.55-.89,16.33-13.08,29.27-29.34,31.34-7.24.89-14.26.52-21.06-2.29-12.12-4.95-18.77-14.19-20.62-26.98-.22-1.63-.3-3.33-.37-5.03,0-12.2-.07-24.32,0-36.51.07-8.13,5.77-13.9,13.6-13.82,7.91.07,13.53,5.84,13.53,14.12v34.44c0,3.84,1.33,6.95,4.88,8.72,5.54,2.81,11.75-1.11,12.34-7.54.07-.81.07-1.7.07-2.51v-33.56c0-7.32,4.95-12.86,12.12-13.6,7.1-.74,13.16,3.62,14.63,10.64.22,1.11.3,2.22.3,3.4.07,6.43.07,12.86.07,20.62h0Z"/>
  <path id="path15" class="cls-2" d="M340.25,249.92c0-9.68-.07-19.29,0-28.97.07-5.62,2.44-9.98,7.69-12.2,5.4-2.29,10.64-1.7,15.15,2.29,2.73,2.37,4.14,5.62,4.14,9.16.07,19.88.15,39.69,0,59.57-.07,7.46-6.21,13.01-13.6,12.79-7.76-.22-13.3-5.62-13.38-13.23-.07-9.83,0-19.59,0-29.42h0Z"/>
  <path id="path17" class="cls-1" d="M461.61,227.08c-.07-3.33,0-6.58.74-9.83,1.48-6.8,7.17-10.64,14.19-9.53,6.73,1.03,11.01,6.58,10.35,13.38-.59,5.62-2.14,11.01-4.36,16.19-1.33,3.03-3.33,5.47-6.58,6.58-5.32,1.77-10.86-.81-12.86-6.13-1.33-3.4-1.4-7.02-1.48-10.64h0Z"/>
</svg>