<?xml version="1.0" encoding="UTF-8"?>
<svg id="Layer_1" xmlns="http://www.w3.org/2000/svg" viewBox="0 0 500 500">
  <defs>
    <style>
      .cls-1 {
        fill: #d11667;
        fill-rule: evenodd;
      }
    </style>
  </defs>
  <g id="Page-1">
    <g id="Artboard">
      <path id="Pickl-logo" class="cls-1" d="M455.7,264.88c7.36-14.29,14.72-28.57,20.47-41.88,5.27-13.39,8.54-24.89,7.28-33.91-.82-8.71-5.73-14.63-11.7-18.51-5.45-4.04-12.7-5.92-17.73-6.47-5.03-.55-8.38.64-7.49,2.74,1.39,5.12-1.02,15.77-5.89,29.72-4.36,13.78-11.03,29.89-17.78,46.48-6.47,16.39-13.22,32.98-18.33,46.88-4.83,13.7-7.99,24.48-7.2,30.25.24,4.7,4.19,8.99,9.55,12.04,5.53,3.57,12.47,5.88,19.27,5.98,1.94.06,3.15-1.47,2.13-5.79-1-6.04,1.97-15.63,7.49-27.5,5.05-11.95,12.53-25.48,19.93-40.01ZM443.88,317.62c-10.11,13.43,4.01,23.83,19.29,25.92,13.04,1.78,26.91-2.48,27.29-16.08.87-31.22-31.56-29.78-46.58-9.83ZM224.07,184.11c.73-16.79-16.8-17.36-30.58-10.43-11.75,5.91-20.77,17.29-13.38,28.71,16.97,26.22,42.87,6.67,43.96-18.28ZM206.12,295.62c-2.5-6.03-5.47-12-5.96-18.62-.55-7.51.46-15.04,2.58-22.25,1.09-3.71,2.47-7.34,4.05-10.87,1.22-2.75,3.64-6.11,3.33-9.23-1.29-12.63-24.27-15.12-33.76-12.21-9.46,2.9-10.08,19.46-10.62,27.21-.63,9.17-.27,18.33.22,27.49.54,10.03,2.22,20.13,5.87,29.52,2.94,7.56,7.78,17.38,15.73,20.65,12.44,5.1,28.78-1.19,28.12-14.54-.31-5.53-7.58-12.37-9.56-17.14ZM391.71,292.24c-7.13-4.94-13.32-13.41-17.18-23.49-.67-1.67-1.27-3.39-1.78-5.16l4.4-2.13c7.93-3.82,14.45-8.46,20.24-13.13,10.6-8.9,16.88-18.51,17.35-27.91.31-6.19-3.55-11.34-9.14-15.59-5.35-4.24-12.23-6.81-17.97-8.09-5.75-1.03-10.14-.26-10.3,2.96-1.17,8.87-6,18.55-13.43,26.86-4.1,4.76-9.15,8.97-15.14,12.64,4.44-16.4,8.82-31.31,13.08-44,5.47-17.59,9.96-30.02,10.38-33.71.45-4.2-4.4-8.65-10.76-12.19-6.36-3.29-14.21-5.92-19.28-6.17-3.86-.19-8.03,5.8-12.38,15.51-4.34,9.46-8.41,23.15-12.04,37.85-3.66,15.2-6.62,30.93-8.6,46.45-.62,5.23-1.19,10.09-1.68,14.59-4.09,6.19-9.42,12.27-14.73,16.89-6.59,5.98-15.71,13.36-25.23,11.32-16.72-3.59-21.98-17.83-18.07-31.11,1.7-5.8,12.65-28.35,20.55-28.24.96.01,1.68.51,1.66,2.2-.02,1.69-.78,4.1-2.02,6.74-1,2.64-2.24,5.04-3.23,6.72-.24,0-.24.24-.25.48-.02,1.69.92,3.39,2.59,5.1,1.67,1.71,4.06,3.19,7.69,3.24,7.73.1,13.33-3.21,17.01-7.99,3.93-4.78,5.7-10.79,5.77-16.35.21-16.42-9.8-26.21-28.15-26.45-10.38-.14-19.86,4.57-28.41,11.95-8.55,7.38-15.45,17.67-20.42,28.23-4.97,11.04-8.02,22.11-8.15,32.26-.16,12.07,4.77,23.01,11.66,31.55,8.69,9.5,21.1,13.61,33.49,13.17,11.02-.39,22.02-4.38,30.36-11.37,5.83-4.89,11.13-10.63,15.56-16.6,0,3.55.16,6.63.51,9.32,1.17,10.48,4.86,14.13,11.85,14.48,9.16.46,15.21-4.45,18.72-16.68,1.49-5.62,2.44-10.28,3.42-15.43.36,2.4.79,4.73,1.26,6.99,2.96,13.08,8.45,22.76,16.34,27.33,5.19,3.01,11.34,1.98,17.48-.95,6.02-2.73,11.3-7.52,14.95-11.89,3.44-4.5,4.72-8.62,2.02-10.19ZM148.34,151.89c12.81,12.79,17.48,30.67,16.66,48.49-1.22,26.72-15.65,55.84-39.48,68.92-4.7,2.58-9.63,4.27-14.91,5.11,3.18,18.76,6.32,34.36,8.57,44.84,2.62,5.84,6.02,11.29,10.5,15.9,1.88,1.93,2.12,4.41,1.01,6.81-3.52,7.68-11.46,14.35-19.21,17.4-7.6,2.99-15.4,1.19-20.86-4.92-3.49-3.91-5.6-8.87-7.08-13.89-2.34-7.93-3.23-16.19-3.9-24.4-.65-8-2.02-16.01-3.03-24.01-3.22-25.71-6.23-51.46-10.53-77.01-2.75-16.34,8.18-33.38,23.73-38.56,2.47-.82,4.66-.17,5.69,2.32,1.95,4.73,3.28,9.62,4.37,14.61,3.97,18.09,7.23,36.5,8.02,55.05.11,2.64.96,2.78,3.07,1.62,9.95-5.42,16.55-15.09,18.32-26.23,2.61-16.36.57-32.52-8.02-46.73-7.18-11.89-20.89-14.46-33.44-9.78-20.8,7.74-35.23,25.39-38.1,47.32-.86,6.57-1.09,13.32-.9,19.9.07,2.53-1.32,4.18-3.83,4.57-14.6,2.25-31.64-9.47-34.96-23.83-1.16-5.03-.26-10.24,1.81-14.93,4.16-9.41,10.95-17.43,18.86-23.9,20.13-16.48,42.99-29.26,68.37-35.31,17.41-4.15,36.19-2.37,49.26,10.68h0Z"/>
    </g>
  </g>
</svg>