<?xml version="1.0" encoding="UTF-8"?>
<svg id="Layer_1" xmlns="http://www.w3.org/2000/svg" viewBox="0 0 500 500">
  <defs>
    <style>
      .cls-1 {
        fill: #fff;
      }

      .cls-2 {
        fill: #ffd040;
      }
    </style>
  </defs>
  <g>
    <path d="M157.27,223.83h16.42c.79,0,1.51.47,1.82,1.21l11.27,26.66,11.27-26.66c.31-.74,1.03-1.21,1.82-1.21h16.42c1.42,0,2.37,1.44,1.82,2.75l-34.66,81.11c-.92,2.17-3.04,3.57-5.4,3.57h-12.44c-2.01,0-3.37-2.05-2.57-3.9l13.6-31.2-21.18-49.56c-.57-1.32.39-2.76,1.8-2.76Z"/>
    <path d="M332.63,261.11c-1.4-22.32,16.97-40.69,39.29-39.29,18.4,1.17,33.34,16.09,34.49,34.49,1.4,22.32-16.97,40.69-39.29,39.29-18.4-1.17-33.32-16.1-34.49-34.49ZM366.01,276.25c12.55,2.43,23.5-8.51,21.07-21.07-1.36-7.04-6.99-12.67-14.05-14.03-12.55-2.41-23.47,8.51-21.05,21.05,1.36,7.05,6.98,12.69,14.03,14.05Z"/>
    <path d="M415.51,261.11c-1.4-22.32,16.97-40.69,39.29-39.29,18.4,1.17,33.34,16.09,34.49,34.49,1.4,22.32-16.97,40.69-39.29,39.29-18.4-1.17-33.34-16.1-34.49-34.49ZM448.88,276.25c12.55,2.43,23.5-8.51,21.07-21.07-1.36-7.04-6.99-12.67-14.05-14.03-12.55-2.41-23.47,8.51-21.05,21.05,1.36,7.05,7,12.69,14.03,14.05Z"/>
    <path d="M327.74,240.89h-.44c-4.75,0-11.56,3.41-14.67,8.15v44.32h-18.97v-65.65c0-2.04,1.65-3.71,3.71-3.71h11.56c2.04,0,3.71,1.65,3.71,3.71v1.78c3.26-4.15,9.04-7.56,15.11-7.56v18.97Z"/>
    <path d="M144.61,224h-11.56c-2.04,0-3.71,1.65-3.71,3.71v.74c-4-4.15-9.48-6.52-17.33-6.52-17.04,0-33.49,16.45-33.49,36.75s16.45,36.75,33.49,36.75c7.86,0,13.34-2.37,17.33-6.37v.6c0,2.04,1.65,3.71,3.71,3.71h11.56c2.04,0,3.71-1.65,3.71-3.71v-61.94c0-2.04-1.67-3.71-3.71-3.71ZM116.41,276.42c-.06,0-.12,0-.18.01-.18,0-.36.03-.54.03-.06,0-.1-.01-.15-.01-.08,0-.18.01-.26.01-9.63,0-17.78-8.01-17.78-17.78s8.15-17.78,17.78-17.78c.08,0,.18,0,.26.01.06,0,.1-.01.15-.01.18,0,.36.03.54.03.06,0,.12,0,.18.01,9.48.39,17.06,8.17,17.06,17.75s-7.58,17.35-17.06,17.72Z"/>
    <path d="M75.49,290.06l-24.55-33.46,21.69-29.28c1.07-1.44.04-3.48-1.75-3.48h-18.21c-.72,0-1.39.35-1.79.94l-14.82,21.37v-50.94c0-.06-.01-.11-.01-.18-.08-1.8-1.46-3.28-3.23-3.5-.15-.01-.32-.04-.49-.04h-11.63c-.17,0-.32.03-.49.04-1.83.24-3.25,1.79-3.25,3.68v98.37h19.08v-17.64l2.96-4,14.68,20.68c.42.58,1.07.92,1.78.92h18.25c1.8,0,2.85-2.04,1.78-3.48Z"/>
    <path d="M283.73,290.06l-24.55-33.46,21.69-29.27c1.07-1.44.04-3.48-1.75-3.48h-18.21c-.72,0-1.39.35-1.79.94l-14.82,21.37v-50.95c0-.06-.01-.11-.01-.18-.08-1.8-1.46-3.28-3.23-3.5-.15-.01-.32-.04-.49-.04h-11.63c-.17,0-.32.03-.49.04-1.83.24-3.25,1.79-3.25,3.68v98.37h19.08v-17.64l2.96-4,14.68,20.68c.42.58,1.07.92,1.78.92h18.25c1.8,0,2.83-2.04,1.78-3.48Z"/>
  </g>
  <g>
    <path class="cls-1" d="M141.6,353.03c18.92-.43,35.35-6.55,49.33-19,2.15-1.92,2.29-3.29.37-5.4-2.01-2.21-4.15-4.3-6.25-6.43-3.48-3.51-4.05-3.41-7.87-.33-13.92,11.24-29.67,15-47.19,11.31-8.97-1.89-16.79-6.07-23.75-11.98-2.73-2.33-3.78-2.26-6.38.32-2.26,2.23-4.48,4.51-6.66,6.84-2.33,2.48-2.29,3.54.19,5.75,13.81,12.28,30.06,18.36,48.2,18.92Z"/>
    <path class="cls-2" d="M141.6,353.03c-18.15-.56-34.39-6.63-48.22-18.93-2.48-2.21-2.53-3.26-.19-5.75,2.18-2.32,4.4-4.59,6.66-6.84,2.6-2.58,3.65-2.65,6.38-.32,6.95,5.93,14.78,10.09,23.75,11.98,17.52,3.69,33.27-.07,47.19-11.31,3.82-3.08,4.39-3.18,7.87.33,2.11,2.12,4.25,4.22,6.25,6.43,1.92,2.11,1.78,3.48-.37,5.4-13.96,12.48-30.38,18.58-49.31,19.01Z"/>
  </g>
  <g>
    <path class="cls-1" d="M142.53,170.26c-18.92.44-35.34,6.55-49.31,19-2.15,1.92-2.29,3.29-.37,5.4,2.01,2.21,4.15,4.3,6.25,6.43,3.48,3.51,4.05,3.41,7.87.33,13.92-11.24,29.67-15,47.19-11.31,8.97,1.89,16.79,6.07,23.75,11.98,2.73,2.33,3.78,2.26,6.38-.32,2.26-2.23,4.48-4.51,6.66-6.84,2.33-2.48,2.29-3.54-.19-5.75-13.81-12.28-30.06-18.36-48.22-18.92Z"/>
    <path class="cls-2" d="M142.53,170.26c18.15.56,34.39,6.63,48.22,18.93,2.48,2.21,2.53,3.26.19,5.75-2.18,2.32-4.4,4.59-6.66,6.84-2.6,2.58-3.65,2.65-6.38.32-6.95-5.93-14.78-10.09-23.75-11.98-17.52-3.69-33.27.07-47.19,11.31-3.82,3.08-4.39,3.18-7.87-.33-2.11-2.12-4.25-4.22-6.25-6.43-1.92-2.11-1.78-3.48.37-5.4,13.98-12.46,30.39-18.57,49.31-19.01Z"/>
  </g>
</svg>