<?xml version="1.0" encoding="UTF-8"?>
<svg id="Layer_1" xmlns="http://www.w3.org/2000/svg" viewBox="0 0 500 500">
  <defs>
    <style>
      .cls-1 {
        fill: #7e5a9a;
      }
    </style>
  </defs>
  <path class="cls-1" d="M105.2,335.93c-.44-.67-.69-1.15-1.02-1.54-9.98-11.47-15.42-24.76-16.46-39.96-1.41-20.55,3.81-39.14,16.58-55.29,4.26-5.39,9.73-9.84,14.8-14.56,1.28-1.19,1.98-2.21,1.96-4-.08-11.99-.2-23.98,0-35.96.71-44.07,19.16-79.07,54.51-105.14,16.15-11.91,34.37-19.39,54.21-22.18,43.62-6.11,81.3,6.34,112.48,37.57,16.44,16.47,27.25,36.29,32.93,58.83,2.64,10.47,3.75,21.18,3.64,32.01-.12,11.99.03,23.98-.07,35.96-.02,2.33.57,3.22,3.06,3.27,8.92.2,16.75,7.02,18.78,15.68,1.22,5.22.1,10.1-1.18,15.06-.27,1.06-.05,2.48.47,3.46,3.42,6.48,7.77,12.59,10.37,19.37,8.66,22.59,3.17,47.89-18.56,62.07-4.4,2.87-9.2,4.8-14.44,5.35-1.74.18-2.31,1.03-2.68,2.46-3.52,13.73-9.26,26.49-17.17,38.23-14.86,22.06-34.53,38.33-59.16,48.44-11.72,4.81-23.91,7.95-36.59,8.77-53.05,3.42-93.58-17.9-122.37-62.24-1.22-1.87-2.33-3.83-3.29-5.84-.71-1.47-1.46-1.61-2.78-.8-7.38,4.58-15.42,6.18-24.04,5.59-14.75-1-26.37-16.67-22.62-30.66,2.09-7.78,8.48-13.04,16.59-13.66.6-.05,1.2-.18,2.06-.32ZM283.16,351.71c1.53-5.39,3.01-10.58,4.6-16.19,3.62,3.83,7.58,6.08,12.14,6.88,8.73,1.53,17.35.52,25.68-2.3,24.64-8.35,40.47-25.5,49.12-49.71,1.43-4.01,2.93-8,4.55-12.44,4.4,6.38,8.37,12.34,8.98,19.82.65,7.99-1.42,15.2-6.61,21.36-3.06,3.64-5.23,3.78-8.88.9-3.73-2.94-8.26-2.23-11,1.74-3.59,5.2-1.81,11.15,4.39,14.33,7.01,3.59,13.83,2.53,20.26-1.41,16.85-10.32,22.14-28.75,16.96-47.39-2.52-9.06-7.84-16.73-13.12-24.33-1.41-2.03-2.2-3.64-.62-5.89.76-1.08,1.13-2.46,1.53-3.76,1.5-4.92,2.04-9.75-1.9-13.92-4.78-5.06-13.86-4.58-19,1.11-4.29,4.74-6.36,10.54-4.44,16.6,1.7,5.37,1.16,9.95-1.4,14.64-.26.48-.36,1.05-.52,1.59-2.44,8.28-5.4,16.34-9.53,23.95-5.15,9.5-11.97,17.42-21.35,23.08.02-.22-.01-.41.06-.5,11.54-14.23,15.73-30.58,13.72-48.6-.38-3.43-1.37-6.93-2.77-10.09-4.83-10.88-15.45-13.28-26-8.95-3.61,1.48-6.81,3.95-10.28,6.02-.05-.24-.12-.61-.19-.97-.91-4.43-4.43-6.59-8.75-5.29-3.71,1.12-5.78,3.85-6.82,7.42-1.7,5.82-3.29,11.67-4.95,17.49-1.44,5.07-2.89,5.91-8.1,4.68-1.15-.27-2.26-.67-3.41-1.02-.37-2.55-.57-5.03-1.11-7.44-1.55-6.86-3.98-13.21-10.96-16.47-6.25-2.92-12.64-2.35-18.88-.21-11.44,3.92-19.41,12-25.37,22.21-6.68,11.43-10.48,23.83-10.94,37.05-.18,5.34.31,10.94,1.73,16.07,3.65,13.14,13.47,18.36,26.72,15.16,8.06-1.95,14.53-6.4,20.15-12.25,9.09-9.46,13.88-21.08,16.63-33.69.3-1.37.6-2.73.92-4.14,2.37.42,4.37.78,6.62,1.18-.95,3.54-1.78,6.84-2.71,10.12-6.79,24.02-13.62,48.02-20.36,72.05-1.35,4.82-2.67,9.69-3.35,14.63-.55,4.01,1.37,6.88,4.08,7.9,3.18,1.2,7.11.25,9.4-2.92,1.54-2.14,2.65-4.72,3.41-7.27,2.67-8.86,5.13-17.78,7.59-26.7.45-1.64,1.15-2.33,2.96-2.28,12.37.33,24.75.38,37.11.84,11.63.43,23.26,1.24,34.88,1.87,3,.16,5.86-2.27,6.21-5.22.35-2.95-1.78-5.93-4.59-6.38-1.26-.2-2.52-.39-3.79-.46-12.51-.66-25.01-1.43-37.53-1.89-9.65-.36-19.32-.31-28.99-.46-.62,0-1.24-.1-2.19-.17ZM166.56,219.34c-6.68-.17-14.43.97-21.81,3.63-26.86,9.68-43.13,28.54-47.78,56.84-2.23,13.57-.54,26.83,6.18,39.04,2.28,4.15,5.16,8.12,8.4,11.57,4.35,4.63,11.12,3.7,13.79-1.42,2.07-3.98.71-7.49-1.88-10.61-5.62-6.77-8.89-14.46-9.8-23.23-1.48-14.24,1.8-27.29,10.61-38.48,12.75-16.21,29.91-22.6,50.19-20.05,8.72,1.1,15.62,5.73,19.92,13.74,3.97,7.39,4.23,15.26,3.1,23.31-2.78,19.77-17.56,32.01-37.47,31.15-1.91-.08-2.34-.71-1.91-2.5,1.43-5.97,2.73-11.97,4.14-17.95,2.75-11.68,5.96-23.18,12.45-33.5.94-1.5,1.37-3.41,1.67-5.19.49-2.84-.97-5.38-3.51-6.74-4.16-2.23-9.12-.86-12.65,3.64-3.81,4.85-6.2,10.47-7.8,16.33-5.08,18.54-9.94,37.13-14.84,55.72-2.95,11.2-5.72,22.48-11.73,32.54-1.6,2.68-3.68,5.31-6.15,7.16-4.57,3.43-6.84,2.71-9.63-2.24-1.24-2.2-2.77-4.03-5.47-4.08-4.76-.09-8.72,2.05-9.73,7.32-1.21,6.36,3.29,14.04,9.78,16.41,7.76,2.84,15.12,1.23,22.07-2.63,8.67-4.82,13.89-12.7,17.54-21.52,3.36-8.09,5.92-16.5,8.78-24.79.43-1.25.68-2.16,2.4-1.8,6.2,1.32,12.39.87,18.52-.49,13.44-2.99,23.77-10.57,31.41-21.87,7.93-11.73,10.72-24.83,9.53-38.77-.92-10.75-4.88-20.29-12.79-27.91-9.58-9.22-21.28-12.74-35.53-12.62ZM366.58,197.37h0c0-5.99-.05-11.99.01-17.98.09-9.33-1.31-18.47-3.7-27.43-6.35-23.86-19.04-43.8-37.87-59.7-19.35-16.35-41.68-25.57-67.07-27.37-11.25-.8-22.34-.1-33.3,2.32-23.59,5.22-43.67,16.75-60.22,34.33-17.69,18.8-28.49,41.07-30.99,66.76-1.3,13.39-.62,26.97-.68,40.47,0,.91,1.16,2.33,2.06,2.62,1.55.49,2.45-.8,2.73-2.29.15-.78.11-1.59.11-2.39,0-8.87.04-17.74,0-26.61-.04-9.32,1.26-18.48,3.71-27.44,6.64-24.31,19.94-44.34,39.91-59.63,27.29-20.9,58.06-27.87,91.71-20.99,22.79,4.66,42.1,15.92,58.07,32.81,13.84,14.64,23.1,31.78,27.72,51.43,2.21,9.38,3,18.9,3.07,28.49.09,12.23.1,24.45-.05,36.68-.03,2.48,1.92,3.83,3.32,2.86.79-.55,1.37-1.94,1.38-2.97.11-7.99.06-15.98.06-23.97ZM152.56,374.14c.56-.03,1.12-.02,1.68-.08,12.65-1.48,25.29-3.18,37.97-4.41,12.14-1.17,24.33-1.92,36.5-2.72,5.49-.36,11.01-.34,16.51-.59,3.81-.17,6.33-2.75,6.24-6.19-.08-3.38-2.56-5.61-6.45-5.49-9.01.27-18.03.57-27.03,1.03-6.85.35-13.7.88-20.53,1.52-8.56.8-17.11,1.71-25.65,2.72-6.96.82-13.93,1.68-20.84,2.83-3.81.63-5.42,3.33-4.83,6.98.46,2.85,2.87,4.5,6.43,4.4ZM250.05,434.63c11.24.19,22.17-1.53,32.84-4.74,27.6-8.32,49.19-24.8,65.2-48.7.31-.46.84-.99.8-1.44-.1-1.06-.18-2.59-.85-3.01-.69-.44-2.2-.04-3.1.46-.75.41-1.14,1.49-1.7,2.27-26.18,36.7-61.64,53.71-106.64,49.31-22.69-2.22-42.72-11.5-59.83-26.61-5.24-4.63-9.8-10.04-14.61-15.16-1.8-1.92-3.94-2.2-4.58-.23-.33,1,.19,2.68.91,3.57,23.69,28.89,54.25,43.61,91.55,44.28ZM220.59,140.17c-8.28-.59-17.63,5.4-17.6,18.38.02,10.62,7.47,18.24,17.73,18.28,10.21.04,17.56-7.66,17.55-18.38-.02-11.11-6.98-18.31-17.68-18.28ZM176.91,159.2c4.77,0,9.15.04,13.54-.02,1.57-.02,1.86.76,1.86,2.07-.02,3.91-.05,7.83.04,11.74.06,2.44,1.32,3.8,3.21,3.62,2.27-.22,2.72-1.78,2.71-3.76-.04-9.67-.03-19.34,0-29,0-1.98-.42-3.54-2.76-3.68-1.95-.12-3.1,1.14-3.17,3.64-.08,2.63-.05,5.27,0,7.91.03,1.36-.39,2.08-1.89,2.06-3.99-.05-7.99-.05-11.98,0-1.35.02-1.83-.53-1.8-1.85.06-2.96.01-5.91,0-8.87,0-1.84-.94-2.88-2.77-2.9-1.8-.01-2.85.97-2.85,2.82,0,10.31-.04,20.61.14,30.92.02.93,1.4,2.3,2.42,2.63,1.54.5,2.77-.55,3.06-2.22.2-1.17.23-2.38.24-3.58.03-3.74.01-7.48.01-11.52ZM248.29,153.22c.07,0,.14,0,.22-.01,0-3.03.02-6.07,0-9.1-.02-2.65-.91-3.86-2.83-3.92-1.94-.06-3.04,1.18-3.06,3.72-.04,5.91-.18,11.83.05,17.73.4,9.91,4.05,14.4,12.77,15.1,9.03.73,14.82-2.97,15.63-11.82.48-5.15.33-10.36.43-15.54.04-2.08.07-4.16-.05-6.23-.11-1.82-1.09-3.02-3.06-2.96-1.83.06-2.69,1.21-2.82,2.95-.06.87,0,1.76-.03,2.63-.14,6.38-.04,12.77-.5,19.12-.32,4.41-3.04,6.47-7.36,6.55-5.1.1-7.97-1.77-8.64-6.32-.58-3.92-.53-7.94-.76-11.91ZM305.9,158.28c0,4.71-.02,9.42.01,14.14.01,1.78.39,3.58,2.6,3.61,5.91.11,11.82.11,17.72-.05.79-.02,2.12-1.22,2.18-1.96.08-.94-.67-2.21-1.45-2.89-.61-.52-1.81-.46-2.75-.48-3.43-.05-6.87-.07-10.3,0-1.56.03-2.14-.58-2.07-2.13.09-2.15.07-4.31,0-6.47-.04-1.36.51-1.82,1.84-1.79,3.11.06,6.23.02,9.34.02,1.65,0,2.56-.89,2.64-2.47.08-1.62-.85-2.56-2.43-2.68-1.51-.12-3.03-.06-4.55-.06-6.94,0-6.88,0-6.86-6.89,0-1.78.52-2.37,2.32-2.32,3.91.12,7.83.15,11.73-.07.9-.05,2.42-1.25,2.44-1.95.03-.99-.95-2.14-1.75-2.97-.4-.41-1.36-.37-2.07-.37-4.87-.03-9.74-.07-14.61,0-3.05.05-3.94,1.04-3.96,4.14-.03,4.55,0,9.1,0,13.66ZM289.23,139.56c-.08.23-.15.47-.23.7-.88,0-1.76-.07-2.63.01-4.3.4-8.15,3.46-8.81,6.95-1.12,5.87.87,9.72,6.41,12.07,2.63,1.12,5.39,1.93,8.06,2.96,2.16.84,3.66,2.18,3.42,4.83-.24,2.69-2.06,3.6-4.29,4.08-3.51.75-6.79-.15-9.98-1.55-1.61-.71-3.33-1.33-4.33.74-1,2.06.32,3.34,2.04,4.16,5.18,2.48,10.56,2.95,16.03,1.13,3.91-1.3,6.3-4.06,6.71-8.21.39-3.94-1.3-6.98-4.64-9.05-1.28-.79-2.64-1.49-4.04-2.06-2.36-.95-4.8-1.69-7.16-2.64-1.84-.74-2.68-2.28-2.52-4.21.17-2.06,1.4-3.25,3.45-3.73,3.01-.71,5.65.24,8.28,1.51,1.5.73,3,.84,3.96-.85.97-1.7.11-3.12-1.35-3.78-2.71-1.21-5.56-2.08-8.36-3.09ZM240.2,194.44c-8.66-.03-14.45,5.93-14.47,14.9-.02,8.68,5.88,14.82,14.34,14.9,8.41.09,14.26-5.99,14.28-14.84.02-8.95-5.64-14.93-14.14-14.96ZM263.04,199.53c3.69,0,7.11.01,10.53,0,1.58,0,2.7-.75,2.67-2.4-.03-1.53-1.12-2.2-2.6-2.2-4.31,0-8.62-.01-12.94,0-1.86,0-2.82,1.02-2.83,2.83-.02,7.83-.02,15.65.01,23.48,0,1.61.64,2.83,2.51,2.84,1.86.01,2.5-1.14,2.52-2.79.02-2.24.17-4.48-.01-6.71-.18-2.21.72-2.8,2.75-2.64,1.75.14,3.51.04,5.27.02,1.65-.02,3.24-.46,3.31-2.35.08-2.11-1.66-2.5-3.34-2.56-1.91-.07-3.83,0-5.75-.03-.68-.01-1.36-.14-2.1-.22v-7.26Z"/>
  <path class="cls-1" d="M296.88,314.59c.72-13.26,3.84-25.52,10.99-36.5,3.28-5.04,7.46-9.19,13.62-10.63,4.64-1.08,6.81.39,7.95,5.1,1.77,7.31.68,14.51-1.19,21.54-2.27,8.53-5.78,16.61-11.37,23.55-2.23,2.76-4.79,5.43-7.7,7.42-5.52,3.78-10.64,1.33-11.75-5.27-.3-1.8-.39-3.64-.54-5.2Z"/>
  <path class="cls-1" d="M224.82,316.22c1.04-13.11,4.35-25.16,12.3-35.64,3.18-4.19,6.9-7.83,12.36-8.8,1.48-.27,3.27-.16,4.62.44,2.8,1.24,3.09,3.55,1.11,5.79-5.54,6.26-8.06,13.83-9.3,21.9-.98,6.38-.82,12.71,1.2,18.92.18.55.23,1.39-.07,1.82-3.25,4.72-6.83,9.09-12.89,10.28-3.34.66-5.67-.25-6.72-3.42-1.22-3.64-1.76-7.51-2.59-11.28Z"/>
  <path class="cls-1" d="M257.3,309.59c-.33-8.84,1.09-17.2,7.18-24.28-4.48,7.54-5.96,15.86-5.97,24.58-.4-.1-.8-.2-1.21-.3Z"/>
  <path class="cls-1" d="M209.15,158.43c-.07-11.02,8.43-14.99,15.9-12.26,5.15,1.89,7.63,7.05,7.01,14.06-.53,5.96-3.89,10.01-9.18,11.07-7.58,1.52-13.67-4.2-13.73-12.88Z"/>
  <path class="cls-1" d="M240.16,219.51c-5.41.07-9.16-3.92-9.31-9.89-.15-6.09,3.54-10.46,8.92-10.55,5.66-.1,9.39,3.81,9.47,9.93.09,6.42-3.38,10.43-9.08,10.51Z"/>
</svg>