<?xml version="1.0" encoding="UTF-8"?>
<svg id="Layer_1" xmlns="http://www.w3.org/2000/svg" viewBox="0 0 500 500">
  <defs>
    <style>
      .cls-1 {
        fill: #fdb815;
      }

      .cls-2 {
        stroke: gray;
      }

      .cls-2, .cls-3, .cls-4 {
        fill: none;
        stroke-miterlimit: 10;
      }

      .cls-3 {
        stroke: #fedc8a;
      }

      .cls-4 {
        stroke: #7f5c0b;
      }
    </style>
  </defs>
  <path class="cls-2" d="M303.47,228.04l-.03,83c0,.9.45,1.31,1.34,1.22,3.89-.37,7.71-.38,11.49-.04.49.04.9-.33.9-.82l.03-83.05"/>
  <path class="cls-3" d="M317.2,228.34l.24-.24c.09-.09.21-.15.34-.15l106.57-.05"/>
  <path class="cls-4" d="M424.36,227.91c.64-5.08.74-10.08.33-14.98-.23-2.59-1.03-4.6-2.45-6.06-2.36-2.44-5.37-3.66-9.02-3.66-102.59-.01-210.98-.01-325.18,0-3.01,0-5.85.7-8.52,2.12-3.01,1.61-4.54,3.54-4.58,5.81-.12,5.44-.17,11.06-.13,16.87M317.2,228.34l-13.73-.31"/>
  <line class="cls-3" x1="424.65" y1="320.64" x2="75.14" y2="320.6"/>
  <path class="cls-4" d="M75.14,320.6c-.45,7.28-.58,12.16-.38,14.66.49,6.33,5.49,9.94,11.33,9.94,112.83-.04,221.19-.03,325.1.01,4.39,0,9.35-.88,12-4.66.92-1.31,1.42-3.34,1.5-6.08.13-4.31.12-8.93-.04-13.84"/>
  <path class="cls-1" d="M323.24,154.06c0,7.06-5.73,12.79-12.79,12.79s-12.79-5.73-12.79-12.79,5.73-12.79,12.79-12.79,12.79,5.73,12.79,12.79h0Z"/>
  <path d="M424.36,227.91c.64-5.08.74-10.08.33-14.98-.23-2.59-1.03-4.6-2.45-6.06-2.36-2.44-5.37-3.66-9.02-3.66-102.59-.01-210.98-.01-325.18,0-3.01,0-5.85.7-8.52,2.12-3.01,1.61-4.54,3.54-4.58,5.81-.12,5.44-.17,11.06-.13,16.87v15.96c.01,1.75.96,3.36,2.48,4.23,7.51,4.3,15.37,7.23,22.3,12.51,6.1,4.67,5.8,9.42,6,17.71.17,7.57.07,14.56-.32,20.95-.37,6.23-5.21,11.28-11.18,12.73-11.29,2.76-32.1,2.65-32.11-13.33,0-4.92.05-9.76.16-14.5.01-.32.17-.48.49-.48l14.96.04c.62.01.93.32.92.94-.05,4.52-.05,8.86-.01,13.04.03,3.24,2.89,6.22,6.35,4.84,2.33-.93,3.52-2.64,3.53-5.15.04-7.99.04-16.57,0-25.76-.01-2.67-1.21-4.58-3.57-5.73-6.9-3.34-22.75-10.03-22.76-18.8-.01-11.85-.01-23.27,0-34.29,0-4.44.25-8.3,3-12.07,5.54-7.59,13.64-10.98,23.03-10.98,74.99-.01,146.51.01,214.57.05.5,0,.92-.41.92-.93l-.17-14.84c-.01-.61.48-1.1,1.09-1.11l11.82-.19c.49-.01.9.4.9.89v15.44c.01.38.33.7.73.7,34.5.01,65.78,0,93.84-.07,14.17-.04,26.66,8.79,26.26,24-.12,4.43-.12,8.82,0,13.16.01.62-.29.93-.92.93h-12.75Z"/>
  <path class="cls-1" d="M424.36,227.91l-106.57.05c-.13,0-.25.05-.34.15l-.24.24-13.73-.31-228.66-.03c-.04-5.81.01-11.43.13-16.87.04-2.27,1.57-4.2,4.58-5.81,2.67-1.42,5.5-2.12,8.52-2.12,114.2-.01,222.59-.01,325.18,0,3.65,0,6.66,1.22,9.02,3.66,1.42,1.46,2.23,3.48,2.45,6.06.41,4.89.31,9.9-.33,14.98h0Z"/>
  <path d="M317.2,228.34l-.03,83.05c0,.49-.41.86-.9.82-3.78-.34-7.6-.33-11.49.04-.89.09-1.34-.32-1.34-1.22l.03-83,13.73.31h0Z"/>
  <path d="M377.93,246.56c4.92-2.15,10.4-2.75,15.35-.78,4.35,1.71,5.45,6.34,5.47,10.63.04,19.91.07,38.08.05,54.53,0,.65-.53,1.18-1.18,1.18l-11.81.04c-.5,0-.9-.4-.9-.9v-54.52c.01-2.15-1.06-3.29-3.2-3.42l-.69-.05c-2.72-.17-4.09,1.11-4.09,3.86v54.12c0,.62-.54,1.11-1.18,1.06-3.89-.38-7.61-.38-11.18.01-.76.08-1.42-.52-1.42-1.27l-.03-74.14c0-.21.17-.38.38-.38l12.58-.08c.52-.01.77.24.77.76l.09,8.73c0,.7.33.92.98.64h0Z"/>
  <path d="M131.08,261.19c.78-.41,1.17-1.06,1.18-1.94l.04-10.47c.01-2.11-1.02-3.3-3.1-3.58-.33-.04-.68-.07-1.01-.05-2.56.09-3.83,1.42-3.82,3.99l.08,10.12c.01.89-.72,1.62-1.61,1.62l-11.78-.08c-.42-.01-.77-.37-.73-.8.72-8.45-2.4-19.26,8.93-22.31,8.5-2.28,26.86-2.4,26.83,10.59-.03,22.23-.01,43.3.05,63.21,0,.32-.25.58-.58.61-5.16.25-9.92.04-14.26-.64-.48-.07-.94-.01-1.38.19-3.25,1.45-7.07,1.8-11.46,1.05-6.1-1.05-8.14-5.01-8.14-10.63,0-8.81.11-16.79.31-23.97.25-8.44,14.22-13.65,20.45-16.91M124.49,301.45c.01.9.74,1.66,1.64,1.67l4.24.12c.94.03,1.74-.73,1.74-1.67l.28-28.06c.01-1.29-1.35-2.12-2.49-1.53l-4.71,2.49c-.56.29-.92.88-.9,1.51l.2,25.46h0Z"/>
  <path d="M166.75,238.32c6.91-3.12,15.31-2.79,18.86,4.43,1.05,2.12,1.55,6,1.49,11.61-.23,19.8-.24,38.72-.07,56.72.01.7-.6,1.25-1.3,1.18-3.89-.4-7.79-.38-11.67.05-.42.05-.8-.29-.8-.72l-.04-62.96c0-1.8-1.42-3.3-3.24-3.4l-.72-.03c-2.67-.15-3.99,1.11-3.99,3.78l-.05,62.05c0,.61-.49,1.1-1.09,1.09l-11.89-.08c-.5,0-.9-.4-.9-.9l.03-73.73c0-.52.42-.93.94-.93h11.26c.38.01.74.19.98.48l.85,1.02c.36.45.81.56,1.34.32h0Z"/>
  <path d="M214.03,245.39l-.2-7.64c-.01-.81.37-1.21,1.18-1.21l11.79-.09c.57-.01,1.03.45,1.03,1.02l.09,73.47c0,1.06-.53,1.53-1.58,1.38-2.67-.38-5.31-.42-7.92-.15-2.15.23-3.37-.62-5.29-1.15-.45-.12-.88-.08-1.29.15-3.5,1.87-7.68,2.02-12.52.44-5.37-1.76-7.12-5.74-7.14-10.88-.01-15.96-.01-30.97.03-45.05.03-13.2,12-11.96,20.61-9.38.82.25,1.22-.05,1.19-.92M214.05,256.82c0-1.96-1.59-3.56-3.55-3.56h-.9c-1.97,0-3.56,1.58-3.56,3.55l-.08,43.08c0,1.96,1.59,3.56,3.55,3.56h.9c1.97,0,3.56-1.58,3.56-3.55l.08-43.08h0Z"/>
  <path d="M253.56,281.66l5.33-44.45c.05-.45.42-.78.88-.77l11.43.11c.68,0,1.23.5,1.31,1.18l5.17,43.07c.31,2.59.64,2.59.98,0l5.81-43.56c.07-.52.36-.78.89-.78h11.66c.89-.03,1.27.41,1.14,1.3l-10.45,73.47c-.09.66-.7,1.14-1.38,1.09-4.51-.42-9.15-.45-13.94-.07-.98.08-1.86-.6-2.03-1.57l-3.54-19.61c-.62-3.42-1.21-3.42-1.78.01l-3.37,20.14c-.08.52-.53.89-1.06.9l-15.86.03c-.58,0-1.07-.42-1.15-.99l-10.45-73.58c-.11-.73.21-1.1.96-1.09l12.06.05c.46,0,.73.24.8.7l5.66,44.36c.01.17.09.29.24.37.09.05.21.07.33.05.23-.04.34-.16.37-.37h0Z"/>
  <path d="M340.83,245.27l-.8-.03c-2.59-.07-3.89,1.19-3.87,3.78v50.69c.01,2.77,1.39,4.05,4.15,3.82l.37-.03c2.27-.17,3.41-1.41,3.41-3.69l.04-24.98c0-.44.4-.78.84-.73,3.77.48,7.69.49,11.79.03.69-.08,1.3.46,1.29,1.17-.09,7.03-.08,14.59.05,22.67.13,7.48-3.02,12.42-10.68,13.95-10.05,2-25.14,1.01-25.11-12.52.03-17.02-.01-33.14-.12-48.34-.01-2.72.44-5.16,1.35-7.34,3.75-8.85,19.34-8.04,26.56-5.76,5.98,1.88,8.12,6.8,7.96,12.73-.13,4.83-.12,9.46.03,13.88.01.7-.32,1.06-1.02,1.05l-12.32-.05c-.38-.01-.7-.32-.69-.7l.09-16.18c.01-2.22-1.09-3.36-3.32-3.42h0Z"/>
  <path d="M75.14,320.6c-.45,7.28-.58,12.16-.38,14.66.49,6.33,5.49,9.94,11.33,9.94,112.83-.04,221.19-.03,325.1.01,4.39,0,9.35-.88,12-4.66.92-1.31,1.42-3.34,1.5-6.08.13-4.31.12-8.93-.04-13.84l-.05-10.36c-.01-1.72-1.03-3.29-2.6-4.01-4.27-1.95-8.45-4.21-12.55-6.75-4.02-2.49-6.09-5.9-6.05-10.65.11-18.16.09-35.06-.05-50.71-.01-.54.25-.81.8-.81l11.63-.03c.6-.01,1.09.48,1.09,1.09l-.03,53.36c0,1.59.74,2.67,2.23,3.24l3.62,1.38c1.31.5,1.98.05,1.98-1.35v-57.37c0-.23.12-.34.34-.34l12.52.03c.23,0,.41.19.41.41-.01,34.37-.01,67.32,0,98.85,0,13.33-12.73,22.09-25.1,22.09-119.5-.01-228.04,0-325.58.03-11.02,0-24.87-7.48-25.2-20.02-.15-5.96-.12-11.83.08-17.64.01-.36.32-.65.68-.64l12.32.17h0Z"/>
  <path class="cls-1" d="M424.65,320.64c.16,4.91.17,9.52.04,13.84-.08,2.73-.58,4.76-1.5,6.08-2.65,3.78-7.61,4.66-12,4.66-103.9-.04-212.27-.05-325.1-.01-5.84,0-10.84-3.61-11.33-9.94-.2-2.49-.07-7.38.38-14.66l349.51.04h0Z"/>
</svg>