<?xml version="1.0" encoding="UTF-8"?>
<svg id="Layer_1" xmlns="http://www.w3.org/2000/svg" viewBox="0 0 500 500">
  <defs>
    <style>
      .cls-1 {
        fill: #fff;
      }

      .cls-2 {
        fill: #f05b22;
      }
    </style>
  </defs>
  <g>
    <path class="cls-2" d="M329.34,204.01c.1.22.2.43.31.64-.14.3.05.41.28.49.51,1.74,1.22,3.43,1.58,5.22,1.17,5.75,1.07,11.47-.59,17.1-.59,2-1.52,3.86-2.52,5.72-2.58,4.79-6.42,8.12-11.21,10.47-4.45,2.18-9.2,2.97-14.12,2.97-2.02,0-4.03-.22-6.01-.5-1.32-.2-2.61-.67-3.89-1.1-2.96-.98-5.6-2.52-8-4.51-.26-.22-.54-.42-.82-.63-.12-.18-.23-.31-.3.03-.16.34-.19.7-.13,1.06-.1.2-.1.39-.05.6-.22.85-.22,1.72-.29,2.59-.04.54-.23.77-.83.76-5.77-.02-11.54,0-17.31-.01-.74,0-.74-.02-.76-.76-.01-.24,0-.49,0-.73,0-22.48.02-44.96,0-67.45,0-4.32,1.81-7.62,5.27-10.08,1.88-1.34,4-2.14,6.29-2.56,2.61-.49,5.25-.44,7.86-.74.46-.05.63.13.61.58-.01.28,0,.55,0,.83,0,9.66-.01,19.32-.02,28.98,0,.42.03.83.04,1.25-.04.13-.07.3.05.36s.24-.06.31-.18c2.33-1.72,4.85-3.05,7.6-3.99,3.79-1.29,7.68-1.8,11.66-1.71,3.63.09,7.17.68,10.57,1.98,2.64,1,5.07,2.36,7.27,4.15.56.46,1.11.91,1.55,1.51.3.41.77.7,1.13,1.05,1.26,1.25,2.34,2.67,3.16,4.24.38.73.92,1.37,1.12,2.18-.02.14.05.18.18.18M284.7,217.72c0,1.32.02,2.64-.01,3.96-.02.65.14,1.22.43,1.79,1.9,3.75,4.95,6.09,8.95,7.17,2.8.76,5.64.72,8.43-.05,5.63-1.55,8.59-5.67,9.11-11.26.14-1.45.03-2.88-.18-4.34-.7-4.71-3.26-7.9-7.6-9.72-1.61-.68-3.34-.81-5.04-.99-1.85-.19-3.66.15-5.41.71-3.69,1.18-6.52,3.45-8.26,6.97-.28.57-.44,1.15-.43,1.79.04,1.32.01,2.64.01,3.96"/>
    <path class="cls-2" d="M230.68,210.22c1.1.17,2.14.52,3.17.91.89.33,1.75.75,2.67,1,.17.06.17-.03.14-.15.25-3.37-1-5.95-4.02-7.58-.57-.31-1.18-.52-1.82-.66-.79-.18-1.51-.61-2.33-.76-2.51-.46-5.04-.53-7.57-.49-3.02.04-6.04.17-8.99.92-1.8.45-3.53,1.07-5.25,1.76-.15-.07-.18.02-.2.14-.26.06-.38-.04-.42-.3-.3-2.41-.71-4.81-.87-7.24-.15-2.39.88-4.23,2.73-5.65,1.51-1.17,3.26-1.84,5.11-2.2,4.57-.89,9.19-1.26,13.85-1.19,4.98.07,9.91.58,14.66,2.19,3.83,1.31,7.27,3.26,10,6.31,1.73,1.93,3,4.11,3.86,6.59.94,2.72,1.29,5.5,1.3,8.34.01,8.09.01,16.18,0,24.28,0,1.36-.06,2.73-.36,4.07-.56,2.4-2.05,3.78-4.46,4.2-.86.15-1.72.23-2.59.23-3.27,0-6.53,0-9.8,0-1.03,0-1.02.07-1.14-.97-.12-1-.13-2.01-.39-2.99.02-.18.1-.41-.23-.36-.57.44-1.14.9-1.72,1.32-3.15,2.27-6.69,3.6-10.49,4.24-1.26.21-2.54.32-3.81.47-.2-.05-.41-.07-.6.02-1.98-.06-3.96-.01-5.93-.25-4.38-.53-8.43-1.88-11.98-4.58-2.33-1.77-4.12-4-5.19-6.66-1.1-2.76-1.4-5.71-1.25-8.7.11-2.13.49-4.21,1.24-6.17.83-2.18,2.15-4.11,3.88-5.72,2.7-2.51,5.91-4,9.45-4.81,5.28-1.2,10.6-1.24,15.94-.33.95.17,1.9.34,2.85.51.14.18.25.45.57.3M236.71,226.97c0-.49-.06-.98.01-1.45.13-.84-.26-1.26-.94-1.64-1.09-.6-2.2-1.15-3.37-1.55-2.97-1.03-6-1.39-9.13-.97-1.66.22-3.15.86-4.37,1.96-1.47,1.32-2.15,5.1-1.27,6.96.99,2.09,2.62,3.44,4.95,3.81,3.07.49,6.05.3,8.94-.97,1.63-.71,3.13-1.57,4.37-2.87.58-.61.95-1.25.83-2.12-.05-.38,0-.76,0-1.15"/>
    <path class="cls-2" d="M129.13,246.45c-1.59.1-3.18.18-4.78.17-2.89-.04-5.74-.36-8.52-1.17-3.59-1.05-6.76-2.81-9.37-5.51-1.51-1.56-2.67-3.39-3.37-5.41-.86-2.46-1.08-5.06-.99-7.69.07-2.03.36-4.03,1-5.93.56-1.66,1.43-3.22,2.54-4.63,2.35-2.99,5.49-4.8,9.03-5.97,2.42-.81,4.93-1.21,7.46-1.39,3.55-.24,7.08-.14,10.59.51,1.9.35,3.77.83,5.65,1.32.12.23.25.42.55.22.82.47,1.76.67,2.63,1.03.16.15.32.33.45-.03.09-.87.05-1.73-.13-2.59-.47-2.31-1.84-3.92-3.89-4.99-1.45-.76-3.01-1.13-4.63-1.44-2.93-.55-5.87-.5-8.81-.39-1.63.06-3.28.07-4.9.38-2.62.49-5.2,1.15-7.63,2.27-.41.19-.55.14-.61-.3-.28-2.27-.61-4.54-.84-6.82-.26-2.59.82-4.59,2.88-6.1,1.84-1.35,3.97-1.94,6.17-2.32.38-.06.76-.11,1.13-.17.31.34.44-.05.63-.15,3.41-.39,6.83-.68,10.27-.63,2.61.03,5.21.09,7.78.51,2.48.41,4.96.77,7.33,1.64.94.34,1.85.72,2.78,1.08.02.12.07.2.22.17,2.35.92,4.35,2.39,6.19,4.1,1.16,1.09,2.14,2.35,3.02,3.68.38.59.57,1.24.88,1.85-.04.12,0,.17.13.14,1.08,1.98,1.55,4.14,1.87,6.35.19,1.34.23,2.7.23,4.05,0,8.06,0,16.12,0,24.18,0,1.05-.06,2.08-.2,3.12-.13.97-.46,1.88-.91,2.73-.76,1.43-2.11,2.06-3.62,2.36-.82.16-1.65.25-2.49.25-3.37,0-6.74,0-10.11,0-.94,0-.92-.01-1.05-.97-.14-1.12-.15-2.26-.43-3.33-.33-.07-.46.14-.6.26-3.08,2.64-6.68,4.19-10.6,5.06-.77.17-1.55.31-2.33.46-.2-.04-.4-.04-.6.06M142.04,226.96c0-.49-.06-.98.01-1.45.13-.84-.27-1.26-.95-1.63-2.11-1.16-4.3-1.98-6.7-2.35-1.9-.3-3.78-.45-5.68-.17-3.88.59-6.24,2.8-6.06,6.9.12,2.84,1.55,4.48,4,5.5,1.06.44,2.28.53,3.47.57,2.35.07,4.61-.25,6.76-1.22,1.48-.66,2.89-1.41,4.08-2.56.77-.75,1.26-1.53,1.08-2.65-.05-.31,0-.62,0-.94"/>
    <path class="cls-2" d="M375.64,189.23c2.56.46,5.11.92,7.6,1.78,2.96,1.02,5.65,2.44,8.02,4.45,1.98,1.68,3.58,3.68,4.72,6.01.41.83.73,1.71,1.09,2.56-.2.29-.01.42.22.55-.03.71.32,1.33.44,2.01.31,1.68.47,3.37.47,5.07-.01,8.37-.01,16.74,0,25.11,0,1.6-.13,3.18-.68,4.69-.49,1.35-1.4,2.3-2.74,2.82-1.05.41-2.14.6-3.26.6-3.61.02-7.23,0-10.84.04-.62,0-.76-.28-.81-.79-.12-1.14-.17-2.28-.43-3.4-.09-.34-.22-.23-.36-.03-2.03,1.65-4.22,3.01-6.68,3.97-3.77,1.47-7.69,1.99-11.71,1.94-.38,0-.76.01-1.14.02-.2-.09-.4-.07-.6-.02-1.42-.15-2.85-.21-4.24-.49-1.49-.3-2.96-.72-4.4-1.23-2.75-.97-5.18-2.51-7.29-4.48-1.28-1.19-2.28-2.69-3.07-4.3-1.07-2.17-1.57-4.47-1.68-6.87-.13-2.88.03-5.74,1.03-8.48,1.48-4.06,4.21-7.03,8.02-9.03,3.63-1.9,7.56-2.63,11.6-2.88,2.88-.17,5.76-.1,8.63.34,2.57.4,5.12.91,7.56,1.82.79.3,1.63.52,2.36,1,.45.29.67.18.69-.3.15-3.02-1-5.63-3.62-7.09-1.64-.92-3.43-1.57-5.31-1.79-5.27-.63-10.53-.59-15.75.52-1.84.39-3.57,1.09-5.3,1.76-.5.19-.62.09-.68-.34-.17-1.27-.34-2.54-.5-3.82-.1-.83-.17-1.66-.3-2.48-.38-2.57.51-4.63,2.49-6.24,1.57-1.29,3.42-1.99,5.38-2.36,6.18-1.19,12.41-1.46,18.67-.92.73.06,1.46.08,2.17.26.02.05.05.1.08.15l.09-.15M378.2,226.95c0-.55-.04-1.11.01-1.66.04-.59-.17-.95-.69-1.26-1.28-.76-2.62-1.4-4.03-1.85-2.85-.91-5.76-1.25-8.73-.82-3.62.52-5.68,2.58-5.92,6.02-.22,3.16,1.41,5.69,4.61,6.5,2.56.65,5.13.67,7.67-.11,2.21-.68,4.3-1.59,6.01-3.24.77-.74,1.27-1.53,1.09-2.65-.05-.31,0-.62,0-.94"/>
    <path class="cls-2" d="M64.19,227.82c-.33-7.83-.09-15.65-.17-23.49,0-.17-.02-.34-.04-.51.02-.14-.02-.22-.17-.2-1.98-.15-3.96-.04-5.94-.06-1.26-.02-2.5-.12-3.65-.68-2.8-1.39-4.34-3.61-4.42-6.76-.04-1.6-.01-3.2,0-4.8,0-.73.02-.75.76-.78,2.5-.1,5-.18,7.5-.27,1.74-.07,3.47-.13,5.2-.2.73-.03.74-.04.74-.79,0-2.96.12-5.92-.04-8.86-.38-6.77,4.13-10.75,8.32-12.44,1.88-.76,3.84-1.16,5.86-1.29,1.66-.1,3.33-.25,4.99-.36,1.08-.07,1.09-.07,1.09,1.02v20.64c0,.42.03.83.04,1.25-.02.14.02.22.18.21,2.32.13,4.65.02,6.98.06,1.11.02,2.18.12,3.25.53,2.6.98,4.09,2.78,4.6,5.51.44,2.35.59,4.74.9,7.11.12.9.12.91-.83.91h-13.44c-.49,0-.97.04-1.45.06-.16-.02-.21.07-.18.21-.01.45-.04.9-.04,1.35,0,5.49-.09,10.99.03,16.47.1,4.29,2.26,7.46,6.07,9.36,1.21.6,2.69.63,4.09.47.83-.1,1.65-.22,2.46-.44.6-.17.64-.14.66.51.01.91,0,1.81,0,2.71,0,2.85-.03,5.7.02,8.55.02.85-.26,1.31-.99,1.71-10.22,5.68-23.44,2.43-29.59-8.21-1.31-2.27-2.2-4.67-2.58-7.27-.04-.28-.12-.54-.18-.81.06-.14.05-.27-.03-.4"/>
    <path class="cls-2" d="M413.98,215.4c0-3.51,0-7.02,0-10.53,0-1.43.18-1.31-1.37-1.32h-5.21c-3.94,0-6.7-2.66-7.44-5.79-.1-.43-.17-.89-.18-1.34-.02-1.7-.02-3.41-.01-5.11,0-.73.03-.75.77-.78,2.22-.09,4.45-.17,6.67-.25,1.98-.07,3.96-.14,5.94-.22.82-.03.83-.04.83-.92,0-2.99,0-5.98-.03-8.97-.02-1.47.07-2.92.5-4.33.2-.65.47-1.26.81-1.85,2.15-3.82,5.55-5.85,9.67-6.87,1.73-.42,3.51-.45,5.27-.6,1.11-.1,2.22-.14,3.33-.23.47-.04.74.09.69.62-.02.24,0,.49,0,.73v20.44c0,.24.02.49,0,.73-.07.58.22.7.73.7,2.3-.02,4.59-.01,6.89,0,2.02,0,3.82.6,5.33,2.01,1.32,1.24,2.06,2.78,2.27,4.57.27,2.24.5,4.49.75,6.73.08.72.07.74-.71.75-3.54,0-7.09,0-10.64,0-1.32,0-2.64.02-3.96,0-.5,0-.67.17-.66.67.02,1.88,0,3.76,0,5.63,0,4,.06,8-.01,12-.07,3.5,2.89,7.94,6.13,9.19,1.24.48,2.63.6,4,.45.83-.09,1.65-.21,2.46-.42.66-.18.7-.15.7.56.01,2.46,0,4.93,0,7.4,0,1.35-.03,2.71.01,4.06.02.65-.22,1-.78,1.31-5.76,3.18-11.79,3.78-17.99,1.66-5.8-1.98-9.98-5.87-12.64-11.39-1.35-2.79-1.98-5.76-2.04-8.84-.06-3.47-.01-6.95-.01-10.43h-.07Z"/>
    <path class="cls-2" d="M189.84,203.72v39.93c0,1.45.13,1.26-1.29,1.26-5.8,0-11.6,0-17.41,0-.24,0-.49-.01-.73,0-.38.01-.6-.12-.57-.54.02-.24,0-.49,0-.73,0-22.45,0-44.9,0-67.35,0-1.63.15-3.22.73-4.78.63-1.71,1.67-3.1,2.95-4.34,2.41-2.31,5.35-3.53,8.62-4.01,2.34-.34,4.71-.35,7.06-.58.46-.04.64.12.62.57-.01.28,0,.55,0,.83v39.72"/>
    <path class="cls-2" d="M358.96,246.62c.2-.06.41-.07.6.02-.2.14-.41.14-.6-.02"/>
    <path class="cls-2" d="M221.1,246.64c.2-.09.4-.07.6-.02-.2.15-.4.16-.6.02"/>
    <path class="cls-2" d="M397.29,204.58c-.23-.12-.42-.26-.21-.55.16.15.22.33.21.55"/>
    <path class="cls-2" d="M329.94,205.14c-.23-.08-.42-.18-.28-.49.18.11.27.28.28.49"/>
    <path class="cls-2" d="M230.68,210.22c-.32.15-.42-.11-.57-.3.24,0,.44.08.57.3"/>
    <path class="cls-2" d="M138.91,210.96c-.29.2-.42.01-.54-.22.21,0,.4.05.54.22"/>
    <path class="cls-2" d="M64.19,227.82c.08.13.09.26.03.4-.11-.12-.13-.26-.03-.4"/>
    <path class="cls-2" d="M121.38,189.34c-.2.1-.33.5-.63.15.19-.14.4-.18.63-.15"/>
    <path class="cls-2" d="M283.88,241.57c-.06-.2-.06-.41.05-.6.07.2.05.41-.05.6"/>
    <path class="cls-2" d="M129.14,246.45c.19-.09.39-.1.6-.06-.19.14-.39.16-.6.06"/>
    <path class="cls-2" d="M141.99,211.96c-.12.37-.29.18-.45.03.15-.01.3-.02.45-.03"/>
    <path class="cls-2" d="M285.11,194.41c-.07.12-.2.24-.31.18-.12-.06-.1-.23-.06-.36.12.06.24.12.36.18"/>
    <path class="cls-2" d="M237.74,240.59c.33-.05.25.18.23.36-.08-.12-.15-.24-.23-.36"/>
    <path class="cls-2" d="M329.34,204.01c-.12,0-.2-.05-.17-.18.06.06.12.12.17.18"/>
    <path class="cls-2" d="M84.29,203.82c-.02-.14.02-.23.18-.21-.06.07-.12.14-.18.21"/>
    <path class="cls-2" d="M63.82,203.62c.15-.01.19.07.17.2-.06-.07-.11-.14-.17-.2"/>
    <path class="cls-2" d="M236.67,211.96c.02.12.02.22-.14.15.05-.05.09-.1.14-.15"/>
    <path class="cls-2" d="M159.97,201.88c-.12.03-.17-.01-.12-.14.05.04.09.08.12.14"/>
    <path class="cls-2" d="M149.75,192.11c-.14.02-.2-.05-.22-.17.07.06.14.12.22.17"/>
    <path class="cls-2" d="M375.64,189.23s-.06.1-.1.15c-.02-.05-.05-.1-.08-.15.06,0,.12,0,.18,0"/>
    <path class="cls-2" d="M284.06,239.91c.07-.33.18-.21.3-.03-.1.01-.2.02-.3.03"/>
    <path class="cls-2" d="M84.47,189.44c-.16.01-.2-.07-.18-.21l.18.21Z"/>
    <path class="cls-2" d="M379.09,240.71c.14-.19.26-.31.36.03-.12-.01-.24-.02-.36-.03"/>
    <path class="cls-2" d="M206.49,205.29c.02-.12.05-.21.2-.14-.07.04-.13.09-.2.14"/>
  </g>
  <g>
    <path class="cls-2" d="M200.31,337.42l15.67-64.87h231.36l-13.96,64.65s-232.36-.33-233.07.22Z"/>
    <g>
      <path class="cls-1" d="M251.4,295.43h9.39l-13.59,13.75,7.78,16.75h-9.17l-4.99-11.46-3.27,1.96-2.02,9.5h-8.21l9-42.46h8.21l-4.04,18.94c-.15.75-.41,1.81-.79,3.19l-.76,2.78h.11l12.36-12.96Z"/>
      <path class="cls-1" d="M267.25,325.94h-8.21l6.47-30.51h8.21l-6.47,30.51ZM266.82,288.28c0-1.58.43-2.78,1.3-3.59.86-.81,2.09-1.22,3.67-1.22,1.33,0,2.34.28,3.03.85s1.04,1.37,1.04,2.43c0,1.46-.4,2.63-1.2,3.53-.8.9-2.04,1.35-3.71,1.35-2.75,0-4.12-1.12-4.12-3.36Z"/>
      <path class="cls-1" d="M288.65,319.85c1.18,0,2.66-.32,4.42-.96v6.14c-2.02.96-4.44,1.45-7.26,1.45s-4.73-.57-6.02-1.72c-1.28-1.15-1.92-2.92-1.92-5.32,0-.91.11-1.93.33-3.06l3.14-14.71h-4.15l.79-4.01,5.35-2.29,3.6-6.44h5.29l-1.34,6.49h7.72l-1.36,6.25h-7.7l-3.14,14.71c-.11.55-.16,1.03-.16,1.45,0,1.35.8,2.02,2.4,2.02Z"/>
      <path class="cls-1" d="M311.35,326.49c-3.66,0-6.46-.98-8.42-2.93-1.96-1.96-2.93-4.72-2.93-8.28,0-3.86.68-7.36,2.03-10.52,1.36-3.16,3.26-5.59,5.72-7.31s5.26-2.58,8.4-2.58c3.31,0,6.29.65,8.95,1.96l-2.51,6.25c-.98-.42-1.95-.78-2.89-1.09-.95-.31-2.02-.46-3.22-.46-1.55,0-2.94.58-4.19,1.75-1.25,1.16-2.22,2.76-2.92,4.79s-1.05,4.21-1.05,6.54c0,1.75.41,3.06,1.24,3.94.83.88,1.98,1.32,3.45,1.32,1.38,0,2.66-.21,3.85-.64,1.18-.43,2.4-.96,3.66-1.6v6.71c-2.77,1.44-5.82,2.16-9.17,2.16Z"/>
      <path class="cls-1" d="M351.19,325.94h-8.21l3.74-17.82c.29-1.24.44-2.32.44-3.25,0-2.24-.98-3.36-2.95-3.36-1.67,0-3.19,1.04-4.56,3.11-1.36,2.07-2.44,4.97-3.22,8.68l-2.67,12.63h-8.21l9-42.46h8.21c-.71,3.29-1.26,5.82-1.64,7.59-.38,1.77-1.16,4.58-2.35,8.43h.22c1.13-1.4,2.38-2.52,3.77-3.37,1.38-.85,2.98-1.27,4.8-1.27,2.51,0,4.45.76,5.83,2.28,1.37,1.52,2.06,3.69,2.06,6.51,0,1.33-.21,2.97-.63,4.91l-3.63,17.38Z"/>
      <path class="cls-1" d="M372.8,326.49c-3.82,0-6.79-1.03-8.9-3.08-2.11-2.06-3.17-4.96-3.17-8.71s.75-7.2,2.25-10.3,3.53-5.47,6.1-7.09c2.57-1.63,5.47-2.44,8.7-2.44s5.73.74,7.53,2.22,2.7,3.52,2.7,6.1c0,3.4-1.52,6.03-4.56,7.87-3.04,1.85-7.38,2.77-13.02,2.77h-1.39l-.05.57v.55c0,1.66.47,2.96,1.41,3.92s2.28,1.43,4.03,1.43c1.58,0,3.02-.17,4.31-.52s2.86-.96,4.69-1.83v6.19c-3.13,1.56-6.68,2.35-10.64,2.35ZM377.28,300.78c-1.6,0-3.11.73-4.53,2.18-1.42,1.45-2.35,3.23-2.78,5.32h1.23c2.82,0,5.02-.44,6.59-1.32,1.57-.88,2.36-2.08,2.36-3.59,0-1.73-.96-2.59-2.87-2.59Z"/>
      <path class="cls-1" d="M416.08,325.94h-8.21l3.74-17.82c.29-1.24.44-2.32.44-3.25,0-2.24-.98-3.36-2.95-3.36-1.67,0-3.19,1.04-4.56,3.11s-2.44,4.97-3.22,8.68l-2.67,12.63h-8.21l6.47-30.51h6.28l-.57,5.65h.16c2.66-4.15,5.88-6.22,9.69-6.22,2.51,0,4.45.76,5.83,2.28,1.37,1.52,2.06,3.69,2.06,6.51,0,1.33-.21,2.97-.63,4.91l-3.63,17.38Z"/>
    </g>
  </g>
</svg>