<svg width="92" height="111" viewBox="0 0 92 111" fill="none" xmlns="http://www.w3.org/2000/svg">
<g clip-path="url(#clip0_320_44942)">
<path d="M7.33626 75.1631H0.954081C0.745285 75.1631 0.571289 75.3299 0.571289 75.5454V89.8913C0.571289 90.0998 0.738325 90.2735 0.954081 90.2735H7.35714C12.3891 90.2735 15.6394 87.3057 15.6394 82.7044C15.6394 78.1032 12.3821 75.1631 7.33626 75.1631ZM7.33626 86.2909H5.15783V79.1527H7.35714C9.63301 79.1527 10.9902 80.4802 10.9902 82.7114C10.9902 84.4907 9.73741 86.2909 7.33626 86.2909Z" fill="#0078AE"/>
<path d="M43.9313 79.0627C42.1704 79.0627 40.7367 80.0288 40.0964 80.988C39.6301 79.7091 38.5652 79.0627 36.9436 79.0627C35.1479 79.0627 33.7908 79.9732 33.3105 80.5779V79.7161C33.3105 79.5076 33.1435 79.3338 32.9277 79.3338H29.6079C29.3991 79.3338 29.2251 79.5006 29.2251 79.7161V89.8986C29.2251 90.1071 29.3921 90.2809 29.6079 90.2809H32.9277C33.1365 90.2809 33.3105 90.1071 33.3105 89.8986V83.525C33.5541 83.2469 34.0483 82.6631 34.967 82.6631C35.7743 82.6631 36.2128 83.101 36.2128 83.8864V89.8917C36.2128 90.1002 36.3868 90.2739 36.5956 90.2739H39.9154C40.1242 90.2739 40.2982 90.1002 40.2982 89.8917V83.518C40.5349 83.24 41.036 82.6562 41.9755 82.6562C42.769 82.6562 43.2283 83.101 43.2283 83.8794V89.8847C43.2283 90.0932 43.3953 90.267 43.6111 90.267H46.9309C47.1397 90.267 47.3137 90.0932 47.3137 89.8847V82.3364C47.3137 80.2165 46.1166 79.0488 43.9313 79.0488" fill="#0078AE"/>
<path d="M52.6797 79.333H49.3598C49.151 79.333 48.9771 79.5068 48.9771 79.7153V89.8978C48.9771 90.1063 49.151 90.2801 49.3598 90.2801H52.6797C52.8885 90.2801 53.0625 90.1063 53.0625 89.8978V79.7153C53.0625 79.5068 52.8885 79.333 52.6797 79.333Z" fill="#0078AE"/>
<path d="M51.1135 73.9609C49.8538 73.9609 48.8237 74.9896 48.8237 76.2477C48.8237 77.5057 49.8538 78.5344 51.1135 78.5344C52.3733 78.5344 53.4033 77.5057 53.4033 76.2477C53.4033 74.9896 52.3733 73.9609 51.1135 73.9609Z" fill="#0078AE"/>
<path d="M62.6393 79.0625C60.5235 79.0625 59.3682 80.0147 58.874 80.5777V79.7159C58.874 79.5073 58.7 79.3336 58.4912 79.3336H55.1714C54.9626 79.3336 54.7886 79.5004 54.7886 79.7159V89.8984C54.7886 90.1069 54.9626 90.2807 55.1714 90.2807H58.4912C58.7 90.2807 58.874 90.1069 58.874 89.8984V83.5247C59.1385 83.2259 59.6326 82.6629 60.6209 82.6629C61.6788 82.6629 62.2078 83.1911 62.2078 84.2267V89.8984C62.2078 90.1069 62.3748 90.2807 62.5906 90.2807H65.9104C66.1192 90.2807 66.2932 90.1069 66.2932 89.8984V82.51C66.2932 80.3553 64.9291 79.0625 62.6393 79.0625Z" fill="#0078AE"/>
<path d="M22.2236 79.0068C19.029 79.0068 16.4399 81.5924 16.4399 84.7827C16.4399 87.973 19.029 90.5586 22.2236 90.5586C25.4181 90.5586 28.0072 87.973 28.0072 84.7827C28.0072 81.5924 25.4181 79.0068 22.2236 79.0068ZM22.2236 86.6733C21.1309 86.6733 20.2539 85.7906 20.2539 84.6993C20.2539 83.6081 21.1378 82.7323 22.2236 82.7323C23.3093 82.7323 24.2002 83.615 24.2002 84.6993C24.2002 85.7836 23.3163 86.6733 22.2236 86.6733Z" fill="#0078AE"/>
<path d="M73.2875 79.0273C70.093 79.0273 67.5039 81.6129 67.5039 84.8032C67.5039 87.9935 70.093 90.5791 73.2875 90.5791C76.4821 90.5791 79.0712 87.9935 79.0712 84.8032C79.0712 81.6129 76.4821 79.0273 73.2875 79.0273ZM73.2875 86.6938C72.1948 86.6938 71.3179 85.8111 71.3179 84.7198C71.3179 83.6286 72.2018 82.7528 73.2875 82.7528C74.3733 82.7528 75.2641 83.6355 75.2641 84.7198C75.2641 85.8041 74.3802 86.6938 73.2875 86.6938Z" fill="#0078AE"/>
<path d="M82.2589 75.7955C82.2589 75.7885 82.2589 75.7746 82.2589 75.7677C82.0014 74.6278 80.7625 73.8076 79.5376 74.0578C78.3057 74.315 77.4914 75.4619 77.735 76.6156C77.9299 77.5679 78.7859 78.2351 79.7673 78.2907C79.7046 78.6799 79.3566 79.0275 79.0713 79.1943C78.8764 79.3055 78.9947 79.5071 78.9947 79.5071L79.2522 79.8824C79.3288 80.0075 79.4402 80.077 79.5654 80.0214C82.0988 78.9858 82.5303 76.8242 82.2659 75.8024L82.2589 75.7955Z" fill="#0078AE"/>
<path d="M85.2029 82.5861C85.1959 82.176 85.7248 81.9953 86.386 81.9953C87.7084 81.9953 88.4601 82.3706 89.3022 82.9267C89.3927 82.9892 89.4971 83.0031 89.6015 82.9823C89.7059 82.9545 89.7894 82.8919 89.8451 82.8015L90.9656 80.8554C91.07 80.6747 91.0074 80.4453 90.8334 80.3411C89.9147 79.792 88.5645 79.083 86.219 79.083C82.8365 79.083 81.0339 80.6747 81.3332 82.9545C81.8621 86.9649 88.1121 85.5957 88.0146 86.9649C87.9938 87.2846 87.437 87.521 86.4835 87.521C85.2446 87.521 83.8387 86.9024 82.9548 86.3533C82.8643 86.2977 82.7599 86.2838 82.6625 86.3116C82.5581 86.3394 82.4746 86.4019 82.4259 86.4923L81.1313 88.6469C81.0339 88.8207 81.0826 89.0431 81.2497 89.1543C82.4955 89.9953 84.4999 90.5583 86.2468 90.5583C89.6293 90.5583 91.5781 89.1057 91.5781 86.7216C91.5781 82.322 85.2377 83.6843 85.2098 82.6" fill="#0078AE"/>
<path d="M79.7115 19.6422L61.247 1.20939C60.4675 0.430933 59.4305 0 58.3309 0C57.2312 0 56.1942 0.430933 55.4147 1.20939L39.936 16.6674L14.1706 42.3982C12.5629 44.0038 12.5629 46.6172 14.1706 48.2228L32.6282 66.6626C33.4077 67.441 34.4447 67.8719 35.5443 67.8719C36.644 67.8719 37.681 67.441 38.4605 66.6626L61.5533 43.5937L79.7046 25.4667C81.3123 23.8612 81.3123 21.2478 79.7046 19.6422H79.7115Z" fill="white"/>
<path d="M78.4028 20.9556L59.9453 2.51588C59.0545 1.62622 57.6138 1.62622 56.7229 2.51588L36.769 22.45L58.449 44.1009L78.4098 24.1668C79.3007 23.2771 79.3007 21.8384 78.4098 20.9487L78.4028 20.9556ZM62.1655 26.2867C61.1215 27.3293 59.7505 27.8506 58.3863 27.8506C57.0222 27.8506 55.6511 27.3293 54.6071 26.2867C53.5632 25.2441 53.0412 23.8749 53.0412 22.5126C53.0412 21.1433 53.5701 19.7741 54.6071 18.7384C55.6511 17.6958 57.0222 17.1746 58.3863 17.1746C59.7505 17.1746 61.1215 17.6958 62.1655 18.7384C63.2095 19.7741 63.7315 21.1503 63.7315 22.5126C63.7315 23.8749 63.2025 25.2441 62.1655 26.2867Z" fill="#E31937"/>
<path d="M15.4723 43.7054C14.5815 44.595 14.5815 46.0338 15.4723 46.9235L33.9299 65.3632C34.3753 65.8081 34.9599 66.0305 35.5445 66.0305C36.1292 66.0305 36.7138 65.8081 37.1592 65.3632L57.1062 45.4361L35.4262 23.7852L15.4793 43.7054H15.4723ZM31.4591 49.0156C30.4151 50.0512 29.044 50.5725 27.6799 50.5725C26.3088 50.5725 24.9447 50.0512 23.9007 49.0156C22.8567 47.973 22.3348 46.6038 22.3348 45.2414C22.3348 43.8791 22.8567 42.5099 23.9007 41.4604C24.9447 40.4178 26.3158 39.8965 27.6799 39.8965C29.044 39.8965 30.4151 40.4178 31.4591 41.4604C32.5031 42.5029 33.0251 43.8722 33.0181 45.2345C33.0181 46.5968 32.4961 47.973 31.4591 49.0086V49.0156ZM39.5882 41.6828C40.6322 40.6402 42.0033 40.1189 43.3674 40.1189C44.7385 40.1189 46.1026 40.6402 47.1466 41.6828C48.1975 42.7254 48.7195 44.0877 48.7195 45.4569C48.7195 46.8262 48.1975 48.1885 47.1466 49.2311C46.1026 50.2667 44.7385 50.7949 43.3674 50.7949C42.0033 50.7949 40.6322 50.2667 39.5882 49.2311C38.5442 48.1885 38.0222 46.8192 38.0222 45.4569C38.0222 44.0946 38.5442 42.7254 39.5882 41.6828Z" fill="#0078AE"/>
<path d="M38.5649 110.298C38.5649 110.506 38.732 110.68 38.9477 110.68H47.6823C47.9051 110.68 48.0651 110.513 48.0651 110.298V107.538C48.0651 107.33 47.8911 107.156 47.6823 107.156H43.9867C43.9867 107.156 47.1604 103.542 47.7311 102.881C47.8842 102.701 48.093 102.52 48.093 102.047V100.157C48.093 99.9482 47.9259 99.7744 47.7102 99.7744H38.9547C38.7459 99.7744 38.5719 99.9412 38.5719 100.157V102.916C38.5719 103.125 38.7389 103.298 38.9547 103.298H42.7061C42.7061 103.298 38.8712 107.677 38.8016 107.754C38.6485 107.934 38.5719 108.185 38.5719 108.449V110.298H38.5649Z" fill="#0078AE"/>
<path d="M49.4502 110.298C49.4502 110.506 49.6172 110.68 49.833 110.68H58.5676C58.7903 110.68 58.9504 110.513 58.9504 110.298V107.538C58.9504 107.33 58.7833 107.156 58.5676 107.156H54.9137C54.9137 107.156 58.0456 103.535 58.6163 102.881C58.7764 102.701 58.9713 102.52 58.9713 102.047C58.9713 101.95 58.9713 100.157 58.9713 100.157C58.9713 99.9482 58.8042 99.7744 58.5885 99.7744H49.833C49.6242 99.7744 49.4502 99.9412 49.4502 100.157V102.916C49.4502 103.125 49.6172 103.298 49.833 103.298H53.5843C53.5843 103.298 49.7495 107.677 49.6799 107.754C49.5267 107.934 49.4502 108.185 49.4502 108.449V110.298Z" fill="#0078AE"/>
<path d="M65.8685 107.309C64.6644 107.309 63.69 106.329 63.69 105.127C63.69 103.924 64.6644 102.951 65.8685 102.951C67.0725 102.951 68.0539 103.924 68.0539 105.127C68.0539 106.329 67.0795 107.309 65.8685 107.309ZM71.7495 99.7469H68.4297C68.2209 99.7469 68.0469 99.9206 68.0469 100.129V100.776C67.156 99.9554 66.0077 99.4619 64.7619 99.4619C61.9083 99.4619 59.5977 102.048 59.5977 105.231C59.5977 108.414 61.9083 111 64.7619 111C66.0077 111 67.1491 110.506 68.0469 109.686V110.298C68.0469 110.506 68.2209 110.68 68.4297 110.68H71.7495C71.9583 110.68 72.1323 110.513 72.1323 110.298V100.129C72.1323 99.9206 71.9583 99.7469 71.7495 99.7469Z" fill="#0078AE"/>
<path d="M36.8041 99.7744H33.4912C33.2824 99.7744 33.1084 99.9482 33.1084 100.157V110.304C33.1084 110.513 33.2824 110.68 33.4912 110.68H36.8041C37.0129 110.68 37.1869 110.513 37.1869 110.304V100.157C37.1869 99.9482 37.0198 99.7744 36.8041 99.7744Z" fill="#0078AE"/>
<path d="M35.1476 94.4229C33.8878 94.4229 32.8647 95.4446 32.8647 96.7026C32.8647 97.9607 33.8878 98.9824 35.1476 98.9824C36.4073 98.9824 37.4304 97.9607 37.4304 96.7026C37.4304 95.4446 36.4073 94.4229 35.1476 94.4229Z" fill="#0078AE"/>
<path d="M25.4876 102.923H24.6525V99.4897H25.5155C27.2206 99.4897 27.7078 100.324 27.7078 101.095C27.7078 102.041 27.2833 102.923 25.4876 102.923ZM29.761 96.7512C28.3621 95.785 26.9283 95.5557 24.6664 95.5557L20.4278 95.5696C20.226 95.5696 20.0659 95.7294 20.0659 95.931V110.312C20.0659 110.513 20.226 110.673 20.4278 110.673H24.2905C24.4924 110.673 24.6525 110.513 24.6525 110.312V109.874V106.697C26.6291 106.697 28.6404 106.677 30.1299 105.391C31.1669 104.494 31.9464 103.048 31.9464 101.095C31.9464 99.58 31.1738 97.7242 29.761 96.7442" fill="#0078AE"/>
<path d="M42.7408 66.1345V65.1337H42.3789V64.9043H43.3602V65.1337H43.0053V66.1345H42.7408Z" fill="#0078AE"/>
<path d="M44.5992 66.1345V65.2449L44.2512 66.1345H44.1398L43.7918 65.2449V66.1345H43.5273V64.9043H43.8962L44.1955 65.6758L44.4948 64.9043H44.8636V66.1345H44.5992Z" fill="#0078AE"/>
<path d="M73.4757 101.415C73.0163 101.415 72.6475 101.047 72.6475 100.588C72.6475 100.129 73.0163 99.7607 73.4757 99.7607C73.935 99.7607 74.3039 100.129 74.3039 100.588C74.3039 101.047 73.935 101.415 73.4757 101.415ZM73.4757 99.8859C73.0859 99.8859 72.7727 100.192 72.7727 100.588C72.7727 100.984 73.0859 101.29 73.4757 101.29C73.8654 101.29 74.1786 100.977 74.1786 100.588C74.1786 100.199 73.8654 99.8859 73.4757 99.8859ZM73.7054 101.067L73.4618 100.692H73.2947V101.067H73.1625V100.122H73.5522C73.7123 100.122 73.8585 100.233 73.8585 100.414C73.8585 100.623 73.6706 100.692 73.6149 100.692L73.8654 101.067H73.6984H73.7054ZM73.5522 100.233H73.2947V100.567H73.5522C73.6358 100.567 73.7262 100.497 73.7262 100.4C73.7262 100.296 73.6358 100.226 73.5522 100.226V100.233Z" fill="#0078AE"/>
</g>
<defs>
<clipPath id="clip0_320_44942">
<rect width="91" height="111" fill="white" transform="translate(0.571289)"/>
</clipPath>
</defs>
</svg>
