<svg width="164" height="49" viewBox="0 0 164 49" fill="none" xmlns="http://www.w3.org/2000/svg">
<g clip-path="url(#clip0_320_44985)">
<path d="M26.1344 24.386C26.1887 23.235 26.3312 20.5313 26.4738 18.3764C26.725 18.6977 27.1187 18.9988 27.6617 18.8784C27.9264 18.8181 28.5509 18.6508 28.6052 17.7742C28.6324 17.2589 28.2455 16.6097 27.1933 15.5122C27.1322 15.452 27.0508 15.3784 26.949 15.3114C27.5531 14.7627 28.5034 13.8191 28.9718 12.9893L29.0872 12.7818L28.9039 12.6279C27.94 11.8114 26.5824 11.0686 25.9579 10.7474C25.6592 10.5801 25.4013 10.4462 25.1841 10.3459C25.2248 10.3124 25.2655 10.2856 25.2995 10.2522C25.8832 9.67664 28.293 6.97301 26.7725 3.33247C25.2723 -0.26791 21.471 -0.247833 19.4618 0.213926C18.7287 0.407999 18.0431 0.769375 17.7309 0.956756C16.4208 1.80666 15.4094 3.11163 15.0971 4.65083C14.7577 6.33056 15.2872 8.19767 16.5633 9.38219C16.8145 9.61641 16.9163 9.68333 16.9638 9.64987C16.9299 9.66995 17.0113 9.34203 17.5679 8.84681C17.7309 8.69959 18.7083 7.85637 20.0524 8.30475C20.8126 8.55905 21.1588 8.9472 21.41 9.48257C21.5321 9.74356 21.5932 10.0715 21.5864 10.3726C21.5661 10.386 21.5457 10.3927 21.5186 10.4061C20.5139 11.0084 19.4618 12.4137 19.7062 15.6862C19.9981 19.494 20.2831 22.6126 20.4528 24.3793C19.8555 24.3927 19.3057 24.4462 18.8034 24.5332C19.6247 21.0868 19.4414 17.0916 15.5791 14.7158C11.9 12.4539 6.72753 13.1833 3.4693 15.8937C0.197484 18.6174 -0.549194 23.322 1.21568 27.0896C1.37181 27.4243 1.54829 27.7522 1.73836 28.0667C2.30176 29.0036 3.02129 29.8468 3.90373 30.5026C4.79974 31.1719 5.8383 31.6336 6.90402 31.9615C7.56924 32.169 8.24804 32.3229 8.93363 32.4568C9.02187 32.4701 9.08296 32.3831 9.04223 32.3095C8.99472 32.2292 8.96078 32.1556 8.9472 32.1222C8.75035 31.7808 8.61459 31.4128 8.54671 31.0246C8.29556 29.646 8.75035 28.0399 9.9111 27.1699C11.0108 26.3535 12.572 26.3468 13.6784 27.1566C13.8685 27.2971 14.0382 27.4577 14.1875 27.6384C13.5359 29.0237 13.5562 30.5361 13.7395 31.5265C13.8685 32.2091 14.0043 32.4434 14.0925 32.7111C14.6898 34.5179 16.2986 36.4319 16.8552 37.1346C17.6969 38.1919 20.0999 40.668 20.9891 41.5715V45.2589C20.6836 45.4395 18.6065 46.7311 17.7241 48.6183C17.629 48.8124 17.8123 49.0332 18.0363 48.9998C19.6043 48.7722 21.5729 48.6317 23.4735 48.6317C25.3809 48.6317 27.1662 48.7656 28.7206 48.9998C28.9514 49.0332 29.1279 48.8191 29.0329 48.6183C28.1504 46.7311 26.0665 45.4395 25.7678 45.2589V41.5916C26.5824 40.7015 28.8428 38.212 29.6302 37.1413C30.1665 36.4185 32.3183 33.6948 32.7187 31.5332C33.1192 29.365 32.7459 24.647 26.148 24.386M28.0825 12.9625C27.7092 13.5313 27.0643 14.1069 26.6163 14.4816C26.6028 13.2904 26.3855 12.407 26.0665 11.7445C27.2205 12.1594 28.0825 12.9625 28.0825 12.9625Z" fill="#1D1D1B"/>
<path d="M27.7563 17.4268C27.8785 17.661 27.7971 17.9354 27.5798 18.0424C27.3898 18.1361 27.1522 18.0759 27.0164 17.8952C27.0164 17.8952 27.0097 17.8885 27.0029 17.8684C26.9893 17.8551 26.9825 17.835 26.9757 17.8216C26.9689 17.8082 26.9621 17.7881 26.9554 17.7747C26.9146 17.6877 26.8603 17.5472 26.806 17.3531C26.7313 17.0721 26.6092 16.4832 26.5549 16.1887C26.5345 16.0816 26.5277 16.0616 26.5413 16.0482C26.5616 16.0415 26.5684 16.0616 26.6499 16.1352C26.8739 16.356 27.3219 16.8111 27.4712 16.9985C27.607 17.1658 27.6817 17.2795 27.7292 17.3598C27.7428 17.3732 27.7495 17.3933 27.7631 17.4134M16.1421 16.4765C15.0492 15.4593 13.5898 14.8235 12.1575 14.5893C8.25444 13.9468 3.97122 15.6333 2.21313 19.2136C0.726559 22.2518 1.35784 26.4545 3.77437 28.8703C4.88081 29.9812 6.0144 30.6103 7.44667 30.9115C7.4874 30.9181 7.24982 29.9612 7.49418 28.9373C7.77249 27.7728 8.34268 26.4009 9.99895 25.7585C12.5309 24.7814 13.9903 25.986 14.8592 26.5883C15.4158 25.9793 15.8095 25.7384 16.3932 25.4306C16.848 25.1964 17.1467 25.096 17.5744 25.0023C18.0767 23.8981 18.3007 21.7767 18.0767 20.6122C17.7916 19.1333 17.5879 17.8283 16.1353 16.4765M25.7946 28.4621C24.0569 28.3082 23.3374 29.834 23.3102 29.8876C23.283 29.834 22.5703 28.3082 20.8258 28.4621C19.0541 28.6227 17.873 30.7508 20.2692 34.0501C22.5907 37.2422 23.2627 37.3962 23.3102 37.4029C23.3509 37.3962 24.0297 37.2422 26.3512 34.0501C28.7474 30.7442 27.5595 28.616 25.7946 28.4621ZM22.5975 9.80438V9.84454C22.5975 9.89808 22.6043 9.93823 22.611 9.97169V9.99846C22.611 9.99846 22.6178 9.99846 22.6246 9.99846C23.188 9.89138 23.7514 9.91146 24.2062 9.98507C25.1905 9.20878 25.8964 8.00419 26.1408 6.62561C26.4191 5.07972 26.0593 3.61414 25.1565 2.617C24.1926 1.55295 22.9369 1.01758 21.4231 1.01758C21.3485 1.01758 21.2806 1.01758 21.2195 1.01758C19.7601 1.05104 18.8573 1.37226 17.7712 2.24224C17.3436 2.58354 16.3457 3.54721 16.2032 5.07303C16.1285 5.90955 16.2235 6.51853 16.3254 6.87991C16.3457 6.94683 16.3593 7.00706 16.3729 7.0606C16.4611 7.4019 16.5154 7.62274 16.8684 8.12465C16.8684 8.12465 16.8752 8.11796 16.882 8.11127C17.3096 7.70305 17.8051 7.42867 18.3482 7.28813C18.7351 7.18775 19.1492 7.13421 19.5632 7.1409C19.7465 7.1409 20.8054 7.28144 21.5453 7.86366C22.5228 8.63326 22.5703 9.38947 22.5907 9.791" fill="#CD0B24"/>
<path d="M23.0389 16.2285C23.1747 15.9541 23.4869 15.827 23.7517 15.9541C23.9824 16.0612 24.0843 16.3289 24.0164 16.5765C24.0164 16.5765 24.0164 16.5899 24.0028 16.61C23.996 16.63 23.9892 16.6501 23.9757 16.6702C23.9621 16.6903 23.9553 16.7104 23.9417 16.7237C23.8874 16.8241 23.7992 16.9713 23.6498 17.1587C23.4394 17.4264 22.9642 17.9551 22.7267 18.2161C22.6384 18.3165 22.6248 18.3365 22.6045 18.3299C22.5841 18.3232 22.5977 18.2964 22.6113 18.1692C22.6656 17.8079 22.7674 17.0717 22.8421 16.7974C22.9032 16.5564 22.9575 16.4025 22.9982 16.3021C23.005 16.2754 23.0118 16.2553 23.0253 16.2285M24.8785 13.1033C24.8785 13.913 24.2132 14.5689 23.3919 14.5689C22.5705 14.5689 21.9121 13.913 21.9121 13.1033C21.9121 12.2935 22.5773 11.6377 23.3919 11.6377C24.2064 11.6377 24.8785 12.2935 24.8785 13.1033ZM24.0639 13.1033C24.0639 12.7352 23.7652 12.4408 23.3919 12.4408C23.0186 12.4408 22.7199 12.7352 22.7199 13.1033C22.7199 13.4713 23.0186 13.7658 23.3919 13.7658C23.7652 13.7658 24.0639 13.4713 24.0639 13.1033ZM26.0392 11.7448C26.3582 12.4006 26.5687 13.2907 26.589 14.4819C27.0303 14.1138 27.6751 13.5316 28.0552 12.9627C28.0552 12.9627 27.1932 12.1664 26.046 11.7448" fill="white"/>
<path d="M13.1286 16.2021C12.7213 16.2021 12.3955 16.5301 12.3955 16.9249C12.3955 17.3197 12.7281 17.6477 13.1286 17.6477C13.5291 17.6477 13.8617 17.3197 13.8617 16.9249C13.8617 16.5301 13.5291 16.2021 13.1286 16.2021Z" fill="white"/>
<path d="M15.1989 19.468C15.6062 19.468 15.932 19.1401 15.932 18.7452C15.932 18.3504 15.5994 18.0225 15.1989 18.0225C14.7984 18.0225 14.4658 18.3504 14.4658 18.7452C14.4658 19.1401 14.7984 19.468 15.1989 19.468Z" fill="white"/>
<path d="M15.925 20.585C15.5177 20.585 15.1919 20.9129 15.1919 21.3077C15.1919 21.7026 15.5245 22.0372 15.925 22.0372C16.3255 22.0372 16.6581 21.7092 16.6581 21.3077C16.6581 20.9062 16.3255 20.585 15.925 20.585Z" fill="white"/>
<path d="M5.4582 27.2979C5.05092 27.2979 4.7251 27.6191 4.7251 28.0206C4.7251 28.4221 5.05771 28.7434 5.4582 28.7434C5.85869 28.7434 6.1913 28.4154 6.1913 28.0206C6.1913 27.6258 5.85869 27.2979 5.4582 27.2979Z" fill="white"/>
<path d="M3.87617 25.1758C3.46889 25.1758 3.14307 25.5037 3.14307 25.8985C3.14307 26.2934 3.47568 26.6213 3.87617 26.6213C4.27666 26.6213 4.60927 26.2934 4.60927 25.8985C4.60927 25.5037 4.27666 25.1758 3.87617 25.1758Z" fill="white"/>
<path d="M3.99843 23.3487C3.99843 22.9472 3.66582 22.626 3.26533 22.626C2.86484 22.626 2.53223 22.9539 2.53223 23.3487C2.53223 23.7436 2.86484 24.0715 3.26533 24.0715C3.66582 24.0715 3.99843 23.7436 3.99843 23.3487Z" fill="white"/>
<path d="M3.61152 21.4484C4.0188 21.4484 4.34462 21.1205 4.34462 20.7257C4.34462 20.3308 4.0188 20.0029 3.61152 20.0029C3.20424 20.0029 2.87842 20.3308 2.87842 20.7257C2.87842 21.1205 3.21103 21.4484 3.61152 21.4484Z" fill="white"/>
<path d="M5.03047 19.1602C5.43775 19.1602 5.76357 18.8323 5.76357 18.4308C5.76357 18.0292 5.43096 17.708 5.03047 17.708C4.62997 17.708 4.29736 18.0359 4.29736 18.4308C4.29736 18.8256 4.62997 19.1602 5.03047 19.1602Z" fill="white"/>
<path d="M7.4333 16.168C7.02602 16.168 6.7002 16.4959 6.7002 16.8907C6.7002 17.2856 7.03281 17.6135 7.4333 17.6135C7.83379 17.6135 8.1664 17.2856 8.1664 16.8907C8.1664 16.4959 7.83379 16.168 7.4333 16.168Z" fill="white"/>
<path d="M10.298 15.626C9.89076 15.626 9.56494 15.9472 9.56494 16.3487C9.56494 16.7503 9.89755 17.0715 10.298 17.0715C10.6985 17.0715 11.0311 16.7436 11.0311 16.3487C11.0311 15.9539 10.6985 15.626 10.298 15.626Z" fill="white"/>
<path d="M15.4094 23.1484C15.0021 23.1484 14.6763 23.4764 14.6763 23.8712C14.6763 24.266 15.0089 24.5939 15.4094 24.5939C15.8099 24.5939 16.1425 24.266 16.1425 23.8712C16.1425 23.4764 15.8099 23.1484 15.4094 23.1484Z" fill="white"/>
<path d="M82.6034 41.5178C82.5084 41.491 82.4066 41.4776 82.3115 41.4776C81.9925 41.4776 81.7549 41.6249 81.5513 41.752C81.3612 41.8725 81.1983 41.9729 80.9947 41.9729H80.9607C80.92 41.9729 80.8928 41.9528 80.8657 41.9193C80.6213 41.6182 80.7978 40.4872 80.8657 40.0656L80.8861 39.9518C81.0625 38.861 81.239 37.5694 81.3884 36.4719L81.4698 35.883C81.5581 35.2339 81.7278 34.0293 81.7346 33.7348C81.7481 32.8046 81.5241 32.5905 81.2594 32.3495L81.1915 32.2826C80.791 31.8945 80.2412 31.4193 79.2569 30.8572C79.0126 30.7167 78.6257 30.5025 78.2998 30.5427C78.0351 30.5761 77.7636 30.8438 77.621 31.0847C77.5667 31.1784 77.4785 31.3792 77.3835 31.6201L77.3631 31.6736C77.3631 31.6736 77.3156 31.7138 77.2884 31.7339C77.2273 31.774 77.0984 31.7004 76.9626 31.6335C76.9083 31.6 76.8472 31.5733 76.7861 31.5465C75.4557 30.9509 73.6772 30.8438 73.6093 30.8371C73.6026 30.8371 73.3514 30.817 72.9373 30.817C72.6047 30.817 72.2653 30.8304 71.9191 30.8572C70.2018 30.971 69.0207 31.3658 68.7016 31.4796C68.3419 31.6134 67.8803 31.7874 67.5137 31.9681C65.5316 32.905 64.0926 34.3639 63.2305 36.3113C63.0472 36.7798 61.5539 40.9757 64.9071 43.6794C64.9682 43.7329 65.0293 43.7798 65.0904 43.8266L65.1651 43.8801C65.2669 43.9537 65.3687 44.0274 65.4705 44.0876L65.5724 44.1545C65.6131 44.1813 65.6606 44.208 65.7013 44.2281C66.1018 44.469 66.5159 44.6765 66.9571 44.8572L67.2151 44.9442V44.9174C67.7717 45.1249 68.1993 45.2253 68.4437 45.2855L68.5251 45.3056C68.9867 45.426 69.9506 45.4796 70.2764 45.4796C70.3036 45.4796 70.3307 45.4796 70.3511 45.4796C72.5233 45.4126 73.9284 44.8973 74.7701 44.4289L74.9941 44.295C75.5032 43.9805 75.829 43.6727 76.0123 43.4585L76.0326 43.5054V43.492C76.0802 43.5656 76.1005 43.6124 76.1209 43.6459C76.4128 44.1545 77.4242 45.1115 79.1755 45.1115C79.3859 45.1115 79.6031 45.0981 79.8203 45.0713C80.791 44.9509 82.488 44.4891 83.0175 42.7759C83.0854 42.5484 83.1804 42.1268 83.0039 41.819C82.9157 41.6583 82.7731 41.558 82.5831 41.5044M76.6164 34.5111C76.6232 34.7922 76.311 37.4757 76.1005 38.6134C75.9919 39.1889 75.6593 40.6144 74.9262 41.3572C73.9691 42.3276 73.2767 42.6889 72.0888 42.8362C71.9531 42.8562 71.8037 42.8696 71.6272 42.8696C71.0367 42.8696 70.4801 42.6555 69.9167 42.2205C69.1971 41.665 68.4573 40.4069 68.5523 38.5599C68.5727 38.1784 68.6202 37.8304 68.7152 37.4891L68.7288 37.449C68.8442 37.0341 69.0207 36.6459 69.2718 36.2578C70.8466 33.5943 73.8401 33.4337 73.8809 33.427C74.1388 33.4002 74.3832 33.3801 74.6072 33.3801C76.5689 33.3801 76.6164 34.4509 76.6164 34.4977M104.983 37.3887C104.983 37.4289 104.983 37.4557 104.983 37.4757C104.997 37.9107 104.827 39.8448 103.762 41.3773C102.553 43.1105 100.979 44.1746 99.8721 44.7568C99.7635 44.817 99.6481 44.8773 99.5327 44.9375C98.8335 45.3123 98.114 45.7004 97.2383 45.861C97.184 45.8744 97.1229 45.8744 97.0822 45.8744C97.0347 45.8744 96.865 45.8744 96.7564 45.8276L96.7292 45.8142C96.5663 45.7472 96.3355 45.6602 96.3219 45.319C96.3219 45.2386 96.3559 45.1316 96.546 44.8036C97.0686 44.1144 98.7724 41.6316 99.2204 38.0245C99.4648 36.0168 99.2476 34.6249 98.562 33.8887C98.1208 33.4136 97.4759 33.1861 96.5935 33.1861C96.4781 33.1861 96.3559 33.1861 96.2405 33.1994C93.8986 33.3467 92.799 35.5283 92.5478 36.6593C92.3102 37.9843 91.9776 39.8715 91.7468 41.2501C91.6993 41.6851 91.6722 42.7492 92.4256 43.0102C93.152 43.2645 93.5049 43.7128 93.3963 44.2482C93.3149 44.6564 93.023 44.904 92.5953 44.9174C91.998 44.9375 91.4142 44.9107 90.8508 44.8773C90.5114 44.8572 90.1924 44.8438 89.8734 44.8371C89.2692 44.8304 88.6583 44.8237 88.0474 44.8237C87.7555 44.8237 87.4908 44.8237 87.2464 44.8237C87.1582 44.8237 87.0699 44.8237 86.9953 44.8237C86.8527 44.8237 86.7441 44.8237 86.6355 44.8237C86.5269 44.8237 86.4183 44.8237 86.2689 44.8237C86.2011 44.8237 86.106 44.8237 85.9838 44.8371C85.7123 44.8505 85.339 44.8639 84.9792 44.8505C84.5651 44.8371 84.3819 44.797 84.2597 44.6832C84.0493 44.5226 84.0357 44.2348 84.0357 44.1144C84.0425 43.8199 84.1443 43.5589 84.3344 43.3581C84.538 43.1373 84.7959 43.0704 85.0471 43.0035C85.5087 42.883 85.9838 42.7625 86.2757 41.5847C86.459 40.5341 86.6966 39.0417 86.9274 37.5962C87.1446 36.2109 87.355 34.9126 87.484 34.1832C87.484 34.1497 87.484 34.1096 87.4976 34.0694C87.4976 34.0226 87.5179 33.9423 87.4976 33.9289C87.484 33.9155 87.3957 33.882 87.2193 33.9021C87.1107 33.9088 85.753 33.9757 85.5019 33.2396C85.1761 32.3228 85.8277 32.0952 86.14 31.9882L86.2146 31.9614C86.5472 31.8342 89.9616 30.8773 90.6336 30.817C90.7151 30.8103 90.7965 30.797 90.878 30.7903C91.007 30.7769 91.1359 30.7568 91.2649 30.7568C91.4617 30.7568 91.6179 30.8037 91.7401 30.8973C92.2492 31.3123 92.2356 31.9346 92.2084 32.4432C93.0909 31.6268 94.4892 30.73 96.4577 30.5694C96.5935 30.536 96.8582 30.5226 97.408 30.5226C97.4555 30.5226 97.5031 30.5226 97.5506 30.5226C98.2158 30.5427 98.8267 30.6297 98.9964 30.6497C100.972 30.9174 102.37 31.6602 103.524 33.0522C104.203 33.8687 105.004 35.2874 104.977 37.3754M62.7757 27.317L59.8094 44.208C59.789 44.3218 59.7007 44.8505 59.694 44.8572C59.6057 45.2922 59.1441 45.5866 58.7572 45.5866H58.7233C57.7865 45.5866 56.7208 44.2081 56.6733 44.1478L56.5647 43.9939C55.404 42.5216 48.9418 32.6908 47.7064 30.797L45.9076 41.1698C45.9076 41.1698 45.5614 42.7425 46.4438 43.1172C47.815 43.7061 47.8014 44.1947 47.686 44.6029C47.6317 44.797 47.5027 45.0513 47.0004 45.1316C46.9665 45.145 46.919 45.145 46.8782 45.1516C46.8647 45.1516 46.8579 45.1516 46.8443 45.1516H46.8036C46.6814 45.1516 46.5524 45.1316 46.4167 45.1115C46.2945 45.0981 46.1723 45.078 46.0433 45.0713H45.9415C45.6089 45.0379 44.6043 44.9643 43.1245 44.9643C42.1266 44.9643 41.0881 45.0513 40.4025 45.1048C40.0902 45.1316 39.8323 45.1516 39.6694 45.1583H39.649C39.649 45.1583 39.5879 45.1717 39.4929 45.1717C39.3096 45.1717 38.977 45.1383 38.7462 44.8907C38.5697 44.7033 38.5019 44.4289 38.5358 44.0876C38.5833 43.5991 39.2078 43.4518 39.8119 43.3046L39.8662 43.2912C41.122 42.9901 41.5497 41.5379 41.6786 40.9289C41.6786 40.9155 41.6854 40.9021 41.6854 40.8887C41.9298 39.4834 42.5 36.0369 42.9955 32.992C43.4639 30.1612 43.8644 27.7119 43.9662 27.1564C44.1427 26.2061 43.8508 25.5102 43.077 25.035L43.0498 25.0216C42.6833 24.8543 42.5203 24.774 42.1809 24.5532C41.9569 24.4059 41.7126 24.0446 41.7329 23.7568C41.7465 23.449 41.9705 23.188 42.2624 23.1144L42.3031 23.101C42.3167 23.101 42.3303 23.101 42.3439 23.101H42.3642C42.3642 23.101 42.6222 23.0541 43.0294 23.014H43.0362H43.043H43.0702C43.5928 22.9604 44.1359 22.9337 44.6789 22.9337C44.8486 22.9337 45.0319 22.9337 45.2084 22.9404C45.3577 22.9404 45.5071 22.9404 45.6292 22.9471H45.6903C45.8533 22.9471 46.118 22.9537 46.4574 23.0006C46.6135 23.0207 46.6814 23.0341 46.6814 23.0341C49.0911 23.4155 51.2836 25.4232 53.7816 29.5388C54.698 31.0446 55.8248 32.8381 56.7344 34.2836C57.0602 34.7989 57.3453 35.2539 57.5761 35.6287L59.0152 27.1765C59.0152 27.1765 59.2663 25.4031 58.0377 24.9146C57.3385 24.6335 56.9312 24.1717 56.9923 23.71C57.0602 23.1746 57.4743 22.8935 58.0852 22.9805H58.1259C58.1938 22.9939 58.2753 23.0073 58.3499 23.0207C58.4721 23.0341 58.5943 23.0541 58.7233 23.0608H58.8183C59.1509 23.0943 60.1555 23.1679 61.6353 23.1679C62.6332 23.1679 63.6717 23.0809 64.3573 23.0274C64.7442 22.9939 65.0225 22.9738 65.1787 22.9738C65.233 22.9738 65.2737 22.9738 65.3076 22.9805C65.5791 22.9805 65.8235 23.1411 65.9185 23.3954H65.9321L65.9593 23.4757C66.0882 24.1851 65.5859 24.6803 64.4591 24.9681C63.0472 25.3228 62.8096 27.21 62.8096 27.23V27.3037H62.7893L62.7757 27.317ZM126.671 41.5513C126.569 41.5245 126.474 41.5111 126.379 41.5111H126.345C126.026 41.5111 125.782 41.6583 125.571 41.7922C125.381 41.9126 125.212 42.013 125.001 42.013C124.96 42.013 124.933 41.9929 124.899 41.9595C124.655 41.6583 124.838 40.5207 124.899 40.0924L124.913 39.9719C125.015 39.3362 125.13 38.5866 125.266 37.6096C125.347 37.1144 125.429 36.6191 125.504 36.1574C125.694 34.9528 126.155 32.5235 126.44 31.2453C127.201 27.7922 128.076 25.5035 128.497 24.4126C128.701 23.884 128.762 23.7167 128.762 23.6163C128.762 23.4423 128.741 22.9136 128.293 22.6794C128.212 22.6392 128.124 22.6191 128.015 22.6191C127.492 22.6191 126.705 23.1344 126.284 23.4356C122.938 25.8581 121.587 30.0809 121.112 31.6603C121.064 31.6402 121.017 31.6134 120.962 31.5866C120.908 31.5599 120.847 31.5264 120.786 31.4996C119.442 30.8973 117.636 30.7903 117.568 30.7836C117.562 30.7836 117.31 30.7635 116.89 30.7635H116.842C116.509 30.7635 116.17 30.7769 115.824 30.8037C114.086 30.9174 112.891 31.3123 112.566 31.4327C112.199 31.5666 111.731 31.7406 111.364 31.9279C109.355 32.8782 107.895 34.3505 107.027 36.3113C106.843 36.7864 105.33 41.0293 108.724 43.753C108.785 43.7998 108.846 43.8534 108.914 43.9002L108.988 43.9537C109.09 44.0274 109.192 44.101 109.301 44.1679L109.402 44.2348C109.443 44.2616 109.491 44.2884 109.531 44.3084C109.939 44.556 110.353 44.7635 110.808 44.9442L110.835 44.9576C111.194 45.1048 111.751 45.2654 112.403 45.3993C112.844 45.4929 113.787 45.5666 114.174 45.5666H114.276C116.475 45.4996 117.901 44.9776 118.756 44.5025L118.987 44.3687C119.496 44.0541 119.815 43.7463 120.005 43.5388C120.046 43.6191 120.073 43.6794 120.1 43.7128C120.385 44.208 121.376 45.1583 123.087 45.1918C123.338 45.1918 123.603 45.1851 123.874 45.1516C124.852 45.0312 126.583 44.5627 127.112 42.8362C127.187 42.6086 127.275 42.1803 127.099 41.8658C127.01 41.7052 126.868 41.5981 126.671 41.5446M112.45 38.5799C112.471 38.1985 112.525 37.8438 112.613 37.5025L112.627 37.4557C112.742 37.0341 112.925 36.6459 113.177 36.2578C114.772 33.5675 117.799 33.4069 117.847 33.4002C118.105 33.3734 118.356 33.3534 118.587 33.3534C120.087 33.3534 120.48 33.9891 120.582 34.2769C120.582 34.3505 120.596 34.4241 120.596 34.491C120.596 34.7788 120.29 37.5025 120.073 38.6669C119.985 39.1287 119.781 40.0121 119.394 40.7415C119.245 41.0092 119.089 41.23 118.919 41.3973C117.948 42.3744 117.249 42.7358 116.041 42.8897C115.899 42.9098 115.749 42.9232 115.579 42.9232C114.982 42.9232 114.412 42.709 113.849 42.2673C113.122 41.7052 112.376 40.4404 112.464 38.5733M163.272 40.7081C163.292 41.7386 162.722 42.8763 161.738 43.7396C160.842 44.5293 159.566 45.1316 158.133 45.4327C157.787 45.5063 156.538 45.7472 154.984 45.7472C153.816 45.7472 152.757 45.6134 151.827 45.3524V45.3658L151.549 45.2788C150.721 45.0178 150.056 44.6698 149.574 44.2415C149.465 44.1478 149.377 44.0608 149.316 43.9872C149.309 43.9738 149.295 43.9604 149.282 43.9471C148.623 43.1775 148.528 42.2339 149.017 41.3572C149.316 40.8151 149.771 40.4002 150.286 40.1994C151.176 39.8515 152.024 39.8314 152.302 39.8247H152.364C152.364 39.8247 152.431 39.8247 152.465 39.8247C152.832 39.8247 153.531 39.9251 153.809 40.2864C153.918 40.427 153.952 40.5943 153.918 40.7683C153.898 40.8687 153.816 41.0159 153.579 41.143C152.927 41.4776 152.479 41.7654 152.391 42.0866C152.35 42.2339 152.391 42.4012 152.499 42.5885C152.73 42.97 153.504 43.1908 154.638 43.2042H154.692C155.839 43.2042 156.762 42.9031 157.231 42.3744C157.441 42.1335 157.536 41.8658 157.516 41.5914C157.509 41.5111 157.475 41.4107 157.427 41.297C156.912 40.2998 155.493 39.0149 152.961 37.2415C152.873 37.1813 152.791 37.1211 152.717 37.0608C151.149 35.9633 151.196 35.0532 151.21 34.752V34.7186C151.21 34.7186 151.21 34.6851 151.21 34.6784C151.21 34.2903 151.325 34.0427 151.325 34.0293L151.345 33.9891C151.963 31.9614 154.325 31.3591 155.69 31.1851C156.192 31.1182 156.593 31.1048 156.796 31.1048H156.871C157.095 31.0914 157.319 31.0847 157.543 31.0847C158.663 31.0847 159.505 31.1985 159.891 31.2922C160.109 31.3457 160.312 31.3725 160.482 31.3725C161.018 31.3725 161.215 31.0981 161.392 30.8639L161.426 30.8237C161.555 30.6364 161.853 30.4088 162.24 30.4423H162.294C162.708 30.4757 162.932 30.6698 162.885 31.6C162.858 32.2492 162.675 34.2702 162.634 34.665C162.6 35.0264 162.505 35.2673 162.362 35.3677C162.281 35.4212 162.098 35.5216 161.833 35.5015C161.453 35.4614 161.147 34.9461 161.093 34.8256C160.889 34.2903 160.068 33.6612 158.432 33.6612H158.33C157.495 33.6813 157.203 33.8218 157.102 33.9423C157.047 34.0159 157.047 34.0828 157.061 34.1832V34.2033C157.088 34.4509 157.556 34.7587 157.937 35.0063C158.079 35.1 158.215 35.187 158.337 35.2807C159.158 35.883 159.803 36.3448 160.326 36.7128C160.903 37.1211 161.317 37.4155 161.663 37.6966C162.22 38.145 163.231 38.9547 163.265 40.7014M149.343 31.4126C149.255 31.4595 149.071 31.5264 148.895 31.5599C148.827 31.5733 148.766 31.5799 148.712 31.5866C148.535 31.5933 148.386 31.5532 148.291 31.4595C148.012 31.2119 148.101 30.8907 148.196 30.7434C149.16 29.3381 148.936 27.2233 148.651 26.1994V26.1794V26.1727V26.0656C148.583 25.8113 148.549 25.5771 148.549 25.3495C148.549 24.232 149.234 23.8037 149.316 23.7568C149.336 23.7434 149.39 23.71 149.506 23.6564L149.553 23.6297C149.587 23.6163 149.696 23.5761 149.791 23.5427C149.845 23.5226 149.9 23.5092 149.92 23.5025C149.94 23.5025 149.967 23.4891 150.001 23.4824C150.015 23.4824 150.035 23.4824 150.076 23.4757C150.402 23.4155 150.925 23.3887 151.474 23.6163C151.515 23.6297 151.549 23.6497 151.576 23.6698C151.841 23.8037 152.085 23.991 152.296 24.232C152.479 24.4729 152.615 24.7606 152.696 25.0885C152.805 25.5302 152.825 26.0522 152.764 26.6411C152.764 26.6411 152.676 27.3639 152.499 27.8457L152.336 28.3409C152.187 28.7157 152.106 28.9031 151.909 29.2176C151.888 29.2511 151.854 29.3113 151.793 29.3983C151.766 29.4451 151.732 29.4853 151.705 29.5254C151.542 29.7664 151.468 29.8668 151.237 30.1077C151.196 30.1545 151.128 30.2214 151.054 30.2884L150.972 30.362C150.836 30.4891 150.667 30.6363 150.463 30.7836C149.974 31.1383 149.587 31.3189 149.35 31.4126H149.343ZM145.834 32.7845C143.899 30.904 141.014 30.623 139.466 30.623C138.638 30.623 138.095 30.7033 138.034 30.71C134.294 31.2587 131.538 32.644 129.841 34.839C128.11 37.0742 128.164 39.2893 128.219 39.9117C128.504 43.0302 130.377 44.884 133.798 45.426V45.4394C133.839 45.4461 134.857 45.6268 136.33 45.6268C138.088 45.6268 139.69 45.3725 141.089 44.8773C142.569 44.3754 143.553 43.5924 143.594 43.5589C145.481 42.2138 146.309 40.6947 146.343 40.6277C147.524 38.4193 148.399 35.2673 145.861 32.8046L145.84 32.7845H145.834ZM133.873 39.9385C133.86 39.8113 133.853 39.6775 133.846 39.5369V39.5035C133.846 39.5035 133.846 39.47 133.846 39.4566C133.846 38.7138 134.158 37.6096 134.253 37.362L134.274 37.3151C134.565 36.5121 134.688 36.1775 135.088 35.5952C135.76 34.6249 136.059 34.3103 136.785 33.8285C137.423 33.4069 138.299 33.3132 138.367 33.3065H138.38C138.489 33.2864 138.686 33.2798 138.91 33.2798C139.168 33.2798 139.405 33.2931 139.507 33.3132H139.528C139.602 33.3132 140.281 33.3868 140.892 33.969C141.537 34.5847 141.903 35.4212 141.971 36.4451C142.005 36.9671 141.971 37.4088 141.842 38.1182C141.611 39.383 141.143 40.253 140.797 40.7482C140.254 41.5245 139.792 42.0599 139.059 42.4681C138.699 42.6689 138.034 43.0369 136.921 43.0369C136.636 43.0369 136.337 43.0102 136.038 42.9633C135.686 42.9098 135.197 42.6019 135.163 42.5819C135.136 42.5618 134.952 42.4212 134.878 42.3476C134.308 41.7922 133.982 41.0226 133.86 39.9318" fill="#CD0B24"/>
</g>
<defs>
<clipPath id="clip0_320_44985">
<rect width="163" height="49" fill="white" transform="translate(0.285645)"/>
</clipPath>
</defs>
</svg>
