<svg width="153" height="43" viewBox="0 0 153 43" fill="none" xmlns="http://www.w3.org/2000/svg">
<g clip-path="url(#clip0_320_44805)">
<path d="M10.7707 42.9999H10.2232C10.2066 42.8367 10.0821 42.747 10.0075 42.6164C8.72988 40.5766 7.44399 38.5367 6.1664 36.4969C4.47401 33.7961 2.78162 31.0954 1.08923 28.3865C1.03116 28.2967 1.00627 28.1743 0.865234 28.1662V27.8071C1.08923 27.644 1.30492 27.4808 1.57869 27.3747C2.90606 26.8525 4.21683 26.3058 5.5442 25.7755C7.60162 24.935 9.65903 24.1028 11.7165 23.2624C12.5378 22.9278 13.3674 22.6015 14.1887 22.2669C14.4293 22.169 14.4293 22.169 14.3297 21.9161C13.9315 20.9369 13.7739 19.9007 13.7158 18.8563C13.666 18.024 13.6577 17.1836 13.7656 16.3514C13.8236 15.8944 13.89 15.4457 14.0145 15.0051C14.2384 14.2381 14.562 13.5037 14.9353 12.802C15.6571 11.4476 16.5862 10.2563 17.7228 9.21189C19.0419 8.0043 20.56 7.13125 22.2607 6.56009C23.4636 6.15212 24.708 5.93997 25.9773 5.85022C27.006 5.77679 28.0182 5.78495 29.0386 5.93181C30.142 6.095 31.2121 6.3969 32.2574 6.78855C32.8382 7.00069 33.4023 7.25364 33.9498 7.53105C34.1406 7.62897 34.1655 7.62081 34.2485 7.43314C34.3646 7.1802 34.4642 6.9191 34.572 6.658C34.7628 6.18476 34.9454 6.06236 35.468 6.0542C43.7226 6.02157 51.9854 6.08684 60.24 5.99709C61.8743 5.98077 63.5003 5.99709 65.1346 5.99709C65.9974 5.99709 66.8519 5.98893 67.7147 6.10316C68.6687 6.22555 69.6062 6.42954 70.5105 6.77223C70.9999 6.9599 71.4728 7.19652 71.9208 7.46578C72.1116 7.58001 72.1614 7.54737 72.1946 7.33523C72.2277 7.09861 72.2443 6.86199 72.2692 6.62536C72.3024 6.33162 72.4849 6.15212 72.7836 6.12764C72.8914 6.11948 73.0076 6.12764 73.1154 6.12764C91.2091 6.12764 109.311 6.12764 127.405 6.12764C127.479 6.12764 127.546 6.12764 127.62 6.12764C128.027 6.12764 128.209 6.27451 128.276 6.68248C128.367 7.31891 128.433 7.9635 128.525 8.6081C128.633 9.37508 128.732 10.1421 128.823 10.9172C128.865 11.2354 128.881 11.5618 128.973 11.8882C129.18 11.7903 129.238 11.5944 129.371 11.4639C129.752 11.0804 130.167 10.7295 130.557 10.3542C131.594 9.3506 132.722 8.46123 133.975 7.72688C134.813 7.23732 135.676 6.79671 136.622 6.53561C137.99 6.16028 139.384 6.03789 140.794 6.01341C141.259 6.00525 141.193 6.06236 141.342 5.62992C141.981 3.76958 142.52 1.86844 143.225 0.0244141H143.715C143.773 0.187602 143.922 0.285515 144.013 0.424224C145.399 2.64358 146.793 4.86293 148.178 7.08229C149.066 8.50202 149.953 9.92992 150.849 11.3497C151.471 12.3369 152.094 13.3324 152.716 14.3197C152.757 14.3931 152.782 14.491 152.898 14.491V15.1519C152.716 15.1764 152.567 15.2988 152.401 15.3641C149.928 16.3432 147.465 17.3305 144.992 18.3096C143.068 19.0766 141.143 19.8354 139.218 20.5942C138.505 20.8798 137.791 21.1736 137.078 21.4428C136.655 21.5978 136.364 21.3694 136.431 20.9288C136.472 20.635 136.53 20.3413 136.68 20.072C136.763 19.917 136.812 19.7457 136.854 19.5417C136.721 19.5825 136.663 19.6722 136.588 19.7375C135.892 20.4229 135.261 21.1654 134.631 21.8997C133.519 23.1889 132.581 24.5923 131.777 26.0855C131.179 27.1952 130.615 28.3212 130.117 29.4717C129.952 29.8633 129.786 30.2631 129.661 30.6711C129.603 30.8588 129.636 30.9077 129.827 30.924C129.935 30.9322 130.051 30.924 130.159 30.9485C131.868 31.2423 132.988 32.6865 132.98 34.2449C132.971 35.6891 131.86 37.1252 130.292 37.3944C129.769 37.4842 129.246 37.4923 128.724 37.5005C123.788 37.5413 118.86 37.4842 113.924 37.5495C110.945 37.5903 107.967 37.5576 104.989 37.5658C104.881 37.5658 104.765 37.5658 104.657 37.5658C104.408 37.5413 104.226 37.37 104.176 37.1333C104.151 37.0109 104.201 36.8967 104.226 36.7825C104.474 35.8034 104.723 34.8324 104.972 33.8533C104.997 33.7635 105.014 33.6819 105.039 33.5922C105.063 33.4861 105.014 33.4453 104.914 33.4371C104.748 33.4371 104.591 33.4371 104.425 33.4371C104.275 33.429 104.184 33.4942 104.118 33.6248C103.471 34.8079 102.807 35.9829 102.168 37.1741C101.994 37.4923 101.778 37.6392 101.405 37.6392C95.5977 37.6555 89.7988 37.6147 83.9915 37.6719C79.1798 37.7126 74.3681 37.6882 69.5564 37.6882C69.4818 37.6882 69.4154 37.6882 69.3407 37.6882C69.0089 37.6719 68.8015 37.4352 68.843 37.1089C68.9342 36.2358 69.0338 35.3709 69.125 34.4978C69.125 34.4244 69.1582 34.3428 69.0835 34.2612C68.984 34.3347 68.8844 34.3999 68.7932 34.4734C67.9968 35.0935 67.134 35.6075 66.2048 36.0237C63.9981 37.0191 61.6835 37.5413 59.2693 37.5658C54.6816 37.5984 50.0856 37.5821 45.4979 37.5821C45.4564 37.5821 45.415 37.5821 45.3735 37.5821C45.0665 37.5658 44.9172 37.3944 44.9255 37.0925C44.9255 36.9865 44.967 36.8967 44.9919 36.7988C45.0997 36.4806 45.2076 36.1542 45.3154 35.836C45.3403 35.7707 45.3818 35.7054 45.3071 35.632C45.0582 35.7381 44.8591 35.9257 44.6268 36.0726C43.5152 36.7743 42.3122 37.3047 41.0429 37.68C39.9064 38.0227 38.7366 38.2185 37.5503 38.2756C36.6626 38.3164 35.7667 38.3246 34.879 38.243C33.8254 38.1451 32.7967 37.9411 31.8095 37.5739C30.5733 37.1089 29.5197 36.3908 28.7067 35.3546C28.4247 34.9956 28.1924 34.6121 28.0016 34.2041C27.9186 34.0328 27.8937 34.0328 27.761 34.1552C27.5785 34.3265 27.3877 34.4897 27.1969 34.6529C25.8114 35.787 24.2518 36.6193 22.5677 37.2231C21.4062 37.6392 20.2116 37.9411 18.9755 38.0961C18.262 38.1859 17.5486 38.2756 16.8351 38.2838C16.3456 38.2838 15.8645 38.2838 15.375 38.243C14.5371 38.1859 13.7075 38.0717 12.8779 37.9166C12.5875 37.8595 12.5875 37.8595 12.4963 38.1369C12.2972 38.7407 12.1147 39.3527 11.8907 39.9565C11.5173 40.9764 11.3016 42.0453 10.8039 43.0163L10.7707 42.9999ZM86.2812 19.1663C86.2398 19.2071 86.2066 19.2561 86.2315 19.3132C86.2315 19.3703 86.2315 19.4356 86.2315 19.4927C86.1568 19.509 86.1651 19.558 86.1734 19.607C86.1651 19.7701 86.1485 19.9333 86.1402 20.0965C86.0821 20.1373 86.0241 20.1781 86.0489 20.2597C86.0655 20.5453 85.966 20.8227 85.9494 21.1083C85.8996 21.1572 85.8332 21.1899 85.8664 21.2796C85.8581 21.4347 85.8498 21.5978 85.825 21.7529C85.6922 22.5607 85.518 23.3521 85.4101 24.1599C85.3604 24.2007 85.294 24.2415 85.3189 24.3231C85.3189 24.7555 85.2027 25.1635 85.1364 25.5796C85.0617 25.5878 85.07 25.6449 85.0783 25.6939C85.0783 25.8244 85.0783 25.955 85.0534 26.0774C84.929 26.8035 84.7879 27.5379 84.6635 28.2641C84.5225 29.0882 84.3566 29.9041 84.2487 30.7282C84.1989 30.769 84.1326 30.8098 84.1657 30.8996C84.1657 31.0872 84.1409 31.2667 84.1077 31.4544C84.0579 31.7889 83.9335 32.1153 83.9417 32.4662C83.892 32.507 83.8256 32.5478 83.8588 32.6375C83.8588 32.7681 83.8588 32.8986 83.8339 33.021C83.7675 33.4127 83.6846 33.8043 83.6265 34.1959C83.5767 34.506 83.4938 34.8161 83.4855 35.1261C83.6099 35.1751 83.7261 35.1506 83.8339 35.1506C85.9577 35.1506 88.0898 35.1506 90.2136 35.1506C90.2716 35.1506 90.338 35.1506 90.3961 35.1506C90.5122 35.1669 90.5703 35.1098 90.6284 35.0119C91.2754 33.8125 91.9308 32.6212 92.5779 31.4218C92.6941 31.2178 92.7853 30.9893 92.9015 30.7935C93.225 30.2468 93.5071 29.6838 93.814 29.129C93.8306 29.1045 93.8306 29.0719 93.8306 29.0392C93.8472 29.0392 93.8638 29.0147 93.8721 28.9984C94.0463 28.721 94.2122 28.4517 94.3201 28.1417C94.3367 28.1417 94.3533 28.1172 94.3616 28.1009C94.5358 27.8235 94.7017 27.5542 94.8096 27.2441C94.8261 27.2441 94.8427 27.2197 94.851 27.2034C95.0253 26.9259 95.1912 26.6567 95.299 26.3466C95.3156 26.3466 95.3322 26.3221 95.3405 26.3058C95.5064 26.0284 95.6806 25.7591 95.7885 25.4491C95.8051 25.4409 95.8217 25.4246 95.83 25.4083C96.0042 25.1309 96.1701 24.8616 96.278 24.5515C96.2945 24.5434 96.3111 24.5271 96.3194 24.5108C96.4854 24.2333 96.6596 23.9641 96.7674 23.654C96.784 23.6459 96.8006 23.6295 96.8089 23.6132C96.9748 23.3358 97.149 23.0665 97.2569 22.7565C97.2735 22.7483 97.2901 22.732 97.2984 22.7157C97.4643 22.4383 97.6385 22.169 97.7464 21.8589C97.7629 21.8508 97.7795 21.8345 97.7878 21.8182C97.9621 21.5407 98.1197 21.2633 98.2358 20.9614C98.2524 20.9533 98.269 20.9369 98.2773 20.9206C98.3105 20.8717 98.3437 20.8227 98.3769 20.7737C98.9161 19.7783 99.447 18.7747 99.9863 17.7711C100.584 16.6696 101.198 15.5762 101.787 14.4665C101.936 14.1891 102.06 13.8872 102.226 13.6261C102.467 13.2426 102.616 12.8183 102.882 12.443C102.998 12.2798 103.048 12.0595 103.155 11.8882C103.437 11.472 103.612 10.9988 103.877 10.5827C103.993 10.4032 104.043 10.191 104.159 10.036C104.441 9.63618 104.599 9.17925 104.864 8.77944C104.906 8.71417 104.98 8.64073 104.931 8.53466H104.748C102.55 8.53466 100.351 8.53466 98.1612 8.53466C98.1197 8.53466 98.0782 8.53466 98.0367 8.53466C97.8957 8.51834 97.8293 8.59994 97.8044 8.70601C97.7298 9.00791 97.5555 9.26901 97.4311 9.54642C97.3979 9.54642 97.373 9.55458 97.3813 9.59538C97.2237 10.0115 97.0329 10.4195 96.8172 10.8111C96.7757 10.8111 96.7591 10.8111 96.7757 10.8519C96.6762 11.1946 96.4937 11.5128 96.3277 11.8229C96.2863 11.8229 96.2697 11.8229 96.2863 11.8637C96.1867 12.2064 96.0042 12.5246 95.8383 12.8347C95.7968 12.8347 95.7802 12.8347 95.7968 12.8755C95.7968 12.9897 95.7304 13.0794 95.6889 13.1855C95.5147 13.5608 95.3488 13.9362 95.1497 14.3034C94.8676 14.8337 94.6188 15.3804 94.3616 15.9189C94.1044 16.4493 93.8638 16.9878 93.6066 17.5182C93.3743 18.0077 93.1338 18.4891 92.9015 18.9787C92.6609 19.4846 92.3954 19.9823 92.188 20.4963C92.0138 20.9206 91.7898 21.3286 91.5907 21.7366C91.5575 21.7366 91.5326 21.7447 91.5409 21.7855C91.4745 21.9242 91.3667 22.0466 91.3584 22.2098C91.2837 22.218 91.2837 22.2669 91.292 22.324C91.2589 22.4791 91.1593 22.6015 91.1012 22.7483C91.068 22.7483 91.0432 22.7565 91.0515 22.7973C90.9851 22.936 90.8772 23.0584 90.8689 23.2216C90.7943 23.2297 90.7943 23.2787 90.8026 23.3358C90.7694 23.4908 90.6698 23.6132 90.6118 23.7601C90.5786 23.7601 90.5537 23.7682 90.562 23.809C90.3878 24.0701 90.3463 24.3884 90.1721 24.6495L90.0725 24.5352C91.0183 19.2071 91.964 13.8791 92.9098 8.5673C92.8185 8.50202 92.7355 8.51834 92.6526 8.51834C90.7279 8.51834 88.8032 8.51834 86.8785 8.51834C86.7043 8.51834 86.6048 8.5673 86.5301 8.73049C86.2978 9.22005 86.0489 9.70961 85.8001 10.1992C85.7669 10.1992 85.742 10.2073 85.7503 10.2481C85.6507 10.444 85.5263 10.6398 85.4433 10.8519C85.2027 11.4231 84.9373 11.9861 84.6386 12.5409C84.5971 12.5409 84.5805 12.5409 84.5971 12.5899C84.4976 12.7775 84.3731 12.9652 84.3068 13.161C84.116 13.6751 83.8588 14.1483 83.6099 14.6379C83.5684 14.6379 83.5518 14.6379 83.5684 14.6868C83.5269 14.7521 83.4772 14.8174 83.4523 14.8908C83.2615 15.4538 82.9545 15.9597 82.6973 16.4982C82.6559 16.4982 82.6393 16.4982 82.6559 16.5472C82.5978 16.6614 82.5231 16.7593 82.4816 16.8817C82.324 17.3631 82.0668 17.7874 81.8429 18.2362C81.8014 18.2362 81.7848 18.2362 81.8014 18.2851C81.7599 18.3504 81.7101 18.4157 81.6935 18.4891C81.5608 18.9297 81.3119 19.3214 81.1211 19.7375C81.0796 19.7375 81.063 19.7375 81.0796 19.7865C81.0547 19.8273 81.0298 19.8681 81.005 19.917C80.8224 20.3658 80.6233 20.8145 80.3911 21.2388C80.3496 21.2388 80.333 21.2388 80.3496 21.2878C80.2832 21.4265 80.1753 21.5489 80.1671 21.7121C80.0758 21.7692 80.0426 21.8426 80.0426 21.9487C80.0094 22.1037 79.9099 22.2343 79.8518 22.373C79.8186 22.373 79.7937 22.3811 79.802 22.4219C79.7191 22.6015 79.5863 22.7646 79.5614 22.9686C79.4868 22.9768 79.4785 23.0257 79.4951 23.0829C79.4619 23.2379 79.3706 23.3684 79.3043 23.5071C79.2711 23.5071 79.2462 23.5153 79.2545 23.5561C79.072 23.8172 79.0222 24.1273 78.8729 24.4047C78.8397 24.4047 78.8148 24.4128 78.8231 24.4536C78.7899 24.5107 78.7484 24.5597 78.7401 24.6331C78.7069 24.6331 78.6738 24.6331 78.6406 24.6331C78.707 24.0538 78.8231 23.4745 78.9475 22.9033C79.1383 22.0058 79.296 21.092 79.4868 20.1944C79.6029 19.6396 79.6859 19.0766 79.802 18.5218C79.9845 17.6569 80.1422 16.792 80.3164 15.9189C80.5736 14.5726 80.8307 13.2263 81.0796 11.88C81.2372 11.0233 81.3949 10.1665 81.5857 9.31796C81.6437 9.07318 81.6769 8.8284 81.7184 8.58362C81.6023 8.53466 81.5027 8.55098 81.4032 8.55098C79.213 8.55098 77.0229 8.55098 74.841 8.55098C74.7912 8.55098 74.7414 8.55098 74.6917 8.55098C74.5589 8.54282 74.5174 8.59994 74.5009 8.72233C74.3847 9.832 74.252 10.9417 74.1358 12.0514C74.028 13.0305 73.9201 14.0096 73.804 14.9887C73.6713 16.1555 73.5385 17.3223 73.4058 18.4891C73.273 19.6559 73.1486 20.8227 73.0159 21.9977C72.8665 23.344 72.7089 24.6903 72.5596 26.0366C72.4103 27.391 72.2609 28.7455 72.1116 30.1081C71.9623 31.4544 71.8046 32.8007 71.6553 34.147C71.6221 34.4815 71.5558 34.8079 71.5641 35.1588C71.6387 35.1588 71.6968 35.1669 71.7632 35.1669C73.9616 35.1669 76.1601 35.1669 78.3585 35.1669C78.5576 35.1669 78.6738 35.0935 78.7484 34.914C79.1798 33.992 79.6112 33.07 80.0426 32.1479C80.0758 32.0745 80.109 32.0011 80.1173 31.9195C80.1339 31.9032 80.1422 31.8868 80.1588 31.8787C80.3164 31.6584 80.3662 31.3891 80.4823 31.1443C80.4989 31.128 80.5072 31.1117 80.5238 31.1035C80.6648 30.8751 80.7561 30.6221 80.8473 30.3692C80.8639 30.3529 80.8722 30.3366 80.8888 30.3284C81.0298 30.0999 81.1211 29.847 81.2124 29.5941C81.2289 29.5777 81.2372 29.5614 81.2538 29.5533C81.4032 29.3248 81.4778 29.0637 81.5774 28.8189L81.6189 28.7781C81.7682 28.5497 81.8428 28.2885 81.9424 28.0438C81.959 28.0356 81.9756 28.0193 81.9839 28.003C82.1332 27.7745 82.2079 27.5134 82.3074 27.2686C82.324 27.2605 82.3406 27.2441 82.3489 27.2278C82.4734 26.9912 82.6061 26.7546 82.6725 26.4935C82.689 26.4853 82.7056 26.469 82.7139 26.4527C82.8467 26.2161 82.9877 25.9876 83.0375 25.7183C83.0541 25.7102 83.0707 25.6939 83.079 25.6775C83.1702 25.498 83.303 25.3349 83.3361 25.1227C83.3527 25.0982 83.3693 25.0819 83.3859 25.0574C83.3859 25.0166 83.4025 24.9758 83.4108 24.935C83.4274 24.9269 83.444 24.9106 83.4523 24.8942C83.585 24.6576 83.7178 24.421 83.7758 24.1599C83.7924 24.1517 83.809 24.1354 83.8173 24.1191C83.9832 23.8498 84.0911 23.5561 84.1989 23.2624C84.2155 23.246 84.2238 23.2297 84.2404 23.2134C84.3897 22.9849 84.4644 22.732 84.564 22.4791C84.5805 22.4627 84.5888 22.4464 84.6054 22.4301C84.7548 22.2016 84.8294 21.9487 84.929 21.6958L84.9705 21.6468C85.0949 21.4428 85.1779 21.2307 85.2774 21.0104C85.4433 20.6432 85.6093 20.276 85.7835 19.9089C85.9328 19.5988 86.0904 19.2969 86.248 18.995C86.3061 19.0276 86.3144 19.0929 86.3144 19.15L86.2812 19.1663ZM31.685 13.1774C31.9837 12.6388 32.2823 12.0922 32.5727 11.5455C32.7137 11.2844 32.8382 11.0233 32.9709 10.754C33.0705 10.55 33.1949 10.346 33.311 10.1421C33.3608 10.0605 33.3442 10.0197 33.2696 9.97071C33.2032 9.92992 33.1285 9.88912 33.0622 9.84832C32.3653 9.48931 31.6601 9.15477 30.8969 8.95079C30.872 8.93447 30.8554 8.91815 30.8305 8.90183C30.7807 8.90183 30.7227 8.90183 30.6812 8.88552C29.8516 8.54282 28.9805 8.38779 28.0928 8.31436C26.8069 8.21644 25.5294 8.28172 24.2601 8.55098C23.2977 8.75496 22.3769 9.08134 21.5141 9.53827C20.2033 10.2237 19.0916 11.1538 18.1791 12.3206C17.5652 13.1039 17.0674 13.9525 16.6858 14.8663C16.5282 15.2498 16.3871 15.6333 16.3125 16.0331C16.1548 16.8572 16.1382 17.6977 16.1963 18.5381C16.271 19.5498 16.4203 20.5534 16.86 21.4918C17.3329 22.5035 17.8887 23.4582 18.6353 24.2986C19.0004 24.7147 19.382 25.1064 19.6226 25.6367C19.8217 26.0692 19.9627 26.4935 20.0125 26.9504C20.0623 27.391 19.9046 27.7663 19.5977 28.0927C19.241 28.4599 18.8013 28.7047 18.3201 28.8679C17.225 29.2432 16.1134 29.2269 14.9934 29.0229C14.5454 28.9413 14.1223 28.7781 13.6909 28.6231C13.6743 28.6068 13.6494 28.5904 13.6328 28.5741C13.4669 28.4762 13.2844 28.4191 13.1434 28.2885C13.1268 28.2641 13.1102 28.2396 13.1019 28.2151C13.077 28.0193 13.2014 27.8643 13.2512 27.6929C13.3508 27.3747 13.4171 27.0402 13.5416 26.7301C13.7573 26.1671 13.8983 25.5878 14.0974 25.0248C14.1057 25.0166 14.114 25.0003 14.1223 24.9922C14.114 25.0003 14.0974 25.0085 14.0891 25.0166C14.031 24.9922 13.9896 25.0003 13.9232 25.0248C13.4337 25.2288 12.9443 25.4246 12.4548 25.6204C9.98258 26.624 7.51036 27.6276 5.03814 28.6312C4.82244 28.721 4.59015 28.7863 4.38275 28.925C6.22447 31.8705 8.0496 34.7997 9.88303 37.7371C9.90792 37.6392 9.97428 37.5903 9.99917 37.5168C10.2729 36.6927 10.5633 35.8768 10.8454 35.0527C10.9117 34.8732 10.9532 34.8405 11.1191 34.8732C11.1689 34.8813 11.2187 34.8977 11.2602 34.9221C11.5837 35.0853 11.9321 35.1506 12.2723 35.2485C13.16 35.5015 14.0642 35.6565 14.9768 35.7462C16.6277 35.9013 18.2703 35.7952 19.888 35.4443C21.373 35.118 22.7751 34.5876 24.0693 33.8043C25.5459 32.9149 26.7821 31.7889 27.6365 30.2958C27.7776 30.051 27.9186 29.8144 27.9933 29.5451C28.0099 29.5206 28.0265 29.5043 28.0431 29.4798C28.0845 29.3411 28.1343 29.2024 28.1758 29.0637C28.1924 29.0392 28.209 29.0229 28.2173 28.9984C28.3749 28.5904 28.4579 28.158 28.5242 27.7256C28.7233 26.42 28.4993 25.1798 27.9269 23.9885C27.4706 23.0502 26.8567 22.2098 26.1764 21.4183C25.5459 20.6922 24.9403 19.9496 24.4592 19.1092C24.4592 19.0929 24.4426 19.0766 24.4177 19.0684C24.3928 18.9868 24.3596 18.9052 24.3347 18.8318C24.3181 18.8155 24.3015 18.791 24.2849 18.7747C24.2601 18.6931 24.2352 18.6197 24.2103 18.5381C24.1937 18.5136 24.1771 18.4973 24.1688 18.4728C24.1356 18.3504 24.1107 18.2199 24.0775 18.0975C23.8867 17.3876 23.9531 16.7022 24.2684 16.0331C24.708 15.0948 25.463 14.5726 26.5 14.4584C27.4955 14.3523 28.4081 14.6542 29.2792 15.0703C29.6193 15.2335 29.976 15.3559 30.2913 15.5599C30.2996 15.6007 30.3162 15.6415 30.3659 15.6333C30.3825 15.6333 30.3991 15.5925 30.4157 15.5681C30.6065 15.2172 30.7973 14.8663 30.9881 14.5155C31.013 14.4665 31.0213 14.4094 31.0462 14.3523C31.0628 14.3523 31.0794 14.336 31.0794 14.3115C31.2868 13.9525 31.5025 13.6016 31.6518 13.21C31.6684 13.21 31.685 13.1855 31.6933 13.1692L31.685 13.1774ZM118.661 31.2178C118.661 31.3728 118.561 31.4952 118.528 31.6339C118.37 32.2132 118.13 32.7681 117.939 33.3392C117.748 33.9185 117.516 34.4815 117.35 35.069C117.317 35.1016 117.284 35.1424 117.366 35.1588C117.491 35.1588 117.607 35.1751 117.732 35.1751C120.121 35.1751 122.51 35.1751 124.899 35.1751C125.405 35.1751 125.414 35.1751 125.563 34.71C125.787 34.0328 126.028 33.3637 126.268 32.6865C126.5 32.0337 126.733 31.381 126.965 30.7282C127.347 29.6838 127.678 28.6231 128.185 27.6195C128.326 27.3257 128.45 27.0238 128.574 26.7301C128.591 26.7219 128.608 26.7056 128.616 26.6893C128.657 26.6159 128.707 26.5343 128.74 26.4608C128.931 26.0774 129.114 25.6857 129.304 25.3022C129.321 25.3022 129.338 25.2859 129.346 25.2614C129.396 25.1798 129.454 25.0901 129.495 25.0085C130.142 23.8254 130.823 22.6586 131.652 21.5815C132.324 20.7085 133.029 19.8599 133.768 19.044C134.116 18.6605 134.448 18.2688 134.805 17.8935C135.303 17.3794 135.858 16.9225 136.406 16.4574C136.829 16.0984 137.269 15.7639 137.742 15.4701C138.422 15.0295 139.119 14.646 139.915 14.4421C140.255 14.3523 140.604 14.2789 140.96 14.3115C140.977 14.3278 140.994 14.3441 141.01 14.3605C141.043 14.4829 140.969 14.5889 140.936 14.7032C140.803 15.1764 140.62 15.6333 140.512 16.1147C140.446 16.1474 140.388 16.1882 140.413 16.2779C140.413 16.4982 140.247 16.6777 140.264 16.898C140.197 16.9307 140.139 16.9715 140.205 17.0612C140.156 17.2163 140.073 17.3631 140.089 17.5345C140.222 17.5345 140.322 17.4692 140.421 17.4284C143.341 16.2698 146.253 15.1111 149.173 13.9525C149.447 13.8464 149.447 13.8301 149.298 13.5772C149.29 13.5608 149.281 13.5445 149.265 13.5282C147.606 10.8764 145.946 8.2246 144.287 5.5728C144.237 5.49121 144.204 5.39329 144.113 5.34434C144.113 5.33618 144.096 5.31986 144.088 5.3117C144.088 5.32802 144.08 5.33618 144.071 5.3525C143.964 5.49937 143.955 5.67887 143.914 5.85022C143.789 5.93181 143.798 6.07052 143.756 6.18476C143.748 6.32346 143.698 6.45402 143.657 6.58457C143.582 6.83751 143.474 7.08229 143.424 7.34339C143.358 7.37603 143.3 7.41682 143.366 7.49842C143.25 7.7432 143.2 8.0043 143.092 8.25724C142.976 8.51834 142.993 8.53466 142.711 8.51834C141.848 8.47754 140.994 8.43675 140.131 8.49386C139.558 8.53466 138.986 8.59178 138.414 8.68153C137.576 8.81208 136.779 9.01606 136.024 9.40772C134.622 10.1339 133.361 11.0641 132.225 12.1411C131.636 12.696 131.063 13.2671 130.516 13.8627C130.267 14.1402 130.018 14.4094 129.786 14.7032C128.939 15.7394 128.16 16.8164 127.396 17.9016C127.347 17.9751 127.313 18.0812 127.206 18.1056C127.131 18.0485 127.156 17.9751 127.148 17.9098C127.081 17.3958 127.015 16.8817 126.948 16.3677C126.774 15.0377 126.592 13.6996 126.417 12.3696C126.26 11.1538 126.094 9.93808 125.936 8.73049C125.92 8.59178 125.862 8.53466 125.721 8.55098C125.671 8.55098 125.621 8.55098 125.571 8.55098C123.514 8.55098 121.456 8.55098 119.399 8.55098C119.341 8.55098 119.275 8.55098 119.217 8.55098C119.075 8.54282 119.042 8.6081 119.059 8.73049C119.1 8.98343 119.142 9.24453 119.183 9.49747C119.391 10.8601 119.606 12.2227 119.814 13.5935C120.046 15.1111 120.287 16.6206 120.519 18.1383C120.61 18.7176 120.693 19.2969 120.776 19.8844C120.843 20.3658 120.934 20.8472 121.008 21.3286C121.1 21.8753 121.183 22.4301 121.266 22.9768C121.307 23.2216 121.365 23.4663 121.365 23.7193C121.332 23.7193 121.307 23.7438 121.324 23.7846C121.324 23.9314 121.232 24.0375 121.191 24.1681C120.975 24.8698 120.718 25.5552 120.461 26.2487C120.428 26.2487 120.395 26.2487 120.419 26.2977C120.419 26.3956 120.386 26.4853 120.353 26.5832C120.262 26.8525 120.171 27.1299 120.079 27.4073C120.013 27.44 119.955 27.4726 120.013 27.5624C119.864 27.8887 119.781 28.2314 119.648 28.566C119.573 28.7618 119.49 28.9495 119.424 29.1453C119.2 29.847 118.951 30.5324 118.694 31.2259C118.661 31.2259 118.627 31.2259 118.652 31.2749L118.661 31.2178ZM97.4145 28.1254C97.4145 28.1254 97.3647 28.1254 97.373 28.1662C97.2901 28.4354 97.1407 28.6639 96.9914 28.9005C96.9499 28.8923 96.9416 28.9005 96.9499 28.9413C96.9416 28.9821 96.9416 29.0229 96.9168 29.0555C96.4937 29.8225 96.0706 30.5895 95.6475 31.3483C95.606 31.3402 95.5977 31.3483 95.606 31.3891C95.523 31.6584 95.3737 31.8868 95.2244 32.1235C95.1829 32.1153 95.1746 32.1235 95.1829 32.1643C95.1663 32.2785 95.1082 32.3682 95.0501 32.4662C94.6188 33.2576 94.1874 34.0491 93.756 34.8324C93.7145 34.914 93.6315 34.9874 93.6481 35.1098C93.7145 35.1506 93.7891 35.1424 93.8555 35.1424C95.9544 35.1424 98.0533 35.1424 100.144 35.1424C100.335 35.1424 100.409 35.0608 100.492 34.9221C100.974 34.0572 101.455 33.1923 101.936 32.3274C102.16 31.9276 102.409 31.536 102.591 31.1199C102.674 30.9404 102.757 30.9159 102.923 30.9159C104.574 30.9159 106.225 30.9159 107.876 30.9159C108.133 30.9159 108.141 30.9159 108.083 31.1607C107.876 32.0663 107.668 32.9639 107.461 33.8696C107.37 34.2939 107.237 34.7182 107.187 35.1506C107.179 35.1996 107.204 35.2077 107.245 35.1996C107.303 35.1996 107.37 35.2077 107.428 35.2077C109.809 35.2077 112.181 35.2077 114.562 35.2077C114.596 35.2077 114.62 35.2077 114.654 35.2077C114.795 35.224 114.844 35.1588 114.861 35.02C114.903 34.6202 114.952 34.2286 115.002 33.8369C115.11 32.9394 115.21 32.0419 115.317 31.1443V31.0791C115.375 30.7935 115.417 30.5079 115.417 30.2223C115.45 30.1734 115.45 30.1163 115.442 30.0591C115.55 29.2106 115.658 28.362 115.757 27.5134C115.89 26.4119 116.023 25.3022 116.155 24.2007C116.263 23.3032 116.363 22.4056 116.471 21.5081C116.471 21.4836 116.471 21.4673 116.471 21.4428C116.595 20.4311 116.728 19.4193 116.844 18.3994C116.927 17.7385 116.993 17.0775 117.068 16.4166C117.068 16.3922 117.068 16.3758 117.068 16.3514C117.134 15.8455 117.201 15.3478 117.259 14.8419C117.391 13.724 117.532 12.6062 117.665 11.4884C117.732 10.9172 117.79 10.3379 117.856 9.76673C117.881 9.73409 117.881 9.69329 117.864 9.6525C117.939 9.37508 117.947 9.08134 117.98 8.79576C118.014 8.53466 118.005 8.5265 117.74 8.5265C114.587 8.5265 111.443 8.5265 108.291 8.5265C108.125 8.5265 108.033 8.57546 107.959 8.72233C107.743 9.13846 107.511 9.54642 107.287 9.96255C106.922 10.6235 106.557 11.2844 106.183 11.9453C106.142 11.9371 106.134 11.9453 106.142 11.9861C106.125 12.1003 106.067 12.1901 106.009 12.288C105.835 12.6062 105.661 12.9326 105.487 13.2508C105.13 13.8954 104.773 14.5318 104.416 15.1764C104.375 15.1682 104.367 15.1764 104.375 15.2172C104.358 15.3314 104.3 15.4212 104.242 15.5191C104.068 15.8373 103.894 16.1637 103.719 16.4819C103.363 17.1265 103.006 17.7629 102.649 18.4075C102.608 18.3994 102.6 18.4075 102.608 18.4483C102.5 18.7502 102.334 19.0276 102.16 19.2969C102.118 19.2969 102.102 19.2969 102.118 19.3459C101.737 20.1292 101.305 20.8798 100.882 21.6386C100.841 21.6305 100.832 21.6386 100.841 21.6794C100.824 21.7937 100.766 21.8834 100.708 21.9813C100.459 22.4383 100.21 22.8952 99.9614 23.3521C99.6793 23.858 99.3973 24.3639 99.1152 24.8698C99.0737 24.8616 99.0654 24.8698 99.0737 24.9106C99.0571 25.0248 98.9991 25.1145 98.941 25.2125C98.6921 25.6694 98.4432 26.1263 98.1943 26.5832C97.9123 27.0891 97.6302 27.595 97.3481 28.1009L97.4145 28.1254ZM47.8623 28.4844C48.2439 27.7419 48.5426 26.9667 48.808 26.1753C49.3805 24.4944 49.9529 22.8218 50.517 21.1409C50.8572 20.1455 51.189 19.1419 51.5208 18.1383C52.4832 15.3151 53.4455 12.492 54.3996 9.66882C54.4908 9.3914 54.6153 9.11398 54.665 8.81208C54.5489 8.76312 54.4327 8.7876 54.3249 8.7876C52.3504 8.7876 50.376 8.7876 48.4015 8.7876C48.1195 8.7876 47.8374 8.7876 47.547 8.7876C47.4226 8.7876 47.3811 8.8284 47.3479 8.94263C47.1405 9.56274 46.9248 10.1829 46.7174 10.803C45.9376 13.1202 45.1578 15.4375 44.378 17.7548C43.7889 19.509 43.1916 21.2633 42.5943 23.0094C42.1712 24.2333 41.773 25.4654 41.3001 26.673C41.1259 27.1299 40.9351 27.5868 40.6696 27.9948C40.0972 28.8597 39.2925 29.2432 38.2389 29.0882C37.8573 29.0311 37.625 28.8271 37.4922 28.4844C37.3512 28.109 37.3678 27.7256 37.4508 27.3421C37.5752 26.7709 37.7494 26.2079 37.9568 25.6612C38.214 24.984 38.4214 24.2986 38.6537 23.6132C39.4169 21.3612 40.1636 19.1011 40.9351 16.8491C41.69 14.6379 42.4533 12.4349 43.1833 10.2155C43.3409 9.74225 43.5069 9.28533 43.6645 8.80392C43.6147 8.80392 43.5815 8.7876 43.5566 8.7876C41.2338 8.7876 38.9192 8.7876 36.5963 8.7876C36.4221 8.7876 36.3557 8.85288 36.3059 9.00791C35.8081 10.4929 35.3104 11.9861 34.8043 13.4711C34.2817 14.9887 33.7424 16.5064 33.2281 18.0322C32.6722 19.6641 32.1247 21.2959 31.5855 22.936C31.1707 24.2007 30.6563 25.4328 30.3079 26.7138C30.2083 27.0891 30.0839 27.4563 30.0009 27.8398C29.918 28.2151 29.7769 28.5823 29.7603 28.9739C29.7437 29.3574 29.6608 29.7491 29.6525 30.1326C29.611 31.1525 29.7023 32.1479 30.1751 33.0781C30.4655 33.6493 30.8637 34.1307 31.3698 34.5305C32.1081 35.1016 32.9543 35.428 33.8669 35.5994C35.9492 35.9992 38.0066 35.9013 40.0474 35.3627C42.0717 34.8242 43.7972 33.788 45.249 32.3111C46.0372 31.5115 46.6842 30.614 47.2567 29.6593C47.4724 29.3003 47.6051 28.9087 47.8125 28.5497C47.8291 28.5415 47.8457 28.5252 47.854 28.5089L47.8623 28.4844ZM70.8008 18.4238C70.8921 18.4075 70.9087 18.3422 70.9087 18.2688C71.3318 17.6732 71.6553 17.0204 71.8959 16.335C71.9789 16.3106 72.0038 16.2534 71.9872 16.18C72.0203 15.9923 72.0535 15.8047 72.0867 15.617C72.1697 15.5925 72.1863 15.5273 72.1697 15.4538C72.2277 15.1274 72.2858 14.8092 72.3356 14.4829C72.4766 13.5364 72.46 12.598 72.1282 11.676C71.7217 10.5419 70.9419 9.76673 69.8136 9.32612C69.7887 9.3098 69.7721 9.29348 69.7472 9.27717C69.6643 9.25269 69.5896 9.22821 69.5066 9.20373C69.4818 9.18741 69.4652 9.17109 69.4403 9.15477C69.3988 9.13846 69.3656 9.12214 69.3241 9.10582C69.2909 9.04054 69.2329 9.03238 69.1665 9.04054C68.8181 9.01606 68.4862 8.87736 68.1461 8.82024C67.7396 8.75496 67.3331 8.68153 66.9183 8.67337C65.3586 8.62441 63.799 8.65705 62.2393 8.64889C60.6299 8.64889 59.0205 8.64889 57.411 8.64889C57.2285 8.64889 57.1096 8.72777 57.0543 8.88552C56.0837 11.7739 55.1047 14.6624 54.1341 17.5508C53.6695 18.9216 53.2049 20.2923 52.7404 21.6631C52.0933 23.5724 51.4462 25.4899 50.7991 27.4073C50.0773 29.5369 49.3556 31.6584 48.6421 33.788C48.4762 34.2694 48.2854 34.7426 48.1858 35.2485C48.2771 35.3056 48.3766 35.2812 48.4596 35.2812C51.8195 35.2812 55.1877 35.2812 58.5476 35.2812C59.5597 35.2812 60.5718 35.1914 61.5673 35.0364C62.1398 34.9466 62.7122 34.7997 63.268 34.6284C65.1595 34.0654 66.8519 33.1923 68.2125 31.7481C68.843 31.0791 69.349 30.3366 69.714 29.488C69.8302 29.2269 69.88 28.9413 70.0542 28.7128C70.1123 28.6802 70.1288 28.6231 70.1206 28.566C70.1371 28.3457 70.2201 28.1417 70.2616 27.9295C70.5519 26.6077 70.3445 25.343 69.7804 24.1273C69.5896 23.7111 69.3407 23.3276 69.0587 22.9523C68.6107 22.3648 68.0548 21.8997 67.4409 21.4836C67.4409 21.4428 67.4409 21.402 67.4409 21.3531C67.5073 21.2878 67.6069 21.2796 67.6815 21.2307C67.6981 21.2144 67.723 21.198 67.7396 21.1899C67.8723 21.1246 68.0051 21.0593 68.1295 20.9859C68.6024 20.7248 69.0172 20.3821 69.4071 20.0149C69.9297 19.5335 70.3943 19.0032 70.7925 18.4238H70.8008ZM129.537 35.477C130.283 35.4933 130.881 34.914 130.897 34.1633C130.922 33.429 130.341 32.8415 129.603 32.8252C128.815 32.8089 128.226 33.3474 128.209 34.0899C128.185 34.8487 128.774 35.4525 129.537 35.4688V35.477Z" fill="#005543"/>
<path d="M96.311 11.8561C96.4769 11.5379 96.6594 11.2278 96.759 10.8851C96.7756 10.8688 96.7839 10.8525 96.8005 10.8443C97.0162 10.4527 97.207 10.0447 97.3646 9.62855C97.3812 9.61224 97.3978 9.59592 97.4144 9.5796C97.5471 9.30218 97.713 9.04108 97.7877 8.73918C97.8126 8.62495 97.8873 8.54336 98.02 8.56783C98.0615 8.56783 98.103 8.56783 98.1444 8.56783C100.343 8.56783 102.541 8.56783 104.731 8.56783H104.914C104.964 8.67391 104.889 8.7555 104.848 8.81262C104.582 9.21243 104.425 9.67751 104.142 10.0692C104.026 10.2323 103.968 10.4445 103.86 10.6158C103.595 11.0401 103.421 11.5052 103.139 11.9213C103.023 12.0845 102.981 12.3048 102.865 12.4762C102.599 12.8434 102.45 13.2758 102.209 13.6593C102.044 13.9204 101.919 14.2223 101.77 14.4997C101.181 15.6094 100.567 16.7027 99.9696 17.8043C99.4303 18.7997 98.8994 19.8033 98.3601 20.8069C98.3352 20.8559 98.2938 20.9048 98.2606 20.9538C98.2191 20.9456 98.2108 20.9538 98.2191 20.9946C98.103 21.2965 97.9453 21.5739 97.7711 21.8513C97.7296 21.8432 97.7213 21.8513 97.7296 21.8921C97.6218 22.2022 97.4559 22.4714 97.2817 22.7489C97.2402 22.7407 97.2319 22.7489 97.2402 22.7897C97.1323 23.0997 96.9664 23.369 96.7922 23.6464C96.7507 23.6382 96.7424 23.6464 96.7507 23.6872C96.6429 23.9972 96.4769 24.2665 96.3027 24.5439C96.2612 24.5358 96.2529 24.5439 96.2612 24.5847C96.1534 24.8948 95.9875 25.164 95.8133 25.4415C95.7718 25.4333 95.7635 25.4415 95.7718 25.4823C95.6639 25.7923 95.498 26.0616 95.3238 26.339C95.2823 26.3308 95.274 26.339 95.2823 26.3798C95.1745 26.6898 95.0085 26.9591 94.8343 27.2365C94.7928 27.2284 94.7845 27.2365 94.7928 27.2773C94.685 27.5874 94.5191 27.8566 94.3449 28.1341C94.3034 28.1259 94.2951 28.1341 94.3034 28.1749C94.1955 28.4849 94.0296 28.7542 93.8554 29.0316C93.8139 29.0234 93.8056 29.0316 93.8139 29.0724C93.8139 29.105 93.8139 29.1377 93.7973 29.1621C93.4904 29.717 93.2083 30.28 92.8848 30.8267C92.7686 31.0225 92.6774 31.2509 92.5612 31.4549C91.9141 32.6544 91.2587 33.8456 90.6116 35.0451C90.5619 35.143 90.4955 35.2001 90.3794 35.1838C90.3213 35.1838 90.2549 35.1838 90.1968 35.1838C88.0731 35.1838 85.941 35.1838 83.8172 35.1838C83.7093 35.1838 83.5932 35.2001 83.4688 35.1593C83.477 34.8492 83.5683 34.5392 83.6098 34.2291C83.6679 33.8375 83.7508 33.4458 83.8172 33.0542C83.8421 32.9236 83.8338 32.7931 83.8421 32.6707C83.9333 32.6462 83.9499 32.5891 83.925 32.4993C83.9084 32.1485 84.0412 31.8221 84.091 31.4876C84.1158 31.2999 84.149 31.1204 84.149 30.9327C84.2403 30.9082 84.2569 30.843 84.232 30.7614C84.3398 29.9373 84.5058 29.1213 84.6468 28.2972C84.7712 27.5711 84.904 26.8367 85.0367 26.1105C85.0616 25.9881 85.0533 25.8576 85.0616 25.727C85.128 25.7107 85.186 25.6944 85.1197 25.6128C85.186 25.1967 85.3105 24.7805 85.3022 24.3563C85.3934 24.3318 85.41 24.2747 85.3934 24.1931C85.5013 23.3853 85.6755 22.5857 85.8082 21.786C85.8331 21.631 85.8414 21.4678 85.8497 21.3128C85.941 21.2883 85.9576 21.2231 85.9327 21.1415C85.9493 20.8559 86.0488 20.5785 86.0322 20.2929C86.1235 20.2684 86.1401 20.2113 86.1235 20.1297C86.1318 19.9665 86.1484 19.8033 86.1567 19.6401C86.223 19.6238 86.2811 19.5993 86.2147 19.5259C86.2147 19.4688 86.2147 19.4035 86.2147 19.3464C86.306 19.3219 86.3226 19.2566 86.2977 19.175C86.3143 19.0363 86.3309 18.9058 86.3558 18.7589C86.2562 18.8405 86.2313 18.9466 86.1981 19.0445C86.0405 19.3464 85.8829 19.6483 85.7336 19.9583C85.5594 20.3255 85.3934 20.6927 85.2275 21.0599C85.128 21.272 85.045 21.4923 84.9206 21.6963C84.8791 21.6963 84.8625 21.6963 84.8791 21.7453C84.7795 21.99 84.7049 22.2511 84.5555 22.4796C84.5141 22.4796 84.4975 22.4796 84.514 22.5286C84.4145 22.7733 84.3398 23.0344 84.1905 23.2629C84.149 23.2629 84.1324 23.2629 84.149 23.3119C84.0412 23.6056 83.9333 23.8993 83.7674 24.1686C83.7259 24.1686 83.7176 24.1686 83.7259 24.2094C83.6596 24.4705 83.5268 24.7071 83.4024 24.9437C83.3609 24.9437 83.3526 24.9437 83.3609 24.9845C83.3609 25.0253 83.3443 25.0661 83.336 25.1069C83.3028 25.1069 83.2779 25.1314 83.2862 25.1722C83.2531 25.3843 83.1203 25.5475 83.0291 25.727C82.9876 25.727 82.971 25.727 82.9876 25.7678C82.9378 26.0371 82.7885 26.2656 82.664 26.5022C82.6226 26.5022 82.606 26.5022 82.6226 26.543C82.5562 26.8041 82.4234 27.0407 82.299 27.2773C82.2575 27.2773 82.2409 27.2773 82.2575 27.3181C82.158 27.5629 82.075 27.824 81.934 28.0525C81.8925 28.0525 81.8759 28.0525 81.8925 28.0933C81.793 28.338 81.7183 28.5991 81.569 28.8276C81.5275 28.8276 81.5109 28.8276 81.5275 28.8684C81.4279 29.1132 81.345 29.3743 81.2039 29.6027C81.1625 29.6027 81.1459 29.6027 81.1625 29.6435C81.0712 29.8965 80.9799 30.1494 80.8389 30.3779C80.7974 30.3779 80.7808 30.3779 80.7974 30.4187C80.7062 30.6716 80.6149 30.9246 80.4739 31.153C80.4324 31.153 80.4158 31.153 80.4324 31.1938C80.3163 31.4386 80.2665 31.7079 80.1089 31.9282C80.0674 31.9282 80.0508 31.9282 80.0674 31.969C80.0591 32.0506 80.0259 32.124 79.9927 32.1974C79.5613 33.1194 79.1216 34.0415 78.6985 34.9635C78.6156 35.1348 78.5077 35.2164 78.3086 35.2164C76.1102 35.2164 73.9117 35.2164 71.7133 35.2164C71.6552 35.2164 71.5971 35.2164 71.5142 35.2083C71.5142 34.8574 71.5722 34.531 71.6054 34.1965C71.7547 32.8502 71.9124 31.5039 72.0617 30.1576C72.211 28.8031 72.3604 27.4487 72.5097 26.086C72.659 24.7397 72.8166 23.3934 72.966 22.0471C73.0987 20.8804 73.2231 19.7136 73.3559 18.5386C73.4886 17.3718 73.6214 16.205 73.7541 15.0382C73.8619 14.0591 73.9698 13.08 74.0859 12.1009C74.2104 10.9912 74.3348 9.8815 74.451 8.77182C74.4676 8.64943 74.509 8.59231 74.6418 8.60047C74.6915 8.60047 74.7413 8.60047 74.7911 8.60047C76.9813 8.60047 79.1714 8.60047 81.3533 8.60047C81.4528 8.60047 81.5524 8.58415 81.6685 8.63311C81.627 8.87789 81.5938 9.12267 81.5358 9.36745C81.3367 10.216 81.1873 11.0728 81.0297 11.9295C80.7725 13.2758 80.5237 14.6221 80.2665 15.9684C80.1006 16.8333 79.9429 17.7064 79.7521 18.5712C79.636 19.1261 79.553 19.6891 79.4369 20.2439C79.2461 21.1496 79.0967 22.0553 78.8976 22.9528C78.7732 23.524 78.6653 24.1033 78.5907 24.6826C78.5658 24.7724 78.5409 24.854 78.5077 24.9437C78.4662 25.0008 78.4082 25.0743 78.4828 25.1151C78.5741 25.164 78.5824 25.0498 78.6073 25.0008C78.6239 24.9764 78.6156 24.9437 78.6239 24.9193C78.6156 24.8377 78.7068 24.7724 78.6819 24.6908C78.6819 24.6174 78.7317 24.5684 78.7649 24.5113C78.7815 24.495 78.7981 24.4786 78.8147 24.4623C78.964 24.1931 79.0138 23.8749 79.1963 23.6138C79.2129 23.5974 79.2295 23.5811 79.2461 23.5648C79.3124 23.4261 79.3954 23.2955 79.4369 23.1405C79.495 23.1242 79.5613 23.116 79.5032 23.0263C79.5281 22.8223 79.6609 22.6591 79.7438 22.4796C79.7604 22.4633 79.777 22.447 79.7936 22.4306C79.8517 22.2838 79.9512 22.1614 79.9844 22.0064C80.1006 21.9656 80.1669 21.9003 80.1089 21.7697C80.1172 21.6065 80.225 21.4842 80.2914 21.3454C80.308 21.3291 80.3163 21.3128 80.3329 21.2965C80.5651 20.8722 80.7642 20.4234 80.9468 19.9747C80.9633 19.9339 80.9965 19.8931 81.0214 19.8441C81.038 19.8278 81.0463 19.8115 81.0629 19.7952C81.262 19.379 81.5109 18.9955 81.6353 18.5468C81.6602 18.4733 81.71 18.4081 81.7432 18.3428C81.7598 18.3265 81.7681 18.3101 81.7847 18.2938C82.0004 17.8451 82.2658 17.4208 82.4235 16.9394C82.4649 16.8251 82.5396 16.7191 82.5977 16.6048L82.6391 16.5559C82.8963 16.0255 83.2033 15.5115 83.3941 14.9485C83.419 14.875 83.4687 14.8098 83.5102 14.7445C83.5268 14.7282 83.5351 14.7119 83.5517 14.6955C83.8006 14.2141 84.0578 13.7327 84.2486 13.2187C84.3232 13.0229 84.4394 12.8352 84.5389 12.6475C84.5555 12.6312 84.5638 12.6149 84.5804 12.5986C84.8708 12.0519 85.1363 11.4889 85.3851 10.9096C85.4764 10.7056 85.5925 10.5098 85.6921 10.3058C85.7087 10.2895 85.7253 10.2731 85.7419 10.2568C85.9825 9.76726 86.2396 9.28586 86.4719 8.78814C86.5466 8.62495 86.6461 8.57599 86.8204 8.57599C88.745 8.57599 90.6697 8.57599 92.5944 8.57599C92.6691 8.57599 92.7603 8.55967 92.8516 8.62495C91.9058 13.9449 90.9601 19.273 90.0143 24.5929C89.9148 24.6908 89.9728 24.7887 90.0558 24.9356C90.0392 24.8132 90.1056 24.7724 90.1139 24.7071C90.2881 24.446 90.3296 24.1278 90.5038 23.8667C90.5204 23.8504 90.537 23.8341 90.5536 23.8177C90.6116 23.6709 90.7112 23.5485 90.7444 23.3934C90.8024 23.3771 90.8771 23.369 90.8107 23.2792C90.8107 23.116 90.9269 22.9936 90.9933 22.8549C91.0099 22.8386 91.0264 22.8223 91.043 22.806C91.1011 22.6591 91.2007 22.5367 91.2338 22.3817C91.2919 22.3654 91.3666 22.349 91.3002 22.2675C91.3002 22.1043 91.4164 21.9819 91.4827 21.8432C91.4993 21.8268 91.5159 21.8105 91.5325 21.7942C91.7316 21.3781 91.9556 20.9783 92.1298 20.554C92.3372 20.0318 92.6027 19.5341 92.8433 19.0363C93.0756 18.5549 93.3162 18.0654 93.5484 17.5758C93.8056 17.0454 94.0545 16.5069 94.3034 15.9766C94.5606 15.438 94.8094 14.8914 95.0915 14.361C95.2906 13.9938 95.4482 13.6185 95.6307 13.2432C95.6805 13.1453 95.7386 13.0473 95.7386 12.9331C95.7552 12.9168 95.7635 12.9005 95.7801 12.8923C95.946 12.5741 96.1285 12.264 96.2281 11.9213C96.2446 11.905 96.2529 11.8887 96.2695 11.8805L96.311 11.8561ZM90.0226 25.009C90.0226 25.009 90.0226 24.9927 90.0226 24.9845H90.006C90.006 24.9845 90.006 25.0008 89.9977 25.009H90.0143H90.0226Z" fill="#FFF200"/>
<path d="M70.0378 28.7048C69.8636 28.9415 69.8138 29.227 69.6977 29.48C69.3243 30.3204 68.8183 31.0629 68.1961 31.7401C66.8438 33.1843 65.1431 34.0574 63.2516 34.6204C62.6875 34.7836 62.1234 34.9386 61.5509 35.0284C60.5554 35.1834 59.5433 35.2731 58.5312 35.2731C55.1713 35.2731 51.8031 35.2731 48.4432 35.2731C48.3519 35.2731 48.2607 35.2976 48.1694 35.2405C48.269 34.7346 48.4598 34.2614 48.6257 33.78C49.3392 31.6504 50.0609 29.5289 50.7827 27.3993C51.4298 25.4819 52.0769 23.5726 52.724 21.6551C53.1885 20.2843 53.6531 18.9136 54.1177 17.5428C55.0966 14.6544 56.0673 11.7659 57.0379 8.87751C57.0932 8.71976 57.2121 8.64089 57.3946 8.64089C59.0041 8.64089 60.6135 8.64089 62.2229 8.64089C63.7826 8.64089 65.3422 8.61641 66.9019 8.66536C67.3167 8.68168 67.7232 8.74696 68.1297 8.81223C68.4781 8.86935 68.8017 8.9999 69.1501 9.03254C69.1833 9.09781 69.2248 9.16309 69.3077 9.09781C69.3492 9.11413 69.3824 9.13045 69.4239 9.14677C69.4239 9.17941 69.4488 9.20388 69.4903 9.19572C69.5732 9.2202 69.6479 9.24468 69.7308 9.26916C69.7308 9.3018 69.7557 9.32627 69.7972 9.31811C70.9255 9.76688 71.7053 10.5339 72.1118 11.668C72.4436 12.59 72.4519 13.5284 72.3192 14.4749C72.2694 14.8012 72.2114 15.1194 72.1533 15.4458C72.1035 15.4866 72.0205 15.5111 72.0703 15.609C72.0371 15.7967 72.004 15.9843 71.9708 16.172C71.9127 16.2046 71.838 16.2373 71.8795 16.327C71.6389 17.0206 71.3154 17.6652 70.8923 18.2608C70.8176 18.2853 70.7678 18.3261 70.7844 18.4158C70.3862 18.9952 69.9134 19.5255 69.399 20.0069C69.0091 20.3741 68.5943 20.7086 68.1214 20.9779C67.997 21.0513 67.8559 21.1166 67.7315 21.1819C67.69 21.1656 67.6734 21.19 67.6734 21.2227C67.5988 21.2716 67.4992 21.2798 67.4328 21.3451C67.3831 21.3451 67.3333 21.3451 67.3333 21.4103C67.3333 21.4675 67.3914 21.4675 67.4328 21.4756C68.0467 21.8836 68.6026 22.3487 69.0506 22.9443C69.3243 23.3115 69.5815 23.695 69.7723 24.1193C70.3282 25.335 70.5438 26.5997 70.2535 27.9215C70.2037 28.1337 70.129 28.3377 70.1125 28.558C70.0461 28.5906 69.9797 28.6232 70.0461 28.7048H70.0378ZM57.6933 29.4637C57.6933 29.4637 57.7431 29.4881 57.7597 29.4881C58.5395 29.4881 59.3193 29.5208 60.0991 29.4718C60.7794 29.4229 61.4265 29.2515 61.9823 28.8354C62.3474 28.558 62.6377 28.2153 62.8036 27.7828C62.9032 27.5299 62.9696 27.2688 63.0193 26.9914C63.1023 26.5018 63.0193 26.0612 62.729 25.6695C62.4635 25.3024 62.0819 25.0739 61.6422 24.9434C61.3684 24.8618 61.0947 24.7802 60.8126 24.7312C60.3563 24.6496 59.9083 24.6415 59.4603 24.6496C59.3691 24.6496 59.311 24.6823 59.2861 24.772C59.2032 25.0086 59.1036 25.2452 59.0207 25.4819C58.6805 26.461 58.3653 27.4564 57.9919 28.4274C57.8592 28.7619 57.7348 29.1046 57.6933 29.4718V29.4637ZM60.713 19.0523C61.0781 19.0523 61.4016 19.0523 61.7169 19.0523C62.4469 19.0278 63.1521 18.9217 63.8158 18.6117C64.944 18.0813 65.5828 17.2082 65.7736 16.0007C65.8566 15.4703 65.616 14.9644 65.1597 14.736C64.9025 14.6054 64.6288 14.5156 64.3301 14.4749C63.7162 14.3933 63.094 14.4341 62.4801 14.4177C62.364 14.4177 62.2727 14.4341 62.2561 14.5564C62.2478 14.638 62.1814 14.6788 62.1566 14.7604C61.8994 15.5437 61.6173 16.3189 61.3518 17.094C61.2357 17.4204 61.1444 17.7631 61.0117 18.0813C60.879 18.3832 60.7711 18.6851 60.713 19.0441V19.0523Z" fill="white"/>
<path d="M47.8125 28.525C47.6051 28.884 47.4723 29.2757 47.2566 29.6347C46.6842 30.5893 46.0288 31.4869 45.249 32.2865C43.7972 33.7633 42.0716 34.8077 40.0474 35.3381C38.0065 35.8766 35.9408 35.9745 33.8668 35.5747C32.9543 35.4034 32.1081 35.077 31.3697 34.5058C30.8554 34.1142 30.4654 33.6246 30.1751 33.0535C29.6939 32.1233 29.6109 31.1197 29.6524 30.1079C29.669 29.7244 29.7437 29.3328 29.7603 28.9493C29.7769 28.5576 29.9179 28.1905 30.0009 27.8151C30.0838 27.4398 30.2083 27.0645 30.3078 26.6891C30.6562 25.4081 31.1706 24.176 31.5854 22.9113C32.1246 21.2713 32.6722 19.6394 33.228 18.0075C33.7507 16.4817 34.2899 14.9723 34.8043 13.4464C35.3103 11.9614 35.8081 10.4764 36.3058 8.98326C36.3556 8.82823 36.422 8.76296 36.5962 8.76296C38.9191 8.76296 41.2337 8.76296 43.5566 8.76296C43.5898 8.76296 43.6147 8.77111 43.6644 8.77927C43.5068 9.25252 43.3409 9.7176 43.1833 10.1908C42.4449 12.402 41.69 14.6132 40.935 16.8244C40.1635 19.0764 39.4169 21.3284 38.6536 23.5886C38.4213 24.274 38.2139 24.9593 37.9568 25.6366C37.7494 26.1914 37.5751 26.7463 37.4507 27.3174C37.3677 27.7009 37.3512 28.0844 37.4922 28.4597C37.6249 28.8024 37.8572 29.0064 38.2388 29.0635C39.2924 29.2186 40.0971 28.8351 40.6696 27.9702C40.9433 27.5622 41.1258 27.1053 41.3001 26.6483C41.7729 25.4408 42.1711 24.2087 42.5942 22.9848C43.1916 21.2305 43.7889 19.4844 44.3779 17.7301C45.1577 15.4129 45.9375 13.0956 46.7174 10.7783C46.9248 10.1582 47.1488 9.5381 47.3479 8.91798C47.3894 8.80375 47.4308 8.76296 47.547 8.76296C47.829 8.76296 48.1111 8.76296 48.4015 8.76296C50.3759 8.76296 52.3504 8.76296 54.3248 8.76296C54.4327 8.76296 54.5488 8.73848 54.665 8.78743C54.6235 9.08117 54.4991 9.35859 54.3995 9.64417C53.4455 12.4673 52.4831 15.2905 51.5208 18.1136C51.1806 19.1091 50.8488 20.1127 50.517 21.1163C49.9445 22.7971 49.3804 24.4779 48.808 26.1506C48.5425 26.9339 48.2438 27.7172 47.8622 28.4597C47.8207 28.4516 47.8042 28.4597 47.8208 28.5005L47.8125 28.525Z" fill="white"/>
<path d="M117.889 9.80755C117.823 10.3787 117.765 10.958 117.698 11.5292C117.566 12.647 117.433 13.7649 117.292 14.8827C117.234 15.3886 117.159 15.8863 117.101 16.3922C117.076 16.3922 117.043 16.3922 117.051 16.433C117.051 16.4411 117.084 16.4493 117.101 16.4575C117.026 17.1184 116.952 17.7793 116.877 18.4402C116.753 19.4519 116.628 20.4719 116.504 21.4836C116.479 21.4836 116.446 21.4836 116.454 21.5244C116.454 21.5326 116.487 21.5408 116.504 21.5489C116.396 22.4464 116.296 23.344 116.188 24.2415C116.056 25.343 115.923 26.4527 115.79 27.5542C115.691 28.4028 115.583 29.2514 115.475 30.1C115.351 30.1408 115.434 30.206 115.45 30.2631C115.45 30.5487 115.4 30.8343 115.351 31.1199C115.326 31.1199 115.292 31.1199 115.301 31.1607C115.301 31.1688 115.334 31.177 115.351 31.1852C115.243 32.0827 115.143 32.9802 115.035 33.8778C114.986 34.2694 114.936 34.6692 114.894 35.0609C114.878 35.1996 114.836 35.2649 114.687 35.2485C114.654 35.2485 114.629 35.2485 114.596 35.2485C112.215 35.2485 109.842 35.2485 107.461 35.2485C107.403 35.2485 107.337 35.2485 107.279 35.2404C107.262 35.2241 107.237 35.2077 107.22 35.1914C107.27 34.759 107.395 34.3347 107.494 33.9104C107.693 33.0047 107.909 32.1072 108.116 31.2015C108.174 30.9649 108.166 30.9567 107.909 30.9567C106.258 30.9567 104.607 30.9567 102.956 30.9567C102.79 30.9567 102.707 30.9812 102.624 31.1607C102.442 31.5768 102.193 31.9685 101.969 32.3683C101.488 33.2332 101.007 34.0981 100.526 34.963C100.451 35.1017 100.368 35.1833 100.177 35.1833C98.0782 35.1751 95.9793 35.1833 93.8887 35.1833C93.8223 35.1833 93.7477 35.1996 93.6813 35.1506C93.6564 35.0364 93.7394 34.963 93.7892 34.8732C94.2206 34.0817 94.6519 33.2903 95.0833 32.507C95.1331 32.4091 95.1995 32.3193 95.2161 32.2051C95.2327 32.2051 95.2493 32.1806 95.2576 32.1643C95.4069 31.9277 95.5562 31.6992 95.6392 31.4299C95.6558 31.4136 95.6641 31.4055 95.6807 31.3891C96.1038 30.6222 96.5269 29.8633 96.95 29.0964C96.9665 29.0637 96.9665 29.0229 96.9831 28.9821C96.9997 28.9821 97.0163 28.9576 97.0246 28.9413C97.1739 28.7047 97.3233 28.4762 97.4062 28.207C97.4228 28.1907 97.4311 28.1825 97.4477 28.1662C97.7298 27.6603 98.0118 27.1544 98.2939 26.6485C98.5428 26.1916 98.7917 25.7347 99.0406 25.2778C99.0903 25.1798 99.1567 25.0901 99.1733 24.9759C99.1899 24.9595 99.1982 24.9514 99.2148 24.9351C99.4968 24.4292 99.7789 23.9233 100.061 23.4174C100.31 22.9605 100.559 22.5036 100.808 22.0466C100.857 21.9487 100.924 21.859 100.94 21.7447C100.957 21.7284 100.965 21.7203 100.982 21.7039C101.405 20.9451 101.836 20.1945 102.218 19.4112L102.259 19.3622C102.425 19.0848 102.591 18.8155 102.707 18.5136C102.724 18.4973 102.732 18.4891 102.749 18.4728C103.106 17.8282 103.462 17.1918 103.819 16.5472C103.993 16.229 104.168 15.9026 104.342 15.5844C104.391 15.4865 104.458 15.3967 104.474 15.2825C104.491 15.2662 104.499 15.258 104.516 15.2417C104.873 14.5971 105.229 13.9607 105.586 13.3161C105.76 12.9979 105.935 12.6715 106.109 12.3533C106.159 12.2554 106.225 12.1656 106.242 12.0514C106.258 12.0351 106.266 12.0269 106.283 12.0106C106.648 11.3497 107.021 10.6888 107.386 10.0279C107.61 9.61988 107.843 9.20375 108.058 8.78762C108.133 8.64891 108.224 8.5918 108.39 8.5918C111.543 8.5918 114.687 8.5918 117.839 8.5918C118.105 8.5918 118.113 8.5918 118.08 8.86106C118.038 9.14664 118.038 9.44037 117.964 9.71779C117.914 9.75043 117.906 9.79123 117.956 9.83202L117.889 9.80755ZM108.971 19.2153C108.971 19.2153 108.913 19.2153 108.929 19.2561C108.838 19.4356 108.739 19.6151 108.664 19.8028C108.606 19.9334 108.49 20.0068 108.44 20.1373C108.34 20.4066 108.216 20.6514 108.058 20.888C108.017 20.8798 108.009 20.888 108.017 20.9288C107.892 21.2389 107.677 21.5081 107.552 21.81C107.386 22.2017 107.113 22.528 106.963 22.9278C106.831 23.2705 106.582 23.5724 106.432 23.9151C106.283 24.2578 106.051 24.5597 105.901 24.9024C105.86 24.9922 105.81 25.0738 105.735 25.1472C105.661 25.2288 105.586 25.3267 105.603 25.4654C106.739 25.4654 107.859 25.4654 108.987 25.4654C109.27 25.4654 109.27 25.4654 109.328 25.1798C109.361 25.033 109.311 24.8535 109.469 24.7392C109.469 24.7392 109.402 24.674 109.411 24.6332C109.444 24.4373 109.444 24.2334 109.485 24.0457C109.61 23.4582 109.709 22.8707 109.809 22.2751C109.859 21.9895 109.942 21.7039 109.908 21.4102C110 21.3857 110.016 21.3204 109.991 21.247C109.991 21.0349 110.058 20.839 110.074 20.6351C110.074 20.6187 110.074 20.6024 110.074 20.5861C110.124 20.17 110.199 19.7538 110.273 19.3459C110.481 18.2444 110.655 17.1428 110.829 16.0413C110.862 15.9924 110.879 15.9352 110.829 15.8781C110.779 15.9189 110.746 15.9679 110.738 16.0332C110.614 16.2371 110.497 16.4411 110.373 16.6451C110.34 16.637 110.315 16.6451 110.331 16.6859C110.19 17.0939 109.9 17.4284 109.734 17.8201C109.643 18.0485 109.477 18.2444 109.369 18.4565C109.245 18.7094 109.12 18.9705 108.979 19.2153H108.971Z" fill="#FFF200"/>
<path d="M144.105 5.31946C144.204 5.36842 144.229 5.46633 144.279 5.54793C145.938 8.19973 147.597 10.8515 149.257 13.5033C149.265 13.5197 149.282 13.536 149.29 13.5523C149.447 13.8052 149.439 13.8216 149.165 13.9276C146.245 15.0863 143.333 16.2449 140.413 17.4035C140.314 17.4443 140.214 17.5014 140.081 17.5096C140.065 17.3382 140.148 17.1914 140.197 17.0364C140.264 16.9956 140.272 16.9384 140.255 16.8732C140.239 16.6529 140.413 16.4734 140.405 16.253C140.488 16.2286 140.513 16.1715 140.504 16.0899C140.612 15.6085 140.795 15.1515 140.927 14.6783C140.961 14.5641 141.035 14.4661 141.002 14.3356C141.002 14.2948 140.994 14.2785 140.952 14.2866C140.596 14.254 140.247 14.3356 139.907 14.4172C139.111 14.613 138.414 15.0047 137.733 15.4453C137.269 15.7472 136.821 16.0817 136.398 16.4326C135.85 16.8976 135.294 17.3464 134.797 17.8686C134.44 18.2439 134.108 18.6356 133.76 19.0191C133.021 19.835 132.316 20.6836 131.644 21.5567C130.815 22.6337 130.134 23.8005 129.487 24.9836C129.437 25.0734 129.388 25.1549 129.338 25.2365C129.296 25.2284 129.288 25.2365 129.296 25.2773C129.106 25.6608 128.923 26.0525 128.732 26.436C128.691 26.5176 128.649 26.591 128.608 26.6644C128.566 26.6563 128.558 26.6644 128.566 26.7052C128.434 26.999 128.317 27.309 128.176 27.5946C127.679 28.5982 127.339 29.6589 126.957 30.7033C126.716 31.3561 126.484 32.0088 126.26 32.6616C126.019 33.3307 125.779 34.0079 125.555 34.6851C125.406 35.1502 125.389 35.1502 124.891 35.1502C122.502 35.1502 120.113 35.1502 117.723 35.1502C117.599 35.1502 117.483 35.142 117.358 35.1339L117.342 35.0441C117.516 34.4567 117.74 33.8937 117.931 33.3143C118.122 32.7432 118.362 32.1965 118.52 31.609C118.553 31.4703 118.653 31.3479 118.653 31.1929C118.669 31.1766 118.677 31.1603 118.694 31.1439C118.951 30.4586 119.208 29.765 119.424 29.0633C119.482 28.8675 119.573 28.6798 119.648 28.484C119.773 28.1494 119.855 27.8068 120.013 27.4804C120.079 27.4477 120.096 27.3906 120.079 27.3253C120.171 27.0479 120.254 26.7787 120.353 26.5012C120.386 26.4115 120.42 26.3217 120.42 26.2157C120.436 26.1994 120.445 26.183 120.461 26.1667C120.718 25.4813 120.975 24.7878 121.191 24.0861C121.233 23.9555 121.324 23.8413 121.324 23.7026C121.34 23.6781 121.357 23.6618 121.365 23.6373C121.365 23.3844 121.299 23.1477 121.266 22.8948C121.183 22.3481 121.1 21.7933 121.009 21.2466C120.934 20.7652 120.843 20.2838 120.776 19.8024C120.693 19.2231 120.602 18.6438 120.519 18.0563C120.287 16.5386 120.046 15.0291 119.814 13.5115C119.598 12.1489 119.391 10.7863 119.184 9.41548C119.142 9.16254 119.109 8.90144 119.059 8.6485C119.034 8.52611 119.076 8.46083 119.217 8.46899C119.275 8.46899 119.341 8.46899 119.399 8.46899C121.457 8.46899 123.514 8.46899 125.571 8.46899C125.621 8.46899 125.671 8.46899 125.721 8.46899C125.854 8.46083 125.912 8.50979 125.936 8.6485C126.094 9.86425 126.252 11.08 126.418 12.2876C126.592 13.6176 126.774 14.9557 126.949 16.2857C127.015 16.7997 127.081 17.3138 127.148 17.8278C127.156 17.8931 127.139 17.9665 127.206 18.0236C127.322 17.9992 127.347 17.8931 127.397 17.8197C128.168 16.7345 128.94 15.6493 129.786 14.6212C130.018 14.3356 130.267 14.0582 130.516 13.7808C131.063 13.1851 131.636 12.614 132.225 12.0591C133.361 10.9739 134.622 10.0519 136.024 9.32573C136.779 8.93408 137.576 8.73009 138.414 8.59954C138.986 8.50979 139.55 8.45267 140.131 8.41187C140.994 8.35476 141.848 8.3874 142.711 8.43635C142.993 8.45267 142.977 8.43635 143.093 8.17525C143.201 7.93047 143.25 7.66121 143.366 7.41643C143.433 7.38379 143.441 7.32667 143.425 7.2614C143.466 7.0003 143.582 6.75552 143.657 6.50258C143.698 6.37203 143.748 6.24148 143.756 6.10277C143.914 6.03749 143.906 5.89878 143.914 5.76823C143.955 5.59688 143.964 5.41738 144.072 5.27051H144.088H144.105V5.31946Z" fill="#FFF200"/>
<path d="M14.0892 25.0327C13.8901 25.5957 13.749 26.1832 13.5333 26.7381C13.4172 27.0481 13.3425 27.3827 13.243 27.7009C13.1932 27.8722 13.0605 28.0272 13.0936 28.2231C13.0771 28.2639 13.0936 28.2883 13.1351 28.2965C13.2762 28.4352 13.467 28.4842 13.6246 28.5821C13.6246 28.6229 13.6412 28.6392 13.6827 28.631C14.1141 28.7861 14.5372 28.9411 14.9851 29.0309C16.1051 29.243 17.2168 29.2593 18.3119 28.8758C18.793 28.7126 19.2327 28.4679 19.5894 28.1007C19.9047 27.7825 20.054 27.399 20.0042 26.9584C19.9545 26.5014 19.8051 26.069 19.6143 25.6447C19.3737 25.1225 18.9921 24.7227 18.6271 24.3066C17.8805 23.4661 17.3246 22.5115 16.8517 21.4997C16.4121 20.5614 16.2627 19.566 16.1881 18.546C16.13 17.7056 16.1466 16.8734 16.3042 16.0411C16.3789 15.6413 16.5199 15.2496 16.6775 14.8743C17.0674 13.9605 17.5652 13.1119 18.1708 12.3286C19.0751 11.1618 20.1868 10.2316 21.5058 9.54622C22.3769 9.0893 23.2895 8.76292 24.2518 8.55894C25.5128 8.28968 26.7987 8.2244 28.0846 8.32231C28.964 8.38759 29.8433 8.55078 30.6729 8.89347C30.7144 8.90979 30.7725 8.90163 30.8223 8.90979C30.8223 8.94243 30.8472 8.96691 30.8886 8.95875C31.6519 9.16273 32.357 9.49727 33.0539 9.85628C33.1286 9.89708 33.1949 9.93787 33.2613 9.97867C33.336 10.0195 33.3526 10.0684 33.3028 10.15C33.1783 10.3458 33.0622 10.5498 32.9627 10.762C32.8299 11.0231 32.7055 11.2923 32.5644 11.5534C32.2741 12.1001 31.9754 12.6386 31.6768 13.1853C31.6353 13.1772 31.627 13.1853 31.6353 13.2261C31.4943 13.6178 31.2703 13.9686 31.0629 14.3276C31.0214 14.3113 31.0131 14.3276 31.0297 14.3684C31.0131 14.4255 31.0048 14.4827 30.9716 14.5316C30.7808 14.8825 30.59 15.2333 30.3992 15.5842C30.3577 15.5679 30.3162 15.5597 30.2747 15.5842C29.9595 15.3802 29.6028 15.2578 29.2626 15.0946C28.3915 14.6785 27.479 14.3847 26.4834 14.4827C25.4381 14.5969 24.6915 15.1191 24.2518 16.0574C23.9366 16.7183 23.8702 17.4119 24.061 18.1217C24.0942 18.2441 24.1191 18.3747 24.1523 18.4971C24.1357 18.5379 24.1606 18.5542 24.1937 18.5624C24.2186 18.6439 24.2435 18.7174 24.2684 18.799C24.2518 18.8398 24.2767 18.8561 24.3182 18.8561C24.3431 18.9377 24.3763 19.0193 24.4011 19.0927C24.3845 19.1335 24.4011 19.1417 24.4426 19.1335C24.9238 19.9658 25.5294 20.7083 26.1599 21.4426C26.8485 22.2341 27.4541 23.0745 27.9104 24.0128C28.4828 25.2041 28.7151 26.4443 28.5077 27.7498C28.4413 28.1823 28.3584 28.6066 28.2007 29.0227C28.1675 29.0227 28.1427 29.0472 28.1592 29.088C28.1178 29.2267 28.068 29.3654 28.0265 29.5041C27.9933 29.5041 27.9684 29.5286 27.9767 29.5694C27.9021 29.8386 27.7527 30.0834 27.62 30.32C26.7655 31.8132 25.5294 32.9392 24.0527 33.8286C22.7502 34.6119 21.3482 35.1422 19.8715 35.4686C18.2538 35.8276 16.6112 35.9337 14.9603 35.7705C14.0477 35.6808 13.1434 35.5257 12.2557 35.2728C11.9156 35.1749 11.5589 35.1096 11.2436 34.9464C11.2021 34.9219 11.1524 34.9056 11.1026 34.8975C10.9367 34.8648 10.8952 34.8975 10.8288 35.077C10.5468 35.9011 10.2564 36.717 9.98263 37.5411C9.95774 37.6145 9.89137 37.6716 9.86648 37.7614C8.03306 34.8322 6.20793 31.8948 4.36621 28.9493C4.58191 28.8105 4.8059 28.7453 5.0216 28.6555C7.49382 27.6519 9.96604 26.6483 12.4383 25.6447C12.9277 25.4489 13.4172 25.2531 13.9067 25.0491C13.973 25.0246 14.0145 25.0164 14.0726 25.0409L14.0892 25.0327Z" fill="white"/>
<path d="M129.537 35.4692C128.773 35.4529 128.184 34.8491 128.209 34.0903C128.234 33.3396 128.815 32.8092 129.603 32.8256C130.35 32.8337 130.922 33.4294 130.897 34.1637C130.872 34.9144 130.275 35.4855 129.537 35.4774V35.4692ZM130.64 34.1229C130.64 33.4946 130.167 33.0214 129.562 33.0295C128.923 33.0295 128.466 33.5028 128.475 34.1474C128.475 34.7838 128.956 35.2652 129.57 35.2652C130.167 35.2652 130.648 34.7593 130.64 34.1229Z" fill="#F3EA03"/>
<path d="M86.2148 19.0112C86.248 18.9133 86.2729 18.8072 86.3725 18.7256C86.3559 18.8725 86.331 19.003 86.3144 19.1417C86.2978 19.1417 86.2895 19.1499 86.2812 19.1662C86.2812 19.1091 86.2729 19.052 86.2148 19.0112Z" fill="#095B41"/>
<path d="M143.906 5.82617C143.897 5.95672 143.906 6.09543 143.748 6.16071C143.79 6.04648 143.781 5.89961 143.906 5.82617Z" fill="#F3EA03"/>
<path d="M90.1719 24.6982C90.1636 24.7635 90.0972 24.8043 90.1138 24.9267C90.0225 24.7798 89.9728 24.6819 90.0723 24.584C90.1055 24.6248 90.1387 24.6656 90.1719 24.6982Z" fill="#095B41"/>
<path d="M80.1586 21.7119C80.2084 21.8425 80.1503 21.9077 80.0342 21.9485C80.0342 21.8506 80.0757 21.769 80.1586 21.7119Z" fill="#F3EA03"/>
<path d="M78.5659 24.9027C78.5908 24.8129 78.6157 24.7314 78.6489 24.6416C78.6821 24.6416 78.7152 24.6416 78.7484 24.6416C78.7733 24.7314 78.6821 24.7885 78.6904 24.8701C78.6489 24.8782 78.6157 24.8945 78.5742 24.9027H78.5659Z" fill="#095B41"/>
<path d="M70.7927 18.4158C70.7762 18.326 70.8259 18.2852 70.9006 18.2607C70.9006 18.3423 70.884 18.3995 70.7927 18.4158Z" fill="#095B41"/>
<path d="M91.342 22.251C91.4 22.3407 91.342 22.3489 91.2756 22.3652C91.2673 22.3081 91.2756 22.2591 91.342 22.251Z" fill="#F3EA03"/>
<path d="M79.5529 22.9688C79.611 23.0585 79.5529 23.0667 79.4865 23.083C79.4782 23.0259 79.4865 22.9769 79.5529 22.9688Z" fill="#F3EA03"/>
<path d="M143.424 7.31934C143.441 7.38461 143.424 7.44173 143.366 7.47436C143.3 7.39277 143.358 7.35197 143.424 7.31934Z" fill="#F3EA03"/>
<path d="M83.9502 32.4824C83.9751 32.564 83.9502 32.6211 83.8673 32.6538C83.8424 32.5722 83.9005 32.5314 83.9502 32.4824Z" fill="#F3EA03"/>
<path d="M72.0783 15.6085C72.0286 15.5106 72.1115 15.4861 72.1613 15.4453C72.1696 15.5187 72.1613 15.5759 72.0783 15.6085Z" fill="#095B41"/>
<path d="M30.2832 15.5677C30.2832 15.5677 30.3662 15.5596 30.4076 15.5677C30.391 15.5922 30.3828 15.633 30.3579 15.633C30.3081 15.6493 30.2915 15.6004 30.2832 15.5596V15.5677Z" fill="#095B41"/>
<path d="M69.3158 9.10597C69.2246 9.17125 69.1914 9.10597 69.1582 9.0407C69.2246 9.03254 69.2826 9.0407 69.3158 9.10597Z" fill="#095B41"/>
<path d="M140.504 16.1064C140.521 16.188 140.496 16.2452 140.405 16.2696C140.38 16.1799 140.438 16.1472 140.504 16.1064Z" fill="#F3EA03"/>
<path d="M71.8878 16.3269C71.8546 16.2372 71.921 16.2045 71.979 16.1719C71.9873 16.2453 71.9707 16.3106 71.8878 16.3269Z" fill="#095B41"/>
<path d="M86.1401 20.1045C86.165 20.1861 86.1401 20.2432 86.0489 20.2677C86.024 20.1861 86.0821 20.1453 86.1401 20.1045Z" fill="#F3EA03"/>
<path d="M84.2486 30.7529C84.2735 30.8345 84.2486 30.8916 84.1656 30.9243C84.1407 30.8427 84.1988 30.8019 84.2486 30.7529Z" fill="#F3EA03"/>
<path d="M67.4326 21.4753C67.3911 21.4671 67.333 21.4753 67.333 21.41C67.333 21.3529 67.3911 21.3529 67.4326 21.3447C67.4326 21.3855 67.4326 21.4263 67.4326 21.4753Z" fill="#095B41"/>
<path d="M140.255 16.8818C140.272 16.9471 140.255 17.0042 140.197 17.045C140.131 16.9634 140.189 16.9226 140.255 16.8818Z" fill="#F3EA03"/>
<path d="M70.0377 28.7045C69.9714 28.6229 70.0377 28.5821 70.1041 28.5576C70.1124 28.6229 70.1041 28.6718 70.0377 28.7045Z" fill="#095B41"/>
<path d="M120.079 27.3584C120.088 27.4237 120.079 27.4808 120.013 27.5134C119.955 27.4237 120.013 27.391 120.079 27.3584Z" fill="#F3EA03"/>
<path d="M85.1366 25.5957C85.2029 25.6773 85.1366 25.6936 85.0785 25.7099C85.0702 25.661 85.0619 25.6039 85.1366 25.5957Z" fill="#F3EA03"/>
<path d="M86.2313 19.4932C86.306 19.5748 86.2479 19.5911 86.1732 19.6074C86.1649 19.5584 86.1566 19.5013 86.2313 19.4932Z" fill="#F3EA03"/>
<path d="M117.889 9.80759C117.839 9.76679 117.847 9.726 117.897 9.69336C117.914 9.73416 117.914 9.77495 117.889 9.80759Z" fill="#F3EA03"/>
<path d="M85.4102 24.168C85.4351 24.2496 85.4102 24.3067 85.3189 24.3312C85.294 24.2496 85.3521 24.2088 85.4102 24.168Z" fill="#F3EA03"/>
<path d="M90.8605 23.2705C90.9186 23.3603 90.8605 23.3684 90.7942 23.3847C90.7859 23.3276 90.7942 23.2787 90.8605 23.2705Z" fill="#F3EA03"/>
<path d="M86.281 19.1661C86.281 19.1661 86.3059 19.1498 86.3142 19.1416C86.3391 19.2232 86.3142 19.2885 86.2312 19.3129C86.2063 19.2477 86.2395 19.2069 86.281 19.1661Z" fill="#F3EA03"/>
<path d="M85.9493 21.1162C85.9742 21.1978 85.9493 21.2631 85.8663 21.2876C85.8414 21.206 85.8995 21.1652 85.9493 21.1162Z" fill="#F3EA03"/>
<path d="M115.425 30.2384C115.409 30.1813 115.326 30.116 115.45 30.0752C115.458 30.1323 115.458 30.1894 115.425 30.2384Z" fill="#F3EA03"/>
<path d="M116.479 21.533C116.479 21.533 116.429 21.5249 116.429 21.5086C116.429 21.4678 116.454 21.4759 116.479 21.4678C116.479 21.4923 116.479 21.5086 116.479 21.533Z" fill="#F3EA03"/>
<path d="M117.093 16.4491C117.093 16.4491 117.043 16.4409 117.043 16.4246C117.043 16.3838 117.068 16.3919 117.093 16.3838C117.093 16.4083 117.093 16.4246 117.093 16.4491Z" fill="#F3EA03"/>
<path d="M115.326 31.1522C115.326 31.1522 115.276 31.144 115.276 31.1277C115.276 31.0869 115.301 31.0951 115.326 31.0869V31.1522Z" fill="#F3EA03"/>
<path d="M83.6099 14.6621C83.6099 14.6621 83.585 14.6947 83.5684 14.7111C83.5518 14.6703 83.5684 14.6621 83.6099 14.6621Z" fill="#F3EA03"/>
<path d="M107.204 35.1592C107.204 35.1592 107.245 35.1918 107.262 35.2081C107.22 35.2081 107.195 35.2081 107.204 35.1592Z" fill="#F3EA03"/>
<path d="M67.6733 21.2309C67.6733 21.2309 67.6899 21.1656 67.7314 21.1901C67.7148 21.2064 67.6899 21.2227 67.6733 21.2309Z" fill="#095B41"/>
<path d="M80.3828 21.2393L80.3413 21.2882C80.3247 21.2474 80.3413 21.2393 80.3828 21.2393Z" fill="#F3EA03"/>
<path d="M81.1128 19.7461C81.1128 19.7461 81.0879 19.7787 81.0713 19.795C81.0547 19.7543 81.0713 19.7461 81.1128 19.7461Z" fill="#F3EA03"/>
<path d="M102.209 19.3301L102.168 19.379C102.168 19.379 102.168 19.3301 102.209 19.3301Z" fill="#F3EA03"/>
<path d="M84.9043 21.7042C84.9043 21.7042 84.9043 21.6553 84.9458 21.6553L84.9043 21.7042Z" fill="#095B41"/>
<path d="M100.932 21.663C100.932 21.663 100.907 21.6875 100.891 21.7038C100.882 21.663 100.891 21.6548 100.932 21.663Z" fill="#F3EA03"/>
<path d="M106.225 11.9784C106.225 11.9784 106.2 12.0029 106.184 12.0192C106.175 11.9784 106.184 11.9703 106.225 11.9784Z" fill="#F3EA03"/>
<path d="M91.5743 21.7773C91.5743 21.7773 91.5411 21.81 91.5245 21.8263C91.5162 21.7855 91.5328 21.7773 91.5743 21.7773Z" fill="#F3EA03"/>
<path d="M96.311 11.8554C96.311 11.8554 96.2861 11.888 96.2695 11.8962C96.253 11.8554 96.2695 11.8472 96.311 11.8554Z" fill="#F3EA03"/>
<path d="M96.8008 10.8359C96.8008 10.8359 96.7759 10.8685 96.7593 10.8766C96.7427 10.8359 96.7593 10.8277 96.8008 10.8359Z" fill="#F3EA03"/>
<path d="M97.73 21.8835C97.73 21.8835 97.73 21.8346 97.7715 21.8427C97.7715 21.859 97.7466 21.8754 97.73 21.8835Z" fill="#095B41"/>
<path d="M84.5391 22.4874C84.5391 22.4874 84.5391 22.4385 84.5805 22.4385C84.5639 22.4548 84.5557 22.4711 84.5391 22.4874Z" fill="#095B41"/>
<path d="M97.2485 22.781C97.2485 22.781 97.2485 22.732 97.29 22.7402C97.29 22.7565 97.2651 22.7728 97.2485 22.781Z" fill="#095B41"/>
<path d="M91.0846 22.7891C91.0846 22.7891 91.0514 22.8217 91.0348 22.838C91.0265 22.7972 91.0431 22.7891 91.0846 22.7891Z" fill="#F3EA03"/>
<path d="M84.1738 23.2628C84.1738 23.2628 84.1738 23.2139 84.2153 23.2139C84.1987 23.2302 84.1904 23.2465 84.1738 23.2628Z" fill="#095B41"/>
<path d="M24.4428 19.117C24.4428 19.117 24.393 19.117 24.4013 19.0762C24.4179 19.0762 24.4345 19.1007 24.4428 19.117Z" fill="#095B41"/>
<path d="M79.296 23.5068C79.296 23.5068 79.2628 23.5395 79.2462 23.5558C79.2379 23.515 79.2545 23.5068 79.296 23.5068Z" fill="#F3EA03"/>
<path d="M96.7593 23.6784C96.7593 23.6784 96.7593 23.6295 96.8008 23.6376C96.8008 23.654 96.7759 23.6703 96.7593 23.6784Z" fill="#095B41"/>
<path d="M121.365 23.6699C121.365 23.6699 121.332 23.7107 121.324 23.7352C121.307 23.6944 121.332 23.6781 121.365 23.6699Z" fill="#F3EA03"/>
<path d="M90.6036 23.8096C90.6036 23.8096 90.5704 23.8422 90.5538 23.8585C90.5455 23.8177 90.5621 23.8096 90.6036 23.8096Z" fill="#F3EA03"/>
<path d="M83.751 24.1599C83.751 24.1599 83.751 24.1109 83.7925 24.1191C83.7925 24.1354 83.7759 24.1517 83.751 24.1599Z" fill="#095B41"/>
<path d="M24.3265 18.8403C24.3265 18.8403 24.2684 18.824 24.2767 18.7832C24.2933 18.7995 24.3099 18.824 24.3265 18.8403Z" fill="#095B41"/>
<path d="M78.8643 24.4043L78.8146 24.4533C78.8063 24.4125 78.8229 24.4043 78.8643 24.4043Z" fill="#F3EA03"/>
<path d="M96.2695 24.5759C96.2695 24.5759 96.2695 24.5269 96.311 24.5351C96.311 24.5514 96.2861 24.5677 96.2695 24.5759Z" fill="#095B41"/>
<path d="M85.7999 10.2314C85.7999 10.2314 85.7667 10.2641 85.7501 10.2804C85.7418 10.2396 85.7584 10.2314 85.7999 10.2314Z" fill="#F3EA03"/>
<path d="M84.6387 12.5654C84.6387 12.5654 84.6138 12.5981 84.5972 12.6144C84.5806 12.5736 84.5972 12.5654 84.6387 12.5654Z" fill="#F3EA03"/>
<path d="M97.4146 9.5791C97.4146 9.5791 97.3815 9.61174 97.3649 9.62806C97.3566 9.58726 97.3732 9.5791 97.4146 9.5791Z" fill="#F3EA03"/>
<path d="M69.8051 9.31849C69.7637 9.32665 69.7471 9.31033 69.7388 9.26953C69.7637 9.28585 69.7803 9.30217 69.8051 9.31849Z" fill="#095B41"/>
<path d="M83.3857 24.9353C83.3857 24.9353 83.3857 24.8863 83.4272 24.8945C83.4272 24.9108 83.4106 24.9271 83.3857 24.9353Z" fill="#095B41"/>
<path d="M99.1733 24.8944C99.1733 24.8944 99.1484 24.9189 99.1318 24.9352C99.1235 24.8944 99.1318 24.8863 99.1733 24.8944Z" fill="#F3EA03"/>
<path d="M14.0811 25.0245C14.0811 25.0245 14.1059 25.0082 14.1142 25C14.1059 25.0082 14.0976 25.0245 14.0894 25.0326H14.0811V25.0245Z" fill="#095B41"/>
<path d="M24.2022 18.5467C24.2022 18.5467 24.1441 18.5222 24.1607 18.4814C24.1773 18.5059 24.1939 18.5222 24.2022 18.5467Z" fill="#095B41"/>
<path d="M83.3112 25.1151C83.3029 25.0743 83.3195 25.058 83.3609 25.0498C83.3443 25.0743 83.3277 25.0906 83.3112 25.1151Z" fill="#095B41"/>
<path d="M129.288 25.2937C129.288 25.2937 129.288 25.2447 129.33 25.2529C129.33 25.2692 129.313 25.2855 129.288 25.2937Z" fill="#095B41"/>
<path d="M95.7886 25.4734C95.7886 25.4734 95.7886 25.4244 95.8301 25.4326C95.8301 25.4489 95.8052 25.4652 95.7886 25.4734Z" fill="#095B41"/>
<path d="M102.699 18.4325C102.699 18.4325 102.674 18.457 102.658 18.4733C102.649 18.4325 102.658 18.4244 102.699 18.4325Z" fill="#F3EA03"/>
<path d="M83.021 25.7107C83.021 25.7107 83.021 25.6617 83.0625 25.6699C83.0625 25.6862 83.0459 25.7025 83.021 25.7107Z" fill="#095B41"/>
<path d="M120.453 26.2002C120.453 26.2002 120.428 26.2328 120.411 26.2491C120.386 26.2002 120.411 26.2002 120.453 26.2002Z" fill="#F3EA03"/>
<path d="M95.2988 26.3708C95.2988 26.3708 95.2988 26.3219 95.3403 26.33C95.3403 26.3463 95.3154 26.3627 95.2988 26.3708Z" fill="#095B41"/>
<path d="M82.6558 26.4939C82.6558 26.4939 82.6558 26.4449 82.6972 26.4531C82.6972 26.4694 82.6806 26.4857 82.6558 26.4939Z" fill="#095B41"/>
<path d="M128.558 26.7302C128.558 26.7302 128.558 26.6812 128.599 26.6894C128.599 26.7057 128.583 26.722 128.558 26.7302Z" fill="#095B41"/>
<path d="M82.291 27.2683C82.291 27.2683 82.291 27.2193 82.3325 27.2275C82.3325 27.2438 82.3159 27.2601 82.291 27.2683Z" fill="#095B41"/>
<path d="M94.8179 27.2683C94.8179 27.2683 94.8179 27.2193 94.8593 27.2275C94.8593 27.2438 94.8345 27.2601 94.8179 27.2683Z" fill="#095B41"/>
<path d="M81.8428 18.2529L81.8013 18.3019C81.7847 18.2611 81.8013 18.2529 81.8428 18.2529Z" fill="#F3EA03"/>
<path d="M81.9258 28.0437C81.9258 28.0437 81.9258 27.9947 81.9673 28.0029C81.9673 28.0192 81.9507 28.0355 81.9258 28.0437Z" fill="#095B41"/>
<path d="M94.3286 28.1657C94.3286 28.1657 94.3286 28.1168 94.3701 28.1249C94.3701 28.1413 94.3452 28.1576 94.3286 28.1657Z" fill="#095B41"/>
<path d="M97.4062 28.1259C97.4062 28.1259 97.3813 28.1504 97.3647 28.1667C97.3564 28.1259 97.3647 28.1177 97.4062 28.1259Z" fill="#F3EA03"/>
<path d="M69.4985 9.19544C69.457 9.2036 69.4404 9.18728 69.4321 9.14648C69.457 9.1628 69.4736 9.17912 69.4985 9.19544Z" fill="#095B41"/>
<path d="M13.135 28.2971C13.135 28.2971 13.0686 28.2726 13.0935 28.2236C13.1101 28.2481 13.1267 28.2726 13.135 28.2971Z" fill="#095B41"/>
<path d="M47.8125 28.5251C47.8125 28.5251 47.8125 28.4762 47.854 28.4843C47.854 28.5006 47.8291 28.517 47.8125 28.5251Z" fill="#095B41"/>
<path d="M13.6826 28.631C13.6411 28.6391 13.6245 28.6228 13.6245 28.582C13.6411 28.5984 13.666 28.6147 13.6826 28.631Z" fill="#095B41"/>
<path d="M95.8301 12.8759C95.8301 12.8759 95.8052 12.9085 95.7886 12.9167C95.772 12.8759 95.7886 12.8677 95.8301 12.8759Z" fill="#F3EA03"/>
<path d="M81.5605 28.8191C81.5605 28.8191 81.5605 28.7701 81.602 28.7783L81.5605 28.8191Z" fill="#095B41"/>
<path d="M96.9833 28.9003C96.9833 28.9003 96.9584 28.9329 96.9419 28.9411C96.9336 28.9003 96.9419 28.8921 96.9833 28.9003Z" fill="#F3EA03"/>
<path d="M28.1674 29.0633C28.1508 29.0225 28.1757 29.0062 28.2089 28.998C28.1923 29.0225 28.1757 29.0388 28.1674 29.0633Z" fill="#095B41"/>
<path d="M93.8389 29.0642C93.8389 29.0642 93.8389 29.0152 93.8803 29.0234C93.8803 29.0397 93.8555 29.056 93.8389 29.0642Z" fill="#095B41"/>
<path d="M27.9852 29.537C27.9686 29.4962 27.9935 29.4798 28.035 29.4717C28.0184 29.4962 28.0018 29.5125 27.9852 29.537Z" fill="#095B41"/>
<path d="M81.1958 29.6023C81.1958 29.6023 81.1958 29.5533 81.2373 29.5615C81.2207 29.5778 81.2124 29.5941 81.1958 29.6023Z" fill="#095B41"/>
<path d="M80.8306 30.3777C80.8306 30.3777 80.8306 30.3287 80.872 30.3369C80.8555 30.3532 80.8472 30.3695 80.8306 30.3777Z" fill="#095B41"/>
<path d="M82.6972 16.5146L82.6558 16.5636C82.6558 16.5636 82.6558 16.5146 82.6972 16.5146Z" fill="#F3EA03"/>
<path d="M31.6436 13.2097C31.6436 13.2097 31.6436 13.1607 31.685 13.1689C31.685 13.1852 31.6684 13.2015 31.6436 13.2097Z" fill="#095B41"/>
<path d="M80.4658 31.153C80.4658 31.153 80.4658 31.1041 80.5073 31.1122C80.4907 31.1286 80.4824 31.1449 80.4658 31.153Z" fill="#095B41"/>
<path d="M31.0381 14.3523C31.0381 14.3523 31.0381 14.3033 31.0713 14.3115C31.0713 14.3278 31.0547 14.3441 31.0381 14.3523Z" fill="#095B41"/>
<path d="M118.694 31.1689C118.694 31.1689 118.669 31.2016 118.653 31.2179C118.628 31.1689 118.652 31.1689 118.694 31.1689Z" fill="#F3EA03"/>
<path d="M95.6474 31.3485C95.6474 31.3485 95.6225 31.373 95.6059 31.3893C95.5976 31.3485 95.6059 31.3404 95.6474 31.3485Z" fill="#F3EA03"/>
<path d="M80.1006 31.9275C80.1006 31.9275 80.1006 31.8785 80.1421 31.8867C80.1255 31.903 80.1172 31.9193 80.1006 31.9275Z" fill="#095B41"/>
<path d="M95.2162 32.1317C95.2162 32.1317 95.1914 32.1644 95.1748 32.1725C95.1665 32.1317 95.1748 32.1236 95.2162 32.1317Z" fill="#F3EA03"/>
<path d="M104.458 15.2089C104.458 15.2089 104.433 15.2334 104.416 15.2497C104.408 15.2089 104.416 15.2007 104.458 15.2089Z" fill="#F3EA03"/>
<path d="M30.8886 8.95911C30.8472 8.96727 30.8306 8.95095 30.8223 8.91016C30.8472 8.92648 30.8637 8.94279 30.8886 8.95911Z" fill="#095B41"/>
<path d="M140.944 14.3038C140.985 14.2956 141.002 14.312 140.994 14.3528C140.977 14.3364 140.96 14.3201 140.944 14.3038Z" fill="#095B41"/>
<path d="M144.104 5.32009H144.088H144.071C144.071 5.30378 144.08 5.29562 144.088 5.2793C144.088 5.28746 144.104 5.30378 144.113 5.31193L144.104 5.32009Z" fill="#F3EA03"/>
<path d="M79.8434 22.373C79.8434 22.373 79.8102 22.4057 79.7936 22.422C79.7853 22.3812 79.8019 22.373 79.8434 22.373Z" fill="#F3EA03"/>
<path d="M117.333 35.0605L117.35 35.1503C117.267 35.134 117.3 35.0932 117.333 35.0605Z" fill="#F3EA03"/>
<path d="M98.2192 20.986C98.2192 20.986 98.2192 20.9371 98.2607 20.9453C98.2607 20.9616 98.2358 20.9779 98.2192 20.986Z" fill="#095B41"/>
<path d="M78.5658 24.9028C78.5658 24.9028 78.6405 24.8783 78.6819 24.8701C78.6819 24.8946 78.6819 24.9272 78.6653 24.9517C78.6405 25.0088 78.6322 25.1149 78.5409 25.0659C78.4662 25.0251 78.5243 24.9517 78.5658 24.8946V24.9028Z" fill="#F3EA03"/>
<path d="M90.0312 25.0089H90.0146C90.0146 25.0089 90.0147 24.9925 90.0229 24.9844H90.0395C90.0395 24.9844 90.0395 25.0007 90.0395 25.0089H90.0312Z" fill="#F3EA03"/>
<path d="M57.6929 29.4638C57.7344 29.1048 57.8588 28.7621 57.9915 28.4194C58.3649 27.4484 58.6801 26.453 59.0202 25.4739C59.1032 25.2372 59.2027 25.0006 59.2857 24.764C59.3189 24.6742 59.3687 24.6416 59.4599 24.6416C59.9162 24.6416 60.3642 24.6416 60.8122 24.7232C61.0942 24.7803 61.368 24.8537 61.6418 24.9353C62.0815 25.0659 62.4548 25.2944 62.7286 25.6615C63.0189 26.0532 63.1019 26.4938 63.0189 26.9833C62.9691 27.2608 62.9028 27.5219 62.8032 27.7748C62.6373 28.1991 62.3469 28.55 61.9819 28.8274C61.4261 29.2435 60.779 29.4148 60.0987 29.4638C59.3189 29.5128 58.5391 29.4801 57.7592 29.4801C57.7426 29.4801 57.7261 29.4638 57.6929 29.4556V29.4638Z" fill="#005543"/>
<path d="M60.7129 19.0441C60.771 18.677 60.8788 18.3832 61.0115 18.0813C61.1526 17.7631 61.2438 17.4204 61.3517 17.094C61.6255 16.3189 61.8992 15.5438 62.1564 14.7605C62.1813 14.687 62.2477 14.6381 62.256 14.5565C62.2725 14.4259 62.3638 14.4096 62.4799 14.4178C63.0939 14.4341 63.7161 14.3851 64.33 14.4749C64.6203 14.5157 64.8941 14.6054 65.1596 14.736C65.6076 14.9644 65.8564 15.4703 65.7735 16.0007C65.591 17.2083 64.9439 18.0813 63.8156 18.6117C63.1519 18.9299 62.4468 19.0278 61.7167 19.0523C61.3932 19.0605 61.0696 19.0523 60.7129 19.0523V19.0441Z" fill="#005543"/>
<path d="M109.444 24.7315C109.286 24.8457 109.336 25.017 109.303 25.1721C109.245 25.4495 109.245 25.4576 108.963 25.4576C107.843 25.4576 106.714 25.4576 105.578 25.4576C105.569 25.3189 105.644 25.221 105.711 25.1394C105.777 25.066 105.835 24.9844 105.876 24.8947C106.026 24.552 106.258 24.2501 106.407 23.9074C106.565 23.5647 106.806 23.2709 106.938 22.9201C107.096 22.5203 107.37 22.1939 107.527 21.8022C107.652 21.5003 107.867 21.2311 107.992 20.921C108.009 20.921 108.025 20.8965 108.033 20.8802C108.191 20.6436 108.315 20.3907 108.415 20.1296C108.465 19.999 108.589 19.9256 108.639 19.795C108.714 19.6074 108.813 19.4279 108.904 19.2484C108.921 19.232 108.938 19.2239 108.946 19.2076C109.087 18.9628 109.211 18.7017 109.336 18.4487C109.444 18.2366 109.601 18.0408 109.701 17.8123C109.867 17.4125 110.157 17.0861 110.298 16.6781C110.315 16.6618 110.331 16.6537 110.34 16.6373C110.464 16.4334 110.58 16.2294 110.705 16.0254C110.73 16.0254 110.763 16.0254 110.788 16.0254C110.613 17.1269 110.439 18.2284 110.232 19.3299C110.157 19.7379 110.083 20.154 110.033 20.5702C110.016 20.5702 110 20.5865 109.983 20.5947C110 20.6028 110.016 20.611 110.033 20.6191C110.016 20.8231 109.941 21.0271 109.95 21.2311C109.9 21.2719 109.834 21.3127 109.867 21.3943C109.892 21.688 109.809 21.9736 109.767 22.2592C109.668 22.8466 109.568 23.4423 109.444 24.0298C109.402 24.2174 109.402 24.4214 109.369 24.6172C109.369 24.658 109.386 24.6907 109.427 24.7151V24.7233L109.444 24.7315Z" fill="#005543"/>
<path d="M110.812 16.033C110.812 16.033 110.754 16.033 110.729 16.033C110.729 15.9677 110.763 15.9187 110.821 15.8779C110.862 15.935 110.846 15.9922 110.821 16.0411L110.812 16.033Z" fill="#095B41"/>
<path d="M109.883 21.4103C109.859 21.3287 109.917 21.2879 109.966 21.2471C109.991 21.3287 109.966 21.3858 109.883 21.4103Z" fill="#F3EA03"/>
<path d="M108.05 20.8876C108.05 20.8876 108.034 20.9202 108.009 20.9284C108 20.8876 108.009 20.8794 108.05 20.8876Z" fill="#095B41"/>
<path d="M110.058 20.6271C110.058 20.6271 110.024 20.6108 110.008 20.6026C110.024 20.6026 110.041 20.5863 110.058 20.5781C110.058 20.5944 110.058 20.6108 110.058 20.6271Z" fill="#F3EA03"/>
<path d="M108.963 19.2157C108.963 19.2157 108.93 19.2402 108.921 19.2565C108.913 19.2157 108.921 19.2076 108.963 19.2157Z" fill="#095B41"/>
<path d="M110.365 16.6454C110.365 16.6454 110.331 16.6699 110.323 16.6862C110.315 16.6454 110.323 16.6373 110.365 16.6454Z" fill="#095B41"/>
<path d="M130.632 34.1227C130.632 34.7591 130.159 35.265 129.562 35.265C128.948 35.265 128.475 34.7754 128.467 34.1471C128.467 33.5025 128.915 33.0375 129.554 33.0293C130.159 33.0293 130.632 33.4944 130.632 34.1227ZM129.802 34.2777C129.869 34.245 129.902 34.2287 129.935 34.2042C130.134 34.0737 130.209 33.9105 130.159 33.6984C130.109 33.4944 129.993 33.3965 129.744 33.3802C129.562 33.3638 129.379 33.3802 129.197 33.3802C129.114 33.3802 129.064 33.4128 129.064 33.5025C129.064 33.9187 129.064 34.3348 129.064 34.7591C129.064 34.8244 129.081 34.8733 129.164 34.8733C129.263 34.8733 129.28 34.8162 129.28 34.7428C129.28 34.6204 129.28 34.5061 129.28 34.3838C129.28 34.2858 129.338 34.2695 129.413 34.2695C129.504 34.2695 129.562 34.3022 129.612 34.3756C129.695 34.5143 129.794 34.6367 129.877 34.7754C129.952 34.8896 130.035 34.9468 130.167 34.8325C130.051 34.653 129.935 34.4817 129.802 34.2858V34.2777Z" fill="#095B41"/>
<path d="M129.802 34.2778C129.935 34.4736 130.051 34.6531 130.167 34.8244C130.035 34.9305 129.952 34.8734 129.877 34.7673C129.786 34.6368 129.694 34.5062 129.612 34.3675C129.562 34.2941 129.504 34.2533 129.412 34.2614C129.329 34.2614 129.271 34.2778 129.28 34.3757C129.28 34.4981 129.28 34.6123 129.28 34.7347C129.28 34.8081 129.271 34.8734 129.164 34.8652C129.081 34.8652 129.064 34.8163 129.064 34.751C129.064 34.3349 129.064 33.9187 129.064 33.4945C129.064 33.4047 129.114 33.3721 129.197 33.3721C129.379 33.3721 129.562 33.3721 129.744 33.3721C129.993 33.3884 130.109 33.4863 130.159 33.6903C130.209 33.9024 130.142 34.0656 129.935 34.1962C129.902 34.2206 129.869 34.237 129.802 34.2696V34.2778ZM129.545 34.0411C129.661 34.033 129.827 34.0738 129.885 33.8943C129.918 33.78 129.902 33.6821 129.777 33.625C129.653 33.5679 129.329 33.5761 129.288 33.6413C129.288 33.6413 129.28 33.6576 129.28 33.6658C129.197 33.8943 129.296 34.0411 129.553 34.0411H129.545Z" fill="#F3EA03"/>
<path d="M129.545 34.0324C129.288 34.0324 129.188 33.8856 129.271 33.6571C129.271 33.649 129.271 33.6408 129.28 33.6326C129.321 33.5674 129.645 33.5592 129.769 33.6163C129.893 33.6734 129.91 33.7713 129.877 33.8856C129.819 34.0651 129.661 34.0243 129.537 34.0324H129.545Z" fill="#095B41"/>
</g>
<defs>
<clipPath id="clip0_320_44805">
<rect width="152" height="43" fill="white" transform="translate(0.856934)"/>
</clipPath>
</defs>
</svg>
