<svg width="20" height="20" viewBox="0 0 38 25" fill="none" xmlns="http://www.w3.org/2000/svg">
<path d="M14.9152 1.13302e-05C16.6599 1.13302e-05 18.303 0.453959 19.7316 1.25014C21.0064 1.96078 22.1101 2.94549 22.9599 4.12312C23.234 4.03755 23.5096 3.96649 23.788 3.91283C24.2913 3.81421 24.8105 3.762 25.3369 3.762C27.5558 3.762 29.5645 4.66117 31.0192 6.11576C32.4723 7.57038 33.3729 9.57897 33.3729 11.798C33.3729 12.0968 33.3555 12.3999 33.3207 12.7073L33.3033 12.8538C34.3374 13.2874 35.235 13.9893 35.9065 14.8725C36.7158 15.9356 37.1958 17.2568 37.1958 18.6825C37.1958 20.4199 36.4852 22.0007 35.3409 23.1451C34.1952 24.2908 32.6159 25 30.8783 25H7.13764C5.40023 25 3.81945 24.2894 2.67502 23.1451C1.52932 21.9994 0.820129 20.4201 0.820129 18.6825C0.820129 17.0843 1.42344 15.6166 2.41687 14.4998C3.19858 13.6195 4.22101 12.9567 5.37687 12.6174C5.29856 12.3418 5.23185 12.0605 5.17819 11.7762C5.06217 11.1671 5.0027 10.5449 5.0027 9.91554C5.0027 7.17744 6.11216 4.69886 7.90612 2.90342C9.70008 1.10946 12.1801 0 14.9182 0L14.9152 1.13302e-05Z" fill="currentcolor"></path>
</svg>