<svg width="25" height="24" viewBox="0 0 25 24" fill="none" xmlns="http://www.w3.org/2000/svg">
<path d="M4.66699 21L4.66699 4M4.66699 13H12.067C12.627 13 12.9071 13 13.121 12.891C13.3091 12.7951 13.4621 12.6422 13.558 12.454C13.667 12.2401 13.667 11.9601 13.667 11.4V4.6C13.667 4.03995 13.667 3.75992 13.558 3.54601C13.4621 3.35785 13.3091 3.20487 13.121 3.10899C12.9071 3 12.627 3 12.067 3H6.26699C5.70694 3 5.42691 3 5.213 3.10899C5.02484 3.20487 4.87186 3.35785 4.77599 3.54601C4.66699 3.75992 4.66699 4.03995 4.66699 4.6V13ZM13.667 5H20.067C20.627 5 20.9071 5 21.121 5.10899C21.3091 5.20487 21.4621 5.35785 21.558 5.54601C21.667 5.75992 21.667 6.03995 21.667 6.6V13.4C21.667 13.9601 21.667 14.2401 21.558 14.454C21.4621 14.6422 21.3091 14.7951 21.121 14.891C20.9071 15 20.627 15 20.067 15H15.267C14.7069 15 14.4269 15 14.213 14.891C14.0248 14.7951 13.8719 14.6422 13.776 14.454C13.667 14.2401 13.667 13.9601 13.667 13.4V5Z" stroke="currentColor" stroke-width="2" stroke-linecap="round" stroke-linejoin="round"></path>
</svg>