<svg width="20" height="20" viewBox="0 0 31 34" fill="none" xmlns="http://www.w3.org/2000/svg">
<path fill-rule="evenodd" clip-rule="evenodd" d="M5.64304 0H24.8977C25.1687 0 25.3893 0.221996 25.3893 0.491552V1.66065H5.15149V0.491552C5.15149 0.221984 5.37204 0 5.64304 0ZM30.4952 11.316H26.2786V13.8488C26.2786 15.0078 27.2286 15.9563 28.3861 15.9563C29.5451 15.9563 30.4936 15.0064 30.4936 13.8488L30.4952 11.316ZM25.2494 11.316H21.0328V13.8488C21.0328 15.0078 21.9828 15.9563 23.1403 15.9563C24.2993 15.9563 25.2478 15.0064 25.2478 13.8488V11.316H25.2494ZM20.0021 11.316H15.7855V13.8488C15.7855 15.0078 16.7355 15.9563 17.893 15.9563C19.052 15.9563 20.0006 15.0064 20.0006 13.8488L20.0021 11.316ZM14.7548 11.316H10.5383V13.8488C10.5383 15.0078 11.4882 15.9563 12.6458 15.9563C13.8048 15.9563 14.7533 15.0064 14.7533 13.8488L14.7548 11.316ZM9.50903 11.316H5.29246V13.8488C5.29246 15.0078 6.24242 15.9563 7.39997 15.9563C8.55895 15.9563 9.50748 15.0064 9.50748 13.8488L9.50903 11.316ZM4.26175 11.316H0.0437012L0.0465839 13.8488C0.0465839 15.0078 0.996549 15.9563 2.15409 15.9563C3.31308 15.9563 4.2616 15.0064 4.2616 13.8488L4.26175 11.316ZM0.388378 10.2853H4.41453L7.12315 2.69136H4.8095C4.57741 2.69136 4.39434 2.79947 4.28621 3.00273L0.388378 10.2853ZM5.50723 10.2853L8.21586 2.69136H10.9461L9.59106 10.2853H5.50723ZM10.6375 10.2853H14.7545V2.69136H11.9925L10.6375 10.2853ZM15.7852 10.2853H19.9021L18.547 2.69136H15.7851L15.7852 10.2853ZM20.9472 10.2853L19.5921 2.69136H22.3224L25.031 10.2853H20.9472ZM26.1266 10.2853H30.1527L26.255 3.00282C26.1469 2.80101 25.9624 2.69145 25.7317 2.69145H23.4181L26.1266 10.2853ZM28.1202 16.9755V32.7963C28.1202 33.458 27.5782 34 26.9165 34H3.6228C2.96113 34 2.41913 33.458 2.41913 32.7963V16.9755C3.3936 16.8933 4.25566 16.3585 4.77603 15.5671C6.02008 17.457 8.77782 17.457 10.0233 15.5671C11.2674 17.457 14.0251 17.457 15.2706 15.5671C16.5146 17.457 19.2724 17.457 20.5179 15.5671C21.7619 17.457 24.5211 17.457 25.7651 15.5671C26.2856 16.3585 27.1461 16.8934 28.1206 16.9755H28.1202ZM15.2705 20.2651C13.9414 20.2651 12.8646 21.329 12.8646 22.6422C12.8646 23.954 13.9414 25.0179 15.2705 25.0179C16.5996 25.0179 17.6764 23.954 17.6764 22.6422C17.6764 21.329 16.5981 20.2651 15.2705 20.2651ZM23.4597 29.6496H7.0809C6.92954 29.6496 6.80557 29.7736 6.80557 29.925V31.2944C6.80557 31.4458 6.92954 31.5697 7.0809 31.5697H23.4597C23.6111 31.5697 23.735 31.4458 23.735 31.2944V29.925C23.7336 29.7736 23.611 29.6496 23.4597 29.6496ZM19.2431 27.6791H23.4597C23.6111 27.6791 23.735 27.5551 23.735 27.4037V18.417C23.735 18.2657 23.611 18.1417 23.4597 18.1417H7.0809C6.92954 18.1417 6.80557 18.2657 6.80557 18.417V27.4037C6.80557 27.5551 6.92954 27.6791 7.0809 27.6791H11.2975C11.42 26.6037 12.05 25.6768 12.9394 25.1448C14.2555 26.3499 16.2852 26.3499 17.6014 25.1448C18.4908 25.6753 19.1206 26.6022 19.2431 27.6791Z" fill="currentcolor"></path>
</svg>