<svg width="2886" height="1034" viewBox="0 0 2886 1034" fill="none" xmlns="http://www.w3.org/2000/svg">
<path d="M1414.98 656.035V410.574C1414.98 365.981 1406.95 333.44 1390.07 310.943C1372.4 287.642 1345.08 275.992 1308.12 275.992C1271.15 275.992 1243.84 288.044 1226.16 310.943C1209.28 333.039 1201.25 365.579 1201.25 410.574V656.035H1105.23V410.574C1105.23 334.244 1123.71 276.795 1160.27 239.032C1197.23 201.269 1245.44 182.789 1308.12 182.789C1370.79 182.789 1418.6 201.269 1455.96 239.032C1492.52 276.393 1511 334.244 1511 410.574V656.035H1414.98Z" fill="#414042"/>
<path d="M1674.92 7.63281H1578.9V656.437H1674.92V7.63281Z" fill="#414042"/>
<path d="M1762.5 656.036V188.415H1858.52V656.036H1762.5ZM1810.71 121.325C1793.43 121.325 1778.97 115.7 1767.32 103.648C1755.67 91.9977 1749.64 77.5352 1749.64 60.2605C1749.64 42.5841 1755.27 29.7286 1767.32 17.6765C1778.97 6.02615 1793.43 0 1810.71 0C1827.98 0 1841.24 5.62441 1853.3 17.6765C1864.95 29.3269 1870.97 43.3875 1870.97 60.2605C1870.97 77.1334 1865.35 91.9977 1853.3 103.648C1841.64 115.298 1827.58 121.325 1810.71 121.325Z" fill="#414042"/>
<path d="M2249.42 656.035V410.574C2249.42 365.981 2241.39 333.44 2224.52 310.943C2206.84 287.642 2179.52 275.992 2142.56 275.992C2105.6 275.992 2078.28 288.044 2060.6 310.943C2043.73 333.039 2035.69 365.579 2035.69 410.574V656.035H1939.67V410.574C1939.67 334.244 1958.15 276.795 1994.71 239.032C2031.67 201.269 2079.88 182.789 2142.56 182.789C2204.83 182.789 2253.04 201.269 2290.4 239.032C2326.96 276.393 2345.44 334.244 2345.44 410.574V656.035H2249.42Z" fill="#414042"/>
<path d="M2646.36 664.069C2602.56 664.069 2561.59 653.222 2525.03 631.93C2488.47 610.638 2459.14 581.311 2437.85 544.753C2416.55 508.195 2405.71 467.62 2405.71 424.634C2405.71 381.246 2416.15 341.475 2437.04 304.515C2457.93 267.555 2486.86 237.827 2523.02 215.731C2559.18 194.037 2599.35 182.789 2642.34 182.789C2682.11 182.789 2720.68 192.029 2757.64 210.509C2794.2 228.587 2824.73 255.503 2848.44 290.454C2872.14 325.003 2884.6 365.981 2885.8 412.984C2886.2 428.25 2885.8 443.114 2883.79 457.577H2506.55L2511.77 478.467C2518.6 506.99 2534.27 529.889 2557.97 546.762C2580.87 563.233 2609.39 571.268 2641.94 571.268C2664.84 571.268 2683.72 568.054 2698.58 562.028C2711.04 556.806 2722.69 550.378 2733.54 542.343L2854.87 543.147C2835.98 575.286 2810.27 602.603 2778.13 624.297C2739.16 650.812 2694.57 664.471 2646.36 664.069ZM2646.36 275.992C2615.02 275.992 2587.7 284.027 2564.8 300.096C2548.73 311.345 2535.07 325.807 2524.63 341.876C2519.4 349.911 2514.98 358.75 2511.77 367.99C2510.97 369.998 2505.34 387.674 2505.34 387.674H2788.18C2788.18 382.05 2779.74 364.374 2779.74 364.374C2768.49 338.261 2750.41 316.567 2726.31 300.498C2701.8 284.428 2674.88 275.992 2646.36 275.992Z" fill="#414042"/>
<path d="M824.404 664.071C781.015 664.071 740.036 653.224 703.074 631.932C666.113 610.64 636.384 580.911 615.091 543.952C593.798 506.992 582.95 466.417 582.95 422.628C582.95 378.838 593.798 338.263 615.091 301.303C636.384 264.343 666.113 234.615 703.074 213.323C740.036 192.031 780.613 181.184 824.404 181.184C868.195 181.184 908.772 192.031 945.733 213.323C982.695 234.615 1012.42 264.343 1033.72 301.303C1055.01 338.263 1065.86 378.838 1065.86 422.628C1065.86 466.417 1055.01 506.992 1033.72 543.952C1012.42 580.911 982.695 610.64 945.733 631.932C908.772 653.626 867.793 664.071 824.404 664.071ZM825.609 275.19C784.63 275.19 749.276 289.653 721.555 317.774C693.834 345.896 679.773 381.249 679.773 423.029C679.773 464.81 693.834 500.162 721.555 528.284C749.276 556.405 784.229 570.868 825.609 570.868C866.99 570.868 901.541 556.405 928.86 528.284C955.777 500.162 969.437 464.81 969.437 423.029C969.437 381.249 955.777 345.896 928.86 317.774C901.541 289.251 866.99 275.19 825.609 275.19Z" fill="#414042"/>
<path d="M411 272.778C453.184 326.61 470.861 386.067 462.023 452.354C452.782 518.641 419.839 570.866 366.004 610.638C374.842 618.271 383.681 625.101 391.716 633.135C440.328 679.737 464.835 736.784 464.433 803.472C463.63 917.967 379.663 1013.98 265.967 1031.26C141.022 1050.14 22.1029 963.363 2.81871 838.423C0.809942 826.371 0.408048 813.917 0.00629429 801.463C-0.395459 778.162 18.487 759.281 41.7887 759.683C64.6886 759.683 82.7676 778.162 83.5711 801.463C85.1781 858.51 110.087 902.701 159.904 931.224C251.504 983.851 369.218 923.189 380.065 817.934C389.305 729.151 320.606 653.222 230.613 653.222C114.908 653.222 15.6748 564.84 2.01518 450.345C-12.8497 326.61 71.5186 213.723 194.455 193.234C207.311 191.225 220.569 190.02 233.425 190.02C301.723 189.618 370.021 189.618 438.721 190.02C460.416 190.02 476.888 202.073 482.11 220.552C489.342 247.469 470.058 273.18 441.533 273.581C431.891 273.18 421.847 272.778 411 272.778ZM380.467 420.617C380.467 339.466 313.776 272.778 233.023 272.778C150.664 272.778 83.9728 338.261 83.5711 420.617C83.1693 501.366 151.066 569.259 231.818 569.259C313.776 568.858 380.467 502.17 380.467 420.617Z" fill="url(#paint0_linear_319_12)"/>
<defs>
<linearGradient id="paint0_linear_319_12" x1="-0.134319" y1="611.313" x2="483.444" y2="611.313" gradientUnits="userSpaceOnUse">
<stop stop-color="#001CF0"/>
<stop offset="1" stop-color="#006CF0"/>
</linearGradient>
</defs>
</svg>
