<svg width="1941" height="986" viewBox="0 0 1941 986" fill="none" xmlns="http://www.w3.org/2000/svg">
<path d="M395.757 253.107C436.549 304.804 453.537 362.059 444.833 425.921C436.13 489.678 404.147 540.012 352.344 578.287C360.733 585.523 369.437 592.234 377.302 599.784C423.966 644.561 447.77 699.404 447.35 763.895C446.721 874.106 365.767 966.805 256.29 983.478C136.012 1001.83 21.501 918.044 2.62561 797.661C0.842936 785.916 0.108894 773.962 0.00403061 762.007C-0.310559 739.357 17.8308 721.53 40.1666 721.635C62.2927 721.74 79.5951 739.357 80.2243 761.798C81.7973 816.851 105.916 859.215 153.733 886.69C242.133 937.548 355.49 878.825 365.871 777.422C374.575 691.749 308.407 618.869 221.894 618.764C110.53 618.764 14.8946 533.72 1.68184 423.195C-12.5795 303.756 68.5845 195.117 187.08 175.403C199.454 173.306 212.247 172.467 224.726 172.362C290.58 172.047 356.434 172.152 422.393 172.257C443.47 172.257 459.305 183.582 464.233 201.933C471.259 227.835 452.488 252.478 425.329 253.107C415.996 253.316 406.558 253.107 395.757 253.107ZM366.291 395.406C366.291 317.388 302.22 253.212 224.411 253.107C144.925 253.107 81.0632 316.234 80.5389 395.511C80.0146 473.319 145.449 538.754 223.467 538.544C302.115 538.334 366.291 473.948 366.186 395.406H366.291Z" fill="url(#paint0_linear_327_23)"/>
<path d="M926.438 642.11L760.915 414.727L690.609 485.031V642.11H597V15H690.609V372.947L873.808 190.96H989.111L822.786 358.484L1027.28 642.11H926.438Z" fill="#414042"/>
<path d="M1257.29 644.35C1215.71 644.35 1176.93 633.951 1142.15 613.553C1106.96 593.154 1078.98 564.756 1058.19 529.559C1037.4 494.362 1027 455.564 1027 413.968C1027 372.371 1037.4 333.575 1058.19 298.377C1078.98 263.18 1107.36 234.782 1142.15 214.384C1176.93 193.985 1215.71 183.587 1257.29 183.587C1298.88 183.587 1337.66 194.785 1368.44 216.783L1394.03 235.182V0H1487.19V414.368C1487.19 455.965 1476.79 494.761 1456.4 530.359C1436.01 565.556 1407.63 593.954 1372.84 614.352C1337.66 633.951 1298.88 644.35 1257.29 644.35ZM1256.5 272.38C1216.91 272.38 1183.73 285.978 1157.74 313.176C1131.75 339.974 1118.96 373.971 1118.96 413.968C1118.96 453.965 1132.15 487.563 1157.74 514.761C1183.73 541.958 1216.91 555.557 1256.5 555.557C1296.08 555.557 1329.26 541.958 1356.05 514.761C1382.84 487.963 1396.03 453.965 1396.03 413.968C1396.03 373.971 1382.44 339.974 1356.05 313.176C1329.26 285.978 1295.68 272.38 1256.5 272.38Z" fill="#414042"/>
<path d="M1745.64 630.255C1709.88 630.255 1676.54 624.228 1646.41 612.176C1617.08 600.526 1593.78 583.252 1576.1 560.353C1562.04 541.873 1553.6 520.581 1551.19 496.075H1641.58C1645.6 508.127 1654.44 521.384 1673.72 532.231C1693.41 543.48 1718.72 549.105 1748.45 549.105C1778.18 549.105 1799.87 543.881 1816.75 533.436C1840.85 518.572 1845.67 498.887 1845.67 485.227C1845.67 463.935 1833.62 447.464 1811.12 439.028C1794.25 432.6 1768.54 426.575 1732.38 420.548C1694.62 414.121 1662.88 406.889 1638.37 398.854C1615.47 391.623 1595.78 378.767 1578.91 361.091C1563.24 344.218 1555.21 319.311 1555.21 287.172C1555.21 262.666 1562.84 240.973 1578.51 221.288C1594.58 201.201 1617.08 184.729 1645.2 173.079C1673.72 161.027 1706.27 155 1742.02 155C1797.06 155 1842.46 168.258 1876.61 194.371C1905.94 216.466 1922.01 245.793 1925.62 283.154H1834.83C1830.81 272.307 1822.37 260.657 1805.1 251.016C1786.62 240.57 1764.92 234.946 1740.42 234.946C1715.91 234.946 1695.82 240.169 1679.35 250.213C1655.24 264.675 1650.02 283.557 1650.02 296.814C1650.02 307.661 1654.44 327.346 1683.37 338.996C1699.84 345.424 1724.34 351.048 1758.49 356.673C1796.26 363.1 1828.4 370.332 1853.71 378.367C1877.01 385.598 1897.9 398.453 1915.58 416.531C1932.05 433.404 1940.49 456.704 1940.49 488.04C1940.89 535.445 1924.42 569.593 1890.27 592.894C1854.51 617.801 1805.9 630.255 1745.64 630.255Z" fill="#414042"/>
<defs>
<linearGradient id="paint0_linear_327_23" x1="0.00403061" y1="579.021" x2="465.701" y2="579.021" gradientUnits="userSpaceOnUse">
<stop stop-color="#001CF0"/>
<stop offset="1" stop-color="#006CF0"/>
</linearGradient>
</defs>
</svg>
