<svg width="787" height="336" viewBox="0 0 787 336" fill="none" xmlns="http://www.w3.org/2000/svg">
<path d="M134.206 87.5041C148.025 105.049 153.738 124.323 150.815 145.988C147.892 167.521 136.997 184.667 119.458 197.56C122.248 199.953 125.304 202.345 127.962 204.871C143.773 220.023 151.745 238.632 151.612 260.43C151.346 297.78 123.976 329.148 86.9057 334.731C46.2483 340.978 7.45104 312.534 1.07341 271.861C0.409074 267.874 0.276211 263.886 0.143343 259.766C0.0104761 252.056 6.12243 246.075 13.6959 246.075C21.1364 246.075 26.9825 252.056 27.2483 259.633C27.7797 278.241 35.8847 292.596 52.0945 301.9C81.9896 319.179 120.388 299.242 123.843 264.949C126.766 235.973 104.444 211.251 75.0805 211.251C37.3462 211.251 5.05942 182.407 0.541929 145.058C-4.24129 104.651 23.1294 67.8326 63.2553 61.1867C67.5071 60.5221 71.7588 60.256 76.0105 60.1231C98.3322 59.9902 120.521 59.9902 142.843 60.1231C150.018 60.1231 155.332 63.9779 157.06 70.225C159.451 78.9976 153.074 87.3712 143.906 87.5041C141.116 87.5041 137.927 87.5041 134.206 87.5041ZM124.241 135.621C124.241 109.17 102.584 87.5041 76.2763 87.5041C49.4371 87.5041 27.7797 108.904 27.6469 135.753C27.514 162.071 49.57 184.268 76.0105 184.135C102.584 184.003 124.241 162.204 124.241 135.621Z" fill="url(#paint0_linear_89_3)"/>
<path d="M266.276 214.839C252.458 214.839 239.57 211.384 228.011 204.605C216.318 197.826 207.018 188.389 200.109 176.692C193.199 164.995 189.745 152.102 189.745 138.279C189.745 124.455 193.199 111.563 200.109 99.8658C207.018 88.169 216.451 78.7318 228.011 71.953C239.57 65.1742 252.458 61.7185 266.276 61.7185C280.095 61.7185 292.983 65.44 303.213 72.7505L311.717 78.8646V0.708984H342.675V138.412C342.675 152.235 339.221 165.128 332.444 176.958C325.668 188.655 316.234 198.092 304.675 204.871C292.983 211.384 280.095 214.839 266.276 214.839ZM266.011 91.2262C252.857 91.2262 241.829 95.7453 233.192 104.784C224.556 113.689 220.304 124.987 220.304 138.279C220.304 151.57 224.689 162.736 233.192 171.774C241.829 180.813 252.857 185.332 266.011 185.332C279.165 185.332 290.192 180.813 299.095 171.774C307.997 162.869 312.381 151.57 312.381 138.279C312.381 124.987 307.864 113.689 299.095 104.784C290.192 95.7453 279.032 91.2262 266.011 91.2262Z" fill="#414042"/>
<path d="M485.378 196.63V212.314H517.134V135.621C517.134 121.399 513.546 108.24 506.637 96.1444C499.595 84.0489 490.029 74.4788 478.204 67.4342C466.378 60.5225 453.092 56.9336 439.008 56.9336C424.791 56.9336 411.637 60.3896 399.812 67.4342C387.854 74.4788 378.287 84.0489 371.113 96.1444C364.071 108.107 360.483 121.399 360.483 135.488C360.483 149.577 364.071 162.869 371.113 174.831C378.155 186.927 387.854 196.497 399.812 203.542C411.637 210.453 424.924 214.042 439.008 214.042C453.092 214.042 466.378 210.188 476.875 202.744L485.378 196.63ZM438.609 183.737C425.19 183.737 413.896 179.085 405.127 169.914C396.357 160.742 391.84 149.311 391.84 135.754C391.84 122.196 396.224 110.632 405.127 101.594C414.029 92.4228 425.19 87.7706 438.609 87.7706C452.029 87.7706 463.322 92.4228 472.49 101.594C481.525 110.765 486.176 122.329 486.176 135.887C486.176 149.444 481.658 161.008 472.49 170.179C463.455 179.085 452.029 183.737 438.609 183.737Z" fill="#414042"/>
<path d="M755.245 196.63V212.314H787V135.621C787 121.399 783.413 108.24 776.504 96.1444C769.462 84.0489 759.895 74.4788 748.07 67.4342C736.245 60.5225 722.958 56.9336 708.874 56.9336C694.657 56.9336 681.504 60.3896 669.678 67.4342C657.72 74.4788 648.154 84.0489 640.979 96.1444C633.937 108.107 630.35 121.399 630.35 135.488C630.35 149.577 633.937 162.869 640.979 174.831C648.021 186.927 657.72 196.497 669.678 203.542C681.504 210.453 694.79 214.042 708.874 214.042C722.958 214.042 736.245 210.188 746.741 202.744L755.245 196.63ZM708.476 183.737C695.056 183.737 683.762 179.085 674.993 169.914C666.224 160.742 661.706 149.311 661.706 135.754C661.706 122.196 666.091 110.632 674.993 101.594C683.895 92.4228 695.056 87.7706 708.476 87.7706C721.895 87.7706 733.189 92.4228 742.357 101.594C751.392 110.765 756.042 122.329 756.042 135.887C756.042 149.444 751.525 161.008 742.357 170.179C733.322 179.085 721.895 183.737 708.476 183.737Z" fill="#414042"/>
<path d="M612.665 213.111C594.728 212.181 580.511 206.465 569.616 195.566C557.791 183.869 551.812 165.394 551.812 140.804V90.6941H527.763V60.2559H551.812V1.10742H583.302V60.2559H612.665V90.6941H583.302V140.804C583.302 155.292 585.959 165.527 591.407 172.305C596.19 178.154 603.232 181.61 612.665 182.54V213.111Z" fill="#414042"/>
<defs>
<linearGradient id="paint0_linear_89_3" x1="0.309411" y1="197.802" x2="157.903" y2="197.802" gradientUnits="userSpaceOnUse">
<stop stop-color="#001CF0"/>
<stop offset="1" stop-color="#006CF0"/>
</linearGradient>
</defs>
</svg>
