<svg width="1015" height="264" viewBox="0 0 1015 264" fill="none" xmlns="http://www.w3.org/2000/svg">
<path d="M360.222 167.01V104.522C360.222 93.1694 358.176 84.8854 353.88 79.1581C349.38 73.2263 342.425 70.2603 333.016 70.2603C323.606 70.2603 316.652 73.3286 312.151 79.1581C307.856 84.7831 305.81 93.0671 305.81 104.522V167.01H281.366V104.522C281.366 85.0899 286.071 70.4649 295.378 60.8513C304.787 51.2377 317.061 46.5332 333.016 46.5332C348.971 46.5332 361.142 51.2377 370.654 60.8513C379.961 70.3626 384.666 85.0899 384.666 104.522V167.01H360.222Z" fill="#414042"/>
<path d="M426.395 1.94336H401.951V167.113H426.395V1.94336Z" fill="#414042"/>
<path d="M448.692 167.011V47.9658H473.136V167.011H448.692ZM460.965 30.8863C456.567 30.8863 452.885 29.4545 449.919 26.3863C446.953 23.4204 445.419 19.7386 445.419 15.3409C445.419 10.8409 446.851 7.56818 449.919 4.50001C452.885 1.53411 456.567 0 460.965 0C465.363 0 468.738 1.43184 471.806 4.50001C474.772 7.46591 476.306 11.0454 476.306 15.3409C476.306 19.6363 474.875 23.4204 471.806 26.3863C468.84 29.3522 465.26 30.8863 460.965 30.8863Z" fill="#414042"/>
<path d="M572.652 167.01V104.522C572.652 93.1694 570.606 84.8854 566.31 79.1581C561.81 73.2263 554.855 70.2603 545.446 70.2603C536.036 70.2603 529.082 73.3286 524.581 79.1581C520.286 84.7831 518.24 93.0671 518.24 104.522V167.01H493.796V104.522C493.796 85.0899 498.501 70.4649 507.808 60.8513C517.217 51.2377 529.491 46.5332 545.446 46.5332C561.299 46.5332 573.572 51.2377 583.084 60.8513C592.391 70.3626 597.096 85.0899 597.096 104.522V167.01H572.652Z" fill="#414042"/>
<path d="M673.701 169.056C662.553 169.056 652.121 166.294 642.814 160.874C633.507 155.453 626.04 147.987 620.62 138.681C615.199 129.374 612.438 119.044 612.438 108.101C612.438 97.0557 615.097 86.9308 620.415 77.5217C625.734 68.1127 633.097 60.5444 642.302 54.9195C651.507 49.3967 661.735 46.5332 672.679 46.5332C682.804 46.5332 692.623 48.8855 702.032 53.59C711.339 58.1923 719.113 65.0444 725.147 73.9421C731.181 82.7376 734.352 93.1694 734.659 105.135C734.761 109.022 734.659 112.806 734.147 116.487H638.109L639.439 121.806C641.177 129.067 645.166 134.897 651.2 139.192C657.03 143.385 664.292 145.431 672.576 145.431C678.406 145.431 683.213 144.612 686.997 143.078C690.168 141.749 693.134 140.112 695.896 138.067L726.783 138.272C721.976 146.453 715.431 153.408 707.248 158.93C697.328 165.68 685.975 169.158 673.701 169.056ZM673.701 70.2603C665.724 70.2603 658.769 72.3058 652.939 76.3967C648.848 79.2604 645.371 82.9421 642.712 87.033C641.382 89.0784 640.257 91.3285 639.439 93.6808C639.234 94.1922 637.802 98.692 637.802 98.692H709.805C709.805 97.2602 707.658 92.7602 707.658 92.7602C704.794 86.1125 700.191 80.5898 694.055 76.4989C687.816 72.408 680.963 70.2603 673.701 70.2603Z" fill="#414042"/>
<path d="M209.874 169.056C198.828 169.056 188.396 166.295 178.987 160.875C169.577 155.454 162.009 147.886 156.588 138.477C151.167 129.068 148.406 118.739 148.406 107.591C148.406 96.4431 151.167 86.1136 156.588 76.7045C162.009 67.2954 169.577 59.7273 178.987 54.3068C188.396 48.8864 198.726 46.125 209.874 46.125C221.023 46.125 231.353 48.8864 240.762 54.3068C250.172 59.7273 257.74 67.2954 263.161 76.7045C268.581 86.1136 271.343 96.4431 271.343 107.591C271.343 118.739 268.581 129.068 263.161 138.477C257.74 147.886 250.172 155.454 240.762 160.875C231.353 166.397 220.92 169.056 209.874 169.056ZM210.181 70.0567C199.749 70.0567 190.748 73.7386 183.691 80.8977C176.634 88.0568 173.055 97.0567 173.055 107.693C173.055 118.329 176.634 127.329 183.691 134.488C190.748 141.647 199.647 145.329 210.181 145.329C220.716 145.329 229.512 141.647 236.466 134.488C243.319 127.329 246.796 118.329 246.796 107.693C246.796 97.0567 243.319 88.0568 236.466 80.8977C229.512 73.6364 220.716 70.0567 210.181 70.0567Z" fill="#414042"/>
<path d="M104.631 69.4456C115.37 83.1501 119.87 98.2864 117.62 115.161C115.268 132.036 106.881 145.332 93.1761 155.457C95.4262 157.4 97.6763 159.138 99.7218 161.184C112.097 173.048 118.336 187.57 118.234 204.548C118.03 233.695 96.6536 258.138 67.7091 262.536C35.9009 267.343 5.62688 245.252 0.717578 213.445C0.206193 210.377 0.10388 207.207 0.00160238 204.036C-0.100675 198.104 4.70636 193.298 10.6384 193.4C16.4682 193.4 21.0707 198.104 21.2753 204.036C21.6844 218.559 28.0256 229.809 40.708 237.07C64.0271 250.468 93.9943 235.025 96.7558 208.229C99.1082 185.627 81.6188 166.298 58.7088 166.298C29.2529 166.298 3.99044 143.798 0.513019 114.65C-3.27124 83.1501 18.207 54.4116 49.5038 49.1957C52.7767 48.6843 56.1518 48.3775 59.4247 48.3775C76.8118 48.2752 94.1989 48.2752 111.688 48.3775C117.211 48.3775 121.405 51.4458 122.734 56.1503C124.575 63.0025 119.666 69.5479 112.404 69.6502C109.95 69.5479 107.393 69.4456 104.631 69.4456ZM96.8581 107.082C96.8581 86.4229 79.8801 69.4456 59.3224 69.4456C38.3556 69.4456 21.3776 86.1161 21.2753 107.082C21.173 127.639 38.4579 144.923 59.0156 144.923C79.8801 144.82 96.8581 127.843 96.8581 107.082Z" fill="url(#paint0_linear_48_21)"/>
<rect x="767.521" y="2" width="246.958" height="167" rx="31.7438" fill="url(#paint1_linear_48_21)"/>
<g filter="url(#filter0_i_48_21)">
<path d="M836.544 49.627H825.751V122.557H836.544V49.627Z" fill="white"/>
<path d="M846.982 122.589V70.0248H857.776V122.589H846.982ZM852.402 62.4834C850.46 62.4834 848.834 61.8512 847.524 60.4965C846.215 59.1869 845.537 57.5612 845.537 55.6194C845.537 53.6325 846.169 52.1874 847.524 50.8327C848.834 49.5231 850.46 48.8457 852.402 48.8457C854.343 48.8457 855.834 49.4779 857.189 50.8327C858.498 52.1423 859.176 53.7228 859.176 55.6194C859.176 57.516 858.543 59.1869 857.189 60.4965C855.879 61.8061 854.298 62.4834 852.402 62.4834Z" fill="white"/>
<path d="M933.069 122.615C928.146 122.615 923.54 121.396 919.43 119.002C915.321 116.609 912.024 113.312 909.631 109.203C907.237 105.094 906.018 100.533 906.018 95.7007C906.018 90.8237 907.192 86.3531 909.54 82.1985C911.889 78.044 915.14 74.7022 919.205 72.2185C923.269 69.78 927.785 68.5156 932.617 68.5156C937.088 68.5156 941.423 69.5543 945.578 71.6315C949.688 73.6637 953.12 76.6892 955.784 80.6179C958.449 84.5015 959.849 89.1077 959.984 94.3912C960.029 96.1072 959.984 97.778 959.758 99.4037H917.353L917.94 101.752C918.708 104.958 920.469 107.532 923.134 109.429C925.708 111.28 928.914 112.183 932.572 112.183C935.146 112.183 937.269 111.822 938.94 111.145C940.34 110.558 941.649 109.835 942.869 108.932L956.507 109.022C954.384 112.635 951.494 115.706 947.881 118.144C943.501 121.125 938.488 122.66 933.069 122.615ZM933.069 78.9923C929.546 78.9923 926.475 79.8954 923.901 81.7018C922.095 82.9662 920.56 84.5919 919.385 86.3982C918.798 87.3013 918.301 88.2949 917.94 89.3335C917.85 89.5593 917.218 91.5462 917.218 91.5462H949.01C949.01 90.914 948.062 88.927 948.062 88.927C946.798 85.9917 944.765 83.5532 942.056 81.7469C939.301 79.9406 936.275 78.9923 933.069 78.9923Z" fill="white"/>
<path d="M897.026 122.558C890.929 122.242 886.097 120.3 882.394 116.597C878.375 112.624 876.342 106.347 876.342 97.9924V80.9679H868.168V70.6266H876.342V50.5312H887.045V70.6266H897.026V80.9679H887.045V97.9924C887.045 102.915 887.948 106.392 889.8 108.695C891.426 110.682 893.819 111.856 897.026 112.172V122.558Z" fill="white"/>
</g>
<defs>
<filter id="filter0_i_48_21" x="825.751" y="48.8457" width="134.249" height="77.1642" filterUnits="userSpaceOnUse" color-interpolation-filters="sRGB">
<feFlood flood-opacity="0" result="BackgroundImageFix"/>
<feBlend mode="normal" in="SourceGraphic" in2="BackgroundImageFix" result="shape"/>
<feColorMatrix in="SourceAlpha" type="matrix" values="0 0 0 0 0 0 0 0 0 0 0 0 0 0 0 0 0 0 127 0" result="hardAlpha"/>
<feOffset dy="3.39466"/>
<feGaussianBlur stdDeviation="1.69733"/>
<feComposite in2="hardAlpha" operator="arithmetic" k2="-1" k3="1"/>
<feColorMatrix type="matrix" values="0 0 0 0 0 0 0 0 0 0 0 0 0 0 0 0 0 0 0.25 0"/>
<feBlend mode="normal" in2="shape" result="effect1_innerShadow_48_21"/>
</filter>
<linearGradient id="paint0_linear_48_21" x1="-0.0341946" y1="155.629" x2="123.074" y2="155.629" gradientUnits="userSpaceOnUse">
<stop stop-color="#001CF0"/>
<stop offset="1" stop-color="#006CF0"/>
</linearGradient>
<linearGradient id="paint1_linear_48_21" x1="1014.48" y1="85.5" x2="767.521" y2="85.5" gradientUnits="userSpaceOnUse">
<stop stop-color="#001AC5"/>
<stop offset="1" stop-color="#0067F0"/>
</linearGradient>
</defs>
</svg>
