<svg width="24" height="25" viewBox="0 0 34 32" fill="none" xmlns="http://www.w3.org/2000/svg">
<path d="M23.0959 14.6428C22.8487 14.917 22.5095 15.0786 22.1407 15.0974C21.9753 15.106 21.8054 15.1104 21.6361 15.1111H21.6358H21.6281C21.2882 15.1111 20.9538 15.092 20.6255 15.0551C20.6325 15.1054 20.6438 15.1559 20.6626 15.2054C20.7978 15.5624 21.1964 15.7425 21.5536 15.6079L22.8674 15.111L25.9854 24.2045C26.2354 23.931 26.5167 23.6885 26.8236 23.4804C26.9239 23.4123 27.0264 23.3471 27.1321 23.2866C27.4007 23.1329 27.686 23.0038 27.9856 22.9022C28.0149 22.8922 28.0445 22.8836 28.0739 22.8742C28.4957 22.7402 28.93 22.6646 29.3687 22.6498C29.4224 22.648 29.4761 22.6465 29.53 22.6465C31.1993 22.6465 32.7164 23.5074 33.5853 24.872C34.1021 24.8472 34.2344 24.5444 33.4039 23.4621C32.0646 21.7168 30.2015 21.3784 28.8913 21.396C28.8089 21.1742 28.7239 20.9426 28.6353 20.6977C27.8322 18.4777 26.0289 17.4201 24.9675 16.973L24.6748 16.119H25.7906C26.0096 17.0495 26.8431 17.7431 27.8405 17.7431C29.0046 17.7431 29.0046 13.5273 27.8405 13.5273C26.8431 13.5273 26.0096 14.2209 25.7906 15.1515H24.3429L23.9441 13.9885C23.8832 13.8114 23.7541 13.6668 23.5845 13.5873C23.5376 13.5654 23.4887 13.55 23.4389 13.5391C23.4435 13.5745 23.4478 13.6099 23.4497 13.6459C23.4684 14.0144 23.3431 14.3686 23.0959 14.6428Z" fill="#0652DD"></path>
<path d="M20.902 4.43906C21.2915 2.76672 20.2514 1.09528 18.5789 0.705799C16.9064 0.316313 15.2349 1.35627 14.8454 3.02861C14.456 4.70094 15.4961 6.37238 17.1686 6.76187C18.841 7.15135 20.5126 6.11139 20.902 4.43906Z" fill="#0652DD"></path>
<path d="M13.8413 19.3612C13.8463 19.3621 13.851 19.3635 13.856 19.3643L19.0977 20.1794L21.0611 25.1561C21.3293 25.8356 21.9801 26.2503 22.6689 26.2503C22.8797 26.2503 23.0941 26.2114 23.3024 26.1293C24.1903 25.7793 24.6259 24.7759 24.2755 23.8882L21.9488 17.9906C21.724 17.4216 21.2115 17.0115 20.607 16.9176L16.2644 16.242C16.2434 15.2863 16.3412 14.2994 16.4858 13.3508C16.126 13.0662 15.7838 12.751 15.4636 12.4028C14.3707 11.2097 13.8593 10.0391 13.7287 9.70846L13.7277 9.70638L13.7218 9.69159C13.5917 9.34604 13.604 8.97062 13.7566 8.63433C13.9091 8.29803 14.1832 8.04135 14.529 7.91156C14.6856 7.8524 14.8493 7.82241 15.0157 7.82241C15.5879 7.82241 16.1075 8.18248 16.3092 8.71809C16.3126 8.72735 16.3198 8.74394 16.3299 8.76771C16.3524 8.81968 16.3888 8.90013 16.4405 9.00297C16.5376 9.19676 16.7036 9.49974 16.9444 9.84226C16.9965 9.91648 17.0532 9.9943 17.1147 10.0745C17.4311 8.73274 16.9082 7.19653 15.7724 6.91345C14.5924 6.61932 12.8819 7.26012 12.1861 9.28398C11.2454 12.0726 11.0432 13.8876 11.4006 16.9582C11.7462 18.7363 12.7896 19.2392 13.8413 19.3612Z" fill="#0652DD"></path>
<path d="M16.1931 9.12746C16.1384 9.01854 16.0998 8.93298 16.0763 8.87866C16.0645 8.85143 16.0564 8.83208 16.0523 8.82144C16.0515 8.8195 16.0508 8.81784 16.0501 8.81632H16.0502C15.835 8.24463 15.1975 7.95561 14.6258 8.17082C14.0542 8.38576 13.7653 9.02352 13.9802 9.59493C14.0134 9.67593 14.4821 10.9231 15.6669 12.2163C15.9208 12.4924 16.211 12.7698 16.5351 13.0365C16.9682 13.3927 17.4638 13.7293 18.0325 14.0128C18.783 14.3878 19.6577 14.6661 20.6442 14.7794C20.9607 14.8159 21.2883 14.8359 21.6275 14.8359C21.63 14.8359 21.6325 14.8359 21.6351 14.8359C21.7968 14.8356 21.9605 14.8315 22.1261 14.8229C22.736 14.7914 23.2048 14.2714 23.1731 13.6614C23.1709 13.6192 23.1659 13.5778 23.1591 13.537C23.0686 12.9894 22.5797 12.585 22.0119 12.6143C21.8822 12.6208 21.7566 12.6241 21.635 12.6241C20.5753 12.623 19.7282 12.3855 19.0188 12.0335C18.1657 11.6095 17.5129 11.0012 17.0364 10.4187C16.9207 10.2773 16.8124 10.137 16.7176 10.0017C16.4757 9.65685 16.3023 9.3453 16.1931 9.12746Z" fill="#0652DD"></path>
<path d="M0.737693 19.27H9.46768C9.87503 19.27 10.2054 18.9397 10.2054 18.5323V9.9252C10.2054 9.51771 9.87503 9.1875 9.46768 9.1875H0.737693C0.330352 9.1875 0 9.51785 0 9.9252V18.5323C0 18.9398 0.330352 19.27 0.737693 19.27Z" fill="#0652DD"></path>
<path d="M12.9578 26.1347C12.2276 23.9809 9.88969 22.8267 7.73577 23.5571C5.71026 24.2438 4.56951 26.3523 5.0479 28.3923C5.0783 28.5217 5.11452 28.6508 5.1582 28.7792C5.88829 30.933 8.22632 32.0871 10.3802 31.3567C11.7782 30.8828 12.7543 29.7311 13.068 28.3923C13.2374 27.6685 13.2141 26.8904 12.9578 26.1347ZM9.58021 28.9977C8.88053 29.2349 8.13205 28.9678 7.72775 28.3923C7.64053 28.2682 7.56852 28.1302 7.51738 27.9793C7.22891 27.1284 7.6849 26.2046 8.53566 25.9162C9.38642 25.6277 10.3103 26.0838 10.5986 26.9346C10.772 27.4457 10.6752 27.9822 10.387 28.3923C10.1954 28.665 9.91996 28.8824 9.58021 28.9977Z" fill="#0652DD"></path>
<path d="M24.774 26.7346H15.9611C15.1992 25.1974 14.9372 23.6283 14.8504 22.6074C15.0766 22.5381 15.2422 22.3301 15.2422 22.0812V20.5607C15.2422 20.2554 14.9947 20.0078 14.6893 20.0078H3.42419C3.11886 20.0078 2.8713 20.2554 2.8713 20.5607V22.0812C2.8713 22.3865 3.11886 22.634 3.42419 22.634H3.48515C2.88471 24.1074 1.95807 26.6613 1.95807 28.3934C1.95807 28.3934 2.89743 28.3934 4.3413 28.3934C4.13383 27.3591 4.27081 26.2913 4.74546 25.3297C5.31425 24.1779 6.29742 23.316 7.51378 22.9039C8.01442 22.7338 8.534 22.648 9.05828 22.648C11.12 22.648 12.9501 23.9603 13.6122 25.9141C13.8926 26.7413 13.9328 27.5928 13.7726 28.3934C14.1035 28.3934 14.4277 28.3934 14.7435 28.3934C15.5766 28.3934 16.3505 28.3934 17.0242 28.3934H24.8132C24.7028 27.8427 24.6901 27.283 24.774 26.7346Z" fill="#0652DD"></path>
<path d="M32.6531 24.7731C31.8994 23.8964 30.8029 23.3718 29.6439 23.3395C29.2518 23.3285 28.8527 23.3744 28.4574 23.4816C28.3739 23.5042 28.2904 23.5285 28.2073 23.5567C27.9045 23.6594 27.6222 23.7949 27.3614 23.9562C27.2662 24.015 27.1739 24.0767 27.0847 24.1424C26.764 24.3789 26.4829 24.6581 26.2474 24.9694C25.856 25.4868 25.5904 26.092 25.4754 26.7332C25.379 27.2709 25.3886 27.8339 25.5193 28.3919C25.5497 28.5213 25.586 28.6504 25.6296 28.7788C26.3597 30.9326 28.6978 32.0868 30.8517 31.3564C33.0055 30.6262 34.1596 28.2881 33.4293 26.1343C33.255 25.619 32.9874 25.1618 32.6531 24.7731ZM30.0521 28.9973C29.2013 29.2858 28.2774 28.8297 27.9891 27.9789C27.7006 27.128 28.1566 26.2043 29.0074 25.9158C29.8581 25.6273 30.782 26.0835 31.0703 26.9342C31.359 27.785 30.903 28.7087 30.0521 28.9973Z" fill="#0652DD"></path>
</svg>