<svg width="24" height="24" viewBox="0 0 34 34" fill="none" xmlns="http://www.w3.org/2000/svg">
<path d="M20.0726 0H8.0863C3.61379 0 0 3.61382 0 8.08636V20.0728C0 24.5453 3.61379 28.1591 8.0863 28.1591H20.1084C20.8598 28.1591 21.5396 28.0518 22.2194 27.8729L21.8258 26.3701C21.2891 26.5132 20.7167 26.6206 20.1084 26.6206H8.0863C4.47251 26.6564 1.53854 23.6866 1.53854 20.0728V8.08636C1.53854 4.47254 4.47251 1.53856 8.0863 1.53856H20.0726C23.6506 1.53856 26.6204 4.47254 26.6562 8.08636V20.1086C26.6562 20.7168 26.5846 21.2893 26.4057 21.826L27.8727 22.2196C28.0516 21.5398 28.1589 20.8242 28.1589 20.1086V8.05058C28.1589 3.61382 24.5094 0 20.0726 0Z" fill="#0652DD"></path>
<path d="M20.0727 2.96875H8.0864C5.25977 2.96875 2.96985 5.25869 2.96985 8.08534V20.0718C2.96985 22.8984 5.25977 25.1883 8.0864 25.1883H20.1085C20.5736 25.1883 21.003 25.1168 21.4324 25.0094L21.0388 23.5782C20.8599 22.97 20.9672 22.2901 21.3608 21.7534C21.7544 21.2167 22.3627 20.9305 23.0067 20.9305C23.1856 20.9305 23.4003 20.9663 23.5434 21.002L25.0462 21.3956C25.1893 20.9663 25.2251 20.5369 25.2251 20.0718V8.08534C25.1893 5.25869 22.8994 2.96875 20.0727 2.96875ZM13.4892 11.7349C13.4892 12.4863 12.8452 13.1304 12.0938 13.1304H11.8075L12.4516 20.5011C12.4873 21.4672 11.736 22.2901 10.7699 22.2901H10.7341C9.76806 22.2901 9.01668 21.4672 9.05246 20.5011L9.6965 13.1304H9.41026C8.65888 13.1304 8.01484 12.4863 8.01484 11.7349V6.47522C8.01484 6.1532 8.2653 5.90274 8.6231 5.90274C8.94512 5.90274 9.23136 6.1532 9.23136 6.47522V10.9835C9.23136 11.1625 9.37448 11.3056 9.55338 11.3056H9.91118C10.0901 11.3056 10.2332 11.1625 10.2332 10.9835V6.47522C10.2332 6.1532 10.4837 5.90274 10.8415 5.90274C11.1635 5.90274 11.4497 6.1532 11.4497 6.47522V10.9835C11.4497 11.1625 11.5928 11.3056 11.7717 11.3056H12.1295C12.3084 11.3056 12.4516 11.1625 12.4516 10.9835V6.47522C12.4516 6.1532 12.702 5.90274 13.0598 5.90274C13.3819 5.90274 13.6681 6.1532 13.6681 6.47522V11.7349H13.4892ZM18.7846 14.2753H18.2479L19.2856 20.358C19.4287 21.3599 18.6415 22.2901 17.6397 22.2901C16.7094 22.2901 15.958 21.5388 15.958 20.6085V6.43944C15.958 6.04586 16.3874 5.75962 16.7452 5.93852C18.6415 6.79725 19.9296 8.65783 20.0369 10.8046L20.1801 12.8083C20.2516 13.5955 19.6076 14.2753 18.7846 14.2753Z" fill="#0652DD"></path>
<path d="M33.8122 30.951L30.3773 27.5161L32.7388 26.1206C33.2397 25.8344 33.1324 25.1188 32.5957 24.9757L23.1498 22.3995C22.6488 22.2563 22.2553 22.7215 22.3984 23.1509L24.9388 32.5969C25.0819 33.1693 25.7975 33.2409 26.0837 32.74L27.4792 30.3785L30.914 33.8134C31.1645 34.0639 31.5939 34.0639 31.8085 33.8134L33.8122 31.8097C34.0627 31.5592 34.0627 31.2014 33.8122 30.951Z" fill="#0652DD"></path>
</svg>