<svg width="20" height="20" viewBox="0 0 34 33" fill="none" xmlns="http://www.w3.org/2000/svg">
<path d="M12.2188 23.1094C12.2188 22.3759 12.8304 21.7812 13.5848 21.7812H20.4152C21.1696 21.7812 21.7812 22.3759 21.7812 23.1094V25.7656C21.7812 26.4991 21.1696 27.0938 20.4152 27.0938H13.5848C12.8304 27.0938 12.2188 26.4991 12.2188 25.7656V23.1094Z" fill="#0652DD"></path>
<path fill-rule="evenodd" clip-rule="evenodd" d="M13.5848 21.7812C12.8304 21.7812 12.2188 22.3759 12.2188 23.1094V25.7656C12.2188 26.4991 12.8304 27.0938 13.5848 27.0938H20.4152C21.1696 27.0938 21.7812 26.4991 21.7812 25.7656V23.1094C21.7812 22.3759 21.1696 21.7812 20.4152 21.7812H13.5848Z" fill="#0652DD"></path>
<path fill-rule="evenodd" clip-rule="evenodd" d="M2.04 0C0.913325 0 0 0.902434 0 2.01562V20.8281C0 21.9413 0.913325 22.8438 2.04 22.8438H31.96C33.0867 22.8438 34 21.9413 34 20.8281V2.01562C34 0.902434 33.0867 0 31.96 0H2.04ZM4.08 2.70518C3.32892 2.70518 2.72 3.30682 2.72 4.04892V18.7948C2.72 19.5369 3.32892 20.1386 4.08 20.1386H29.92C30.6711 20.1386 31.28 19.5369 31.28 18.7948V4.04892C31.28 3.30682 30.6711 2.70518 29.92 2.70518H4.08Z" fill="#0652DD"></path>
<path fill-rule="evenodd" clip-rule="evenodd" d="M34 2.01562C34 0.902434 33.0867 0 31.96 0H2.04C0.913325 0 0 0.902434 0 2.01562V20.8281C0 21.9413 0.913325 22.8438 2.04 22.8438H31.96C33.0867 22.8438 34 21.9413 34 20.8281V2.01562ZM2.72 4.04892C2.72 3.30682 3.32892 2.70518 4.08 2.70518H29.92C30.6711 2.70518 31.28 3.30682 31.28 4.04892V18.7948C31.28 19.5369 30.6711 20.1386 29.92 20.1386H4.08C3.32892 20.1386 2.72 19.5369 2.72 18.7948V4.04892Z" fill="#0652DD"></path>
<path fill-rule="evenodd" clip-rule="evenodd" d="M1.35766 23.9062C0.607856 23.9062 0 24.5141 0 25.2639V31.0486C0 31.7984 0.607856 32.4062 1.35766 32.4062H32.6423C33.3921 32.4062 34 31.7984 34 31.0486V25.2639C34 24.5141 33.3921 23.9062 32.6423 23.9062H1.35766ZM28.3334 29.5732C29.1158 29.5732 29.7501 28.9389 29.7501 28.1565C29.7501 27.3741 29.1158 26.7398 28.3334 26.7398C27.5511 26.7398 26.9168 27.3741 26.9168 28.1565C26.9168 28.9389 27.5511 29.5732 28.3334 29.5732Z" fill="#0652DD"></path>
<path fill-rule="evenodd" clip-rule="evenodd" d="M2.71527 26.6215V29.691H24.4958C24.306 29.2166 24.2015 28.6988 24.2015 28.1565C24.2015 27.6141 24.306 27.0961 24.496 26.6215H2.71527ZM31.2847 31.0486C31.2847 31.0487 31.2847 31.0485 31.2847 31.0486ZM0 25.2639C0 24.5141 0.607856 23.9062 1.35766 23.9062H32.6423C33.3921 23.9062 34 24.5141 34 25.2639V31.0486C34 31.7984 33.3921 32.4062 32.6423 32.4062H1.35766C0.607856 32.4062 0 31.7984 0 31.0486V25.2639ZM29.7501 28.1565C29.7501 28.9389 29.1158 29.5732 28.3334 29.5732C27.5511 29.5732 26.9168 28.9389 26.9168 28.1565C26.9168 27.3741 27.5511 26.7398 28.3334 26.7398C29.1158 26.7398 29.7501 27.3741 29.7501 28.1565Z" fill="#0652DD"></path>
</svg>