<svg width="20" height="20" viewBox="0 0 33 33" fill="none" xmlns="http://www.w3.org/2000/svg">
<path d="M23.9084 30.0071C21.6534 31.2459 19.0916 31.9018 16.5012 31.9018C8.00919 31.9018 1.10117 24.9938 1.10117 16.5018C1.10117 13.3352 2.05819 10.3087 3.85667 7.72253C4.24169 7.92878 4.67479 8.05666 5.14091 8.05666C6.65754 8.05666 7.89091 6.82328 7.89091 5.30665C7.89091 3.79002 6.65754 2.55664 5.14091 2.55664C3.62428 2.55664 2.3909 3.79002 2.3909 5.30665C2.3909 5.95704 2.6274 6.54689 3.00553 7.01716C1.0434 9.80431 -0.000244141 13.0769 -0.000244141 16.5018C-0.000244141 25.6004 7.40128 33.0019 16.4998 33.0019C19.2746 33.0019 22.0192 32.2993 24.4364 30.971C24.7031 30.8253 24.7994 30.4898 24.6536 30.2244C24.5079 29.9576 24.1724 29.86 23.907 30.0071L23.9084 30.0071Z" fill="currentcolor"></path>
<path d="M33.0013 16.5C33.0013 7.40153 25.5998 0 16.5013 0C13.6426 0 10.8267 0.742511 8.35702 2.14777C8.09302 2.29764 8.0009 2.63314 8.15077 2.89714C8.30202 3.16115 8.63614 3.25464 8.90014 3.1034C11.2047 1.793 13.8338 1.10002 16.5013 1.10002C24.9933 1.10002 31.9013 8.00804 31.9013 16.5001C31.9013 19.752 30.8975 22.8375 29.0138 25.461C28.6205 25.2437 28.1764 25.1103 27.6965 25.1103C26.1799 25.1103 24.9465 26.3437 24.9465 27.8603C24.9465 29.377 26.1799 30.6103 27.6965 30.6103C29.2132 30.6103 30.4465 29.377 30.4465 27.8603C30.4465 27.2237 30.2197 26.6435 29.8553 26.1773C31.9082 23.3504 33.0013 20.0159 33.0013 16.5015L33.0013 16.5Z" fill="currentcolor"></path>
<path d="M15.5815 28.5598C15.7053 28.5694 15.8277 28.579 15.9514 28.5845V22.1426C14.6039 22.1715 13.2592 22.3007 11.9252 22.5372C12.6994 25.6213 14.0346 27.8998 15.5815 28.5598Z" fill="currentcolor"></path>
<path d="M17.421 4.43881C17.2972 4.42919 17.1748 4.41956 17.0511 4.41406V10.856C18.3986 10.8272 19.7433 10.6979 21.0773 10.4614C20.3032 7.37728 18.9679 5.09881 17.421 4.43881Z" fill="currentcolor"></path>
<path d="M15.9515 4.41406C15.8277 4.41956 15.704 4.42919 15.5816 4.43881C14.0361 5.09881 12.6996 7.37721 11.9254 10.4612C13.2591 10.6977 14.6039 10.827 15.9515 10.8558L15.9515 4.41406Z" fill="currentcolor"></path>
<path d="M17.051 28.5843C17.1748 28.5788 17.2985 28.5692 17.4209 28.5596C18.9664 27.8996 20.3029 25.6212 21.0772 22.5372C19.7434 22.3007 18.3986 22.1714 17.051 22.1426L17.051 28.5843Z" fill="currentcolor"></path>
<path d="M26.6927 9.99048C25.2916 10.5529 23.8588 10.9984 22.4067 11.3201C22.6859 12.7474 22.8509 14.3052 22.8825 15.9496H28.5874C28.4884 13.762 27.8064 11.7273 26.6927 9.99048Z" fill="currentcolor"></path>
<path d="M22.4067 21.6786C23.8587 22.0003 25.2901 22.4472 26.6927 23.0082C27.8051 21.2716 28.4885 19.2351 28.5875 17.0488H22.8826C22.8523 18.692 22.6873 20.2515 22.4067 21.6786Z" fill="currentcolor"></path>
<path d="M19.6348 4.81445C20.7169 6.06434 21.5983 7.9467 22.1689 10.2472C23.4779 9.95711 24.7691 9.557 26.0353 9.06335C24.4403 7.02284 22.2059 5.50497 19.6345 4.8147L19.6348 4.81445Z" fill="currentcolor"></path>
<path d="M15.9514 11.9579C14.5227 11.929 13.0982 11.7901 11.6847 11.5371C11.4152 12.9039 11.2502 14.3944 11.2186 15.9523H15.9499V11.9592L15.9514 11.9579Z" fill="currentcolor"></path>
<path d="M6.9669 9.06335C8.23329 9.55696 9.52439 9.95574 10.8333 10.2472C11.4039 7.94684 12.2853 6.06441 13.3674 4.81445C10.7961 5.50469 8.56329 7.0227 6.96661 9.06311L6.9669 9.06335Z" fill="currentcolor"></path>
<path d="M13.3677 28.1867C12.2855 26.9368 11.4042 25.0544 10.8335 22.7539C9.52452 23.044 8.23342 23.4441 6.96716 23.9378C8.56215 25.9783 10.7966 27.4962 13.368 28.1864L13.3677 28.1867Z" fill="currentcolor"></path>
<path d="M10.5958 11.3198C9.14375 10.9981 7.711 10.5526 6.30979 9.99023C5.1974 11.7269 4.51402 13.7633 4.41504 15.9496H10.1199C10.1502 14.3065 10.3152 12.747 10.5958 11.3198Z" fill="currentcolor"></path>
<path d="M22.1692 22.7539C21.5986 25.0543 20.7172 26.9367 19.6351 28.1867C22.2063 27.4965 24.4392 25.9784 26.0359 23.938C24.7695 23.4444 23.4784 23.0456 22.1695 22.7542L22.1692 22.7539Z" fill="currentcolor"></path>
<path d="M6.30978 23.008C7.71092 22.4456 9.14367 22.0001 10.5957 21.6783C10.3166 20.2511 10.1516 18.6932 10.12 17.0488H4.4151C4.5141 19.2364 5.19605 21.2712 6.30978 23.008Z" fill="currentcolor"></path>
<path d="M15.9513 17.0488H11.2201C11.2517 18.6053 11.4153 20.0972 11.6862 21.464C13.0983 21.2096 14.5242 21.0707 15.9528 21.0432V17.0501L15.9513 17.0488Z" fill="currentcolor"></path>
<path d="M17.051 21.0432C18.4783 21.0721 19.9042 21.211 21.3176 21.464C21.5871 20.0972 21.7521 18.6067 21.7838 17.0488H17.0525V21.0419L17.051 21.0432Z" fill="currentcolor"></path>
<path d="M17.051 15.9503H21.7823C21.7507 14.3938 21.587 12.9019 21.3162 11.5352C19.904 11.7895 18.4782 11.927 17.0496 11.9559V15.949L17.051 15.9503Z" fill="currentcolor"></path>
</svg>