<svg width="452" height="129" viewBox="0 0 452 129" fill="none" xmlns="http://www.w3.org/2000/svg">
<g filter="url(#filter0_i_23_18)">
<path d="M69.9197 79.1993V49.6628C69.9197 40.6127 72.099 33.8139 76.4576 29.2664C80.8162 24.7188 86.6277 22.4225 93.8467 22.4225H94.9818V33.1836H93.8467C85.3111 33.1836 81.0887 38.6766 81.0887 49.7078V79.2443H69.9197V79.1993ZM156.003 52.3643C156.003 61.5494 153.732 68.4833 149.147 73.1209C144.607 77.7585 138.477 80.0548 130.895 80.0548C123.313 80.0548 117.229 77.7585 112.643 73.1209C108.103 68.4833 105.788 61.5494 105.788 52.3643V22.6477H116.957V52.4093C116.957 63.7106 121.588 69.3838 130.85 69.3838C140.112 69.3838 144.743 63.7106 144.743 52.4093V22.6477H155.912L156.003 52.3643ZM166.854 50.9235V0H178.159V29.8517C182.79 24.4037 188.783 21.7021 196.184 21.7021C204.311 21.7021 211.257 24.5387 216.978 30.2569C222.699 35.9751 225.604 42.819 225.604 50.8785C225.604 58.938 222.744 65.8268 216.978 71.5C211.212 77.1732 204.311 80.0548 196.184 80.0548C188.057 80.0548 181.11 77.2182 175.435 71.5C169.714 65.8718 166.854 58.983 166.854 50.9235ZM196.184 32.4632C191.099 32.4632 186.785 34.2642 183.244 37.8212C179.703 41.4232 177.932 45.7456 177.932 50.8785C177.932 56.0113 179.703 60.4688 183.199 63.9808C186.695 67.5378 191.053 69.2938 196.184 69.2938C201.314 69.2938 205.764 67.5378 209.26 63.9808C212.71 60.4238 214.435 56.0564 214.435 50.8785C214.435 45.7006 212.71 41.2881 209.169 37.7761C205.673 34.2642 201.314 32.4632 196.184 32.4632ZM259.157 33.3637H246.853V52.3643C246.853 62.63 250.939 68.0781 259.157 68.7535V79.5145C251.938 79.1993 246.217 76.813 241.995 72.3555C237.772 67.853 235.684 61.2343 235.684 52.4994V33.3637H227.239V22.6477H235.684V0H246.853V22.6026H259.157C259.157 22.6477 259.157 33.3637 259.157 33.3637ZM276.909 71.59C271.234 65.9169 268.419 59.0731 268.419 51.0135C268.419 42.954 271.234 36.0652 276.818 30.302C282.403 24.5387 289.259 21.7021 297.386 21.7021C305.513 21.7021 311.914 24.2686 317.68 29.4465C323.447 34.6244 326.489 41.4232 326.806 49.8429C326.806 51.7339 326.67 53.4449 326.443 54.9307H280.405C280.859 59.1631 282.675 62.585 285.808 65.2865C288.941 67.988 292.845 69.2938 297.386 69.2938C303.015 69.2938 307.556 67.4027 311.052 63.6206L324.4 63.7557C321.903 68.6634 318.225 72.5806 313.458 75.5973C308.691 78.569 303.424 80.0548 297.703 80.0548C289.531 80.0998 282.584 77.2632 276.909 71.59ZM280.405 45.9257H314.866C313.821 42.0085 311.687 38.7667 308.555 36.2453C305.422 33.7239 301.79 32.4632 297.794 32.4632C293.481 32.4632 289.758 33.7239 286.671 36.2003C283.538 38.6766 281.449 41.9184 280.405 45.9257ZM364.672 80.0998C356.545 80.0998 349.598 77.2632 343.878 71.545C338.112 65.8718 335.251 58.983 335.251 50.9235C335.251 42.864 338.112 35.9751 343.878 30.302C349.598 24.6288 356.545 21.7472 364.672 21.7472C370.847 21.7472 376.386 23.4581 381.335 26.9701C386.238 30.392 389.734 34.8945 391.777 40.3876H379.791C376.204 35.1196 371.21 32.4632 364.717 32.4632C359.451 32.4632 355.092 34.2191 351.596 37.7761C348.1 41.3331 346.329 45.7006 346.329 50.8785C346.329 56.0564 348.1 60.3788 351.641 63.9358C355.183 67.5378 359.541 69.2938 364.717 69.2938C371.119 69.2938 376.068 66.7273 379.564 61.5945H391.777C389.734 67.0875 386.238 71.545 381.289 74.9219C376.34 78.3888 370.801 80.0998 364.672 80.0998ZM426.147 21.7472C433.729 21.7472 439.813 24.0885 444.399 28.7261C448.984 33.3637 451.254 40.2975 451.254 49.4827V79.2443H440.085V49.4827C440.085 38.1814 435.454 32.5082 426.147 32.5082C416.839 32.5082 412.208 38.0463 412.208 49.2125V79.1993H401.039V0H412.208V27.7355C415.386 23.7283 420.017 21.7472 426.147 21.7472ZM61.611 27.7355C61.611 24.8089 59.2501 22.4676 56.299 22.4676H29.6024C13.3029 22.4676 0.0454017 35.6149 0.0454017 51.779C0.0454017 67.943 13.3029 81.0904 29.6024 81.0904C40.0449 81.0904 48.5806 89.5101 48.5806 99.9109C48.5806 110.312 40.0903 118.731 29.6024 118.731C19.1144 118.731 10.6242 110.312 10.6242 99.9109C10.6242 96.9843 8.26324 94.6429 5.31208 94.6429C2.36093 94.6429 0 96.9843 0 99.9109C0 116.075 13.2575 129.267 29.6024 129.267C45.9472 129.267 59.2047 116.12 59.2047 99.9109C59.2047 89.9603 54.165 81.1354 46.492 75.8224C54.1196 70.5094 59.1593 61.7295 59.1593 51.824C59.1593 44.71 56.5714 38.1814 52.3035 33.0935H56.3444C59.2047 33.0035 61.611 30.6622 61.611 27.7355ZM29.6024 70.5095C19.1598 70.5095 10.715 62.0897 10.715 51.779C10.715 41.4682 19.2052 33.0485 29.6024 33.0485C39.9995 33.0485 48.4897 41.4682 48.4897 51.779C48.4897 62.0897 39.9995 70.5095 29.6024 70.5095Z" fill="#3A86C1"/>
</g>
<defs>
<filter id="filter0_i_23_18" x="0" y="0" width="451.254" height="133.267" filterUnits="userSpaceOnUse" color-interpolation-filters="sRGB">
<feFlood flood-opacity="0" result="BackgroundImageFix"/>
<feBlend mode="normal" in="SourceGraphic" in2="BackgroundImageFix" result="shape"/>
<feColorMatrix in="SourceAlpha" type="matrix" values="0 0 0 0 0 0 0 0 0 0 0 0 0 0 0 0 0 0 127 0" result="hardAlpha"/>
<feOffset dy="4"/>
<feGaussianBlur stdDeviation="3"/>
<feComposite in2="hardAlpha" operator="arithmetic" k2="-1" k3="1"/>
<feColorMatrix type="matrix" values="0 0 0 0 0.0373225 0 0 0 0 0.13642 0 0 0 0 0.334615 0 0 0 1 0"/>
<feBlend mode="multiply" in2="shape" result="effect1_innerShadow_23_18"/>
</filter>
</defs>
</svg>
