<svg width="2750" height="1921" viewBox="0 0 2750 1921" fill="none" xmlns="http://www.w3.org/2000/svg">
<path d="M2107.84 855.984C2121.2 859.631 2125.25 804.163 2100.14 811.855C2075.03 819.547 2092.04 851.531 2107.84 855.984Z" fill="#DFE4EE"/>
<path d="M956.832 30.8683C956.832 30.8683 948.333 42.6051 968.58 42.6051C989.235 42.6051 1031.76 28.8458 1065.78 28.8458C1099.81 28.8458 1089.67 17.0979 1082.79 17.0979C1075.9 17.0979 1057.28 -1.52416 1030.14 0.100436C1003.01 1.71398 1004.63 13.8598 987.622 13.8598C970.602 13.8598 973.851 8.59917 938.21 10.6216C902.568 12.2462 938.21 27.6301 956.832 30.8683Z" fill="#DFE4EE"/>
<path d="M2142.26 1018.74C2153.6 1026.44 2155.63 1039.8 2153.6 1060.85C2151.57 1081.9 2132.54 1079.88 2164.94 1093.24C2197.34 1106.61 2235.82 1129.68 2226.09 1087.57C2216.38 1045.47 2224.07 1039.8 2189.64 1007.01C2155.22 974.615 2153.2 995.668 2149.55 968.537C2145.9 941.825 2136.19 892.026 2122.83 911.046C2111.08 928.054 2101.76 934.133 2115.12 962.878C2128.89 992.021 2130.52 1011.05 2142.26 1018.74Z" fill="#DFE4EE"/>
<path d="M2473.56 1263.7C2448.45 1236.97 2406.34 1217.53 2389.33 1219.57C2371.91 1221.59 2356.92 1248.31 2347.21 1238.59C2337.48 1228.87 2308.73 1183.13 2293.74 1196.48C2278.36 1209.84 2295.76 1225.22 2276.32 1225.22C2257.29 1225.22 2251.62 1248.31 2247.58 1217.53C2243.93 1186.76 2228.54 1171.38 2224.49 1194.46C2220.84 1217.53 2218.82 1232.93 2209.1 1215.51C2199.38 1198.1 2193.71 1209.84 2193.71 1192.43C2193.71 1175.03 2155.23 1156 2140.24 1175.03C2130.53 1187.17 2126.88 1188.39 2122.84 1215.11C2119.19 1241.82 2109.47 1283.93 2130.53 1272.6C2151.58 1261.26 2155.64 1270.58 2164.96 1257.22C2174.67 1243.86 2186.01 1236.17 2203.43 1243.86C2220.84 1251.55 2213.15 1251.55 2243.52 1247.49C2274.3 1243.86 2289.29 1243.86 2310.75 1257.22C2331.81 1270.58 2373.93 1262.88 2373.93 1276.24C2373.93 1289.6 2329.79 1299.33 2373.93 1312.68C2418.08 1326.04 2427.39 1356.82 2441.16 1341.42C2454.53 1326.04 2473.56 1304.98 2487.33 1320.38C2500.7 1335.76 2552.54 1377.87 2542.82 1354.78C2533.1 1331.71 2535.12 1310.65 2565.9 1285.96C2596.69 1261.26 2588.99 1249.53 2575.63 1249.53C2562.26 1249.53 2562.26 1266.93 2531.48 1270.58C2500.3 1275.43 2498.67 1290.42 2473.56 1263.7Z" fill="#DFE4EE"/>
<path d="M680.622 67.3027C682.644 67.7116 684.269 68.1095 685.882 68.5184C702.891 75.4036 715.048 65.2803 716.661 51.5099C735.294 24.3891 728.409 73.779 749.065 65.2803C769.311 56.7815 798.477 36.126 822.37 24.3891C846.264 12.6412 793.205 17.5039 750.689 10.6187C708.162 3.74457 648.218 15.8904 631.21 27.6272C615.417 38.5573 655.91 60.0197 680.622 67.3027Z" fill="#DFE4EE"/>
<path d="M2069.36 1085.55C2057.62 1100.53 2034.94 1133.33 2019.55 1145.07C2004.16 1156.41 1977.43 1141.42 1979.46 1168.14C1981.48 1194.87 1983.1 1206.6 1985.13 1225.63C1987.15 1244.66 1990.8 1256.4 2019.55 1256.4C2048.31 1256.4 2061.67 1266.13 2071.39 1262.07C2081.11 1258.42 2079.09 1241.02 2090.43 1217.94C2101.76 1194.87 2121.2 1200.54 2113.51 1183.53C2105.81 1166.12 2105.81 1170.17 2105.81 1152.76C2105.81 1135.35 2115.54 1147.09 2109.87 1118.34C2103.79 1089.6 2082.73 1068.55 2069.36 1085.55Z" fill="#DFE4EE"/>
<path d="M2134.98 1351.54C2162.11 1354.78 2182.77 1351.54 2201.4 1341.42C2220.04 1331.31 2211.53 1319.16 2209.91 1314.3C2208.29 1309.04 2194.52 1319.56 2175.89 1322.8C2157.25 1326.03 2151.99 1326.03 2128.1 1328.07C2104.2 1329.68 2119.59 1319.56 2094.08 1317.94C2068.56 1316.32 2043.04 1311.06 2013.89 1300.94C1984.72 1290.81 1969.74 1282.31 1949.08 1275.43C1928.43 1268.54 1947.47 1256.81 1945.84 1227.65C1944.23 1198.51 1925.19 1210.65 1910.2 1200.53C1894.82 1190.41 1900.08 1168.14 1906.97 1175.02C1913.85 1181.91 1915.47 1190.41 1915.47 1154.38C1915.47 1118.75 1883.07 1094.85 1862.82 1064.09C1842.17 1033.32 1845.82 1016.31 1847.43 1000.93C1849.05 985.543 1885.09 1014.7 1903.73 1036.56C1922.36 1058.83 1922.36 1058.83 1932.89 1053.57C1943.02 1048.29 1973.79 1031.3 1980.68 1004.16C1987.56 977.044 1926.01 922.383 1917.5 896.875C1908.99 871.368 1929.25 886.752 1939.78 869.755C1949.9 852.746 1962.05 876.64 1955.16 888.377C1948.28 900.114 1956.79 906.999 1963.67 919.144C1970.56 930.892 1970.56 919.144 1977.44 903.761C1984.33 888.377 1979.06 883.116 1991.21 872.993C2003.36 862.869 2049.12 849.099 2061.27 837.362C2073.43 825.625 2081.92 811.855 2096.91 769.35C2112.31 726.834 2095.3 728.448 2088.41 713.064C2081.53 697.68 2061.27 672.173 2049.12 656.789C2037.37 641.405 2047.5 645.052 2056.01 639.791C2064.52 634.52 2057.63 622.783 2037.37 615.898C2016.72 609.013 2020.37 622.783 2001.73 619.136C1983.11 615.898 1993.23 602.138 2013.48 578.245C2034.14 554.362 2023.6 583.516 2037.37 593.629C2051.15 603.752 2054.38 585.13 2064.52 590.391C2074.64 595.662 2095.3 605.774 2110.68 626.021C2126.08 646.268 2126.08 670.15 2141.46 668.537C2156.85 666.912 2156.85 660.027 2163.74 644.643C2170.62 629.259 2145.11 615.5 2132.96 603.752C2120.8 592.015 2109.07 592.015 2119.19 581.483C2129.31 571.36 2120.8 555.976 2126.08 543.83C2131.34 532.093 2149.97 538.569 2168.6 530.071C2187.22 521.561 2188.85 492.418 2188.85 462.048C2188.85 431.28 2173.45 417.918 2164.96 407.397C2156.45 397.274 2175.08 402.125 2190.47 414.271C2205.86 426.019 2229.75 490.793 2234.61 516.709C2239.87 542.216 2236.24 542.216 2256.89 564.485C2277.54 586.755 2270.65 583.107 2263.78 608.615C2256.89 634.122 2239.87 641.007 2214.37 647.881C2188.85 654.766 2197.36 659.629 2181.96 685.534C2166.57 711.042 2190.47 712.666 2204.24 719.551C2218 726.425 2224.49 700.918 2241.91 688.772C2258.92 677.036 2277.54 668.128 2306.7 668.128C2335.87 668.128 2298.19 628.861 2296.58 608.615C2294.96 588.368 2293.34 574.609 2286.46 559.214C2279.57 543.83 2293.34 543.83 2313.59 533.718C2333.84 523.594 2332.22 502.939 2320.47 502.939C2308.73 502.939 2298.19 511.448 2271.06 509.824C2243.93 508.21 2250.82 485.941 2243.93 477.431C2237.05 468.933 2228.54 450.311 2226.92 434.927C2225.3 419.543 2201.4 399.296 2184.4 383.912C2167.39 368.528 2157.26 358.405 2157.26 365.29C2157.26 372.175 2147.13 363.666 2123.24 362.052C2099.34 360.427 2094.08 365.29 2073.82 363.666C2053.18 362.052 2075.45 328.035 2083.96 304.152C2092.46 280.27 2116.35 294.029 2134.98 294.029C2153.62 294.029 2162.11 295.654 2189.66 302.528C2216.8 309.413 2205.05 285.53 2210.31 266.908C2215.58 248.286 2227.32 258.398 2242.71 265.284C2258.1 272.169 2262.96 273.782 2262.96 258.398C2262.96 243.015 2276.73 239.776 2288.48 253.138C2300.23 266.908 2267.82 295.654 2267.82 295.654C2267.82 295.654 2257.7 326.421 2276.32 336.545C2294.96 346.668 2332.62 391.195 2354.9 406.579C2377.17 421.974 2361.79 381.072 2361.79 351.929C2361.79 322.774 2341.54 326.421 2326.14 299.29C2310.75 272.169 2320.88 283.906 2350.04 283.906C2379.2 283.906 2380.82 273.782 2387.7 265.284C2394.59 256.785 2399.45 255.16 2425.37 255.16C2450.88 255.16 2435.49 245.037 2423.75 231.278C2412 217.507 2388.11 221.154 2396.61 212.656C2405.12 204.146 2451.29 217.916 2473.15 226.415C2495.43 234.925 2490.17 228.04 2486.92 207.793C2483.69 187.546 2464.65 202.532 2410.38 182.286C2355.71 162.039 2296.17 149.893 2277.54 149.893C2258.92 149.893 2272.28 138.156 2286.05 138.156C2299.82 138.156 2296.17 126.42 2282.81 119.534C2269.04 112.649 2257.29 117.91 2252.03 133.294C2246.76 148.689 2267.42 150.302 2228.14 150.302C2188.85 150.302 2160.09 150.302 2113.92 141.803C2067.76 133.294 2050.75 133.294 2011.46 131.68C1972.17 130.056 1975.82 113.058 1934.91 113.058C1894.01 113.058 1907.78 97.6741 1890.76 79.041C1873.75 60.419 1865.26 65.2817 1814.22 65.2817C1763.19 65.2817 1790.33 85.5283 1800.45 89.1643C1810.57 92.4025 1838.11 100.912 1856.75 118.319C1875.38 135.327 1822.73 128.442 1800.45 130.056C1778.18 131.68 1780.2 118.319 1754.29 102.935C1728.77 87.5508 1665.59 96.0495 1629.94 94.436C1594.3 92.8114 1592.28 94.436 1578.92 68.9287C1565.15 43.4215 1536.39 57.1808 1498.73 57.1808C1461.06 57.1808 1440.82 38.5588 1422.18 26.413C1403.55 14.6761 1374.4 12.6426 1333.48 6.16632C1292.58 -0.70781 1314.86 31.6736 1330.25 33.2982C1330.25 33.2982 1347.25 40.1834 1364.26 41.7969C1381.28 43.4215 1417.32 45.035 1435.95 67.3041C1454.59 89.5732 1378.03 81.0745 1344.02 99.6966C1310 118.319 1282.46 109.82 1258.96 119.943C1235.07 130.056 1270.71 147.064 1279.62 169.333C1288.13 191.602 1279.62 191.602 1264.23 196.454C1248.84 201.726 1269.49 172.571 1262.61 164.073C1255.72 155.563 1230.22 111.433 1209.96 97.6741C1189.3 83.9037 1192.95 109.411 1196.19 128.442C1199.43 147.064 1204.7 147.064 1209.96 160.834C1215.23 174.594 1187.69 160.834 1174.32 150.711C1160.55 140.588 1116.41 164.47 1095.75 153.949C1075.5 143.826 1102.64 147.064 1102.64 136.941C1102.64 126.817 1078.74 135.327 1071.86 119.943C1064.97 104.548 1114.38 85.9262 1145.16 80.6656C1175.94 75.405 1172.29 75.405 1172.29 60.419C1172.29 45.035 1117.62 50.2956 1071.86 72.1669C1025.68 94.436 1037.84 109.82 1030.95 124.795C1024.07 140.179 1046.34 141.803 1056.46 150.302C1066.6 158.801 1044.73 162.039 1024.07 168.924C1003.81 175.809 998.551 168.924 974.658 177.434C950.764 185.933 964.534 196.056 943.879 204.555C923.621 213.054 925.246 213.054 908.237 219.939C891.229 226.824 911.475 194.431 935.369 190.784C959.263 187.546 952.378 173.787 945.492 168.526C938.607 163.255 894.467 149.893 846.679 136.134C798.881 122.364 722.337 141.395 696.83 153.131C671.312 164.879 672.936 173.787 669.687 190.784C666.449 207.793 608.129 233.3 579.373 248.684C550.218 264.068 576.135 284.315 584.644 298.074C593.143 311.844 611.776 304.959 635.67 298.074C659.564 291.2 655.917 320.343 659.564 330.466C662.802 340.59 676.572 342.214 698.852 332.091C721.121 321.968 715.861 298.074 715.861 284.315C715.861 270.544 710.6 263.67 725.984 245.037C741.379 226.415 755.15 214.269 768.511 205.77C782.281 197.272 780.259 212.656 760.001 229.653C739.755 246.662 753.116 251.922 763.25 272.169C773.374 292.813 794.029 272.169 819.537 268.931C845.055 265.693 797.267 291.2 778.634 291.2C760.001 291.2 778.634 311.435 766.886 311.435C755.15 311.435 753.116 319.945 751.502 340.59C749.878 361.234 742.993 355.974 729.222 361.234C715.452 366.506 695.205 368.119 672.936 362.859C650.656 357.598 652.678 337.352 637.295 323.581C621.9 309.822 618.661 330.466 618.661 338.976C618.661 347.475 603.266 366.097 596.381 366.097C589.496 366.097 569.249 386.741 557.104 403.75C545.356 420.759 536.846 410.635 533.21 403.75C529.961 396.865 541.709 386.741 534.823 369.744C527.938 352.736 500.806 338.976 509.316 299.699C517.815 260.432 499.182 281.077 471.641 284.315C444.509 287.553 436.011 299.699 433.977 309.822C432.363 319.945 416.969 340.59 399.96 359.212C382.951 377.834 394.699 393.218 403.198 413.873C411.708 434.518 433.977 406.988 440.862 389.98C447.747 372.982 456.257 364.472 466.381 372.982C476.504 381.481 450.986 396.865 447.747 417.111C444.509 437.756 454.633 435.734 478.526 428.848C502.431 421.974 490.274 417.111 509.316 425.61C527.938 434.12 492.297 440.994 470.028 442.619C447.747 444.232 456.257 459.616 475.288 473.387C493.921 487.157 485.411 507.393 473.675 509.017C461.927 510.631 439.647 514.278 405.629 520.754C371.612 527.639 402.391 554.76 395.506 570.155C388.621 585.539 386.996 619.545 402.391 621.158C417.786 622.783 417.775 648.29 409.277 656.789C400.767 665.299 399.153 673.797 378.498 689.181C357.842 704.565 373.226 718.336 366.75 738.571C359.865 758.818 342.856 747.081 322.609 769.35C302.352 791.608 293.444 808.617 278.458 834.124C263.074 859.631 261.449 861.245 280.083 892.024C298.716 922.792 280.083 931.29 264.688 958.422C249.304 985.543 269.959 987.565 276.436 1011.05C283.321 1034.93 297.091 1029.67 301.954 1053.57C307.214 1077.45 313.691 1084.33 337.595 1101.33C361.489 1118.34 385.383 1142.22 397.131 1136.96C408.868 1131.7 427.91 1118.34 467.187 1119.96C506.476 1121.58 492.706 1102.96 533.608 1096.07C574.521 1089.19 552.241 1101.33 557.501 1113.08C562.773 1125.22 584.644 1136.96 615.423 1138.59C646.202 1140.2 620.684 1177.85 618.661 1201.75C617.037 1225.63 618.661 1225.63 634.056 1245.88C649.44 1266.12 669.687 1312.27 674.959 1336.16C680.219 1360.05 669.687 1387.17 656.326 1409.44C642.555 1431.71 647.816 1482.72 676.572 1520.38C705.738 1558.03 688.32 1556 688.32 1595.27C688.32 1634.54 708.976 1627.67 723.962 1649.94C739.346 1672.19 732.46 1713.1 746.231 1734.96C760.001 1757.23 783.906 1736.57 811.038 1726.45C838.17 1716.33 850.326 1719.57 882.719 1695.68C915.122 1671.8 940.641 1624.02 940.641 1610.66C940.641 1596.9 950.764 1592.04 967.773 1585.15C984.781 1578.27 981.543 1534.14 979.52 1521.99C977.896 1510.25 982.759 1499.72 989.644 1492.85C996.529 1485.96 1039.06 1445.07 1054.44 1428.06C1069.83 1411.05 1056.06 1387.17 1052.83 1360.05C1049.58 1332.92 1039.06 1322.4 1039.06 1290.01C1039.06 1257.61 1028.92 1260.85 1085.22 1208.22C1141.52 1155.58 1194.17 1071.78 1199.43 1053.16C1204.7 1034.53 1202.68 1019.15 1199.43 1005.38C1196.19 991.621 1122.88 1019.15 1105.87 1019.15C1088.87 1019.15 1058.09 981.498 1054.85 968.137C1051.61 954.366 1025.68 941.005 1003.81 920.36C981.543 900.114 998.551 870.97 981.543 848.701C964.534 826.432 956.025 794.04 952.378 775.418C949.139 756.796 977.896 789.188 1000.18 814.695C1022.45 840.191 1051.2 887.968 1059.71 904.976C1068.21 921.985 1075.1 947.481 1076.72 968.137C1078.33 988.383 1092.1 992.019 1112.36 990.406C1132.61 988.781 1204.29 951.128 1229.81 939.391C1255.33 927.643 1286.1 891.615 1297.84 857.609C1309.59 823.592 1272.33 828.455 1255.33 811.446C1238.32 794.449 1238.32 811.446 1217.66 816.718C1197.4 821.978 1179.99 794.449 1147.59 764.079C1115.19 733.311 1135.85 743.843 1142.32 736.958C1148.81 730.073 1181.61 752.342 1200.24 774.611C1218.88 796.88 1222.51 788.37 1244.38 788.37C1266.66 788.37 1271.53 798.493 1300.68 806.992C1329.85 815.502 1344.82 803.754 1369.94 806.185C1394.64 808.617 1391 820.763 1408.41 847.894C1425.42 875.015 1418.54 866.516 1456.2 870.152C1493.86 873.391 1466.32 870.152 1466.32 894.046C1466.32 917.929 1469.56 926.439 1491.84 955.582C1514.12 984.736 1522.62 1038.99 1529.51 1066.52C1536.39 1093.64 1550.16 1066.52 1572.03 1066.52C1594.3 1066.52 1573.66 1085.14 1590.67 1112.67C1607.67 1139.8 1619.82 1104.17 1619.82 1094.05C1619.82 1083.92 1609.7 1058.42 1599.57 1049.92C1589.45 1041.42 1575.68 1043.03 1587.42 1029.67C1599.57 1015.91 1589.04 1002.55 1589.04 983.52C1589.04 964.898 1590.67 951.128 1599.17 942.629C1607.67 934.131 1638.45 903.352 1657.09 881.094C1675.71 858.824 1691.1 855.586 1716.62 857.2C1742.13 858.824 1721.88 862.46 1737.28 882.707C1752.66 903.352 1755.9 932.097 1772.91 952.753C1789.93 973.397 1791.54 949.514 1805.31 942.629C1819.08 935.744 1810.57 962.876 1820.71 983.52C1830.83 1004.16 1823.95 1031.3 1823.95 1049.92C1823.95 1068.54 1846.21 1087.57 1859.59 1104.58C1873.36 1121.58 1868.09 1130.08 1859.59 1136.96C1851.08 1143.85 1834.07 1119.96 1820.3 1106.19C1806.53 1092.42 1786.28 1100.93 1800.05 1116.32C1813.82 1131.7 1822.32 1158.82 1837.72 1187.98C1853.1 1217.13 1885.5 1251.14 1907.78 1281.51C1930.05 1312.27 2001.34 1325.64 2028.88 1325.64C2053.17 1324.42 2107.85 1348.3 2134.98 1351.54ZM951.98 690.397C941.856 710.644 936.585 724.403 921.201 719.551C905.806 714.28 854.78 716.302 829.262 707.803C803.744 699.305 766.08 683.921 759.194 702.543C752.309 721.165 776.203 736.549 733.676 721.165C691.16 705.781 644.987 687.159 640.124 673.389C634.863 659.629 657.132 622.374 626.353 622.374C595.575 622.374 553.048 620.761 539.277 630.884C525.507 641.007 472.857 660.027 455.848 654.766C440.464 650.313 416.571 644.643 444.1 632.497C471.243 620.761 503.636 627.237 507.283 610.228C510.521 593.231 483.389 589.993 510.521 574.609C537.664 559.214 527.54 545.454 546.162 536.956C564.796 528.446 590.314 530.071 604.084 525.208C617.855 519.947 598.813 515.084 626.353 530.468C653.496 545.863 670.505 574.609 684.275 576.631C698.046 578.245 706.544 588.368 698.046 595.253C689.536 602.138 675.765 606.99 670.903 606.99C665.642 606.99 662.404 620.761 667.665 622.374C672.936 623.999 684.673 646.268 693.183 639.383C701.682 632.497 693.183 622.374 708.567 617.113C723.962 611.853 739.346 605.377 732.471 594.844C725.586 584.721 718.701 572.575 732.471 579.46C746.231 586.346 757.979 582.699 742.595 567.724C727.2 552.34 721.939 552.34 703.306 538.569C684.673 524.81 664.017 517.925 664.017 507.801C664.017 497.678 652.281 478.647 670.903 485.532C689.536 492.418 754.332 528.048 754.332 541.807C754.332 555.578 771.351 579.46 755.956 591.208C740.561 602.945 771.351 606.592 778.236 613.466C785.122 620.352 781.475 638.974 800.506 635.736C819.139 632.497 832.909 634.122 822.786 615.091C812.651 596.469 795.643 587.959 812.651 581.085C829.671 574.2 833.307 565.701 838.17 594.844C843.441 623.999 836.556 634.122 877.458 635.736C918.361 637.36 945.492 625.612 950.764 637.36C955.218 649.506 962.103 670.15 951.98 690.397ZM1018.4 562.861C991.257 561.247 945.094 552.738 922.814 552.738C900.545 552.738 892.035 555.976 892.035 555.976C873.402 552.738 828.853 564.485 851.133 535.331C873.402 506.177 859.632 468.933 886.775 479.056C913.907 489.179 915.929 528.446 932.938 504.563C949.957 480.67 968.579 453.549 973.851 472.171C979.112 490.793 949.946 506.177 985.588 521.561C1021.64 537.354 1045.53 564.485 1018.4 562.861ZM1182.02 625.612C1156.5 625.612 1125.72 620.352 1125.72 606.99V574.609C1111.95 542.216 1094.94 535.331 1094.94 513.062C1094.94 490.793 1108.71 472.171 1135.85 472.171C1162.98 472.171 1176.75 468.933 1156.09 492.418C1135.85 516.3 1116.82 517.925 1144.36 555.578C1171.9 593.231 1207.53 625.612 1182.02 625.612Z" fill="#DFE4EE"/>
<path d="M2486.93 1510.65C2469.52 1466.52 2469.52 1432.11 2460.2 1413.09C2450.48 1394.06 2458.18 1370.98 2429.42 1370.98C2417.68 1370.98 2418.09 1378.67 2408.36 1403.36C2398.65 1428.06 2410.38 1474.22 2385.27 1468.56C2360.57 1462.89 2348.82 1451.14 2343.15 1426.45C2337.49 1401.75 2350.85 1378.67 2331.82 1378.67C2312.78 1378.67 2258.92 1365.31 2245.55 1386.37C2232.19 1407.42 2249.19 1415.11 2220.85 1415.11C2192.09 1415.11 2180.75 1415.11 2165.36 1434.14C2149.97 1453.16 2128.91 1507.02 2046.69 1510.66C1964.48 1514.3 2006.6 1558.43 2006.6 1606.21C2006.6 1653.98 1962.46 1682.73 1981.9 1700.13C2000.93 1717.55 1976.23 1740.22 2016.32 1726.86C2056.42 1713.5 2092.87 1709.45 2156.05 1700.13C2219.22 1690.42 2247.98 1686.77 2250 1717.55C2252.03 1748.32 2242.31 1727.27 2267.42 1732.94C2292.53 1738.59 2265.4 1779.09 2294.15 1782.73C2322.91 1786.37 2305.49 1807.42 2330.6 1807.42C2355.3 1807.42 2365.03 1834.15 2343.96 1834.15C2322.91 1834.15 2292.13 1878.28 2322.91 1862.89C2353.69 1847.51 2384.06 1843.86 2384.06 1820.79C2384.06 1797.71 2380.41 1796.1 2416.46 1767.34C2452.91 1738.59 2537.16 1669.78 2531.49 1614.31C2525.41 1558.84 2504.34 1554.79 2486.93 1510.66V1510.65Z" fill="#DFE4EE"/>
<mask id="mask0_188_2" style="mask-type:luminance" maskUnits="userSpaceOnUse" x="2532" y="1736" width="218" height="185">
<path d="M2532.22 1736.22H2749.81V1920.12H2532.22V1736.22Z" fill="white"/>
</mask>
<g mask="url(#mask0_188_2)">
<path d="M2738.03 1740.63C2722.63 1732.94 2722.63 1746.3 2713.33 1775.05C2703.6 1803.79 2655.82 1815.12 2648.12 1821.2C2640.42 1826.87 2625.04 1844.27 2625.04 1844.27C2588.59 1867.35 2517.71 1890.43 2535.12 1909.46C2552.54 1928.49 2563.88 1917.15 2606 1896.09C2648.12 1875.04 2659.46 1848.32 2682.55 1832.93C2705.63 1817.55 2719 1819.57 2736.01 1800.54C2753.42 1780.7 2753.42 1748.32 2738.03 1740.63Z" fill="#DFE4EE"/>
</g>
<path d="M355.404 182.696C304.378 189.581 256.58 172.572 265.089 199.693C273.588 226.825 275.213 267.716 302.753 259.217C349.734 244.64 401.577 236.948 389.83 215.088C377.275 192.819 406.429 175.81 355.404 182.696Z" fill="#DFE4EE"/>
<line x1="1228.56" y1="832.502" x2="504.387" y2="373.764" stroke="#BFDEFF" stroke-width="2.88515"/>
<line x1="1228.91" y1="832.663" x2="426.838" y2="587.425" stroke="#BFDEFF" stroke-width="2.88515"/>
<line x1="1229.17" y1="832.717" x2="871.411" y2="792.325" stroke="#BFDEFF" stroke-width="2.88515"/>
<line x1="1233.07" y1="833.008" x2="1590.83" y2="1098.44" stroke="#BFDEFF" stroke-width="2.88515"/>
<g filter="url(#filter0_d_188_2)">
<circle cx="1229.32" cy="831.283" r="20.196" fill="#4685FF"/>
</g>
<g filter="url(#filter1_d_188_2)">
<circle cx="871.574" cy="790.89" r="20.196" fill="#4685FF"/>
</g>
<g filter="url(#filter2_d_188_2)">
<circle cx="427.26" cy="586.045" r="20.196" fill="#4685FF"/>
</g>
<g filter="url(#filter3_d_188_2)">
<circle cx="505.158" cy="372.545" r="20.196" fill="#4685FF"/>
</g>
<g filter="url(#filter4_d_188_2)">
<circle cx="1589.97" cy="1099.6" r="20.196" fill="#4685FF"/>
</g>
<path d="M1167.15 761.221H1154.35V717.507H1167.92C1172.09 717.507 1175.66 718.375 1178.61 720.111C1181.59 721.847 1183.87 724.337 1185.45 727.581C1187.02 730.826 1187.81 734.718 1187.81 739.257C1187.81 743.839 1187 747.774 1185.38 751.061C1183.77 754.333 1181.43 756.845 1178.34 758.595C1175.26 760.346 1171.54 761.221 1167.15 761.221ZM1158.34 757.635H1166.92C1170.67 757.635 1173.82 756.895 1176.35 755.415C1178.89 753.935 1180.78 751.822 1182.05 749.076C1183.32 746.329 1183.95 743.056 1183.95 739.257C1183.94 735.486 1183.31 732.242 1182.07 729.524C1180.85 726.806 1179.03 724.721 1176.61 723.27C1174.2 721.818 1171.23 721.093 1167.69 721.093H1158.34V757.635ZM1214.24 748.691V728.435H1218.04V761.221H1214.24V755.778H1213.95C1213.18 757.457 1211.96 758.859 1210.3 759.983C1208.63 761.093 1206.6 761.648 1204.19 761.648C1202.1 761.648 1200.24 761.192 1198.62 760.282C1197 759.357 1195.72 758.005 1194.8 756.226C1193.87 754.447 1193.41 752.263 1193.41 749.673V728.435H1197.21V749.438C1197.21 752 1197.97 754.063 1199.47 755.628C1200.98 757.179 1202.92 757.955 1205.28 757.955C1206.76 757.955 1208.18 757.599 1209.55 756.888C1210.91 756.176 1212.04 755.137 1212.92 753.771C1213.8 752.391 1214.24 750.698 1214.24 748.691ZM1225.61 761.221V717.507H1229.43V734.689H1229.77C1230.19 733.707 1230.81 732.697 1231.6 731.658C1232.41 730.619 1233.47 729.751 1234.78 729.054C1236.11 728.343 1237.77 727.987 1239.78 727.987C1242.47 727.987 1244.83 728.698 1246.86 730.121C1248.9 731.53 1250.49 733.508 1251.62 736.055C1252.76 738.588 1253.33 741.541 1253.33 744.913C1253.33 748.3 1252.76 751.267 1251.62 753.814C1250.5 756.361 1248.92 758.346 1246.89 759.769C1244.87 761.192 1242.52 761.904 1239.84 761.904C1237.85 761.904 1236.19 761.548 1234.85 760.836C1233.52 760.125 1232.46 759.25 1231.65 758.211C1230.83 757.158 1230.21 756.134 1229.77 755.137H1229.3V761.221H1225.61ZM1229.36 744.849C1229.36 747.496 1229.75 749.844 1230.54 751.893C1231.33 753.928 1232.47 755.529 1233.95 756.696C1235.45 757.848 1237.25 758.425 1239.37 758.425C1241.55 758.425 1243.39 757.827 1244.9 756.632C1246.41 755.422 1247.55 753.793 1248.34 751.744C1249.12 749.695 1249.51 747.396 1249.51 744.849C1249.51 742.331 1249.12 740.061 1248.34 738.04C1247.57 736.02 1246.43 734.419 1244.92 733.238C1243.41 732.042 1241.56 731.445 1239.37 731.445C1237.24 731.445 1235.42 732.021 1233.93 733.174C1232.45 734.312 1231.32 735.892 1230.54 737.912C1229.75 739.919 1229.36 742.231 1229.36 744.849ZM1267.55 761.968C1265.57 761.968 1263.76 761.584 1262.13 760.815C1260.49 760.033 1259.19 758.908 1258.22 757.443C1257.25 755.963 1256.77 754.17 1256.77 752.064C1256.77 750.442 1257.07 749.076 1257.69 747.966C1258.3 746.856 1259.17 745.945 1260.29 745.233C1261.41 744.522 1262.75 743.96 1264.28 743.547C1265.82 743.135 1267.51 742.814 1269.36 742.587C1271.2 742.359 1272.75 742.16 1274.02 741.989C1275.3 741.818 1276.27 741.548 1276.94 741.178C1277.61 740.808 1277.94 740.21 1277.94 739.385V738.617C1277.94 736.383 1277.27 734.625 1275.94 733.344C1274.61 732.05 1272.71 731.402 1270.22 731.402C1267.85 731.402 1265.93 731.921 1264.43 732.96C1262.95 733.999 1261.91 735.223 1261.32 736.632L1257.71 735.33C1258.45 733.537 1259.47 732.106 1260.78 731.039C1262.09 729.958 1263.56 729.182 1265.18 728.713C1266.8 728.229 1268.44 727.987 1270.11 727.987C1271.36 727.987 1272.66 728.151 1274.02 728.478C1275.38 728.805 1276.65 729.374 1277.81 730.185C1278.98 730.982 1279.93 732.099 1280.65 733.537C1281.38 734.96 1281.74 736.767 1281.74 738.958V761.221H1277.94V756.034H1277.71C1277.25 757.002 1276.58 757.941 1275.68 758.851C1274.78 759.762 1273.66 760.509 1272.31 761.093C1270.96 761.676 1269.37 761.968 1267.55 761.968ZM1268.06 758.489C1270.08 758.489 1271.83 758.04 1273.31 757.144C1274.79 756.247 1275.93 755.059 1276.73 753.579C1277.54 752.085 1277.94 750.442 1277.94 748.649V743.91C1277.66 744.18 1277.18 744.422 1276.51 744.636C1275.86 744.849 1275.1 745.041 1274.23 745.212C1273.37 745.369 1272.52 745.504 1271.67 745.618C1270.81 745.732 1270.05 745.831 1269.36 745.917C1267.51 746.144 1265.93 746.5 1264.62 746.984C1263.31 747.468 1262.31 748.136 1261.61 748.99C1260.92 749.83 1260.57 750.911 1260.57 752.235C1260.57 754.227 1261.28 755.771 1262.7 756.866C1264.13 757.948 1265.91 758.489 1268.06 758.489ZM1288.6 761.221V728.435H1292.43V761.221H1288.6ZM1290.55 722.8C1289.76 722.8 1289.1 722.537 1288.54 722.01C1287.99 721.47 1287.71 720.822 1287.71 720.068C1287.71 719.314 1287.99 718.673 1288.54 718.147C1289.1 717.606 1289.76 717.336 1290.55 717.336C1291.33 717.336 1292 717.606 1292.55 718.147C1293.11 718.673 1293.39 719.314 1293.39 720.068C1293.39 720.822 1293.11 721.47 1292.55 722.01C1292 722.537 1291.33 722.8 1290.55 722.8Z" fill="#424242"/>
<path d="M1532.96 1172.75C1532.72 1170.31 1531.64 1168.38 1529.74 1166.94C1527.83 1165.5 1525.43 1164.79 1522.54 1164.79C1520.51 1164.79 1518.71 1165.13 1517.16 1165.83C1515.63 1166.53 1514.42 1167.5 1513.53 1168.73C1512.67 1169.96 1512.23 1171.35 1512.23 1172.92C1512.23 1174.07 1512.48 1175.08 1512.98 1175.95C1513.48 1176.82 1514.15 1177.56 1514.99 1178.19C1515.84 1178.8 1516.78 1179.33 1517.8 1179.77C1518.84 1180.21 1519.89 1180.58 1520.94 1180.88L1525.55 1182.2C1526.95 1182.59 1528.34 1183.08 1529.74 1183.68C1531.13 1184.27 1532.4 1185.03 1533.56 1185.94C1534.72 1186.84 1535.65 1187.94 1536.35 1189.25C1537.06 1190.54 1537.42 1192.1 1537.42 1193.92C1537.42 1196.26 1536.81 1198.35 1535.6 1200.22C1534.4 1202.08 1532.66 1203.56 1530.4 1204.66C1528.13 1205.74 1525.42 1206.28 1522.26 1206.28C1519.29 1206.28 1516.71 1205.79 1514.52 1204.81C1512.32 1203.81 1510.6 1202.44 1509.35 1200.69C1508.1 1198.94 1507.39 1196.91 1507.24 1194.6H1511.34C1511.48 1196.33 1512.05 1197.79 1513.04 1198.98C1514.04 1200.18 1515.33 1201.09 1516.93 1201.71C1518.52 1202.32 1520.3 1202.63 1522.26 1202.63C1524.44 1202.63 1526.38 1202.27 1528.07 1201.54C1529.78 1200.8 1531.12 1199.78 1532.08 1198.47C1533.06 1197.14 1533.56 1195.61 1533.56 1193.86C1533.56 1192.38 1533.17 1191.14 1532.4 1190.14C1531.63 1189.13 1530.56 1188.29 1529.18 1187.6C1527.81 1186.92 1526.23 1186.32 1524.42 1185.79L1519.19 1184.25C1515.76 1183.23 1513.1 1181.81 1511.21 1180C1509.32 1178.2 1508.37 1175.89 1508.37 1173.09C1508.37 1170.74 1509 1168.68 1510.25 1166.9C1511.51 1165.11 1513.22 1163.71 1515.37 1162.72C1517.53 1161.71 1519.96 1161.2 1522.65 1161.2C1525.37 1161.2 1527.77 1161.7 1529.86 1162.69C1531.95 1163.69 1533.61 1165.06 1534.84 1166.81C1536.07 1168.55 1536.74 1170.53 1536.82 1172.75H1532.96ZM1542.95 1205.53V1172.75H1546.64V1177.79H1546.92C1547.57 1176.13 1548.71 1174.8 1550.33 1173.79C1551.97 1172.77 1553.82 1172.26 1555.88 1172.26C1556.2 1172.26 1556.54 1172.26 1556.93 1172.28C1557.31 1172.29 1557.63 1172.31 1557.89 1172.32V1176.18C1557.72 1176.16 1557.42 1176.11 1556.99 1176.06C1556.57 1176 1556.1 1175.97 1555.6 1175.97C1553.9 1175.97 1552.37 1176.33 1551.04 1177.06C1549.71 1177.77 1548.67 1178.76 1547.9 1180.03C1547.13 1181.29 1546.75 1182.74 1546.75 1184.36V1205.53H1542.95ZM1561.13 1205.53V1172.75H1564.95V1205.53H1561.13ZM1563.07 1167.11C1562.29 1167.11 1561.62 1166.85 1561.06 1166.32C1560.51 1165.78 1560.23 1165.13 1560.23 1164.38C1560.23 1163.63 1560.51 1162.99 1561.06 1162.46C1561.62 1161.92 1562.29 1161.65 1563.07 1161.65C1563.85 1161.65 1564.52 1161.92 1565.08 1162.46C1565.63 1162.99 1565.91 1163.63 1565.91 1164.38C1565.91 1165.13 1565.63 1165.78 1565.08 1166.32C1564.52 1166.85 1563.85 1167.11 1563.07 1167.11ZM1586.12 1205.53V1161.82H1590.11V1201.95H1610.94V1205.53H1586.12ZM1625.01 1206.28C1623.03 1206.28 1621.22 1205.9 1619.59 1205.13C1617.95 1204.35 1616.65 1203.22 1615.68 1201.76C1614.71 1200.28 1614.23 1198.48 1614.23 1196.38C1614.23 1194.75 1614.53 1193.39 1615.15 1192.28C1615.76 1191.17 1616.63 1190.26 1617.75 1189.55C1618.87 1188.83 1620.2 1188.27 1621.74 1187.86C1623.28 1187.45 1624.97 1187.13 1626.82 1186.9C1628.66 1186.67 1630.21 1186.47 1631.47 1186.3C1632.76 1186.13 1633.73 1185.86 1634.4 1185.49C1635.07 1185.12 1635.4 1184.52 1635.4 1183.7V1182.93C1635.4 1180.7 1634.73 1178.94 1633.4 1177.66C1632.07 1176.36 1630.17 1175.71 1627.68 1175.71C1625.31 1175.71 1623.39 1176.23 1621.89 1177.27C1620.41 1178.31 1619.37 1179.54 1618.77 1180.94L1615.17 1179.64C1615.91 1177.85 1616.93 1176.42 1618.24 1175.35C1619.55 1174.27 1621.02 1173.49 1622.64 1173.03C1624.26 1172.54 1625.9 1172.3 1627.57 1172.3C1628.82 1172.3 1630.12 1172.46 1631.47 1172.79C1632.84 1173.12 1634.11 1173.69 1635.27 1174.5C1636.44 1175.29 1637.39 1176.41 1638.11 1177.85C1638.84 1179.27 1639.2 1181.08 1639.2 1183.27V1205.53H1635.4V1200.35H1635.17C1634.71 1201.31 1634.04 1202.25 1633.14 1203.16C1632.24 1204.07 1631.12 1204.82 1629.77 1205.41C1628.42 1205.99 1626.83 1206.28 1625.01 1206.28ZM1625.52 1202.8C1627.54 1202.8 1629.29 1202.35 1630.77 1201.46C1632.25 1200.56 1633.39 1199.37 1634.19 1197.89C1635 1196.4 1635.4 1194.75 1635.4 1192.96V1188.22C1635.12 1188.49 1634.64 1188.73 1633.97 1188.95C1633.32 1189.16 1632.56 1189.35 1631.69 1189.52C1630.83 1189.68 1629.98 1189.82 1629.13 1189.93C1628.27 1190.04 1627.5 1190.14 1626.82 1190.23C1624.97 1190.46 1623.39 1190.81 1622.08 1191.3C1620.77 1191.78 1619.77 1192.45 1619.07 1193.3C1618.38 1194.14 1618.03 1195.22 1618.03 1196.55C1618.03 1198.54 1618.74 1200.08 1620.16 1201.18C1621.59 1202.26 1623.37 1202.8 1625.52 1202.8ZM1649.82 1185.04V1205.53H1646.02V1172.75H1649.71V1177.89H1650.06C1650.82 1176.21 1652.02 1174.87 1653.64 1173.86C1655.28 1172.83 1657.3 1172.32 1659.7 1172.32C1661.91 1172.32 1663.84 1172.78 1665.51 1173.71C1667.19 1174.62 1668.49 1175.96 1669.42 1177.74C1670.35 1179.52 1670.82 1181.71 1670.82 1184.3V1205.53H1667.02V1184.53C1667.02 1181.84 1666.27 1179.71 1664.76 1178.15C1663.27 1176.58 1661.26 1175.8 1658.74 1175.8C1657.02 1175.8 1655.49 1176.17 1654.15 1176.91C1652.82 1177.65 1651.76 1178.72 1650.97 1180.11C1650.2 1181.49 1649.82 1183.14 1649.82 1185.04ZM1681 1193.15L1680.96 1188.18H1681.81L1697.18 1172.75H1701.98L1686.81 1187.95L1686.46 1188.01L1681 1193.15ZM1677.54 1205.53V1161.82H1681.34V1205.53H1677.54ZM1697.97 1205.53L1684.65 1188.69L1687.38 1186.07L1702.84 1205.53H1697.97ZM1714.99 1206.28C1713.01 1206.28 1711.21 1205.9 1709.57 1205.13C1707.93 1204.35 1706.63 1203.22 1705.66 1201.76C1704.7 1200.28 1704.21 1198.48 1704.21 1196.38C1704.21 1194.75 1704.52 1193.39 1705.13 1192.28C1705.74 1191.17 1706.61 1190.26 1707.73 1189.55C1708.86 1188.83 1710.19 1188.27 1711.73 1187.86C1713.26 1187.45 1714.96 1187.13 1716.81 1186.9C1718.64 1186.67 1720.19 1186.47 1721.46 1186.3C1722.74 1186.13 1723.71 1185.86 1724.38 1185.49C1725.05 1185.12 1725.39 1184.52 1725.39 1183.7V1182.93C1725.39 1180.7 1724.72 1178.94 1723.38 1177.66C1722.06 1176.36 1720.15 1175.71 1717.66 1175.71C1715.3 1175.71 1713.37 1176.23 1711.88 1177.27C1710.4 1178.31 1709.36 1179.54 1708.76 1180.94L1705.15 1179.64C1705.89 1177.85 1706.92 1176.42 1708.23 1175.35C1709.53 1174.27 1711 1173.49 1712.62 1173.03C1714.24 1172.54 1715.89 1172.3 1717.55 1172.3C1718.81 1172.3 1720.11 1172.46 1721.46 1172.79C1722.83 1173.12 1724.09 1173.69 1725.26 1174.5C1726.43 1175.29 1727.37 1176.41 1728.1 1177.85C1728.82 1179.27 1729.19 1181.08 1729.19 1183.27V1205.53H1725.39V1200.35H1725.15C1724.7 1201.31 1724.02 1202.25 1723.12 1203.16C1722.23 1204.07 1721.1 1204.82 1719.75 1205.41C1718.4 1205.99 1716.81 1206.28 1714.99 1206.28ZM1715.5 1202.8C1717.52 1202.8 1719.27 1202.35 1720.75 1201.46C1722.23 1200.56 1723.37 1199.37 1724.17 1197.89C1724.98 1196.4 1725.39 1194.75 1725.39 1192.96V1188.22C1725.1 1188.49 1724.63 1188.73 1723.96 1188.95C1723.3 1189.16 1722.54 1189.35 1721.67 1189.52C1720.82 1189.68 1719.96 1189.82 1719.11 1189.93C1718.26 1190.04 1717.49 1190.14 1716.81 1190.23C1714.96 1190.46 1713.38 1190.81 1712.07 1191.3C1710.76 1191.78 1709.76 1192.45 1709.06 1193.3C1708.36 1194.14 1708.01 1195.22 1708.01 1196.55C1708.01 1198.54 1708.72 1200.08 1710.15 1201.18C1711.57 1202.26 1713.36 1202.8 1715.5 1202.8Z" fill="#424242"/>
<path d="M802.362 905.477V861.762H827.72V865.348H806.354V881.805H826.375V885.391H806.354V901.891H828.147V905.477H802.362ZM846.482 918.454C844.248 918.454 842.291 918.162 840.612 917.579C838.933 917.01 837.517 916.227 836.365 915.231C835.212 914.235 834.316 913.118 833.675 911.88L836.792 909.831C837.261 910.656 837.887 911.467 838.67 912.264C839.467 913.061 840.498 913.723 841.765 914.249C843.046 914.776 844.618 915.039 846.482 915.039C849.385 915.039 851.726 914.313 853.504 912.862C855.297 911.41 856.194 909.155 856.194 906.096V898.71H855.852C855.411 899.706 854.778 900.702 853.953 901.699C853.127 902.68 852.046 903.499 850.708 904.153C849.385 904.808 847.741 905.135 845.778 905.135C843.159 905.135 840.833 904.488 838.798 903.193C836.777 901.898 835.184 900.048 834.017 897.643C832.864 895.224 832.288 892.342 832.288 888.998C832.288 885.683 832.85 882.766 833.974 880.247C835.112 877.728 836.699 875.765 838.734 874.356C840.769 872.947 843.138 872.243 845.842 872.243C847.848 872.243 849.513 872.599 850.836 873.31C852.16 874.007 853.22 874.875 854.017 875.914C854.828 876.953 855.461 877.963 855.916 878.945H856.301V872.691H860.015V906.33C860.015 909.105 859.424 911.389 858.243 913.182C857.062 914.975 855.454 916.298 853.419 917.152C851.384 918.02 849.072 918.454 846.482 918.454ZM846.226 901.656C848.332 901.656 850.132 901.151 851.626 900.14C853.12 899.116 854.266 897.65 855.063 895.743C855.859 893.837 856.258 891.567 856.258 888.934C856.258 886.373 855.867 884.103 855.084 882.125C854.301 880.133 853.163 878.568 851.669 877.43C850.189 876.277 848.375 875.701 846.226 875.701C844.035 875.701 842.185 876.291 840.676 877.472C839.168 878.653 838.03 880.247 837.261 882.253C836.493 884.246 836.108 886.473 836.108 888.934C836.108 891.439 836.5 893.652 837.282 895.573C838.065 897.479 839.211 898.974 840.719 900.055C842.227 901.122 844.063 901.656 846.226 901.656ZM869.433 917.771C868.679 917.771 867.974 917.7 867.32 917.558C866.665 917.415 866.146 917.259 865.762 917.088L866.786 913.737C868.081 914.135 869.234 914.278 870.244 914.164C871.254 914.064 872.151 913.609 872.934 912.798C873.716 912.001 874.413 910.777 875.025 909.127L876.221 905.797L864.161 872.691H868.28L878.014 900.461H878.312L888.046 872.691H892.165L878.291 910.663C877.708 912.243 876.989 913.559 876.135 914.612C875.281 915.679 874.292 916.469 873.168 916.981C872.058 917.508 870.813 917.771 869.433 917.771ZM896.311 917.771V872.691H900.004V878.945H900.452C900.908 877.963 901.534 876.96 902.331 875.935C903.127 874.897 904.18 874.022 905.49 873.31C906.813 872.599 908.478 872.243 910.484 872.243C913.188 872.243 915.55 872.954 917.571 874.377C919.606 875.786 921.185 877.764 922.309 880.311C923.448 882.844 924.017 885.797 924.017 889.169C924.017 892.556 923.448 895.523 922.309 898.07C921.185 900.617 919.606 902.602 917.571 904.025C915.55 905.448 913.202 906.16 910.527 906.16C908.549 906.16 906.891 905.804 905.554 905.092C904.23 904.381 903.156 903.506 902.331 902.467C901.519 901.414 900.893 900.389 900.452 899.393H900.111V917.771H896.311ZM900.068 889.105C900.068 891.752 900.459 894.1 901.242 896.149C902.039 898.184 903.177 899.785 904.657 900.951C906.151 902.104 907.958 902.68 910.079 902.68C912.256 902.68 914.092 902.083 915.586 900.887C917.094 899.678 918.24 898.049 919.022 895.999C919.819 893.95 920.218 891.652 920.218 889.105C920.218 886.586 919.826 884.317 919.044 882.296C918.275 880.276 917.137 878.675 915.628 877.494C914.12 876.298 912.27 875.701 910.079 875.701C907.944 875.701 906.13 876.277 904.636 877.43C903.142 878.568 902.003 880.147 901.221 882.168C900.452 884.174 900.068 886.487 900.068 889.105ZM941.978 872.691V875.999H926.333V872.691H941.978ZM931.221 864.836H935.041V896.917C935.041 898.283 935.276 899.358 935.746 900.14C936.215 900.909 936.827 901.457 937.581 901.784C938.336 902.097 939.14 902.254 939.993 902.254C940.491 902.254 940.918 902.225 941.274 902.168C941.63 902.097 941.943 902.026 942.213 901.955L943.024 905.391C942.654 905.533 942.199 905.662 941.658 905.775C941.118 905.903 940.449 905.967 939.652 905.967C938.257 905.967 936.913 905.662 935.618 905.05C934.337 904.438 933.284 903.527 932.459 902.318C931.633 901.108 931.221 899.607 931.221 897.814V864.836Z" fill="#424242"/>
<path d="M382.236 677.114V720.828H378.244V677.114H382.236ZM390.571 720.828V677.114H394.392V694.297H394.733C395.16 693.315 395.772 692.304 396.569 691.266C397.38 690.227 398.44 689.359 399.749 688.662C401.072 687.95 402.737 687.594 404.744 687.594C407.433 687.594 409.795 688.306 411.83 689.729C413.865 691.138 415.452 693.116 416.59 695.663C417.729 698.196 418.298 701.148 418.298 704.521C418.298 707.907 417.729 710.874 416.59 713.421C415.466 715.969 413.886 717.954 411.852 719.377C409.831 720.8 407.483 721.511 404.808 721.511C402.816 721.511 401.151 721.155 399.813 720.444C398.49 719.732 397.423 718.857 396.611 717.819C395.8 716.766 395.174 715.741 394.733 714.745H394.263V720.828H390.571ZM394.328 704.457C394.328 707.103 394.719 709.451 395.501 711.5C396.298 713.535 397.437 715.136 398.917 716.303C400.411 717.456 402.218 718.032 404.338 718.032C406.515 718.032 408.358 717.434 409.867 716.239C411.375 715.029 412.52 713.4 413.303 711.351C414.086 709.302 414.477 707.004 414.477 704.457C414.477 701.938 414.086 699.668 413.303 697.648C412.535 695.627 411.396 694.026 409.888 692.845C408.379 691.65 406.53 691.052 404.338 691.052C402.204 691.052 400.389 691.628 398.895 692.781C397.415 693.919 396.284 695.499 395.501 697.52C394.719 699.526 394.328 701.838 394.328 704.457ZM436.611 721.511C433.552 721.511 430.905 720.8 428.671 719.377C426.437 717.939 424.708 715.954 423.484 713.421C422.275 710.874 421.67 707.943 421.67 704.627C421.67 701.326 422.275 698.395 423.484 695.833C424.708 693.258 426.394 691.244 428.543 689.793C430.706 688.327 433.203 687.594 436.035 687.594C437.814 687.594 439.529 687.922 441.179 688.576C442.83 689.217 444.31 690.206 445.619 691.543C446.942 692.866 447.988 694.538 448.757 696.559C449.525 698.566 449.909 700.942 449.909 703.688V705.567H424.296V702.215H446.025C446.025 700.109 445.598 698.217 444.744 696.538C443.904 694.844 442.73 693.507 441.222 692.525C439.728 691.543 437.999 691.052 436.035 691.052C433.958 691.052 432.129 691.607 430.55 692.717C428.97 693.827 427.732 695.293 426.836 697.114C425.953 698.936 425.505 700.928 425.491 703.091V705.097C425.491 707.701 425.939 709.978 426.836 711.927C427.746 713.863 429.034 715.364 430.699 716.431C432.364 717.498 434.335 718.032 436.611 718.032C438.163 718.032 439.521 717.79 440.688 717.306C441.869 716.822 442.858 716.175 443.655 715.364C444.466 714.539 445.078 713.635 445.491 712.653L449.098 713.827C448.6 715.207 447.782 716.481 446.644 717.648C445.519 718.815 444.111 719.754 442.417 720.465C440.738 721.163 438.803 721.511 436.611 721.511ZM454.995 720.828V688.043H458.687V693.08H458.965C459.619 691.429 460.758 690.099 462.38 689.088C464.016 688.064 465.866 687.552 467.93 687.552C468.243 687.552 468.591 687.559 468.975 687.573C469.36 687.587 469.68 687.601 469.936 687.616V691.479C469.765 691.451 469.466 691.408 469.04 691.351C468.613 691.294 468.15 691.266 467.652 691.266C465.945 691.266 464.422 691.628 463.084 692.354C461.761 693.066 460.715 694.055 459.947 695.321C459.178 696.588 458.794 698.032 458.794 699.654V720.828H454.995ZM473.175 720.828V688.043H476.996V720.828H473.175ZM475.117 682.408C474.335 682.408 473.666 682.144 473.111 681.618C472.556 681.077 472.279 680.43 472.279 679.675C472.279 678.921 472.556 678.281 473.111 677.754C473.666 677.214 474.335 676.943 475.117 676.943C475.9 676.943 476.569 677.214 477.124 677.754C477.679 678.281 477.956 678.921 477.956 679.675C477.956 680.43 477.679 681.077 477.124 681.618C476.569 682.144 475.9 682.408 475.117 682.408ZM492.914 721.575C490.936 721.575 489.128 721.191 487.492 720.423C485.856 719.64 484.554 718.516 483.586 717.05C482.618 715.57 482.135 713.777 482.135 711.671C482.135 710.049 482.44 708.683 483.052 707.573C483.664 706.463 484.532 705.552 485.656 704.841C486.781 704.129 488.111 703.567 489.648 703.155C491.185 702.742 492.878 702.422 494.728 702.194C496.564 701.966 498.115 701.767 499.381 701.596C500.662 701.426 501.637 701.155 502.305 700.785C502.974 700.415 503.309 699.818 503.309 698.992V698.224C503.309 695.99 502.64 694.233 501.302 692.952C499.979 691.657 498.072 691.009 495.582 691.009C493.22 691.009 491.291 691.529 489.797 692.568C488.317 693.606 487.279 694.83 486.681 696.239L483.074 694.937C483.814 693.144 484.838 691.714 486.147 690.647C487.456 689.565 488.922 688.79 490.544 688.32C492.167 687.836 493.81 687.594 495.475 687.594C496.727 687.594 498.029 687.758 499.381 688.085C500.747 688.413 502.014 688.982 503.18 689.793C504.347 690.59 505.294 691.707 506.019 693.144C506.745 694.567 507.108 696.374 507.108 698.566V720.828H503.309V715.641H503.074C502.618 716.609 501.942 717.548 501.046 718.459C500.15 719.37 499.025 720.117 497.674 720.7C496.322 721.283 494.735 721.575 492.914 721.575ZM493.426 718.096C495.447 718.096 497.197 717.648 498.677 716.751C500.157 715.855 501.295 714.667 502.092 713.187C502.903 711.693 503.309 710.049 503.309 708.256V703.518C503.024 703.788 502.547 704.03 501.878 704.243C501.224 704.457 500.463 704.649 499.595 704.82C498.741 704.976 497.887 705.111 497.033 705.225C496.179 705.339 495.411 705.439 494.728 705.524C492.878 705.752 491.299 706.107 489.989 706.591C488.68 707.075 487.677 707.744 486.98 708.598C486.283 709.437 485.934 710.519 485.934 711.842C485.934 713.834 486.645 715.378 488.068 716.474C489.491 717.555 491.277 718.096 493.426 718.096Z" fill="#424242"/>
<path d="M35.1992 339.552H39.1907V368.495C39.1907 371.469 38.4934 374.13 37.0989 376.478C35.7043 378.812 33.762 380.654 31.2718 382.006C28.7958 383.344 25.9142 384.013 22.6271 384.013C19.3543 384.013 16.4727 383.337 13.9825 381.985C11.4923 380.633 9.5499 378.79 8.15537 376.457C6.76085 374.123 6.06359 371.469 6.06359 368.495V339.552H10.0551V368.218C10.0551 370.537 10.5744 372.607 11.6132 374.429C12.652 376.236 14.1106 377.659 15.9889 378.698C17.8815 379.737 20.0942 380.256 22.6271 380.256C25.16 380.256 27.3728 379.737 29.2653 378.698C31.1579 377.659 32.6165 376.236 33.641 374.429C34.6798 372.607 35.1992 370.537 35.1992 368.218V339.552ZM47.5044 383.266V339.552H51.4959V363.095H51.8801L73.2249 339.552H78.4757L59.799 359.765L78.3903 383.266H73.5237L57.323 362.54L51.4959 369.071V383.266H47.5044ZM107.248 383.863C104.559 383.863 102.211 383.344 100.205 382.305C98.1982 381.252 96.6401 379.822 95.5302 378.015C94.4202 376.208 93.8653 374.166 93.8653 371.889C93.8653 370.238 94.1997 368.751 94.8685 367.428C95.5515 366.09 96.5334 364.824 97.814 363.628C99.0947 362.419 100.646 361.167 102.467 359.872L108.807 355.155C110.315 354.073 111.46 353.013 112.243 351.974C113.04 350.921 113.438 349.633 113.438 348.111C113.438 346.645 112.883 345.336 111.774 344.183C110.678 343.017 109.255 342.433 107.505 342.433C106.281 342.433 105.185 342.739 104.217 343.351C103.264 343.963 102.503 344.76 101.934 345.742C101.379 346.709 101.101 347.727 101.101 348.794C101.101 349.79 101.357 350.793 101.87 351.803C102.382 352.8 103.072 353.853 103.94 354.962C104.808 356.058 105.776 357.268 106.843 358.591L126.822 383.266H122.211L104.794 361.9C103.328 360.107 102.026 358.506 100.888 357.097C99.7493 355.674 98.8528 354.308 98.1982 352.999C97.5437 351.675 97.2164 350.26 97.2164 348.751C97.2164 346.887 97.6504 345.229 98.5184 343.778C99.3864 342.312 100.582 341.16 102.104 340.32C103.641 339.48 105.399 339.061 107.376 339.061C109.397 339.061 111.147 339.473 112.627 340.299C114.121 341.124 115.274 342.22 116.085 343.586C116.91 344.952 117.323 346.46 117.323 348.111C117.323 350.089 116.811 351.839 115.786 353.362C114.776 354.884 113.303 356.378 111.368 357.844L103.428 363.778C101.251 365.414 99.7564 366.93 98.9453 368.324C98.1342 369.719 97.7287 370.907 97.7287 371.889C97.7287 373.426 98.1271 374.842 98.924 376.136C99.7208 377.431 100.824 378.47 102.232 379.253C103.655 380.035 105.285 380.434 107.12 380.448C108.942 380.434 110.656 380.071 112.264 379.36C113.872 378.634 115.31 377.602 116.576 376.265C117.857 374.927 118.881 373.326 119.65 371.462C120.432 369.598 120.888 367.52 121.016 365.229L124.708 365.272C124.652 367.62 124.331 369.612 123.748 371.249C123.179 372.871 122.524 374.208 121.784 375.261C121.044 376.314 120.397 377.161 119.842 377.801C119.685 378.015 119.529 378.228 119.372 378.442C119.216 378.655 119.052 378.869 118.881 379.082C117.458 380.647 115.687 381.836 113.566 382.647C111.46 383.458 109.354 383.863 107.248 383.863ZM147.996 339.552V383.266H144.004V339.552H147.996ZM155.541 383.266V350.48H159.234V355.517H159.511C160.166 353.867 161.304 352.536 162.926 351.526C164.563 350.501 166.413 349.989 168.476 349.989C168.789 349.989 169.138 349.996 169.522 350.01C169.906 350.025 170.226 350.039 170.482 350.053V353.917C170.312 353.888 170.013 353.845 169.586 353.789C169.159 353.732 168.696 353.703 168.198 353.703C166.491 353.703 164.968 354.066 163.631 354.792C162.307 355.503 161.261 356.492 160.493 357.759C159.725 359.025 159.34 360.469 159.34 362.092V383.266H155.541ZM185.936 383.949C182.876 383.949 180.23 383.237 177.996 381.814C175.762 380.377 174.033 378.392 172.809 375.859C171.599 373.312 170.995 370.381 170.995 367.065C170.995 363.764 171.599 360.832 172.809 358.271C174.033 355.695 175.719 353.682 177.868 352.23C180.03 350.765 182.528 350.032 185.36 350.032C187.138 350.032 188.853 350.359 190.504 351.014C192.154 351.654 193.634 352.643 194.943 353.981C196.267 355.304 197.313 356.976 198.081 358.997C198.849 361.003 199.234 363.379 199.234 366.126V368.004H173.62V364.653H195.349C195.349 362.547 194.922 360.654 194.068 358.975C193.229 357.282 192.055 355.944 190.546 354.962C189.052 353.981 187.323 353.49 185.36 353.49C183.282 353.49 181.453 354.045 179.874 355.155C178.294 356.265 177.056 357.73 176.16 359.552C175.278 361.373 174.829 363.365 174.815 365.528V367.535C174.815 370.139 175.263 372.415 176.16 374.365C177.071 376.3 178.358 377.801 180.023 378.869C181.688 379.936 183.659 380.469 185.936 380.469C187.487 380.469 188.846 380.228 190.013 379.744C191.194 379.26 192.183 378.612 192.98 377.801C193.791 376.976 194.403 376.072 194.815 375.091L198.423 376.265C197.925 377.645 197.106 378.918 195.968 380.085C194.844 381.252 193.435 382.191 191.742 382.903C190.063 383.6 188.127 383.949 185.936 383.949ZM208.118 339.552V383.266H204.319V339.552H208.118ZM224.042 384.013C222.064 384.013 220.256 383.628 218.62 382.86C216.984 382.077 215.682 380.953 214.714 379.488C213.746 378.008 213.263 376.215 213.263 374.109C213.263 372.487 213.568 371.12 214.18 370.011C214.792 368.901 215.66 367.99 216.784 367.278C217.909 366.567 219.239 366.005 220.776 365.592C222.313 365.179 224.006 364.859 225.856 364.632C227.692 364.404 229.243 364.205 230.509 364.034C231.79 363.863 232.765 363.593 233.433 363.223C234.102 362.853 234.437 362.255 234.437 361.43V360.662C234.437 358.427 233.768 356.67 232.43 355.389C231.107 354.094 229.2 353.447 226.71 353.447C224.348 353.447 222.419 353.966 220.925 355.005C219.445 356.044 218.407 357.268 217.809 358.676L214.202 357.374C214.942 355.581 215.966 354.151 217.275 353.084C218.584 352.003 220.05 351.227 221.672 350.758C223.295 350.274 224.938 350.032 226.603 350.032C227.855 350.032 229.157 350.195 230.509 350.523C231.875 350.85 233.142 351.419 234.308 352.23C235.475 353.027 236.422 354.144 237.147 355.581C237.873 357.004 238.236 358.812 238.236 361.003V383.266H234.437V378.079H234.202C233.746 379.046 233.07 379.986 232.174 380.896C231.277 381.807 230.153 382.554 228.802 383.138C227.45 383.721 225.863 384.013 224.042 384.013ZM224.554 380.533C226.575 380.533 228.325 380.085 229.805 379.189C231.285 378.292 232.423 377.104 233.22 375.624C234.031 374.13 234.437 372.487 234.437 370.694V365.955C234.152 366.225 233.675 366.467 233.006 366.681C232.352 366.894 231.591 367.086 230.723 367.257C229.869 367.414 229.015 367.549 228.161 367.663C227.307 367.776 226.539 367.876 225.856 367.961C224.006 368.189 222.427 368.545 221.117 369.029C219.808 369.512 218.805 370.181 218.108 371.035C217.411 371.875 217.062 372.956 217.062 374.279C217.062 376.272 217.773 377.816 219.196 378.911C220.619 379.993 222.405 380.533 224.554 380.533ZM248.855 362.775V383.266H245.056V350.48H248.748V355.624H249.09C249.858 353.945 251.053 352.6 252.676 351.59C254.312 350.565 256.333 350.053 258.738 350.053C260.943 350.053 262.878 350.516 264.543 351.441C266.222 352.351 267.524 353.696 268.449 355.475C269.389 357.253 269.858 359.438 269.858 362.028V383.266H266.059V362.262C266.059 359.573 265.305 357.446 263.796 355.88C262.302 354.315 260.296 353.532 257.777 353.532C256.055 353.532 254.525 353.902 253.188 354.642C251.85 355.382 250.79 356.449 250.008 357.844C249.239 359.224 248.855 360.868 248.855 362.775ZM288.38 383.949C285.691 383.949 283.336 383.237 281.315 381.814C279.294 380.391 277.715 378.406 276.576 375.859C275.452 373.312 274.89 370.345 274.89 366.958C274.89 363.586 275.452 360.633 276.576 358.1C277.715 355.553 279.301 353.575 281.336 352.166C283.371 350.743 285.74 350.032 288.444 350.032C290.436 350.032 292.094 350.388 293.417 351.099C294.741 351.796 295.801 352.664 296.598 353.703C297.395 354.742 298.014 355.752 298.455 356.734H298.796V339.552H302.617V383.266H298.903V377.182H298.455C298.014 378.178 297.388 379.203 296.576 380.256C295.765 381.295 294.691 382.17 293.353 382.881C292.03 383.593 290.372 383.949 288.38 383.949ZM288.828 380.469C290.949 380.469 292.756 379.893 294.25 378.741C295.744 377.574 296.882 375.973 297.665 373.938C298.462 371.889 298.86 369.541 298.86 366.894C298.86 364.276 298.469 361.964 297.686 359.957C296.904 357.937 295.765 356.357 294.271 355.219C292.777 354.066 290.963 353.49 288.828 353.49C286.637 353.49 284.787 354.087 283.279 355.283C281.785 356.464 280.646 358.065 279.864 360.085C279.095 362.106 278.711 364.376 278.711 366.894C278.711 369.441 279.102 371.739 279.885 373.789C280.667 375.838 281.806 377.467 283.3 378.677C284.808 379.872 286.651 380.469 288.828 380.469Z" fill="#424242"/>
<defs>
<filter id="filter0_d_188_2" x="1045.25" y="647.211" width="368.144" height="368.144" filterUnits="userSpaceOnUse" color-interpolation-filters="sRGB">
<feFlood flood-opacity="0" result="BackgroundImageFix"/>
<feColorMatrix in="SourceAlpha" type="matrix" values="0 0 0 0 0 0 0 0 0 0 0 0 0 0 0 0 0 0 127 0" result="hardAlpha"/>
<feMorphology radius="43.2772" operator="dilate" in="SourceAlpha" result="effect1_dropShadow_188_2"/>
<feOffset/>
<feGaussianBlur stdDeviation="60.2996"/>
<feComposite in2="hardAlpha" operator="out"/>
<feColorMatrix type="matrix" values="0 0 0 0 0.657805 0 0 0 0 0.794683 0 0 0 0 1 0 0 0 1 0"/>
<feBlend mode="normal" in2="BackgroundImageFix" result="effect1_dropShadow_188_2"/>
<feBlend mode="normal" in="SourceGraphic" in2="effect1_dropShadow_188_2" result="shape"/>
</filter>
<filter id="filter1_d_188_2" x="687.502" y="606.818" width="368.144" height="368.144" filterUnits="userSpaceOnUse" color-interpolation-filters="sRGB">
<feFlood flood-opacity="0" result="BackgroundImageFix"/>
<feColorMatrix in="SourceAlpha" type="matrix" values="0 0 0 0 0 0 0 0 0 0 0 0 0 0 0 0 0 0 127 0" result="hardAlpha"/>
<feMorphology radius="43.2772" operator="dilate" in="SourceAlpha" result="effect1_dropShadow_188_2"/>
<feOffset/>
<feGaussianBlur stdDeviation="60.2996"/>
<feComposite in2="hardAlpha" operator="out"/>
<feColorMatrix type="matrix" values="0 0 0 0 0.657805 0 0 0 0 0.794683 0 0 0 0 1 0 0 0 1 0"/>
<feBlend mode="normal" in2="BackgroundImageFix" result="effect1_dropShadow_188_2"/>
<feBlend mode="normal" in="SourceGraphic" in2="effect1_dropShadow_188_2" result="shape"/>
</filter>
<filter id="filter2_d_188_2" x="243.188" y="401.972" width="368.144" height="368.144" filterUnits="userSpaceOnUse" color-interpolation-filters="sRGB">
<feFlood flood-opacity="0" result="BackgroundImageFix"/>
<feColorMatrix in="SourceAlpha" type="matrix" values="0 0 0 0 0 0 0 0 0 0 0 0 0 0 0 0 0 0 127 0" result="hardAlpha"/>
<feMorphology radius="43.2772" operator="dilate" in="SourceAlpha" result="effect1_dropShadow_188_2"/>
<feOffset/>
<feGaussianBlur stdDeviation="60.2996"/>
<feComposite in2="hardAlpha" operator="out"/>
<feColorMatrix type="matrix" values="0 0 0 0 0.657805 0 0 0 0 0.794683 0 0 0 0 1 0 0 0 1 0"/>
<feBlend mode="normal" in2="BackgroundImageFix" result="effect1_dropShadow_188_2"/>
<feBlend mode="normal" in="SourceGraphic" in2="effect1_dropShadow_188_2" result="shape"/>
</filter>
<filter id="filter3_d_188_2" x="321.086" y="188.472" width="368.144" height="368.144" filterUnits="userSpaceOnUse" color-interpolation-filters="sRGB">
<feFlood flood-opacity="0" result="BackgroundImageFix"/>
<feColorMatrix in="SourceAlpha" type="matrix" values="0 0 0 0 0 0 0 0 0 0 0 0 0 0 0 0 0 0 127 0" result="hardAlpha"/>
<feMorphology radius="43.2772" operator="dilate" in="SourceAlpha" result="effect1_dropShadow_188_2"/>
<feOffset/>
<feGaussianBlur stdDeviation="60.2996"/>
<feComposite in2="hardAlpha" operator="out"/>
<feColorMatrix type="matrix" values="0 0 0 0 0.657805 0 0 0 0 0.794683 0 0 0 0 1 0 0 0 1 0"/>
<feBlend mode="normal" in2="BackgroundImageFix" result="effect1_dropShadow_188_2"/>
<feBlend mode="normal" in="SourceGraphic" in2="effect1_dropShadow_188_2" result="shape"/>
</filter>
<filter id="filter4_d_188_2" x="1405.9" y="915.529" width="368.144" height="368.144" filterUnits="userSpaceOnUse" color-interpolation-filters="sRGB">
<feFlood flood-opacity="0" result="BackgroundImageFix"/>
<feColorMatrix in="SourceAlpha" type="matrix" values="0 0 0 0 0 0 0 0 0 0 0 0 0 0 0 0 0 0 127 0" result="hardAlpha"/>
<feMorphology radius="43.2772" operator="dilate" in="SourceAlpha" result="effect1_dropShadow_188_2"/>
<feOffset/>
<feGaussianBlur stdDeviation="60.2996"/>
<feComposite in2="hardAlpha" operator="out"/>
<feColorMatrix type="matrix" values="0 0 0 0 0.657805 0 0 0 0 0.794683 0 0 0 0 1 0 0 0 1 0"/>
<feBlend mode="normal" in2="BackgroundImageFix" result="effect1_dropShadow_188_2"/>
<feBlend mode="normal" in="SourceGraphic" in2="effect1_dropShadow_188_2" result="shape"/>
</filter>
</defs>
</svg>
